<svg id="Layer_1" data-name="Layer 1" xmlns="http://www.w3.org/2000/svg" viewBox="0 0 1700 750"><defs><style>.cls-1{fill:#ebebeb;}.cls-2{fill:#fafafa;}.cls-3{fill:#e0e0e0;}.cls-4{fill:#f5f5f5;}.cls-5{fill:#263238;}.cls-6{fill:#ff5571;}.cls-7{fill:#fff;}.cls-8{fill:#455a64;}.cls-9{opacity:0.3;}.cls-10{fill:#ff725e;}.cls-11{opacity:0.2;}.cls-12{fill:#b5e55a;}.cls-13{fill:#ffdd98;}.cls-14{fill:#95a6e5;}.cls-15{fill:#ffbe9d;}.cls-16{fill:#eb996e;}</style></defs><title>1</title><rect class="cls-1" x="1221.02" y="41.65" width="270.96" height="486.74"/><rect class="cls-2" x="1231.85" y="55.76" width="246.51" height="458.13"/><polygon class="cls-3" points="1503.44 532.77 1491.97 528.39 1491.97 33.38 1503.44 33.38 1503.44 532.77"/><path class="cls-4" d="M1292.27,351.65l64-59.54c8.12-7.54,18.72-15.66,29.16-11.94,5,1.79,8.78,6.07,13.71,8.12,9.82,4.09,21.05-1.82,28.61-9.33s13.51-16.87,22.67-22.31,23.39-4.75,27.9,5v64.75l-93,39.84Z"/><path class="cls-3" d="M1231.85,314.46c23.58-9.61,47.12-1.44,64,17.63,3.56,4,6.8,8.65,11.68,10.87,6.62,3,14.26.76,21.5,0a54,54,0,0,1,50.77,24.63L1301,406.23l-69.17-.5Z"/><path class="cls-1" d="M1478.35,314.79c-15.53-7.51-29.21,1.57-43.55,11.18s-27.65,21.91-44.46,25.78c-11.23,2.58-23.27,1.16-34.14,5-22.13,7.87-34.91,36-58.37,37.31-12.73.73-24.16-7-35.53-12.78S1242,370,1231.87,377.7V513.82H1478.3Z"/><rect class="cls-3" x="1231.85" y="187.56" width="251.85" height="4.88"/><rect class="cls-3" x="1231.85" y="296.65" width="251.85" height="4.88"/><rect class="cls-3" x="1231.85" y="405.75" width="251.85" height="4.88"/><rect class="cls-3" x="1348.86" y="189.99" width="12.45" height="336.9"/><rect class="cls-3" x="1279.32" y="55.76" width="5.64" height="134.23"/><rect class="cls-3" x="1327.98" y="55.76" width="5.64" height="134.23"/><rect class="cls-3" x="1376.63" y="55.76" width="5.64" height="134.23"/><rect class="cls-3" x="1425.29" y="55.76" width="5.64" height="134.23"/><rect class="cls-3" x="1209.56" y="33.38" width="11.46" height="498.02"/><rect class="cls-3" x="1209.56" y="28.37" width="293.88" height="13.28"/><rect class="cls-3" x="1201.42" y="534.41" width="309.76" height="12.37"/><polygon class="cls-1" points="1491.97 528.39 1511.19 534.41 1201.42 534.41 1221.02 528.39 1491.97 528.39"/><path class="cls-1" d="M301.83,99.72a16.11,16.11,0,0,1-.43-3.79,29.54,29.54,0,0,0-.51-4.55,42.7,42.7,0,0,0-1.14-6.1,57.31,57.31,0,0,0-6.35-15.73,58.43,58.43,0,0,0-69.46-26.26,54.36,54.36,0,0,0-14.88,7.57,63,63,0,0,0-6.62,5.44,67.18,67.18,0,0,0-5.84,6.62,57.89,57.89,0,0,0-1.65,68.5,65.81,65.81,0,0,0,5.51,6.86,68,68,0,0,0,6.27,5.81,54.43,54.43,0,0,0,14.47,8.27,58.73,58.73,0,0,0,70.72-22.92A57.62,57.62,0,0,0,299,114a43.63,43.63,0,0,0,1.49-6,31,31,0,0,0,.73-4.52,17.4,17.4,0,0,1,.61-3.77,16.17,16.17,0,0,1,0,3.82,27.44,27.44,0,0,1-.43,4.63,40.93,40.93,0,0,1-1.17,6.15,55.62,55.62,0,0,1-6.78,16A60.21,60.21,0,0,1,220.12,155a57.37,57.37,0,0,1-15.28-8.63,68.7,68.7,0,0,1-6.81-6,71,71,0,0,1-5.84-7.23,60.73,60.73,0,0,1,1.72-72.18A68.57,68.57,0,0,1,200.07,54a67.81,67.81,0,0,1,7.06-5.71,57.29,57.29,0,0,1,15.7-7.87A60.63,60.63,0,0,1,295,68.66a55.75,55.75,0,0,1,6,16.34,41.88,41.88,0,0,1,.93,6.28,27.69,27.69,0,0,1,.2,4.63A16.67,16.67,0,0,1,301.83,99.72Z"/><path class="cls-1" d="M289.93,62.5c.12.18-1,1.12-3,2.66l-3.84,2.75c-.76.53-1.55,1.11-2.43,1.65l-2.94,1.54a67.18,67.18,0,0,1-35,8.82l-5.29-.23-5.09-.81c-.83-.13-1.65-.25-2.48-.41l-2.37-.53c-1.65-.43-3.11-.79-4.58-1.27A76.38,76.38,0,0,1,208,69.81C200,65,196.1,60.6,196.4,60.32s4.66,3.31,12.7,7.48a88.6,88.6,0,0,0,14.64,6c1.42.41,2.91.73,4.42,1.11l2.28.58,2.37.35,4.86.73,5,.2A72.57,72.57,0,0,0,276.6,69l3-1.27c.91-.48,1.65-1,2.51-1.42l4.07-2.23C288.47,62.9,289.83,62.32,289.93,62.5Z"/><path class="cls-1" d="M194.63,134.93c-.13-.18.94-1.11,3-2.66l3.84-2.75c.76-.51,1.55-1.11,2.43-1.65l2.94-1.52a67.06,67.06,0,0,1,35-8.83l5.31.23,5.08.79c.83.13,1.65.25,2.48.41l2.37.63c1.57.43,3.11.81,4.58,1.27a75.91,75.91,0,0,1,14.88,6.85c8,4.83,11.87,9.21,11.58,9.49s-4.66-3.31-12.7-7.48a90.43,90.43,0,0,0-14.62-6c-1.44-.41-2.93-.73-4.43-1.11l-2.28-.56-2.32-.36-5-.76-5-.22a72.57,72.57,0,0,0-33.92,7.62l-3,1.29c-.91.46-1.65,1-2.51,1.41l-4.13,2.3C196.08,134.53,194.76,135.11,194.63,134.93Z"/><path class="cls-1" d="M301.8,101.09c0,.91-26.71,1-59.54.2s-59.54-2.18-59.54-3.09,26.71-1,59.54-.18S301.82,100.19,301.8,101.09Z"/><path class="cls-1" d="M239.5,157.77c-.91,0-1-26.69-.18-59.54s2.17-59.54,3.08-59.54,1,26.69.2,59.54S240.41,157.8,239.5,157.77Z"/><path class="cls-1" d="M239.5,157.68c-.22.35-6.78-4.1-14.36-14.17a80.58,80.58,0,0,1-10.65-19.27,72.13,72.13,0,0,1-4.6-26.69,68.32,68.32,0,0,1,6-26.46,83,83,0,0,1,11.58-18.74c8-9.69,14.64-14,14.88-13.64s-5.67,5.26-13,15.07a89.11,89.11,0,0,0-10.62,18.49,68.54,68.54,0,0,0-5.51,25.29,72.11,72.11,0,0,0,4.17,25.59,86,86,0,0,0,9.61,19C233.93,152.36,239.83,157.32,239.5,157.68Z"/><path class="cls-1" d="M243.73,38.72c.22-.35,6.78,4.1,14.36,14.17a80.91,80.91,0,0,1,10.65,19.33,72.13,72.13,0,0,1,4.55,26.69,68.32,68.32,0,0,1-6,26.46,83,83,0,0,1-11.58,18.74c-8,9.69-14.64,14-14.88,13.64s5.67-5.24,13-15.07a89.11,89.11,0,0,0,10.68-18.51A68.54,68.54,0,0,0,270,98.9a72.11,72.11,0,0,0-4.17-25.59,86,86,0,0,0-9.69-19C249.31,44.08,243.4,39.08,243.73,38.72Z"/><g id="freepik--Desk--inject-110"><path class="cls-5" d="M1237.31,738.23c0,.23-169.46.43-378.44.43s-378.47-.2-378.47-.43,169.42-.43,378.47-.43S1237.31,738,1237.31,738.23Z"/></g><polygon class="cls-6" points="494.28 656.15 506.13 738.7 549.25 738.7 560.1 656.15 494.28 656.15"/><path class="cls-6" d="M489.53,656.15c.22-5.54,1.49-10.5,5.72-13.76H560.1c3.56,2.7,4.63,7.91,5.11,13.76Z"/><polygon class="cls-6" points="499.42 642.39 504.89 634.34 549.83 634.34 554.61 642.39 499.42 642.39"/><path class="cls-5" d="M559.89,642.11c0,.23-13.93.43-31.11.43s-31.11-.2-31.11-.43,13.93-.43,31.11-.43S559.89,641.88,559.89,642.11Z"/><path class="cls-5" d="M565.21,656.15c0,.23-16.79.43-37.49.43s-37.51-.2-37.51-.43,16.79-.43,37.51-.43S565.21,656,565.21,656.15Z"/><polygon class="cls-5" points="496.96 674.79 557.65 674.79 554.1 701.83 500.84 701.83 496.96 674.79"/><path class="cls-5" d="M525,546.15a2.68,2.68,0,0,1,.89.28,5.28,5.28,0,0,1,2,1.8,7.69,7.69,0,0,1,1.17,4.05,10.6,10.6,0,0,1-1.65,5.34,54.33,54.33,0,0,1-3.89,5.46,14.89,14.89,0,0,0-3.13,6.7,11.41,11.41,0,0,0,2.33,7.66c1.65,2.4,3.69,4.61,5.57,7.13a22.31,22.31,0,0,1,2.45,4,11.84,11.84,0,0,1,1,4.53,13.46,13.46,0,0,1-3.11,8c-1.65,2.18-3.54,4-5.14,5.72a21.25,21.25,0,0,0-3.77,5.34,9.28,9.28,0,0,0-.83,5.23,7.81,7.81,0,0,0,1.44,3.74,6.78,6.78,0,0,0,2.73,2.08h-.23a2.27,2.27,0,0,1-.66-.22,5.39,5.39,0,0,1-2.1-1.65,8.27,8.27,0,0,1-1.65-3.89,9.51,9.51,0,0,1,.76-5.52,20.89,20.89,0,0,1,3.84-5.61,60.12,60.12,0,0,0,5-5.72,12.67,12.67,0,0,0,3-7.51,11,11,0,0,0-1-4.17,21.37,21.37,0,0,0-2.37-3.85c-1.84-2.46-3.92-4.7-5.59-7.18a12.14,12.14,0,0,1-2.4-8.27,15.17,15.17,0,0,1,3.31-7,62.75,62.75,0,0,0,3.92-5.34,10.29,10.29,0,0,0,1.65-5,7.31,7.31,0,0,0-1-3.87A5.84,5.84,0,0,0,525,546.15Z"/><path class="cls-5" d="M535.9,546.15a2.68,2.68,0,0,1,.89.28,5.28,5.28,0,0,1,2,1.8,7.69,7.69,0,0,1,1.17,4.05,10.77,10.77,0,0,1-1.65,5.34,54.33,54.33,0,0,1-3.89,5.46,14.89,14.89,0,0,0-3.13,6.7,11.58,11.58,0,0,0,2.32,7.66c1.65,2.4,3.7,4.61,5.59,7.13a22.31,22.31,0,0,1,2.51,4,11.84,11.84,0,0,1,1,4.5,13.46,13.46,0,0,1-3.11,8c-1.65,2.18-3.54,4-5.14,5.72a21.25,21.25,0,0,0-3.77,5.34,9.28,9.28,0,0,0-.83,5.23,7.81,7.81,0,0,0,1.44,3.74,6.78,6.78,0,0,0,2.73,2.08h-.23a2.27,2.27,0,0,1-.66-.22,5.39,5.39,0,0,1-2.1-1.65,8.27,8.27,0,0,1-1.65-3.89,9.51,9.51,0,0,1,.76-5.52,20.89,20.89,0,0,1,3.75-5.57,60.12,60.12,0,0,0,5-5.72,12.67,12.67,0,0,0,3-7.51,11.28,11.28,0,0,0-1-4.17,22.34,22.34,0,0,0-2.37-3.85c-1.84-2.46-3.92-4.7-5.59-7.18a12.14,12.14,0,0,1-2.4-8.27,15.31,15.31,0,0,1,3.31-7,59.74,59.74,0,0,0,3.94-5.34,10.29,10.29,0,0,0,1.65-5,7.31,7.31,0,0,0-1-3.87A5.84,5.84,0,0,0,535.9,546.15Z"/><rect class="cls-7" x="299.64" y="108.4" width="316.98" height="417.67"/><path class="cls-5" d="M616.62,526.07c0-3.42-.15-170.12-.38-417.67l.38.4-316.87,0h0l.43-.45V526.07l-.35-.35,317,.35-317,.36h-.36V108H617.1v.38C616.79,356,616.64,522.67,616.62,526.07Z"/><path class="cls-5" d="M616.62,138.92c0,.15-71,.26-158.47.26s-158.51-.12-158.51-.26,71-.25,158.51-.25S616.62,138.78,616.62,138.92Z"/><path class="cls-8" d="M519.49,124.64c0,.15-24.21.26-54.07.26s-54.08-.12-54.08-.26,24.21-.25,54.08-.25S519.49,124.51,519.49,124.64Z"/><path class="cls-3" d="M339.25,124.64a3.51,3.51,0,1,1-3.51-3.51,3.51,3.51,0,0,1,3.51,3.51Z"/><path class="cls-8" d="M420.22,181.6H413l-1.39,3.31h-3.7l7-15.65h3.57l7,15.68h-3.8Zm-1.14-2.76-2.48-6-2.48,6Z"/><path class="cls-8" d="M437,184.94l-3-4.35h-3.31v4.35H427.1V169.3h6.78c4.17,0,6.8,2.17,6.8,5.69a5.08,5.08,0,0,1-3.23,5l3.51,5Zm-3.39-12.69h-3v5.44h3c2.2,0,3.31-1,3.31-2.71s-1.12-2.73-3.32-2.73Z"/><path class="cls-8" d="M446.49,172.26h-5v-3h13.63v3h-5v12.69h-3.62Z"/><path class="cls-8" d="M457.06,169.3h3.62v15.65h-3.62Z"/><path class="cls-8" d="M463.49,177.12a8.6,8.6,0,0,1,14.88-5.31l-2.32,2.13a5,5,0,0,0-3.94-1.82,5,5,0,1,0,3.94,8.07l2.32,2.15A8.6,8.6,0,0,1,463.49,177Z"/><path class="cls-8" d="M480.76,169.3h3.62V182h7.86v2.94H480.76Z"/><path class="cls-8" d="M506.37,182v2.89H494.25V169.3h11.83v2.91h-8.27v3.31h7.26v2.83h-7.26V182Z"/><path class="cls-5" d="M400.13,178.53c0,.13-16.77.25-37.46.25s-37.48-.12-37.48-.25,16.77-.26,37.48-.26S400.13,178.38,400.13,178.53Z"/><path class="cls-5" d="M599.42,178.53c0,.13-17.61.25-39.35.25s-39.35-.12-39.35-.25,17.61-.26,39.35-.26S599.42,178.38,599.42,178.53Z"/><rect class="cls-8" x="509.2" y="431.54" width="76.01" height="73.55"/><g class="cls-9"><polygon points="515.09 498.8 536.13 460.94 553.33 485.14 563.78 472.29 579.33 498.8 515.09 498.8"/></g><g class="cls-9"><path d="M559.18,449.58c4.47,5.85-2.15,12.47-8,8C546.71,451.73,553.33,445.12,559.18,449.58Z"/></g><g class="cls-9"><path d="M579.26,499a2,2,0,0,1,0-.3v-4.17c0-2.91,0-7.13-.08-12.49,0-10.75-.1-26-.17-44.41l.31.3H515.11a4,4,0,0,1,.35-.36h0v61.38l-.31-.31,46.44.17,13.1.08h0l-13,.08-46.66.15h-.3V437.66h0c-.31.31.45-.45.38-.36h64.53v.36c0,18.44-.13,33.81-.17,44.65v16.56Z"/></g><path class="cls-5" d="M398.82,206.38c0,.25-16.62.43-37.11.43s-37.15-.18-37.15-.43,16.54-.43,37.13-.43S398.82,206.11,398.82,206.38Z"/><path class="cls-5" d="M456.1,224.21c0,.23-29.46.43-65.76.43s-65.77-.2-65.77-.43,29.44-.43,65.76-.43S456.1,224,456.1,224.21Z"/><path class="cls-5" d="M501,222.9c0,.23-8,.43-17.81.43s-17.81-.2-17.81-.43,8-.43,17.81-.43S501,222.65,501,222.9Z"/><path class="cls-5" d="M588.23,222.14c0,.23-16.46.43-36.77.43s-36.77-.2-36.77-.43,16.46-.43,36.77-.43S588.23,221.91,588.23,222.14Z"/><path class="cls-5" d="M587.53,237.3c0,.23-59.06.43-131.9.43s-131.91-.2-131.91-.43,59-.43,131.91-.43S587.53,237.06,587.53,237.3Z"/><path class="cls-5" d="M446.47,253.22c0,.25-27.34.43-61,.43s-61-.18-61-.43,27.32-.43,61-.43S446.47,253,446.47,253.22Z"/><path class="cls-5" d="M491.19,253.22a158.61,158.61,0,0,1-16.67.43,158.77,158.77,0,0,1-16.69-.43,164.4,164.4,0,0,1,16.69-.43A164.2,164.2,0,0,1,491.19,253.22Z"/><path class="cls-5" d="M587.53,251.71c0,.23-19.17.43-42.82.43s-42.84-.2-42.84-.43,19.17-.43,42.84-.43S587.53,251.46,587.53,251.71Z"/><path class="cls-5" d="M454.43,389.69c0,.25-29.44.43-65.74.43s-65.77-.25-65.77-.43,29.44-.43,65.76-.43S454.43,389.4,454.43,389.69Z"/><path class="cls-5" d="M499.38,388.34c0,.23-8,.43-17.81.43s-17.81-.2-17.81-.43,8-.43,17.81-.43S499.38,388,499.38,388.34Z"/><path class="cls-5" d="M586.57,387.58c0,.23-16.54.43-36.77.43s-36.77-.2-36.77-.43,16.46-.43,36.77-.43S586.57,387.33,586.57,387.58Z"/><path class="cls-5" d="M585.88,402.74c0,.23-59.06.43-131.9.43s-131.91-.2-131.91-.43,59-.45,131.91-.45S585.88,402.49,585.88,402.74Z"/><path class="cls-5" d="M444.8,418.65c0,.25-27.32.43-61,.43s-61-.18-61-.43,27.32-.43,61-.43S444.8,418.42,444.8,418.65Z"/><path class="cls-5" d="M489.54,418.65a158.76,158.76,0,0,1-16.69.43,158.37,158.37,0,0,1-16.67-.43,163.93,163.93,0,0,1,16.67-.43A164.4,164.4,0,0,1,489.54,418.65Z"/><path class="cls-5" d="M585.88,417.13c0,.25-19.19.43-42.84.43s-42.84-.18-42.84-.43,19.19-.43,42.84-.43S585.88,416.9,585.88,417.13Z"/><path class="cls-5" d="M491.19,436.12c0,.25-37.28.43-83.26.43s-83.26-.18-83.26-.43,37.26-.43,83.26-.43S491.19,435.89,491.19,436.12Z"/><path class="cls-5" d="M489.54,453.58c0,.25-37.21.43-83.09.43s-83.07-.18-83.07-.43,37.18-.43,83.07-.43S489.54,453.35,489.54,453.58Z"/><rect class="cls-10" x="323.47" y="270.07" width="161.45" height="103.09"/><path class="cls-5" d="M478,364.89v-6.3c0-4.09,0-10.06-.08-17.71,0-15.31-.1-37.34-.18-64.34l.35.33-146.32.1h0l.43-.43v88.3l-.4-.4,105.22.2,30.22.1h.18l-30.13.1-105.48.2h-.4V276.15h.43l146.32.1h.33v.33c-.08,27.09-.13,49.19-.18,64.5,0,7.62,0,13.56-.08,17.63v4.58A4.62,4.62,0,0,1,478,364.89Z"/><g class="cls-11"><polygon points="335.63 364.95 377.95 310.41 408.53 345.34 431.95 324.27 474.52 364.95 335.63 364.95"/></g><g class="cls-11"><path d="M418,303.92a9.44,9.44,0,1,1-9.44-9.44,9.44,9.44,0,0,1,9.44,9.44Z"/></g><path class="cls-5" d="M587.53,269.18c0,.23-20.26.43-45.25.43s-45.27-.2-45.27-.43,20.26-.43,45.27-.43S587.53,269,587.53,269.18Z"/><path class="cls-5" d="M587.53,285.22c0,.23-20.26.43-45.25.43s-45.27-.2-45.27-.43,20.26-.43,45.27-.43S587.53,285,587.53,285.22Z"/><path class="cls-5" d="M584.22,355c0,.23-20.26.43-45.25.43s-45.27-.2-45.27-.43,20.26-.43,45.27-.43S584.22,354.8,584.22,355Z"/><path class="cls-5" d="M584.22,373.15c0,.23-20.26.43-45.25.43s-45.27-.2-45.27-.43,20.26-.43,45.27-.43S584.22,372.91,584.22,373.15Z"/><path class="cls-5" d="M557.91,301.26c0,.23-13.64.43-30.48.43s-30.48-.2-30.48-.43,13.64-.43,30.48-.43S557.91,301,557.91,301.26Z"/><path class="cls-5" d="M588.14,301.08a150.77,150.77,0,0,1-22.76,0,74,74,0,0,1,11.38-.43A74,74,0,0,1,588.14,301.08Z"/><path class="cls-5" d="M588.14,318.86c0,.23-13.58.43-30.35.43s-30.37-.2-30.37-.43,13.59-.43,30.37-.43S588.14,318.58,588.14,318.86Z"/><path class="cls-5" d="M557.91,336.77c0,.25-13.64.43-30.48.43s-30.48-.18-30.48-.43,13.64-.43,30.48-.43S557.91,336.59,557.91,336.77Z"/><path class="cls-5" d="M588.14,336.64a150.77,150.77,0,0,1-22.76,0,150.77,150.77,0,0,1,22.76,0Z"/><path class="cls-5" d="M515.39,318.44a82,82,0,0,1-16.77,0,82,82,0,0,1,16.77,0Z"/><path class="cls-5" d="M491.19,470.73c0,.25-37.58.45-83.9.45s-83.92-.2-83.92-.45,37.56-.43,83.92-.43S491.19,470.45,491.19,470.73Z"/><path class="cls-5" d="M493.72,490.05c0,.23-37.58.43-83.92.43s-83.92-.2-83.92-.43,37.56-.43,83.92-.43S493.72,489.8,493.72,490.05Z"/><rect class="cls-7" x="283.25" y="97.52" width="316.98" height="417.67"/><path class="cls-5" d="M600.25,515.19c0-3.42-.17-170.12-.4-417.67l.4.38H283.3l.43-.43V515.14l-.36-.36,317,.36-317.15.4h-.35v-.35c0-118.19,0-262.29-.08-417.67v-.43H600.6v.4C600.4,345,600.25,511.77,600.25,515.19Z"/><path class="cls-5" d="M600.25,128c0,.13-71,.25-158.49.25s-158.54-.12-158.54-.25,71-.25,158.51-.25S600.25,127.88,600.25,128Z"/><path class="cls-8" d="M503.18,113.76c0,.13-24.2.25-54.07.25s-54.07-.12-54.07-.25,24.11-.26,54-.26S503.18,113.61,503.18,113.76Z"/><path class="cls-3" d="M311,113.76a3.51,3.51,0,1,1,0-.07S311,113.74,311,113.76Z"/><path class="cls-3" d="M322.91,113.76a3.49,3.49,0,1,1,0-.13S322.91,113.72,322.91,113.76Z"/><path class="cls-8" d="M403.85,170.7h-7.26L395.2,174h-3.72l7-15.65H402L409,174h-3.79ZM402.71,168l-2.48-6-2.48,6Z"/><path class="cls-8" d="M420.62,174.06l-3-4.33H414.3v4.37h-3.62V158.45h6.76c4.18,0,6.8,2.17,6.8,5.67a5.09,5.09,0,0,1-3.23,5l3.52,5Zm-3.44-12.7h-2.94v5.46h2.94c2.22,0,3.31-1,3.31-2.73S419.45,161.36,417.18,161.36Z"/><path class="cls-8" d="M430.1,161.36h-5v-2.94h13.55v2.94h-5v12.7H430.1Z"/><path class="cls-8" d="M440.67,158.41h3.62v15.65h-3.62Z"/><path class="cls-8" d="M447,166.24a8.62,8.62,0,0,1,14.88-5.33l-2.33,2.15a5,5,0,1,0,0,6.24l2.33,2.15A8.6,8.6,0,0,1,447,166.15Z"/><path class="cls-8" d="M464.38,158.41H468V171.1h7.84v3H464.38Z"/><path class="cls-8" d="M490,171.15v2.91H477.88V158.41H489.7v2.89h-8.27v3.46h7.26v2.81h-7.26v3.62Z"/><path class="cls-5" d="M383.76,167.63c0,.15-16.79.26-37.48.26s-37.48-.12-37.48-.26,16.77-.25,37.48-.25S383.76,167.49,383.76,167.63Z"/><path class="cls-5" d="M583,167.63c0,.15-17.61.26-39.33.26s-39.36-.12-39.36-.26,17.61-.25,39.36-.25S583,167.49,583,167.63Z"/><rect class="cls-8" x="492.81" y="420.65" width="76.01" height="73.55"/><g class="cls-9"><polygon points="498.72 487.9 519.74 450.06 536.94 474.26 547.39 461.41 562.94 487.9 498.72 487.9"/></g><g class="cls-9"><path d="M542.88,438.68c4.47,5.87-2.17,12.49-8,8C530.34,440.85,537,434.23,542.88,438.68Z"/></g><g class="cls-9"><path d="M562.94,488.12v-4.47c0-2.91,0-7.13-.08-12.49,0-10.73,0-26-.15-44.41l.3.31H498.78c-.08.08.68-.68.36-.35h0v61.44l-.31-.31,46.44.15h13.23l-13,.08-46.64.17h-.31V426.54h0c-.33.31.43-.46.36-.38h64.53v.31c0,18.46-.12,33.82-.15,44.65v16.56C563.27,487.9,563,488.12,562.94,488.12Z"/></g><path class="cls-5" d="M382.45,195.49c0,.23-16.54.43-37.13.43s-37.11-.2-37.11-.43,16.54-.43,37.11-.43S382.45,195.25,382.45,195.49Z"/><path class="cls-5" d="M439.71,213.31c0,.23-29.44.43-65.74.43s-65.76-.2-65.76-.43,29.42-.43,65.76-.43S439.71,213.08,439.71,213.31Z"/><path class="cls-5" d="M484.66,212c0,.25-8,.43-17.81.43S449,212.25,449,212s8-.43,17.81-.43S484.66,211.77,484.66,212Z"/><path class="cls-5" d="M571.85,211.24c0,.25-16.54.45-36.77.45s-36.77-.2-36.77-.45,16.46-.43,36.77-.43S571.85,211.07,571.85,211.24Z"/><path class="cls-5" d="M571.09,226.41c0,.25-59.06.43-131.9.43s-131.93-.18-131.93-.43,59.06-.43,131.93-.43S571.09,226.17,571.09,226.41Z"/><path class="cls-5" d="M430.08,242.33c0,.23-27.32.43-61,.43s-61-.26-61-.43,27.32-.43,61-.43S430.08,242.08,430.08,242.33Z"/><path class="cls-5" d="M474.82,242.33a164.4,164.4,0,0,1-16.69.43,163.93,163.93,0,0,1-16.67-.43,158.36,158.36,0,0,1,16.67-.43A158.77,158.77,0,0,1,474.82,242.33Z"/><path class="cls-5" d="M571.09,240.84c0,.25-19.19.43-42.84.43s-42.84-.18-42.84-.43,19.19-.43,42.84-.43S571.09,240.58,571.09,240.84Z"/><path class="cls-5" d="M438.05,378.74c0,.23-29.44.43-65.76.43s-65.76-.2-65.76-.43,29.44-.43,65.76-.43S438.05,378.5,438.05,378.74Z"/><path class="cls-5" d="M483,377.44c0,.23-8,.43-17.81.43s-17.81-.2-17.81-.43,8-.43,17.81-.43S483,377.21,483,377.44Z"/><path class="cls-5" d="M570.18,376.68c0,.25-16.46.43-36.77.43s-36.77-.18-36.77-.43,16.46-.43,36.77-.43S570.18,376.46,570.18,376.68Z"/><path class="cls-5" d="M569.42,391.84c0,.23-59.06.43-131.9.43s-131.91-.2-131.91-.43,59-.43,131.91-.43S569.42,391.61,569.42,391.84Z"/><path class="cls-5" d="M428.43,407.77c0,.23-27.32.43-61,.43s-61-.2-61-.43,27.32-.43,61-.43S428.43,407.52,428.43,407.77Z"/><path class="cls-5" d="M473.15,407.77a163.93,163.93,0,0,1-16.67.43,164.4,164.4,0,0,1-16.69-.43,158.76,158.76,0,0,1,16.69-.43A158.37,158.37,0,0,1,473.15,407.77Z"/><path class="cls-5" d="M569.42,406.23c0,.23-19.17.43-42.82.43s-42.84-.2-42.84-.43,19.17-.43,42.84-.43S569.42,406,569.42,406.23Z"/><path class="cls-5" d="M474.82,425.24c0,.23-37.28.43-83.26.43s-83.26-.2-83.26-.43,37.26-.43,83.26-.43S474.82,425,474.82,425.24Z"/><path class="cls-5" d="M473.15,442.7c0,.23-37.2.43-83.07.43s-83.09-.2-83.09-.43,37.2-.43,83.09-.43S473.15,442.45,473.15,442.7Z"/><rect class="cls-10" x="307.1" y="259.19" width="161.45" height="103.09"/><path class="cls-5" d="M461.6,354.07v-24c0-15.31-.12-37.34-.18-64.34l.33.33-146.3.1h0l.43-.43V354l-.4-.41,105.24.2,30.22.12h.17l-30.12.12-105.5.2h-.4V265.12h.45l146.3.08h.35v.35c0,27.07-.13,49.17-.17,64.5,0,7.62,0,13.56-.08,17.63v4.58A4.85,4.85,0,0,1,461.6,354.07Z"/><g class="cls-11"><polygon points="319.24 354.07 361.58 299.52 392.16 334.45 415.56 313.38 458.13 354.07 319.24 354.07"/></g><g class="cls-11"><path d="M401.62,293a9.44,9.44,0,1,1-9.46-9.43h0A9.44,9.44,0,0,1,401.62,293Z"/></g><path class="cls-5" d="M571.09,258.28c0,.25-20.26.43-45.27.43s-45.25-.18-45.25-.43,20.26-.43,45.25-.43S571.09,258,571.09,258.28Z"/><path class="cls-5" d="M571.09,274.32c0,.25-20.26.43-45.27.43s-45.25-.18-45.25-.43,20.26-.43,45.25-.43S571.09,274.09,571.09,274.32Z"/><path class="cls-5" d="M567.85,344.15c0,.25-20.28.43-45.27.43s-45.25-.18-45.25-.43,20.26-.43,45.25-.43S567.85,343.91,567.85,344.15Z"/><path class="cls-5" d="M567.85,362.26c0,.25-20.28.43-45.27.43s-45.25-.18-45.25-.43,20.26-.43,45.25-.43S567.85,362,567.85,362.26Z"/><path class="cls-5" d="M541.52,290.36c0,.25-13.64.43-30.46.43s-30.48-.18-30.48-.43,13.64-.43,30.48-.43S541.52,290.13,541.52,290.36Z"/><path class="cls-5" d="M571.77,290.18a74,74,0,0,1-11.38.43,74,74,0,0,1-11.38-.43,76.61,76.61,0,0,1,11.38-.43A76.61,76.61,0,0,1,571.77,290.18Z"/><path class="cls-5" d="M571.77,308c0,.25-13.59.43-30.37.43S511,308.21,511,308s13.59-.43,30.37-.43S571.77,307.73,571.77,308Z"/><path class="cls-5" d="M541.52,325.94c0,.23-13.64.43-30.46.43s-30.48-.2-30.48-.43,13.64-.43,30.48-.43S541.52,325.69,541.52,325.94Z"/><path class="cls-5" d="M571.77,325.75a76.61,76.61,0,0,1-11.38.43,76.61,76.61,0,0,1-11.38-.43,72.65,72.65,0,0,1,11.38-.45A72.65,72.65,0,0,1,571.77,325.75Z"/><path class="cls-5" d="M499,307.55a82,82,0,0,1-16.77,0,82,82,0,0,1,16.77,0Z"/><path class="cls-5" d="M474.82,459.8c0,.23-37.58.43-83.92.43S307,460,307,459.8s37.56-.43,83.92-.43S474.82,459.57,474.82,459.8Z"/><path class="cls-5" d="M477.33,479.15c0,.25-37.58.43-83.9.43s-83.92-.18-83.92-.43,37.56-.43,83.92-.43S477.33,479,477.33,479.15Z"/><rect class="cls-7" x="267.5" y="81.76" width="316.98" height="417.67"/><path class="cls-5" d="M584.49,499.43c0-3.42-.15-170.12-.38-417.67l.38.4H267.54l.43-.43V499.4l-.35-.35,317,.35-317,.35h-.36V81.29H585.07v.38C584.65,329.31,584.49,496,584.49,499.43Z"/><path class="cls-5" d="M584.49,112.27c0,.15-71,.26-158.49.26s-158.49-.12-158.49-.26,71-.25,158.49-.25S584.49,112.14,584.49,112.27Z"/><path class="cls-8" d="M487.36,98c0,.15-24.21.25-54.08.25s-54.13-.1-54.13-.25,24.21-.25,54.07-.25S487.36,97.87,487.36,98Z"/><circle class="cls-3" cx="279.84" cy="98" r="3.51"/><path class="cls-3" d="M295.22,98a3.51,3.51,0,1,1-3.51-3.51A3.51,3.51,0,0,1,295.22,98Z"/><path class="cls-3" d="M307.12,98a3.51,3.51,0,1,1-3.51-3.51A3.51,3.51,0,0,1,307.12,98Z"/><path class="cls-8" d="M388.09,154.94H380.8l-1.39,3.31h-3.7l7-15.65h3.59l7,15.65h-3.8Zm-1.14-2.75-2.48-6-2.48,6Z"/><path class="cls-8" d="M404.88,158.3l-3-4.37h-3.31v4.37h-3.62V142.65h6.76c4.18,0,6.8,2.17,6.8,5.67a5.09,5.09,0,0,1-3.21,5l3.51,5Zm-3.41-12.7h-2.94v5.46h2.94c2.22,0,3.31-1,3.31-2.73S403.69,145.6,401.47,145.6Z"/><path class="cls-8" d="M414.34,145.6h-5v-2.94H423v2.94h-5v12.7h-3.62Z"/><path class="cls-8" d="M424.92,142.65h3.62V158.3h-3.62Z"/><path class="cls-8" d="M431.26,150.48a8.62,8.62,0,0,1,14.88-5.33l-2.33,2.15a5,5,0,1,0,0,6.33l2.33,2.13a8.6,8.6,0,0,1-14.88-5.29Z"/><path class="cls-8" d="M448.6,142.65h3.62v12.7h7.84v2.94H448.6Z"/><path class="cls-8" d="M474.24,155.39v2.91H462.12V142.65h11.83v2.91h-8.27v3.31h7.26v2.81h-7.26v3.62Z"/><path class="cls-5" d="M368,151.88c0,.13-16.77.25-37.48.25S293,152,293,151.88s16.79-.26,37.48-.26S368,151.73,368,151.88Z"/><path class="cls-5" d="M567.29,151.88c0,.13-17.63.25-39.35.25s-39.35-.12-39.35-.25,17.61-.26,39.35-.26S567.29,151.73,567.29,151.88Z"/><rect class="cls-12" x="477.07" y="404.89" width="76.01" height="73.55"/><g class="cls-9"><polygon points="482.96 472.16 503.99 434.3 521.19 458.5 531.65 445.64 547.19 472.16 482.96 472.16"/></g><g class="cls-9"><path d="M527,422.94c4.47,5.85-2.15,12.47-8,8C514.58,425.09,521.19,418.47,527,422.94Z"/></g><g class="cls-9"><path d="M547.19,472.39a.89.89,0,0,1,0-.3V455.42c0-10.73-.1-26-.17-44.41l.31.31H483.1l.36-.35h0v61.39l-.31-.31,46.44.15,13.1.08h.07l-13,.08-46.64.17h-.31V411h0c-.31.31.45-.45.36-.38h64.55v.3c0,18.46-.13,33.82-.17,44.65v16.56C547.52,472.34,547.19,472.39,547.19,472.39Z"/></g><path class="cls-5" d="M366.69,179.73c0,.23-16.54.43-37.11.43s-37.13-.2-37.13-.43,16.54-.43,37.13-.43S366.69,179.49,366.69,179.73Z"/><path class="cls-5" d="M423.95,197.55c0,.25-29.44.43-65.74.43s-65.76-.18-65.76-.43,29.44-.43,65.76-.43S423.95,197.31,423.95,197.55Z"/><path class="cls-5" d="M468.91,196.19c0,.23-8,.43-17.81.43s-17.83-.2-17.83-.43,8-.43,17.83-.43S468.91,196,468.91,196.19Z"/><path class="cls-5" d="M556.11,195.49c0,.23-16.54.43-36.77.43s-36.77-.2-36.77-.43,16.46-.43,36.77-.43S556.11,195.25,556.11,195.49Z"/><path class="cls-5" d="M555.33,210.64c0,.25-59.06.45-131.9.45s-131.95-.2-131.95-.45,59-.43,131.91-.43S555.33,210.41,555.33,210.64Z"/><path class="cls-5" d="M414.32,226.57c0,.23-27.32.43-61,.43s-61-.2-61-.43,27.31-.43,61-.43S414.32,226.34,414.32,226.57Z"/><path class="cls-5" d="M459.06,226.57a164.4,164.4,0,0,1-16.69.43,163.93,163.93,0,0,1-16.67-.43,163.93,163.93,0,0,1,16.67-.43A164.4,164.4,0,0,1,459.06,226.57Z"/><path class="cls-5" d="M555.33,225c0,.25-19.17.43-42.84.43s-42.84-.18-42.84-.43,19.19-.43,42.84-.43S555.33,224.82,555.33,225Z"/><path class="cls-5" d="M422.29,363c0,.23-29.44.43-65.76.43s-65.74-.2-65.74-.43,29.42-.43,65.74-.43S422.29,362.75,422.29,363Z"/><path class="cls-5" d="M467.24,361.68c0,.25-8,.43-17.81.43s-17.81-.18-17.81-.43,8-.43,17.81-.43S467.24,361.45,467.24,361.68Z"/><path class="cls-5" d="M554.45,360.93c0,.23-16.54.43-36.77.43s-36.78-.2-36.78-.43,16.54-.45,36.78-.45S554.45,360.68,554.45,360.93Z"/><path class="cls-5" d="M553.68,376.08c0,.25-59.06.43-131.91.43s-131.93-.18-131.93-.43,59.06-.43,131.91-.43S553.68,375.85,553.68,376.08Z"/><path class="cls-5" d="M412.67,392c0,.23-27.32.43-61,.43s-61-.2-61-.43,27.32-.43,61-.43S412.67,391.76,412.67,392Z"/><path class="cls-5" d="M457.39,392a163.93,163.93,0,0,1-16.67.43A163.93,163.93,0,0,1,424,392a158.36,158.36,0,0,1,16.67-.43A158.36,158.36,0,0,1,457.39,392Z"/><path class="cls-5" d="M553.68,390.49c0,.25-19.19.43-42.84.43s-42.84-.18-42.84-.43,19.17-.43,42.84-.43S553.68,390.26,553.68,390.49Z"/><path class="cls-5" d="M459.06,409.54c0,.23-37.28.43-83.26.43s-83.26-.2-83.26-.43,37.26-.43,83.26-.43S459.06,409.24,459.06,409.54Z"/><path class="cls-5" d="M457.39,426.94c0,.23-37.2.43-83.07.43s-83.09-.2-83.09-.43,37.2-.43,83.09-.43S457.39,426.71,457.39,426.94Z"/><rect class="cls-13" x="291.34" y="243.42" width="161.45" height="103.09"/><path class="cls-5" d="M445.84,338.31v-24c0-15.31-.1-37.34-.18-64.34l.33.33-146.3.1h0l.43-.43v88.3l-.4-.4,105.22.18,30.22.12h.18l-30.13.1-105.48.2h-.41V249.35h.45l146.3.1h.35v.33c0,27.07-.13,49.19-.18,64.5,0,7.62,0,13.58-.08,17.65v4.58A5.31,5.31,0,0,1,445.84,338.31Z"/><g class="cls-11"><polygon points="303.49 338.31 345.82 283.76 376.4 318.69 399.8 297.62 442.37 338.31 303.49 338.31"/></g><g class="cls-11"><path d="M385.86,277.23a9.44,9.44,0,1,1-9.46-9.43h0A9.44,9.44,0,0,1,385.86,277.23Z"/></g><path class="cls-5" d="M555.33,242.5c0,.25-20.26.45-45.25.45s-45.27-.2-45.27-.45,20.26-.43,45.27-.43S555.33,242.28,555.33,242.5Z"/><path class="cls-5" d="M555.33,258.57c0,.23-20.26.43-45.25.43s-45.27-.2-45.27-.43,20.26-.43,45.27-.43S555.33,258.33,555.33,258.57Z"/><path class="cls-5" d="M552.09,328.38c0,.25-20.26.43-45.27.43s-45.25-.18-45.25-.43,20.26-.43,45.25-.43S552.09,328.15,552.09,328.38Z"/><path class="cls-5" d="M552.09,346.49c0,.25-20.26.43-45.27.43s-45.25-.18-45.25-.43,20.26-.43,45.25-.43S552.09,346.26,552.09,346.49Z"/><path class="cls-5" d="M525.76,274.62c0,.23-13.64.43-30.46.43s-30.48-.2-30.48-.43,13.64-.43,30.48-.43S525.76,274.37,525.76,274.62Z"/><path class="cls-5" d="M556,274.42a74,74,0,0,1-11.38.43,74,74,0,0,1-11.38-.43,76.61,76.61,0,0,1,11.38-.43A76.61,76.61,0,0,1,556,274.42Z"/><path class="cls-5" d="M556,292.21c0,.23-13.59.43-30.35.43s-30.37-.2-30.37-.43,13.58-.43,30.37-.43S556,292,556,292.21Z"/><path class="cls-5" d="M525.76,310.17c0,.23-13.64.43-30.46.43s-30.48-.2-30.48-.43,13.64-.43,30.48-.43S525.76,309.94,525.76,310.17Z"/><path class="cls-5" d="M556,310a76.61,76.61,0,0,1-11.38.43,76.61,76.61,0,0,1-11.38-.43,74,74,0,0,1,11.38-.43A74,74,0,0,1,556,310Z"/><path class="cls-5" d="M483.24,291.8a82,82,0,0,1-16.77,0,82,82,0,0,1,16.77,0Z"/><path class="cls-5" d="M459.06,444c0,.25-37.58.43-83.92.43s-83.92-.18-83.92-.43,37.58-.43,83.92-.43S459.06,443.81,459.06,444Z"/><path class="cls-5" d="M461.57,463.41c0,.23-37.56.43-83.9.43s-83.92-.2-83.92-.43,37.56-.45,83.92-.45S461.57,463.16,461.57,463.41Z"/><circle class="cls-1" cx="261.2" cy="299.31" r="22.15"/><path class="cls-5" d="M283.35,299.31a41.76,41.76,0,0,0-.86-5.38,21.88,21.88,0,0,0-26.68-15.68q-1,.27-2,.63a21.75,21.75,0,1,0,20.62,37.77,22.1,22.1,0,0,0,8.07-12,42.31,42.31,0,0,0,.86-5.36,11.35,11.35,0,0,1,0,1.41,11.78,11.78,0,0,1-.13,1.65,18.7,18.7,0,0,1-.41,2.32A22.42,22.42,0,1,1,243,286a21,21,0,0,1,4.76-4.76,21.5,21.5,0,0,1,5.72-3.06,22.38,22.38,0,0,1,29.31,15.73,19.27,19.27,0,0,1,.41,2.32,11.94,11.94,0,0,1,.13,1.65A11.72,11.72,0,0,1,283.35,299.31Z"/><circle class="cls-1" cx="593.22" cy="299.31" r="22.15"/><path class="cls-5" d="M615.37,299.31a41.76,41.76,0,0,0-.86-5.38,22.15,22.15,0,0,0-8.07-12,21.71,21.71,0,0,0-20.56-3.06,21.75,21.75,0,1,0,20.62,37.77,22.1,22.1,0,0,0,8.07-12,42.31,42.31,0,0,0,.86-5.36,8.27,8.27,0,0,1,0,1.41,11.77,11.77,0,0,1-.13,1.65,18.71,18.71,0,0,1-.41,2.32,22.27,22.27,0,0,1-29.26,15.79,21.19,21.19,0,0,1-5.71-3.06,20.81,20.81,0,0,1-4.78-4.78,22.43,22.43,0,0,1,0-26.68,20.74,20.74,0,0,1,4.78-4.76,21.19,21.19,0,0,1,5.71-3.06,22.37,22.37,0,0,1,29.29,15.73,19.27,19.27,0,0,1,.41,2.32,11.94,11.94,0,0,1,.13,1.65A8.53,8.53,0,0,1,615.37,299.31Z"/><path class="cls-5" d="M590.59,306.59a.81.81,0,0,1-.63-.3.84.84,0,0,1,.1-1.17l6.95-5.81-6.95-5.82a.81.81,0,0,1-.11-1.14v0a.83.83,0,0,1,1.16-.12l7.69,6.45a.83.83,0,0,1,.3.65.76.76,0,0,1-.3.63l-7.69,6.45A.78.78,0,0,1,590.59,306.59Z"/><path class="cls-5" d="M265,306.59a.86.86,0,0,1-.55-.2l-7.72-6.45a.81.81,0,0,1-.28-.63.86.86,0,0,1,.28-.58l7.69-6.45a.86.86,0,0,1,1.17.12.81.81,0,0,1-.08,1.14h0l-6.95,5.82,6.95,5.81a.84.84,0,0,1,.1,1.17A.81.81,0,0,1,265,306.59Z"/><path class="cls-14" d="M947.42,517l-38.7,127.35-81.29,38.68,5.39,43.71,76.38-18.19c40.06-8.1,61.08-23.15,70-60.7l15.31-50.08Z"/><path class="cls-5" d="M1142.88,480.66a12.44,12.44,0,0,1-2.3.25,57.18,57.18,0,0,0-6.22.76,28.64,28.64,0,0,0-8.67,3.09,40.83,40.83,0,0,0-9.06,6.73,43.78,43.78,0,0,0-6.62,9.21,80.15,80.15,0,0,0-4,8.4c-1,2.46-1.74,4.48-2.25,5.89a15.53,15.53,0,0,1-.83,2.15,12.57,12.57,0,0,1,.53-2.25c.41-1.44,1.08-3.49,2-6a70.9,70.9,0,0,1,3.85-8.55,43.43,43.43,0,0,1,6.62-9.43,40.17,40.17,0,0,1,9.28-6.81,27.82,27.82,0,0,1,8.93-3,43.81,43.81,0,0,1,6.3-.53A12.69,12.69,0,0,1,1142.88,480.66Z"/><path class="cls-15" d="M858,690.9l24.08-16a12,12,0,0,1,8.09-1.65l18.42,2.55L950.88,697l21.25-1.65L970.39,732s-18.82,0-26.16-1.65-17.3-8.83-17.3-8.83,2.27,3.85.88,6.62-11.58,6.8-11.58,6.8-7.14,2.08-8.1-2.94c0,0-12.45,1-13.13-9,0,0-18.72-4.27-15.55-12.82,2.37-6.35,4.66-11,4.66-11l6.27-12.06-6.2-1.44s-11.81,7.82-16.79,8.37S858,690.9,858,690.9Z"/><path class="cls-16" d="M904.7,695a49.81,49.81,0,0,0-4.2,3A20.94,20.94,0,0,0,894,708.25a22.84,22.84,0,0,0-.26,6.75c.18,2.1.5,4,.78,5.56a41.35,41.35,0,0,1,.88,5.13,5,5,0,0,1-.48-1.32c-.25-.86-.6-2.12-1-3.69a50.72,50.72,0,0,1-1-5.61,22.41,22.41,0,0,1,.23-7,20.34,20.34,0,0,1,6.93-10.52,18.19,18.19,0,0,1,3.31-2.07A3.62,3.62,0,0,1,904.7,695Z"/><path class="cls-16" d="M914.13,705.9h-1.32a7.11,7.11,0,0,0-3.31,1,9,9,0,0,0-3.46,3.72,12.87,12.87,0,0,0-1.11,6.19,37.58,37.58,0,0,0,1,6.4c.43,2,.83,3.72,1.22,5.18.78,2.94,1.49,4.68,1.37,4.73a4.58,4.58,0,0,1-.65-1.17,33.07,33.07,0,0,1-1.27-3.39c-.46-1.46-.94-3.23-1.39-5.18a34.05,34.05,0,0,1-1.09-6.53,13.23,13.23,0,0,1,1.26-6.62,9,9,0,0,1,3.85-3.89,6.62,6.62,0,0,1,3.59-.78A2.71,2.71,0,0,1,914.13,705.9Z"/><path class="cls-16" d="M920.59,721.76c-.08,0,.1-.5.66-.94a4.86,4.86,0,0,1,2.6-1,3.47,3.47,0,0,1,2.68.76c.56.51.61,1,.53,1s-.35-.3-.86-.6a4,4,0,0,0-2.28-.4A10.53,10.53,0,0,0,920.59,721.76Z"/><path class="cls-16" d="M922.15,714.42c.08,0,.45.28.65,1a6.48,6.48,0,0,1,.18,2.75,5.51,5.51,0,0,1-1,2.6c-.48.58-.94.73-1,.65s.23-.4.51-1a7.49,7.49,0,0,0,.66-2.4,12.27,12.27,0,0,0,.08-2.51C922.2,714.86,922.05,714.48,922.15,714.42Z"/><path class="cls-16" d="M879.46,710.31a5.57,5.57,0,0,1,.53-1.49c.38-.93,1-2.25,1.65-3.9,1.47-3.31,3.57-7.79,5.92-12.73.84-1.79,1.65-3.49,2.43-5.08h0a11.35,11.35,0,0,1,5.24-3,11.58,11.58,0,0,1,4.58-.35,9.76,9.76,0,0,1,2.89.79,3,3,0,0,1,.94.55,20.19,20.19,0,0,0-3.89-.86,11.58,11.58,0,0,0-9,3.31v-.1c-.76,1.65-1.57,3.31-2.4,5.09-2.35,5-4.53,9.43-6.14,12.64-.79,1.65-1.47,2.91-1.94,3.79A6.61,6.61,0,0,1,879.46,710.31Z"/><path class="cls-14" d="M1185.79,638.19s-3.75-113.59-8.53-129.28-10.62-24.33-22.36-32c-13.46-8.7-60.53-18.56-62.14-20l-79.19,1.57-4.75.53A69.79,69.79,0,0,0,950,505.88q-.5,1.49-.94,3c-9.59,32.81,28,80,28,77.95.08,9.81.73,19.2,2.4,25.9,5.47,21.85,53.24,58.51,56,69.18s4.1,56.31,4.1,56.31,74.62.56,108,.4l85.21-.4Z"/><path class="cls-5" d="M974.28,503.5s.17.45.43,1.29a38.15,38.15,0,0,1,1,3.8,74.86,74.86,0,0,1,1.65,14.31,184.29,184.29,0,0,1-.76,21.37c-.63,8-1.65,16.79-2.05,26a132,132,0,0,0,.86,26,76.58,76.58,0,0,0,5.82,20.36,74,74,0,0,0,7.21,12.39c1,1.36,1.85,2.38,2.38,3.09a7.1,7.1,0,0,1,.79,1.11,9.81,9.81,0,0,1-.91-1c-.58-.68-1.47-1.65-2.51-3a68,68,0,0,1-7.48-12.32,75.12,75.12,0,0,1-6-20.51,129.55,129.55,0,0,1-.94-26.16c.46-9.28,1.46-18.06,2.12-26.07a194.6,194.6,0,0,0,.93-21.29,80.44,80.44,0,0,0-1.46-14.27c-.28-1.65-.66-2.93-.84-3.8A7.21,7.21,0,0,1,974.28,503.5Z"/><g class="cls-9"><path d="M1165.09,555.5a1156.66,1156.66,0,0,0-38.42,158.77l-8.78,15.55c11-1.54,20.29-9.71,25.92-19.35s8.27-20.71,10.73-31.57C1163.91,638.3,1173.34,596.26,1165.09,555.5Z"/></g><path class="cls-14" d="M966.36,691.3l110.43-12.87s23.15-139.67,23.72-142.15,8.37-46,30.25-49.7,41.83,5,43.12,26.1c1,16.89-23.49,138.21-38.93,194.4-4.45,16.16-22.16,30.46-39.46,30.8-45.13.84-128.61,0-128.61,0Z"/><path class="cls-5" d="M1100.42,536.28c-.43,2.68-9.21,56.05-23.39,142.23v.23h-.23c-32.53,5.57-69.64,6.32-110,13.23l.33-.4c.15,12.93,0,32.3.13,46.31l-.4-.4,41.78.28c23.37.12,46.19.13,68.22,0l16.37-.2a38.87,38.87,0,0,0,15.53-2.94,46.57,46.57,0,0,0,22.67-20.06l.89-1.65.74-1.65a29.35,29.35,0,0,0,1.27-3.49c.73-2.37,1.31-4.8,2-7.18,1.31-4.75,2.46-9.48,3.64-14.12q3.47-13.94,6.5-27.14c4.05-17.53,7.59-33.94,10.75-48.92,6.22-30,10.83-54.33,13.55-71.23.68-4.23,1.27-8,1.65-11.25.23-1.65.43-3.14.63-4.53s.26-2.63.38-3.75a44.65,44.65,0,0,0,.35-5.11,14.09,14.09,0,0,1,.08-1.74v1.74a41,41,0,0,1-.26,5.13c-.1,1.12-.23,2.38-.35,3.77s-.38,2.89-.58,4.52c-.4,3.31-1,7-1.65,11.28-2.61,16.92-7.14,41.35-13.23,71.3-3.11,15-6.62,31.42-10.65,49q-3,13.23-6.45,27.16c-1.17,4.66-2.33,9.39-3.62,14.16-.66,2.38-1.22,4.78-2,7.19a29,29,0,0,1-1.31,3.57l-.76,1.75-.89,1.65A47.4,47.4,0,0,1,1109,735.35a39.58,39.58,0,0,1-15.81,3l-16.37.22c-22,.18-44.87.17-68.24,0l-41.79-.3h-.41v-.4c-.15-14,0-33.34-.1-46.31v-.33h.31c40.42-6.88,77.53-7.57,110.07-13.12l-.26.26c7.21-43.13,13.23-78.66,17.3-103.42,2.1-12.35,3.75-22,5-28.63.58-3.31,1-5.77,1.32-7.49S1100.42,536.28,1100.42,536.28Z"/><g class="cls-9"><path d="M973.12,579.39c-.28-17.37,4.68-35.58,4.6-54.43a192.43,192.43,0,0,0-11.36,46.31c-1.26,10.87-1.57,22,1.54,32.53s10,20.24,20,24.64C977.57,614.51,973.4,596.74,973.12,579.39Z"/></g><path class="cls-5" d="M969.67,370.18a29,29,0,0,1-11.4-28.84,5.39,5.39,0,0,0,0-3.61,5.31,5.31,0,0,0-2.45-1.9,21.5,21.5,0,0,1-10.77-13,16.64,16.64,0,0,1,4.12-16c-8.43-2.89-12.11-14.22-8.27-22.29s13.51-12.32,22.38-11.36c-3.11-4.48-1.85-11,1.75-15.1s9-6.14,14.32-7.18c7.18-1.39,15.81-.66,20,5.36.35-4.48,4.8-7.56,9.13-8.68,11.58-3,25,4.47,28.5,16,3.67-2.78,7.92-5.14,12.52-5.23s9.49,2.68,10.57,7.16c1.9-4.13,6.83-5.89,11.33-6.35a16.29,16.29,0,0,1,9.56,1.42,8,8,0,0,1,4.33,8.12,12.82,12.82,0,0,1,11.3,22.89,16.32,16.32,0,0,1,1.46,27.77c2.75.2,4.17,3.89,3,6.37a8.68,8.68,0,0,1-6.75,4.2q1.79,14.19,3.59,28.36c.78,6.1,1.54,12.34.38,18.37s-4.6,12-10.15,14.54"/><path class="cls-15" d="M966.36,342.84c-1.65-23,19.7-49.2,42.69-49.91l75.38,3.94,1.42,12.32L1095.56,465l-68.88,61.29L1018,456.21s-29.77-.84-40.92-38C971.47,399.62,968.18,368.44,966.36,342.84Z"/><path class="cls-5" d="M979.87,371.22a5,5,0,0,0,5.36,4.28,4.71,4.71,0,0,0,4.41-5v-.09a5,5,0,0,0-5.34-4.28,4.7,4.7,0,0,0-4.43,5Z"/><path class="cls-5" d="M975.22,358.07c.68.55,4-2.7,9.23-3.31s9.41,1.39,9.92.66c.25-.31-.53-1.39-2.37-2.38a13.51,13.51,0,0,0-8-1.32,12.85,12.85,0,0,0-7.23,3.51C975.27,356.62,974.88,357.82,975.22,358.07Z"/><path class="cls-5" d="M1029.06,366.54a5,5,0,0,0,5.36,4.28,4.7,4.7,0,0,0,4.41-5v-.13a5,5,0,0,0-5.36-4.28,4.71,4.71,0,0,0-4.41,5Z"/><path class="cls-5" d="M1026.77,353.13c.69.56,4-2.7,9.23-3.31s9.43,1.39,9.92.66c.23-.31-.53-1.39-2.38-2.37a13.35,13.35,0,0,0-8-1.34,12.85,12.85,0,0,0-7.24,3.51C1026.82,351.65,1026.44,352.88,1026.77,353.13Z"/><path class="cls-5" d="M1013.1,393.55c0-.3-3.31-.41-8.7-.36-1.36,0-2.66,0-3-.94a6.91,6.91,0,0,1,.35-4.09c.81-3.42,1.65-7,2.56-10.77,3.49-15.3,5.82-27.8,5.21-27.93s-4,12.16-7.44,27.45c-.83,3.75-1.65,7.36-2.38,10.78a7.94,7.94,0,0,0,0,5.36,3.41,3.41,0,0,0,2.46,1.65,9,9,0,0,0,2.32,0C1009.82,394.27,1013.11,393.84,1013.1,393.55Z"/><path class="cls-16" d="M1018,456.21a97.07,97.07,0,0,0,48.91-20.57s-9.06,30.35-47.48,32Z"/><path class="cls-10" d="M1017,405.9a9.54,9.54,0,0,1,8-4.68,8.63,8.63,0,0,1,6.37,2.4,5.54,5.54,0,0,1,1.27,6.2,6.38,6.38,0,0,1-6.62,2.68,19.68,19.68,0,0,1-7.23-3.09,5.43,5.43,0,0,1-1.65-1.34,1.77,1.77,0,0,1-.26-2"/><path class="cls-5" d="M1029,395.07c-.84,0-.08,5.77-4.38,10.49s-10.44,5-10.37,5.72c0,.36,1.49.93,4.05.65a14.24,14.24,0,0,0,8.7-4.47,12.42,12.42,0,0,0,3.31-8.73C1030.2,396.31,1029.37,395,1029,395.07Z"/><path class="cls-5" d="M1022.59,334.57c.71,1.36,5.84,0,12.07-.13s11.43.89,12.06-.5c.28-.66-.76-1.89-2.94-3a20.82,20.82,0,0,0-18.39.48C1023.3,332.65,1022.33,333.92,1022.59,334.57Z"/><path class="cls-5" d="M975.06,342.61c1.09,1.06,4.53-.68,8.85-1.32s8.1-.3,8.78-1.65c.28-.65-.45-1.77-2.22-2.68a12.88,12.88,0,0,0-14.19,2.41C974.91,340.77,974.63,342.08,975.06,342.61Z"/><path class="cls-5" d="M976,296.83a18.57,18.57,0,0,0,28.83,19.07c-2.18,2.76-1.16,7.16,1.51,9.46a13.48,13.48,0,0,0,9.92,2.61,25.72,25.72,0,0,0,18.74-10.52,18.79,18.79,0,0,0,28.43,10.92,17.86,17.86,0,0,0-1.11,20.08,17.22,17.22,0,0,0,31.7-7.53,19.38,19.38,0,0,0,3.49-30.61,11.58,11.58,0,0,0,6.1-9.92,23.87,23.87,0,0,0-2.83-11.69c-4.33-8.91-11.76-16.65-21.19-19.63s-20.82-.33-26.76,7.61a5.49,5.49,0,0,1-2.41,2.23,4.81,4.81,0,0,1-4.12-1.52c-5.28-4.25-10.8-8.85-17.51-9.74a18.19,18.19,0,0,0-19.09,12.07c-5.56-7.18-15.93-10.8-24.21-7.14s-12.47,15.36-7.38,22.86"/><path class="cls-5" d="M1076.21,350.84a82.28,82.28,0,0,0,7.57,22.1c1.51,2.94,3.67,6.15,7,6.43,3,.26,5.71-2.2,6.7-5a18.85,18.85,0,0,0,.22-9,242.69,242.69,0,0,0-7.61-31.23"/><path class="cls-15" d="M1085.3,355.74c.45-.3,18.19-9.33,21.19,10s-17,18.37-17.13,17.83S1085.3,355.74,1085.3,355.74Z"/><path class="cls-16" d="M1094.12,375.35c.08-.08.38.18,1,.36a3.31,3.31,0,0,0,2.53-.35c1.92-1.06,3.14-4.58,2.7-8.09a11.06,11.06,0,0,0-1.65-4.68,3.9,3.9,0,0,0-2.91-2.2,1.65,1.65,0,0,0-1.85,1.22c-.17.58,0,1-.08,1s-.46-.26-.43-1.09a2.17,2.17,0,0,1,.56-1.34,2.6,2.6,0,0,1,1.79-.78,4.78,4.78,0,0,1,4,2.46,11.58,11.58,0,0,1,2,5.23c.46,3.92-1,7.89-3.62,9.13a3.61,3.61,0,0,1-3.16,0C1094.24,375.82,1094.05,375.4,1094.12,375.35Z"/><path class="cls-7" d="M1035.36,313.48a2.46,2.46,0,0,1-.58.23c-.4.13-1,.31-1.75.51a27.29,27.29,0,0,1-6.85.93,19.48,19.48,0,0,1-5-.63,13.79,13.79,0,0,1-9.41-7.89,10.45,10.45,0,0,1-.43-7.46l.69.46a25.78,25.78,0,0,1-14.8,6.81,25,25,0,0,1-9-.6,16,16,0,0,1-4.4-1.8,9.13,9.13,0,0,1-3.31-3.61,12.82,12.82,0,0,1-1.22-5.57,37.14,37.14,0,0,1,.35-5.47,18.62,18.62,0,0,1,1.34-5.19,6.17,6.17,0,0,1,3.84-3.62l.33.88a15.4,15.4,0,0,1-10,1,16.54,16.54,0,0,1-8.05-4.4,14,14,0,0,1-3.87-7.21,16.36,16.36,0,0,1,5.29-15.41,10.06,10.06,0,0,1,3-1.87,29.21,29.21,0,0,0-2.8,2.1A16.27,16.27,0,0,0,964,263.9a15.83,15.83,0,0,0,0,6.73,13.23,13.23,0,0,0,3.75,6.78,15.86,15.86,0,0,0,7.69,4.12,14.57,14.57,0,0,0,9.41-1l.33.89a5.24,5.24,0,0,0-3.23,3.11,17.12,17.12,0,0,0-1.24,5c-.4,3.44-.79,7.24.79,10.45a10.2,10.2,0,0,0,7.1,5,23.83,23.83,0,0,0,8.68.6,24.91,24.91,0,0,0,14.32-6.48l1.27-1.19-.58,1.65a9.69,9.69,0,0,0,.33,6.86,13.4,13.4,0,0,0,3.84,5.06,13.66,13.66,0,0,0,5,2.55,18.19,18.19,0,0,0,4.78.69,29.77,29.77,0,0,0,6.8-.66A20.06,20.06,0,0,1,1035.36,313.48Z"/><path class="cls-7" d="M974.45,313.18a4.33,4.33,0,0,1-1.21.78,10.14,10.14,0,0,1-3.85,1,9.79,9.79,0,0,1-5.76-1.37,4.85,4.85,0,0,1-2.22-2.94,3.69,3.69,0,0,1,1.27-3.82l.5.84-.33.15a15.38,15.38,0,0,1-13-.38,13.23,13.23,0,0,1-3.31-2.32c-.68-.68-1-1.11-.93-1.16a27.52,27.52,0,0,0,4.52,2.84,15.41,15.41,0,0,0,12.34.1l.3-.13,4.43-1.9-3.94,2.76a2.73,2.73,0,0,0-.89,2.8,4.13,4.13,0,0,0,1.77,2.41,9.56,9.56,0,0,0,5.24,1.42A16.87,16.87,0,0,0,974.45,313.18Z"/><path class="cls-8" d="M1107.29,379.24a8.8,8.8,0,0,1,3.42,1.82,20.34,20.34,0,0,1,6.62,8.27,18.19,18.19,0,0,1-.63,15.66,17.63,17.63,0,0,1-16.62,9.18,16.19,16.19,0,0,1-9.49-3.89,20.92,20.92,0,0,1-5.64-7.64,18.34,18.34,0,0,1,.2-15.7,16,16,0,0,1,7.71-7.28,7.34,7.34,0,0,1,3.79-.88c0,.18-1.32.4-3.46,1.55a16.29,16.29,0,0,0-6.81,7.23,17.17,17.17,0,0,0,.22,14.34c2.23,5,7.18,9.92,13.63,10.3a15.93,15.93,0,0,0,14.88-8.09,17,17,0,0,0,.94-14.29,21.32,21.32,0,0,0-5.89-8.17C1108.41,380.05,1107.2,379.39,1107.29,379.24Z"/><path class="cls-5" d="M997.78,380.83a37.46,37.46,0,0,0-.86-5.49,22.59,22.59,0,0,0-8.27-12.3,22.26,22.26,0,0,0-21.14-3.14,20.33,20.33,0,0,0-5.64,3,20.91,20.91,0,0,0-4.7,4.73,22.31,22.31,0,0,0,10.35,34.12,22.66,22.66,0,0,0,11.73,1,22.16,22.16,0,0,0,9.41-4.15,22.63,22.63,0,0,0,8.27-12.29,37.46,37.46,0,0,0,.86-5.51,6.94,6.94,0,0,1,0,1.46,10.19,10.19,0,0,1-.13,1.75,14.89,14.89,0,0,1-.43,2.38,22.61,22.61,0,0,1-8.27,12.7,23,23,0,0,1-32.55-32,21.5,21.5,0,0,1,5-5,21.09,21.09,0,0,1,5.85-3.13A22.87,22.87,0,0,1,989,362.49a22.49,22.49,0,0,1,8.27,12.7,14.75,14.75,0,0,1,.43,2.37,10.3,10.3,0,0,1,.13,1.75A7,7,0,0,1,997.78,380.83Z"/><path class="cls-5" d="M1056.25,377a39.82,39.82,0,0,0-.88-5.51,22.49,22.49,0,0,0-8.27-12.29A22.26,22.26,0,0,0,1026,356a20.33,20.33,0,0,0-5.64,3,21,21,0,0,0-4.71,4.73,22.23,22.23,0,0,0,0,26.33,21,21,0,0,0,4.71,4.73,20.33,20.33,0,0,0,5.57,3.11,22.44,22.44,0,0,0,11.71,1,22.15,22.15,0,0,0,9.43-4.15,22.59,22.59,0,0,0,8.27-12.3,40.6,40.6,0,0,0,.86-5.49,8.85,8.85,0,0,1,0,1.46,10.3,10.3,0,0,1-.13,1.75,16.87,16.87,0,0,1-.43,2.37,22.76,22.76,0,0,1-29.92,16.06,21.32,21.32,0,0,1-5.85-3.13,21.81,21.81,0,0,1-5-5,23,23,0,0,1,0-27.32,21.81,21.81,0,0,1,5-5,21.32,21.32,0,0,1,5.85-3.13,22.91,22.91,0,0,1,21.72,3.51,22.56,22.56,0,0,1,8.27,12.7,17.05,17.05,0,0,1,.43,2.38,10.3,10.3,0,0,1,.13,1.75A8.85,8.85,0,0,1,1056.25,377Z"/><path class="cls-5" d="M1011.71,372.18c-.1.12-.81-.5-2.13-1.11a11.44,11.44,0,0,0-10.88.78c-1.22.79-1.85,1.49-2,1.41s.4-.93,1.65-1.9a10.29,10.29,0,0,1,5.62-2.13,10.52,10.52,0,0,1,5.89,1.31C1011.19,371.34,1011.77,372.13,1011.71,372.18Z"/><path class="cls-5" d="M1087.37,356.88c0,.22-7.19,2.55-16.22,5.18a168.39,168.39,0,0,1-16.46,4.35,337.58,337.58,0,0,1,32.68-9.53Z"/><path class="cls-7" d="M973.39,397.42a2.71,2.71,0,0,1-1.12,0,14.14,14.14,0,0,1-3-.73,16.16,16.16,0,0,1-10.7-15.93,13.93,13.93,0,0,1,.46-3,3,3,0,0,1,.41-1.06c.15,0-.3,1.65-.26,4.12a16.67,16.67,0,0,0,10.3,15.35C971.82,397.1,973.42,397.27,973.39,397.42Z"/><path class="cls-7" d="M1018.14,391.73a5.4,5.4,0,0,1-.94-1,18.06,18.06,0,0,1-2-3,21.5,21.5,0,0,1,1.85-22.84,17.58,17.58,0,0,1,2.43-2.7c.65-.58,1-.84,1.08-.79a42.61,42.61,0,0,0-3,3.84,22.43,22.43,0,0,0-1.8,22.26C1017,390.19,1018.26,391.65,1018.14,391.73Z"/><path class="cls-7" d="M1025.78,395.95c-.12.22-.91,0-1.8-.41s-1.51-1-1.41-1.19.91,0,1.8.41S1025.9,395.73,1025.78,395.95Z"/><path class="cls-3" d="M878.59,738.23H649.64L615.16,580.58a12.27,12.27,0,0,1,12-14.88l202.95.45a12.26,12.26,0,0,1,12,9.58Z"/><path class="cls-3" d="M878.59,738.23H986.95A13.93,13.93,0,0,0,973,724.31H866.26Z"/><path class="cls-5" d="M866.26,738.23a2.32,2.32,0,0,1-.17-.43,6,6,0,0,0-.36-1.29c-.31-1.21-.76-2.88-1.32-5-1.12-4.32-2.71-10.6-4.63-18.37-3.82-15.55-8.86-37.06-14.29-60.88s-10.39-45.35-14.06-60.93l-4.37-18.44-1.16-5c-.12-.55-.22-1-.3-1.32s0-.45,0-.45a2.32,2.32,0,0,1,.17.43,6.31,6.31,0,0,0,.36,1.29c.31,1.21.76,2.88,1.32,5,1.12,4.33,2.71,10.62,4.63,18.39,3.82,15.53,8.86,37.06,14.29,60.88s10.39,45.35,14.06,60.91l4.37,18.44c.5,2.13.88,3.82,1.16,5,.12.53.22,1,.3,1.31A.64.64,0,0,1,866.26,738.23Z"/><path class="cls-7" d="M733.56,634.47c-3.64-.78-7.11,2.56-7.92,6.2a10.73,10.73,0,0,0,4.23,11,9.92,9.92,0,0,0,11.58-.5,9.21,9.21,0,0,0,2.07-11.3c-2.1-3.59-9.79-6.75-13.51-5"/></svg>