<svg id="Layer_1" data-name="Layer 1" xmlns="http://www.w3.org/2000/svg" xmlns:xlink="http://www.w3.org/1999/xlink" viewBox="0 0 1700 750"><defs><style>.cls-1{fill:none;}.cls-2{fill:#ebebeb;}.cls-3{fill:#e0e0e0;}.cls-4{fill:#f5f5f5;}.cls-5{fill:#fafafa;}.cls-6{fill:#fff;}.cls-7{fill:#455a64;}.cls-8{fill:#263238;}.cls-9{fill:#ffdd98;}.cls-10{fill:#ff725e;}.cls-11{clip-path:url(#clip-path);}.cls-12{fill:#ff5571;}.cls-13{opacity:0.3;}.cls-14{fill:#ffbe9d;}.cls-15{fill:#eb996e;}.cls-16{fill:#95a6e5;}.cls-17{fill:#b5e55a;}</style><clipPath id="clip-path"><path class="cls-1" d="M425.79,357.28a4.21,4.21,0,1,1-7.24,0h-4.87a4.26,4.26,0,0,1,.59,2.13,4.21,4.21,0,1,1-7.83-2.13h-5a4.1,4.1,0,0,1,.59,2.13,4.21,4.21,0,1,1-7.83-2.13h-4.87a4.1,4.1,0,0,1,.59,2.13,4.21,4.21,0,1,1-8.41,0,4.1,4.1,0,0,1,.59-2.13h-4.87a4.21,4.21,0,1,1-7.83,2.13,4.1,4.1,0,0,1,.59-2.13h-4.79a4.21,4.21,0,1,1-7.24,0H355v87h72.44v-87Z"/></clipPath></defs><title>3</title><polygon class="cls-2" points="495.79 145.75 525.37 239.34 503.96 239.34 494.52 207.07 495.79 145.75"/><rect class="cls-3" x="113.75" y="239.24" width="441.8" height="26.4"/><rect class="cls-3" x="175.32" y="259.88" width="21.38" height="40.53"/><rect class="cls-3" x="451.16" y="259.88" width="21.36" height="40.53"/><path class="cls-2" d="M128.76,116.84s-19.83,15.1-.83,35.06a1.75,1.75,0,0,0,1.26.53l173.23-1s14.87-16.52,2.51-35.72Z"/><path class="cls-3" d="M264.13,132.6c0,.18-21.58.35-48.18.35s-48.18-.17-48.18-.35,21.58-.35,48.18-.35S264.13,132.4,264.13,132.6Z"/><path class="cls-3" d="M237.18,138.86c0,.2-10.15.35-22.65.35s-22.65-.15-22.65-.35,10.15-.35,22.65-.35S237.18,138.66,237.18,138.86Z"/><path class="cls-3" d="M281.85,150.86c-.12,0,.38-2,.91-5.2a74.06,74.06,0,0,0,1-12.62,75.89,75.89,0,0,0-1.24-12.62c-.59-3.21-1.14-5.16-1-5.19a5.52,5.52,0,0,1,.51,1.34c.28.88.63,2.15,1,3.75a61.52,61.52,0,0,1,.25,25.45c-.35,1.65-.66,2.89-.93,3.77A6.25,6.25,0,0,1,281.85,150.86Z"/><path class="cls-3" d="M294.72,115.48a6.15,6.15,0,0,1,.78,1.26,17.23,17.23,0,0,1,.76,1.55c.28.63.61,1.32.89,2.13a37.89,37.89,0,0,1,1.65,5.73,43,43,0,0,1,.88,7.3,41.72,41.72,0,0,1-.63,7.29,39.42,39.42,0,0,1-1.55,5.78c-.26.81-.59,1.5-.86,2.13a14.29,14.29,0,0,1-.74,1.65,7.24,7.24,0,0,1-.74,1.27c-.13,0,.84-1.93,1.87-5.14a40.37,40.37,0,0,0,1.39-5.72,46.27,46.27,0,0,0,.58-7.19,45.3,45.3,0,0,0-.69-7.17,41.62,41.62,0,0,0-1.47-5.7C295.64,117.4,294.72,115.55,294.72,115.48Z"/><path class="cls-3" d="M156.09,151.14a5.92,5.92,0,0,1-.81-1.16,12.11,12.11,0,0,1-.81-1.45c-.28-.58-.63-1.22-.93-2a30.78,30.78,0,0,1-1.65-5.47,34.12,34.12,0,0,1-.66-7,34.52,34.52,0,0,1,.86-7,29.15,29.15,0,0,1,1.83-5.42,18.18,18.18,0,0,1,1-2,11.14,11.14,0,0,1,.84-1.42c.51-.76.79-1.17.84-1.14s-1,1.75-2.21,4.71a34.15,34.15,0,0,0-1.65,5.37,36.35,36.35,0,0,0-.79,6.82,38.55,38.55,0,0,0,.59,6.86,35.46,35.46,0,0,0,1.52,5.4C155.15,149.32,156.22,151,156.09,151.14Z"/><path class="cls-3" d="M137.38,155.32a8.74,8.74,0,0,1-.89-1.32,13.68,13.68,0,0,1-.89-1.65c-.33-.66-.73-1.39-1.06-2.23a37.72,37.72,0,0,1-2-6.13,43,43,0,0,1-1-7.82,42,42,0,0,1,.63-7.85,37.38,37.38,0,0,1,1.65-6.2,23.93,23.93,0,0,1,.94-2.28,17.48,17.48,0,0,1,.83-1.65,5.57,5.57,0,0,1,.84-1.34c.12,0-1,2-2.15,5.45a40.62,40.62,0,0,0,.61,27.63C136.31,153.32,137.52,155.24,137.38,155.32Z"/><path class="cls-2" d="M296.06,204.16v33.16H231.93V204.16Z"/><path class="cls-3" d="M88.89,221v.88A19,19,0,0,0,108,239.72H299v-2.4H253.69a16.52,16.52,0,0,1-16.52-16.52h0a16.52,16.52,0,0,1,16.52-16.52H299v-3.57l-191,.58a19.13,19.13,0,0,0-19.13,19.14Q88.88,220.74,88.89,221Z"/><path class="cls-3" d="M296.06,221.18c0,.2-13.22.36-29.44.36s-29.46-.17-29.46-.36,13.22-.35,29.46-.35S296.06,221,296.06,221.18Z"/><path class="cls-3" d="M295.13,228.65c0,.2-12.48.36-27.88.36s-27.88-.17-27.88-.36,12.48-.35,27.88-.35S295.13,228.47,295.13,228.65Z"/><path class="cls-3" d="M296.06,235.49c0,.2-11.22.35-25,.35s-25.07-.15-25.07-.35,11.22-.35,25.07-.35S296.06,235.29,296.06,235.49Z"/><path class="cls-3" d="M296.06,214.47c0,.2-12.92.35-28.85.35s-28.85-.15-28.85-.35,12.9-.35,28.85-.35S296.06,214.29,296.06,214.47Z"/><path class="cls-3" d="M295.13,207.76c0,.2-11.57.35-25.68.35s-25.69-.15-25.69-.35,11.57-.35,25.69-.35S295.13,207.57,295.13,207.76Z"/><path class="cls-4" d="M112,201.85a45.11,45.11,0,0,0-4,4.82,24.57,24.57,0,0,0,.35,28.4,45.8,45.8,0,0,0,4.16,4.74,8.56,8.56,0,0,1-1.37-1,22.39,22.39,0,0,1-3.14-3.39,24.14,24.14,0,0,1-.35-29,22.08,22.08,0,0,1,3.11-3.49A6.61,6.61,0,0,1,112,201.85Z"/><path class="cls-4" d="M105.58,201.14a44.05,44.05,0,0,0-4,4.82,24.57,24.57,0,0,0,.33,28.42,46.51,46.51,0,0,0,4.16,4.73,7.4,7.4,0,0,1-1.37-1,21.61,21.61,0,0,1-3.26-3.42,24.14,24.14,0,0,1-.28-29,22.08,22.08,0,0,1,3.11-3.49A6.61,6.61,0,0,1,105.58,201.14Z"/><path class="cls-4" d="M235.38,201.85a42.86,42.86,0,0,0-4.06,4.82,24.57,24.57,0,0,0,.35,28.4,43.52,43.52,0,0,0,4.16,4.74,8.56,8.56,0,0,1-1.37-1,21.6,21.6,0,0,1-3.19-3.39,24.14,24.14,0,0,1-.35-29,21.28,21.28,0,0,1,3.11-3.49A6.61,6.61,0,0,1,235.38,201.85Z"/><path class="cls-4" d="M228.92,201.14a45.11,45.11,0,0,0-4.06,4.82,24.6,24.6,0,0,0,.35,28.42,46.51,46.51,0,0,0,4.16,4.73,7.4,7.4,0,0,1-1.37-1,21.61,21.61,0,0,1-3.19-3.42,24.14,24.14,0,0,1-.35-29,22.07,22.07,0,0,1,3.11-3.49A6.61,6.61,0,0,1,228.92,201.14Z"/><path class="cls-4" d="M133.78,225.71l-.18-13.48a9.45,9.45,0,0,0-.48-3.47,3.3,3.3,0,0,0-2.56-2.15c-1.65-.76-4.31.66-5.49,2.59a12.71,12.71,0,0,0-1.34,6.61,95.4,95.4,0,0,0,.53,10.64,12,12,0,0,0,1.26,4.87,4.06,4.06,0,0,0,7.7-.64A13.57,13.57,0,0,0,133.78,225.71Z"/><path class="cls-4" d="M208,221.84c0,.18-13.81.35-30.83.35s-30.85-.17-30.85-.35,13.8-.36,30.85-.36S208,221.64,208,221.84Z"/><polygon class="cls-4" points="120.97 200.53 120.63 169.1 137.73 169.1 138.32 200.53 120.97 200.53"/><path class="cls-3" d="M136.72,174.68a44,44,0,0,1-7.95.36,44,44,0,0,1-7.95-.36,47,47,0,0,1,7.95-.35A47,47,0,0,1,136.72,174.68Z"/><path class="cls-3" d="M136.72,179.54a45,45,0,0,1-7.95.35,45,45,0,0,1-7.95-.35,45,45,0,0,1,7.95-.35A45,45,0,0,1,136.72,179.54Z"/><path class="cls-3" d="M136.72,184.38a44,44,0,0,1-7.95.36,44,44,0,0,1-7.95-.36,47,47,0,0,1,7.95-.35A47,47,0,0,1,136.72,184.38Z"/><path class="cls-3" d="M136.72,189.24a45,45,0,0,1-7.95.35,45,45,0,0,1-7.95-.35,45,45,0,0,1,7.95-.35A45,45,0,0,1,136.72,189.24Z"/><path class="cls-3" d="M136.72,194.1a44,44,0,0,1-7.95.36,44,44,0,0,1-7.95-.36,47,47,0,0,1,7.95-.35A47,47,0,0,1,136.72,194.1Z"/><path class="cls-2" d="M119.72,168.27H309.29c2.35,10.39,2,21.84,0,34H120.53v-2.31H132.1a5.44,5.44,0,0,0,5.45-5.42V175.68a5.44,5.44,0,0,0-5.44-5.44H119.75Z"/><path class="cls-5" d="M164.53,185.28h3.17a.58.58,0,0,1,.33,0,.64.64,0,0,1,.35.59.36.36,0,0,1,0,.2,3.62,3.62,0,0,1-.2.81,9.07,9.07,0,0,1-2,3.59,3.78,3.78,0,0,1-2.71,1.39h-.38A3.11,3.11,0,0,1,161,190.2a7.09,7.09,0,0,1-.94-3.8,10.31,10.31,0,0,1,.38-2.71,9.17,9.17,0,0,1,1.87-3.67,3.85,3.85,0,0,1,2.86-1.52,2.63,2.63,0,0,1,1.19.28,3.83,3.83,0,0,1,1.85,2.31.68.68,0,0,1,.08.31.59.59,0,0,1-.1.33.63.63,0,0,1-.58.35h-.21a.68.68,0,0,1-.45-.43h0a3.14,3.14,0,0,0-.38-.74A1.77,1.77,0,0,0,165,180a1.88,1.88,0,0,0-1.06.38,5.57,5.57,0,0,0-1.65,2.5,9.34,9.34,0,0,0-.74,3.57,6.61,6.61,0,0,0,.53,2.79,1.85,1.85,0,0,0,1.65,1.24,2.23,2.23,0,0,0,1.54-.93,8.13,8.13,0,0,0,1.65-2.92h-2.26a.72.72,0,0,1-.76-.76.94.94,0,0,1,0-.23A.71.71,0,0,1,164.53,185.28Z"/><path class="cls-5" d="M175.3,179.1a.4.4,0,0,0,.08.23q.2.69,2.23,11.75a.59.59,0,0,1,0,.17.69.69,0,0,1-.1.35.61.61,0,0,1-.56.35h-.12a.61.61,0,0,1-.51-.48l-.76-3.9h-3.9l-1.87,3.92a.33.33,0,0,1,0,.13.69.69,0,0,1-.58.33.66.66,0,0,1-.36-.1.68.68,0,0,1-.31-.58.83.83,0,0,1,0-.2c.12-.28.31-.71.58-1.29q4.08-8.92,5-10.54a.76.76,0,0,1,.66-.46A.71.71,0,0,1,175.3,179.1Zm-.86,2.63-2.1,4.43h3Z"/><path class="cls-5" d="M185.88,191.93h-5.72a.71.71,0,0,1-.36-.1,1.07,1.07,0,0,1-.33-.73h0q0-.35,1.65-11.7a1.27,1.27,0,0,1,0-.25.61.61,0,0,1,.61-.43.68.68,0,0,1,.31,0,.66.66,0,0,1,.36.61c0,.51-.18,1.65-.4,3.21-.64,5-1,7.63-1,7.9h4.86a1.29,1.29,0,0,1,.36,0,.64.64,0,0,1,.43.64.45.45,0,0,1,0,.21A.78.78,0,0,1,185.88,191.93Z"/><path class="cls-5" d="M193.68,179.1a1.65,1.65,0,0,1,.1.23q.2.69,2.23,11.75a.59.59,0,0,1,0,.17.69.69,0,0,1-.1.35.63.63,0,0,1-.56.35h-.12a.63.63,0,0,1-.53-.48l-.78-4H190l-1.87,3.92a.33.33,0,0,1,0,.13.74.74,0,0,1-.58.33.76.76,0,0,1-.38-.1.71.71,0,0,1-.31-.58.45.45,0,0,1,0-.2c.12-.28.31-.71.58-1.29q4.1-8.92,5-10.54a.74.74,0,0,1,.66-.46A.69.69,0,0,1,193.68,179.1Zm-.84,2.63-2.1,4.43h3Z"/><path class="cls-5" d="M202.78,185.84c.45,1.24.79,2.2,1,2.86.59,1.65.88,2.5.88,2.58a.61.61,0,0,1-.1.35.66.66,0,0,1-.58.31.59.59,0,0,1-.56-.46l-.12-.28c-.3-.71-.81-2-1.52-4l-3.3,4.43a.76.76,0,0,1-.59.35.89.89,0,0,1-.36,0,.64.64,0,0,1-.31-.58v-.15a1.65,1.65,0,0,1,.35-.55c1.09-1.4,2.28-3.07,3.59-5-.13-.38-.26-.74-.4-1.07-1.21-3.3-1.82-5-1.82-5.06a.89.89,0,0,1,0-.35.59.59,0,0,1,.56-.33.68.68,0,0,1,.63.36l1.92,5.16,3.8-5.19a.78.78,0,0,1,.61-.33.68.68,0,0,1,.31,0,.63.63,0,0,1,.33.59.71.71,0,0,1,0,.31Z"/><path class="cls-5" d="M216.93,178.8a.68.68,0,0,1,.31.08.64.64,0,0,1,.36.58c-.93,7.39-1.45,11.38-1.54,12a7.42,7.42,0,0,1-1.22,3.12,4.46,4.46,0,0,1-3.8,1.85,4.38,4.38,0,0,1-1.83-.48,4.06,4.06,0,0,1-2.07-1.83.74.74,0,0,1,0-.33.89.89,0,0,1,0-.35.68.68,0,0,1,.59-.33.63.63,0,0,1,.51.28,3.68,3.68,0,0,0,2.92,1.65,3,3,0,0,0,2.28-1.16,6.31,6.31,0,0,0,1.26-3.59,3.57,3.57,0,0,1-.84.89,3.4,3.4,0,0,1-2,.66h-.38a3,3,0,0,1-2.16-1.65,6.94,6.94,0,0,1-1-3.8,15.94,15.94,0,0,1,.1-2.15c.1-1.16.36-2.79.76-5a.92.92,0,0,1,0-.2.64.64,0,0,1,.61-.46.59.59,0,0,1,.33.1.61.61,0,0,1,.35.55c0,.35-.12,1.21-.31,2.59a38.28,38.28,0,0,0-.46,4,8.26,8.26,0,0,0,.51,3.11c.4.93,1,1.39,1.65,1.39h.23a3.17,3.17,0,0,0,1.65-1.37,8.26,8.26,0,0,0,1.4-3.16l.88-6.51a.79.79,0,0,1,.08-.28A.64.64,0,0,1,216.93,178.8Z"/><path class="cls-4" d="M302.17,202.67c-.2,0-.35-7.8-.35-17.42s.15-17.43.35-17.43.35,7.8.35,17.43S302.37,202.67,302.17,202.67Z"/><path class="cls-3" d="M147,202.67c-.2,0-.35-7.8-.35-17.42s.15-17.43.35-17.43.35,7.8.35,17.43S147.23,202.67,147,202.67Z"/><path class="cls-4" d="M305.49,202.67c-.18,0-.35-7.8-.35-17.42s.17-17.43.35-17.43.36,7.8.36,17.43S305.69,202.67,305.49,202.67Z"/><path class="cls-3" d="M143.94,202.67c-.2,0-.36-7.8-.36-17.42s.17-17.43.36-17.43.35,7.8.35,17.43S144.12,202.67,143.94,202.67Z"/><path class="cls-3" d="M256.2,173.56h0l20,16.16.18.15h-.23l-2.66.71L256.62,195h0l-15.33-6.49-4.4-1.87-1.16-.5-.28-.13h0l.3.12,1.16.46,4.36,1.82,15.37,6.41h0l16.92-4.46,2.66-.69v.2l-20-16.23h0"/><polygon class="cls-3" points="274.39 187.16 275.5 188.18 276.96 187.87 276.31 189.22 277.07 190.51 275.58 190.33 274.59 191.46 274.31 189.97 272.94 189.37 274.25 188.65 274.39 187.16"/><polygon class="cls-3" points="255.18 193.52 255.92 194.15 256.86 193.88 256.5 194.79 257.05 195.6 256.07 195.54 255.48 196.3 255.23 195.35 254.32 195.01 255.15 194.5 255.18 193.52"/><polygon class="cls-3" points="233.95 184.81 235.14 184.9 235.88 183.95 236.18 185.11 237.3 185.52 236.29 186.15 236.24 187.34 235.33 186.58 234.18 186.91 234.62 185.8 233.95 184.81"/><polygon class="cls-3" points="283.38 173.82 284.57 173.89 285.32 172.97 285.62 174.12 286.72 174.52 285.71 175.16 285.68 176.35 284.76 175.59 283.62 175.92 284.05 174.82 283.38 173.82"/><polygon class="cls-3" points="255.23 173.05 255.99 173.08 256.47 172.49 256.65 173.23 257.38 173.49 256.73 173.89 256.7 174.65 256.1 174.17 255.38 174.39 255.66 173.68 255.23 173.05"/><path class="cls-3" d="M285.05,174.65s-6.48-.13-14.47-.48-14.47-.68-14.46-.76,6.48.15,14.47.48S285.05,174.59,285.05,174.65Z"/><path class="cls-3" d="M292.34,168H100.07c-2.53-5.72-3.14-11.14,0-16H292.34A18.64,18.64,0,0,1,292.34,168Z"/><rect class="cls-2" x="139.88" y="156.54" width="104.16" height="5.82"/><path class="cls-3" d="M107.44,168.06a5.8,5.8,0,0,1-1.52-1.93,14.34,14.34,0,0,1-1.75-5.68,14.13,14.13,0,0,1,.74-5.9,5.62,5.62,0,0,1,1.16-2.16,19.18,19.18,0,0,1-.69,2.31,17.18,17.18,0,0,0-.51,5.7,17,17,0,0,0,1.5,5.5A18,18,0,0,1,107.44,168.06Z"/><path class="cls-3" d="M111.61,168.06a5.8,5.8,0,0,1-1.52-1.93,14.08,14.08,0,0,1-1.75-5.68,13.86,13.86,0,0,1,.74-5.9,5.62,5.62,0,0,1,1.16-2.16,19.18,19.18,0,0,1-.69,2.31,16.75,16.75,0,0,0-.51,5.7,16.16,16.16,0,0,0,1.5,5.5A18,18,0,0,1,111.61,168.06Z"/><path class="cls-4" d="M284.56,167.66a33.56,33.56,0,0,0,1.35-7.83,33.38,33.38,0,0,0-1.27-7.85A16.31,16.31,0,0,1,284.56,167.66Z"/><path class="cls-4" d="M281,167.66c-.2,0,.61-3.42.58-7.67s-.81-7.6-.59-7.65a23.27,23.27,0,0,1,0,15.32Z"/><polygon class="cls-3" points="363.85 68.82 495.79 68.82 495.79 240.99 364.75 240.99 363.85 68.82"/><rect class="cls-6" x="354.25" y="69.66" width="131.18" height="170.42"/><path class="cls-3" d="M486.09,69V240.73H353.61V69Zm-1.35,170.42V70.31H354.86V239.44Z"/><rect class="cls-6" x="367.95" y="88.15" width="100.43" height="133.51"/><path class="cls-3" d="M367.75,88.12V125.3c0,23.48.08,56.81.15,96.33l-.3-.31H468l-.35.35V88.15l.55.2-72.93-.15h-.17l73.1-.36h.26V222H367.42v-.3c0-39.66.12-73,.15-96.53,0-11.72,0-21,.08-27.31V88.76A1.67,1.67,0,0,1,367.75,88.12Z"/><path class="cls-3" d="M354,240.08a18.47,18.47,0,0,1,1.77-2.89c1.17-1.65,2.83-4.08,4.71-6.61s3.68-4.82,5-6.43a14.71,14.71,0,0,1,2.3-2.5,20,20,0,0,1-1.92,2.79l-4.86,6.61-4.86,6.53A16.74,16.74,0,0,1,354,240.08Z"/><path class="cls-3" d="M354.2,69.66a96.63,96.63,0,0,1,7,9,96.1,96.1,0,0,1,6.48,9.43,91.94,91.94,0,0,1-6.87-9A97.49,97.49,0,0,1,354.2,69.66Z"/><line class="cls-1" x1="485.45" y1="69.66" x2="468.18" y2="88.8"/><path class="cls-3" d="M468.22,88.8a120.26,120.26,0,0,1,8.38-9.8,118.76,118.76,0,0,1,8.89-9.34,123.48,123.48,0,0,1-8.39,9.8A120.62,120.62,0,0,1,468.22,88.8Z"/><path class="cls-3" d="M485.45,240.08a113,113,0,0,1-8.51-8.91,110.44,110.44,0,0,1-8-9.37,118.61,118.61,0,0,1,8.49,8.91A116.74,116.74,0,0,1,485.45,240.08Z"/><path class="cls-3" d="M372.54,221.63s10.81-33.48,17.23-37A61.73,61.73,0,0,1,418,176.95c14.87-.13,21.94,1,30.67,7,10.06,6.92,16.89,37.36,16.89,37.36"/><path class="cls-3" d="M402.52,121.92c-9.24.41-11.57,12.82-10.87,19.83.3,3.3,1.32,7-.36,9.91-1.21,2.07-3.57,3.3-4.56,5.47-1.22,2.63,0,5.67.83,8.43s1.26,6.26-1,8.15a80,80,0,0,0,15.95,3,27,27,0,0,0,15.63-3.47"/><path class="cls-3" d="M395.93,146.69c-6.1-14,2.16-22.5,7.57-25.58a22.79,22.79,0,0,1,10.71-2.31,39.18,39.18,0,0,1,10.86,1,19.58,19.58,0,0,1,9.42,5.27c4.44,4.73,5.47,11.73,5.07,18.18A50.69,50.69,0,0,1,433.17,165a5.2,5.2,0,0,1-1.88,2.2,2,2,0,0,1-2.61-.46"/><path class="cls-4" d="M416.5,194.59c6.26.43,11.75-5,12.39-14.62l3.3-49.11-.23,3.4a4,4,0,0,0-3.55-4l-19.45-2a11.83,11.83,0,0,0-13,10.54q0,.27,0,.55c-.45,7.47-.71,16.62.2,22.19,1.82,11.2,10.41,12.61,10.41,12.61l-.66,8.15a11.37,11.37,0,0,0,10.38,12.28h.25Z"/><path class="cls-3" d="M399.71,145.69a1.42,1.42,0,0,0,1.39,1.44,1.39,1.39,0,0,0,1.49-1.28v0a1.44,1.44,0,0,0-1.4-1.44,1.37,1.37,0,0,0-1.47,1.27Z"/><path class="cls-3" d="M398,144.1c.18.18,1.26-.63,2.81-.63s2.69.78,2.86.59-.1-.43-.59-.79a4.11,4.11,0,0,0-2.3-.69,3.83,3.83,0,0,0-2.23.73C398,143.69,397.89,144,398,144.1Z"/><path class="cls-3" d="M414.58,145.69a1.42,1.42,0,0,0,1.39,1.44,1.35,1.35,0,0,0,1.47-1.23s0,0,0-.07a1.42,1.42,0,0,0-1.39-1.44,1.35,1.35,0,0,0-1.47,1.23S414.58,145.66,414.58,145.69Z"/><path class="cls-3" d="M413.19,144.35c.17.18,1.26-.63,2.81-.63s2.68.78,2.86.58-.1-.41-.61-.78a4,4,0,0,0-2.28-.69,3.72,3.72,0,0,0-2.23.73C413.26,143.92,413.09,144.26,413.19,144.35Z"/><path class="cls-3" d="M407.61,155.85a9.14,9.14,0,0,0-2.53-.45c-.38,0-.76-.13-.83-.4a1.93,1.93,0,0,1,.26-1.17c.36-1,.74-1.95,1.16-3a51.23,51.23,0,0,0,2.59-7.95,52.78,52.78,0,0,0-3.3,7.65c-.4,1.06-.76,2.07-1.11,3a2.28,2.28,0,0,0-.21,1.54,1,1,0,0,0,.66.58,2.68,2.68,0,0,0,.66.1A10.54,10.54,0,0,0,407.61,155.85Z"/><path class="cls-2" d="M406.58,174.16a28.6,28.6,0,0,0,15-4s-4,7.77-15.23,6.76Z"/><path class="cls-3" d="M408.27,159.57a2.81,2.81,0,0,1,2.5-1,2.54,2.54,0,0,1,1.77.94,1.65,1.65,0,0,1,.12,1.83,1.87,1.87,0,0,1-2,.53,5.9,5.9,0,0,1-2-1.17,1.65,1.65,0,0,1-.45-.46.53.53,0,0,1,0-.58"/><path class="cls-3" d="M412.17,156.9c-.26,0-.26,1.65-1.65,2.86s-3.22,1-3.3,1.26.4.31,1.16.33a4.11,4.11,0,0,0,2.69-.94,3.65,3.65,0,0,0,1.31-2.4C412.47,157.3,412.28,156.89,412.17,156.9Z"/><path class="cls-3" d="M412.48,141.64c.15.43,1.65.21,3.52.43s3.3.71,3.52.33-.15-.58-.74-1a5.9,5.9,0,0,0-2.61-.89,5.54,5.54,0,0,0-2.74.33C412.75,141.11,412.42,141.44,412.48,141.64Z"/><path class="cls-3" d="M398.52,139.57c.28.35,1.34,0,2.63,0s2.36.23,2.63-.15,0-.53-.55-.86a3.6,3.6,0,0,0-2.13-.56,3.47,3.47,0,0,0-2.08.71C398.55,139.09,398.4,139.46,398.52,139.57Z"/><path class="cls-3" d="M404.73,120.45c10.86-6.11,22.52-1.83,31.31,7,1.95,1.95,3.68,4.25,6.21,5.32s6.36,1,8,3.47c1.88,2.91-.66,7,.71,10.19,1.29,2.92,5.3,3.77,6.79,6.61,1.17,2.21.45,5-.12,7.35s-.76,5.39,1.07,7.09l-23.36,8.87a6.08,6.08,0,0,1-3.3.36c-3.3-.66-3.57-3.73-3.3-6.28a10.54,10.54,0,0,0-.15-5.65c-1-2.07-3.3-3.16-4.21-5.25-1.52-3.7,2.68-7.55,2.16-11.57a7.45,7.45,0,0,0-4.76-5.4c-2.3-1-4.84-1.32-7.22-2.1-5.52-1.75-10.06-6.81-12.41-12.43a6,6,0,0,1,2.51-7.62Z"/><path class="cls-3" d="M1257.93,273.16a25.2,25.2,0,0,1-3.8,4.41c-2.46,2.59-5.9,6.1-9.77,9.91s-7.44,7.2-10.06,9.62a23.35,23.35,0,0,1-4.44,3.7,24.67,24.67,0,0,1,3.78-4.4c2.46-2.59,5.92-6.11,9.8-9.91s7.44-7.22,10.06-9.63A23.41,23.41,0,0,1,1257.93,273.16Z"/><rect class="cls-3" x="1395.1" y="177.36" width="210.33" height="219.25"/><rect class="cls-5" x="1380.86" y="177.36" width="210.33" height="219.25"/><path class="cls-3" d="M1591.25,396.68H1380.72V177.3h210.53Zm-210.33-.13h210.19V177.43H1380.92Z"/><rect class="cls-6" x="1409.13" y="206.84" width="153.78" height="160.31"/><path class="cls-3" d="M1562.91,367.81a25.94,25.94,0,0,1,4.41,3.8c2.59,2.46,6.1,5.92,9.91,9.78s7.2,7.42,9.6,10a24.57,24.57,0,0,1,3.72,4.44,23.38,23.38,0,0,1-4.4-3.78c-2.59-2.45-6.11-5.92-9.91-9.8s-7.24-7.44-9.63-10.06A23.42,23.42,0,0,1,1562.91,367.81Z"/><path class="cls-3" d="M1562.48,207.27a25.2,25.2,0,0,1,3.8-4.41c2.46-2.59,5.9-6.1,9.78-9.91s7.42-7.2,10-9.62a23.35,23.35,0,0,1,4.46-3.7,24.67,24.67,0,0,1-3.78,4.4c-2.46,2.59-5.92,6.11-9.8,9.91s-7.44,7.22-10.06,9.63A23.42,23.42,0,0,1,1562.48,207.27Z"/><path class="cls-3" d="M1408.7,207.67a25.94,25.94,0,0,1-4.41-3.8c-2.59-2.46-6.1-5.9-9.91-9.78s-7.22-7.42-9.62-10a23.13,23.13,0,0,1-3.7-4.44,24.31,24.31,0,0,1,4.38,3.78c2.59,2.45,6.11,5.92,9.91,9.8s7.24,7.44,9.63,10.06A23.41,23.41,0,0,1,1408.7,207.67Z"/><path class="cls-3" d="M1562.48,367.12V355.43c0-7.58,0-18.64-.15-32.67-.08-28.09-.18-68.08-.31-116l.59.59H1409.28l.68-.68c0,58.84,0,113.88-.1,160.28l-.58-.59,111,.3,31.2.17h10.39a3.77,3.77,0,0,1,.74,0h-10.89l-31,.15-111.42.3h-.59v-.2c0-46.43,0-101.47-.08-160.28v-.68h154.63v.68c-.12,48.05-.23,88.17-.3,116.34,0,14-.12,25-.15,32.53,0,3.7,0,6.61-.08,8.54v2.18A3.3,3.3,0,0,1,1562.48,367.12Z"/><path class="cls-4" d="M1517.87,255.75a57.65,57.65,0,0,0-57.93-7.27s-2.88,38-2.66,54.66,16.79,19.17,16.79,19.17v18l40.32,1.52,6-84.14Z"/><path class="cls-3" d="M1474,322.07a38.67,38.67,0,0,0,21.63-6.18s-5.11,11.93-21.66,10.44Z"/><path class="cls-4" d="M1518.27,274.82c.28-.12,11.4-3.3,11,8s-11.68,8.63-11.68,8.26S1518.27,274.82,1518.27,274.82Z"/><path class="cls-3" d="M1521.17,286.91a3,3,0,0,0,.51.31,2,2,0,0,0,1.49,0,5,5,0,0,0,2.4-4.31,6.51,6.51,0,0,0-.46-2.84,2.3,2.3,0,0,0-1.44-1.65,1,1,0,0,0-1.19.5c-.17.31-.1.55-.15.56s-.25-.2-.13-.66a1.32,1.32,0,0,1,.46-.69,1.45,1.45,0,0,1,1.11-.25,2.73,2.73,0,0,1,2,1.82,6.61,6.61,0,0,1,.59,3.19c-.15,2.28-1.39,4.38-3,4.79a2.11,2.11,0,0,1-1.8-.35C1521.17,287.19,1521.17,286.94,1521.17,286.91Z"/><path class="cls-3" d="M1465.36,274a2.4,2.4,0,0,0,2.3,2.4,2.26,2.26,0,0,0,2.43-2.09v-.06a2.36,2.36,0,0,0-2.28-2.38,2.26,2.26,0,0,0-2.44,2.07Z"/><path class="cls-3" d="M1463.06,271.81c.3.3,2.1-1,4.64-1s4.41,1.29,4.69,1-.17-.69-1-1.29a6.61,6.61,0,0,0-3.77-1.16,6.28,6.28,0,0,0-3.68,1.19C1463.19,271.1,1462.91,271.66,1463.06,271.81Z"/><path class="cls-3" d="M1490.42,275.06a2.38,2.38,0,0,0,2.28,2.4,2.28,2.28,0,0,0,2.44-2.11v0a2.38,2.38,0,0,0-2.28-2.38,2.25,2.25,0,0,0-2.44,2Z"/><path class="cls-3" d="M1488.13,272.27c.3.31,2.1-1,4.64-1s4.43,1.29,4.69,1-.15-.69-1-1.29a6.36,6.36,0,0,0-3.75-1.16A6.26,6.26,0,0,0,1489,271C1488.24,271.58,1488,272.14,1488.13,272.27Z"/><path class="cls-3" d="M1478.87,291.11a18.08,18.08,0,0,0-4.15-.74c-.64,0-1.27-.2-1.37-.64a3.31,3.31,0,0,1,.43-1.92q.91-2.38,1.93-5c2.66-7.06,4.59-12.86,4.31-13s-2.68,5.54-5.35,12.59c-.64,1.73-1.26,3.4-1.85,5a3.83,3.83,0,0,0-.33,2.54,1.65,1.65,0,0,0,1.07,1,4,4,0,0,0,1.11.15A15.7,15.7,0,0,0,1478.87,291.11Z"/><path class="cls-3" d="M1487.47,262.29c.25.69,2.79.36,5.78.73s5.4,1.17,5.8.55c.18-.3-.23-.94-1.21-1.65a9.91,9.91,0,0,0-4.31-1.5,9.62,9.62,0,0,0-4.53.53C1487.91,261.37,1487.35,262,1487.47,262.29Z"/><path class="cls-3" d="M1464,264.42c.45.58,2.2,0,4.31,0s3.9.4,4.31-.21c.18-.3-.1-.88-.88-1.42a6,6,0,0,0-3.52-.94,5.82,5.82,0,0,0-3.44,1.16C1464.05,263.55,1463.8,264.14,1464,264.42Z"/><path class="cls-3" d="M1451.77,238a6.11,6.11,0,0,1,2.26-5.47,4.36,4.36,0,0,1,5.63.41,5.06,5.06,0,0,1,4.35-6.15c2.71-.17,5,1.88,7.63,2.59a12.29,12.29,0,0,0,7.73-.89c2.46-1,4.76-2.36,7.24-3.3a21.22,21.22,0,0,1,27.13,12.44,9.42,9.42,0,0,1,9.91,3.78,15.48,15.48,0,0,1,2.38,10.89,35.36,35.36,0,0,1-1.9,7.44v.64c-.18,9.12-1.21,19.83-5.09,19.83-6.79.12-5.17-12.67-5.17-12.67-8.26-3.21-5.22-15.68-7.3-17.56s-6.44-6.3-23.86,2.61c-6.77,3.45-15.76,3.3-20.67,2.23h-.5a15.45,15.45,0,0,1-4.48-1.88,9,9,0,0,1-3.68-4.1,4.84,4.84,0,0,1,1-5.19A10.71,10.71,0,0,1,1451.77,238Z"/><path class="cls-3" d="M1478.89,303.52a7.58,7.58,0,0,0,2.92-.35,4.21,4.21,0,0,0,2.2-2,4.33,4.33,0,0,0,0-3.57,4.44,4.44,0,0,0-.46-.83c-.23-.23-.18-.21-.41-.18a5,5,0,0,0-.88.35l-.91.36c-1.17.48-2.23.89-3.12,1.22a9.25,9.25,0,0,1-3,.89,9.75,9.75,0,0,1,2.71-1.52c.86-.43,1.88-.91,3-1.42l.88-.4a9,9,0,0,1,1-.41,1.16,1.16,0,0,1,.81,0,1.65,1.65,0,0,1,.59.46,5,5,0,0,1,.46,5.42,4.69,4.69,0,0,1-2.78,2.25,4.59,4.59,0,0,1-2.38.1C1479.12,303.77,1478.87,303.58,1478.89,303.52Z"/><g id="freepik--Chair--inject-98"><path class="cls-7" d="M1077.72,496.53a27.1,27.1,0,0,1,26.44-22.75c57.07-.76,202.38-2.07,210.18,4.11,9.72,7.72,14.87,11.67,14,23.91-.71,11.24-13,205.37-13,205.37h-272Z"/><path class="cls-8" d="M1284.38,707.27a4.11,4.11,0,0,1-.08-.58,8.17,8.17,0,0,0-.13-1.65c-.12-1.52-.28-3.7-.48-6.46s-.43-6.26-.56-10.26-.4-8.56-.4-13.6c0-2.53,0-5.17-.08-7.91s0-5.62.1-8.58c0-5.93.35-12.26.63-18.92.76-13.32,2-27.92,4-43.18s4.81-29.74,7.63-42.71c1.5-6.49,2.89-12.67,4.44-18.41.76-2.86,1.44-5.63,2.2-8.26s1.5-5.17,2.2-7.6c1.35-4.86,2.83-9.17,4-13s2.33-7.07,3.3-9.73,1.65-4.66,2.18-6.11l.59-1.65c.13-.35.21-.53.21-.53a2.61,2.61,0,0,1-.13.56l-.51,1.65c-.48,1.47-1.16,3.54-2,6.18s-2,5.93-3.14,9.77-2.58,8.16-3.88,13c-.69,2.43-1.4,5-2.15,7.62s-1.4,5.44-2.15,8.26c-1.52,5.72-2.88,11.91-4.36,18.39-2.79,13-5.44,27.43-7.55,42.66s-3.3,29.74-4.11,43.09c-.3,6.61-.66,13-.71,18.9,0,3-.15,5.82-.15,8.56v7.9c0,5,.18,9.6.28,13.6s.25,7.44.4,10.24.25,5,.31,6.49v1.65A3.11,3.11,0,0,1,1284.38,707.27Z"/><path class="cls-8" d="M1131.46,571.5a1,1,0,0,0,.41-.17,4,4,0,0,1,1.26,0,5.67,5.67,0,0,1,4,2.35,6.49,6.49,0,0,1,.4,6.77,8.68,8.68,0,0,1-2.64,3.19,8.26,8.26,0,0,1-4.21,1.47,6.84,6.84,0,0,1-4.35-1.14,5.42,5.42,0,0,1-2.25-3.54,7.39,7.39,0,0,1,2.08-6.51c3.06-2.61,5.75-2.69,5.7-2.45s-.15,0-.41,0a6.87,6.87,0,0,0-1.16.4,12,12,0,0,0-3.7,2.4,6.87,6.87,0,0,0-1.73,5.93,4.61,4.61,0,0,0,1.95,3,6,6,0,0,0,3.8,1,7.42,7.42,0,0,0,3.78-1.31,7.52,7.52,0,0,0,2.43-2.84,5.92,5.92,0,0,0-.18-6.08,5.63,5.63,0,0,0-3.52-2.36A13.22,13.22,0,0,0,1131.46,571.5Z"/><path class="cls-8" d="M1174.11,546.83c0,.18-2.81-.33-7.3.08a33.48,33.48,0,0,0-27.43,19.28c-1.93,4.08-2.4,6.87-2.58,6.84a7.8,7.8,0,0,1,.31-2,28.09,28.09,0,0,1,1.65-5.12,32.55,32.55,0,0,1,28-19.58,29.33,29.33,0,0,1,5.4.15A7.58,7.58,0,0,1,1174.11,546.83Z"/><path class="cls-8" d="M1095.22,597.34a5.72,5.72,0,0,1,.64-1.4,21.1,21.1,0,0,1,2.4-3.44,25.5,25.5,0,0,1,25.08-8.56,22.56,22.56,0,0,1,4,1.27,6,6,0,0,1,1.37.71c0,.17-2-.78-5.49-1.39a26.57,26.57,0,0,0-24.52,8.36C1096.38,595.47,1095.37,597.42,1095.22,597.34Z"/><path class="cls-8" d="M1147.85,604.1a10.54,10.54,0,0,1-2.79-2,31.18,31.18,0,0,1-5.4-6.36,30.47,30.47,0,0,1-3.52-7.55,9.91,9.91,0,0,1-.68-3.39,61,61,0,0,0,5,10.48A64,64,0,0,0,1147.85,604.1Z"/><path class="cls-8" d="M1223.3,573.79a1.82,1.82,0,0,1,.41-.17,4,4,0,0,1,1.26,0,5.73,5.73,0,0,1,4,2.35,6.61,6.61,0,0,1,.41,6.77,8.72,8.72,0,0,1-2.66,3.19,8.26,8.26,0,0,1-4.21,1.47,6.84,6.84,0,0,1-4.35-1.14,5.49,5.49,0,0,1-2.25-3.54,7.39,7.39,0,0,1,2.07-6.63c3.06-2.59,5.75-2.69,5.7-2.45s-.15,0-.41.08a6.87,6.87,0,0,0-1.16.4,12,12,0,0,0-3.7,2.4,6.87,6.87,0,0,0-1.65,5.93,4.68,4.68,0,0,0,1.95,3,6,6,0,0,0,3.8,1,7.42,7.42,0,0,0,3.78-1.31,7.52,7.52,0,0,0,2.43-2.84,5.92,5.92,0,0,0-.18-6.08,5.63,5.63,0,0,0-3.52-2.36A13.22,13.22,0,0,0,1223.3,573.79Z"/><path class="cls-8" d="M1265.88,549.12c0,.18-2.81-.33-7.3.08a33.48,33.48,0,0,0-27.4,19.22c-1.93,4.08-2.4,6.87-2.58,6.84a7.8,7.8,0,0,1,.31-2,28.09,28.09,0,0,1,1.65-5.12,32.55,32.55,0,0,1,27.94-19.58,29.33,29.33,0,0,1,5.4.15A7.59,7.59,0,0,1,1265.88,549.12Z"/><path class="cls-8" d="M1187.06,599.63a5.72,5.72,0,0,1,.64-1.4,22.23,22.23,0,0,1,2.4-3.44,25.58,25.58,0,0,1,25.08-8.56,23.28,23.28,0,0,1,4,1.27,5,5,0,0,1,1.35.73c0,.15-2-.79-5.49-1.4a26.54,26.54,0,0,0-24.5,8.36C1188.22,597.77,1187.21,599.72,1187.06,599.63Z"/><path class="cls-8" d="M1239.69,606.39a10.54,10.54,0,0,1-2.79-2,31.71,31.71,0,0,1-5.4-6.36,30.47,30.47,0,0,1-3.52-7.55,9.91,9.91,0,0,1-.68-3.3,61.13,61.13,0,0,0,5,10.46A64,64,0,0,0,1239.69,606.39Z"/></g><path class="cls-9" d="M1337.94,436.37c-73.2-72.32-164.34-89.59-164.34-89.59-54.2,32.32-90.76,86.57-118.61,151.67,46.7,43.21,106.74,84.63,158.13,88.43C1294.38,566.34,1337.94,436.37,1337.94,436.37Z"/><path class="cls-5" d="M1311.85,493.79a2.61,2.61,0,0,1-.18-.5l-.46-1.49c-.41-1.35-1-3.3-1.75-5.82L1303,464.13l.31.18-35.91,11.57.23-.21a1.06,1.06,0,0,1-.1.18c-.1.13-.35.2-.43.13a.46.46,0,0,1-.23-.23,1.48,1.48,0,0,1,0-.26V451.32c0-4.33-.18-8.72-.43-13.22a118.5,118.5,0,0,0-1.42-13.7l.51.33-32.83,7.62L1212.9,437l-.43.1v-.43c-2.94-15.43-5.75-30.09-8.26-43.61l.5.31a294.37,294.37,0,0,1-52.15,9.1h-.26v-.26c-1.37-11.24-2.46-20.16-3.21-26.32-.36-3-.63-5.39-.83-7-.08-.78-.13-1.37-.18-1.82a5.8,5.8,0,0,1,0-.61,2.16,2.16,0,0,1,.12.59,16.51,16.51,0,0,0,.28,1.8c.21,1.65.55,4,1,7,.81,6.15,2,15.07,3.45,26.29l-.3-.25a299.6,299.6,0,0,0,51.69-9.17l.41-.12V393c2.59,13.52,5.42,28.17,8.38,43.59l-.51-.33,19.83-4.63,32.65-7.57.43-.1v.43a114.51,114.51,0,0,1,1.4,13.8c.25,4.51.35,8.94.41,13.22s0,8.53,0,12.61v11.53h0c-.08,0-.17,0-.21.08h0l-.21-.13-.18-.08.41-.13,36.1-11.53.25-.08v.26l6.2,21.93,1.65,5.85.4,1.5A1.85,1.85,0,0,1,1311.85,493.79Z"/><path class="cls-5" d="M1297.85,516.8a1.93,1.93,0,0,1-.17-.38c-.12-.3-.26-.68-.45-1.17l-1.65-4.56c-1.42-4-3.47-9.91-6.08-17.37l.28.15L1247,504.91l-.4.1v-.4c-1-7.88-2.16-16.33-3.42-25.23s-2.59-18.29-4.31-27.92l.51.33L1208,459.07l-21.22,5-.43.1v-.45c-2.94-15.42-5.73-30.07-8.26-43.59l.5.3a294.58,294.58,0,0,1-52.15,9.12h-.26v-.25c-1.37-11.24-2.46-20.18-3.21-26.32-.35-3-.63-5.39-.81-7-.08-.76-.15-1.37-.2-1.8a3.57,3.57,0,0,1,0-.63,4,4,0,0,1,.12.61,15.76,15.76,0,0,0,.26,1.8c.21,1.65.55,4,1,7,.81,6.16,2,15.07,3.45,26.29l-.3-.23a299.6,299.6,0,0,0,51.87-9.34l.41-.12v.41c2.59,13.52,5.42,28.09,8.39,43.59l-.51-.35,21.2-5,31.39-7.25.43-.1v.43c1.65,9.67,3,19.05,4.28,28s2.35,17.37,3.3,25.25l-.45-.3L1289.62,493h.2l.08.2c2.51,7.49,4.49,13.38,5.87,17.43.64,2,1.16,3.54,1.52,4.61.15.5.28.88.36,1.17Z"/><path class="cls-5" d="M1269.18,552.43v-1.37c0-.89.18-2.26.33-4,.31-3.54.76-8.67,1.34-15.25l.28.23-44.38,14.74-.38.13v-.4c-3.5-18.18-7.63-39.66-12.13-62.94l.51.33-27.15,6.26-25.4,5.88-.43.1-.08-.43c-2.94-15.43-5.73-30.09-8.26-43.59l.48.3a295.09,295.09,0,0,1-52.15,9.12h-.26v-.26c-1.37-11.24-2.46-20.18-3.21-26.32-.35-3-.63-5.39-.81-7-.08-.78-.15-1.37-.2-1.8a3.59,3.59,0,0,1,0-.63,2.45,2.45,0,0,0,.12.61c.12.4.15,1,.26,1.8.21,1.65.55,4,1,7,.81,6.15,2,15.05,3.45,26.29l-.3-.23a299.88,299.88,0,0,0,52-9.32l.41-.12.08.41c2.59,13.5,5.42,28.09,8.39,43.57l-.51-.33,25.4-5.9,27.11-6.23.43-.1v.45c4.43,23.28,8.53,44.78,12,63l-.45-.26,44.46-14.49.3-.1v.33q-1,9.91-1.54,15.22c-.18,1.65-.33,3-.43,4A7.63,7.63,0,0,1,1269.18,552.43Z"/><path class="cls-5" d="M1210.11,586.61l-.1-.31-.26-.94c-.21-.88-.53-2.1-.94-3.65-.79-3.3-1.95-8-3.42-13.91s-3.16-13.22-5.12-21.48-4.1-17.66-6.08-27.94l.46.31-52.53,12.23-.45.12-.08-.45c-.26-1.44-.56-3-.86-4.54-2.61-13.63-5.12-26.77-7.47-39l.51.31a292.83,292.83,0,0,1-52.15,9.12h-.3v-.3c-1.34-11.05-2.43-20-3.17-26.19-.36-3.06-.63-5.44-.83-7.09-.08-.78-.15-1.39-.18-1.85a3,3,0,0,1,0-.63,2.87,2.87,0,0,1,.13.63l.26,1.82c.23,1.65.56,4,1,7.07.83,6.2,2,15.12,3.45,26.17l-.31-.26a299.39,299.39,0,0,0,52-9.32l.41-.12.1.43c2.35,12.29,4.87,25.41,7.5,39,.3,1.55.59,3.11.86,4.54l-.51-.33,52.56-12.16.38-.08.08.4c1.93,10.24,4.1,19.6,5.95,27.92s3.55,15.58,5,21.6,2.46,10.67,3.21,13.95c.36,1.65.63,2.81.83,3.7l.2.94C1210.11,586.5,1210.13,586.61,1210.11,586.61Z"/><path class="cls-10" d="M1182.2,580.7a13.93,13.93,0,0,1-.61-2.28l-1.42-6.38c-1.16-5.4-2.74-13-4.48-21.48l.51.33-5,1.16c-9.67,2.25-18.44,4.23-24.79,5.62l-7.53,1.65a19.09,19.09,0,0,1-2.79.48,16.31,16.31,0,0,1,2.71-.81l7.49-1.87c6.31-1.55,15.07-3.64,24.79-5.88l5-1.14.43-.1v.43c1.65,8.58,3.17,16.16,4.2,21.6.46,2.63.86,4.78,1.16,6.43A15,15,0,0,1,1182.2,580.7Z"/><path class="cls-10" d="M1121.26,550.59a14.46,14.46,0,0,1-.61-2.33c-.36-1.65-.83-3.83-1.37-6.43-1.12-5.42-2.61-12.94-4.21-21.25-.08-.51-.18-1-.28-1.49l.55.33c-7.87,2.13-15,3.65-20.18,4.58-2.58.48-4.68.81-6.13,1a11.4,11.4,0,0,1-2.26.23,13,13,0,0,1,2.21-.55l6.06-1.27c5.14-1.09,12.23-2.69,20.06-4.82l.45-.12.08.45.3,1.49c1.65,8.26,3,15.85,3.95,21.3.45,2.61.81,4.79,1.11,6.48A12.77,12.77,0,0,1,1121.26,550.59Z"/><path class="cls-10" d="M1059.95,503a32.45,32.45,0,0,1-1.32-10.48,16.66,16.66,0,0,1,1.09,5.19A16.14,16.14,0,0,1,1059.95,503Z"/><path class="cls-5" d="M1324.19,469.64a1.37,1.37,0,0,1-.1-.41,9.21,9.21,0,0,0-.25-1.21c-.2-1.11-.48-2.68-.86-4.71-.74-4.16-1.8-10.21-3.16-17.85l.28.2-25,4h-.33v-.31c-2.51-15-5.52-33-8.84-52.88l.5.33-34.07,7.93-17.37,4-.41.1-.1-.41c-3.68-15-7.12-29.21-9.7-42.32l.43.31-50.71,7.78h-.25V374c-1-8.13-1.75-14.56-2.3-19-.23-2.18-.43-3.87-.56-5.06a10.41,10.41,0,0,0-.13-1.29,1.3,1.3,0,0,1,0-.45v.43l.2,1.29.69,5c.59,4.44,1.45,10.86,2.53,19l-.28-.21,50.66-8.06h.36l.08.36c2.61,13.07,6.06,27.28,9.77,42.27l-.51-.31,17.37-4,34.07-7.9.43-.1v.43c3.3,19.83,6.2,38,8.66,52.88l-.36-.26,25-3.83h.25v.23c1.26,7.65,2.25,13.71,2.92,17.88.33,2,.58,3.62.74,4.74.08.51.13.91.18,1.22A1.55,1.55,0,0,1,1324.19,469.64Z"/><path class="cls-8" d="M1329.77,435.13a2,2,0,0,1-.46.18l-1.37.41c-1.19.4-3,.79-5.24,1.65a108.08,108.08,0,0,0-18.37,8.26,128.47,128.47,0,0,0-24.09,17.53,166.13,166.13,0,0,0-23.94,27.54A246.2,246.2,0,0,0,1238,522.37c-5,10.1-9,19.43-12.19,27.31s-5.75,14.31-7.5,18.74c-.88,2.16-1.55,3.88-2,5.11-.21.53-.4,1-.55,1.31a2.53,2.53,0,0,1-.21.45,2.2,2.2,0,0,1,.13-.48c.12-.35.28-.79.48-1.34q.66-1.85,1.88-5.16c1.65-4.48,4.1-10.92,7.25-18.85s7.11-17.28,12-27.45a242.8,242.8,0,0,1,18.34-31.82,163.3,163.3,0,0,1,24.11-27.64A125.89,125.89,0,0,1,1304,445.07a100.49,100.49,0,0,1,18.57-8c2.26-.78,4.1-1.12,5.3-1.47l1.39-.33A3,3,0,0,1,1329.77,435.13Z"/><path class="cls-2" d="M799.81,207.45l.23,4.44a3.89,3.89,0,1,1,.31,5.92l.25,4.46a3.73,3.73,0,0,1,2.43-1.06,3.87,3.87,0,1,1-2.11,6.94l.23,4.46a3.82,3.82,0,0,1,2.43-1.06,3.87,3.87,0,0,1,.41,7.72,3.78,3.78,0,0,1-2.53-.78l.25,4.46a3.73,3.73,0,0,1,2.43-1.06,3.87,3.87,0,0,1,.41,7.72,3.73,3.73,0,0,1-2.53-.79l.23,4.48a3.87,3.87,0,1,1,.31,5.87l.25,4.48a3.73,3.73,0,0,1,2.43-1.06,3.87,3.87,0,0,1,.41,7.72,3.73,3.73,0,0,1-2.53-.79l.15,2.78,119.12-2.86-6-69.4Z"/><path class="cls-4" d="M797.17,204.51l.25,4.46a3.77,3.77,0,0,1,2.43-1.06,3.87,3.87,0,1,1-2.11,6.92l.23,4.46a3.89,3.89,0,1,1,.31,5.92l.25,4.46a3.77,3.77,0,0,1,2.43-1.06,3.87,3.87,0,1,1-2.11,6.94l.23,4.46a3.82,3.82,0,0,1,2.43-1.06,3.87,3.87,0,0,1,.41,7.72,3.78,3.78,0,0,1-2.53-.78l.25,4.46a3.77,3.77,0,0,1,2.43-1.06,3.87,3.87,0,0,1,.41,7.72,3.77,3.77,0,0,1-2.53-.79l.23,4.48a3.87,3.87,0,1,1,.31,5.87l.15,2.78L919.74,263l-3.47-64.82Z"/><path class="cls-3" d="M916.94,211c0,.25-26.64,1.85-59.48,3.62s-59.48,3-59.48,2.76,26.64-1.87,59.48-3.62S916.94,210.76,916.94,211Z"/><path class="cls-3" d="M917.51,221.33c0,.23-26.64,1.85-59.48,3.62s-59.57,3-59.57,2.74,26.62-1.85,59.48-3.6S917.49,221.08,917.51,221.33Z"/><path class="cls-3" d="M918.07,231.69c0,.25-26.65,1.87-59.48,3.62s-59.48,3-59.57,2.76,26.64-1.85,59.48-3.62S918.05,231.46,918.07,231.69Z"/><path class="cls-3" d="M918.61,242.15c0,.23-26.64,1.85-59.48,3.62s-59.57,3-59.57,2.76,26.64-1.87,59.48-3.62S918.6,241.84,918.61,242.15Z"/><path class="cls-3" d="M919.17,252.44c0,.23-26.64,1.85-59.48,3.6s-59.57,3-59.58,2.76,26.64-1.85,59.48-3.62S919.16,252.2,919.17,252.44Z"/><rect class="cls-10" x="815.03" y="203.59" width="0.83" height="64.9" transform="translate(-11.44 43.87) rotate(-3.06)"/><path class="cls-3" d="M828,267.86c-.23,0-1.21-14.49-2.16-32.39s-1.54-32.42-1.31-32.44,1.21,14.49,2.16,32.39S828.23,267.84,828,267.86Z"/><path class="cls-3" d="M806.78,269c-.23,0-1.21-14.47-2.16-32.37s-1.54-32.47-1.31-32.47,1.21,14.47,2.16,32.39S807,269,806.78,269Z"/><path class="cls-3" d="M839.6,267.23c-.23,0-1.21-14.49-2.16-32.39s-1.54-32.35-1.31-32.35,1.21,14.49,2.16,32.4S839.83,267.22,839.6,267.23Z"/><path class="cls-3" d="M851.21,266.62c-.25,0-1.21-14.49-2.16-32.39s-1.54-32.42-1.31-32.44,1.21,14.47,2.16,32.39S851.44,266.6,851.21,266.62Z"/><path class="cls-3" d="M862.81,266c-.23,0-1.19-14.49-2.15-32.39s-1.55-32.42-1.31-32.44,1.21,14.49,2.16,32.39S863.06,266,862.81,266Z"/><path class="cls-3" d="M874.43,265.37c-.23,0-1.21-14.47-2.16-32.39s-1.54-32.42-1.31-32.42,1.21,14.47,2.16,32.39S874.68,265.37,874.43,265.37Z"/><path class="cls-3" d="M886,264.75c-.23,0-1.21-14.49-2.16-32.39s-1.54-32.42-1.31-32.44,1.21,14.49,2.16,32.39S886.28,264.74,886,264.75Z"/><path class="cls-3" d="M897.66,264.13c-.25,0-1.21-14.49-2.16-32.39s-1.55-32.42-1.31-32.44,1.21,14.49,2.16,32.4S897.89,264.11,897.66,264.13Z"/><path class="cls-3" d="M909.26,263.51c-.23,0-1.21-14.49-2.16-32.39s-1.54-32.42-1.31-32.44S907,213.17,908,231.08,909.51,263.5,909.26,263.51Z"/><path class="cls-8" d="M907.82,224.25a2.78,2.78,0,0,1-.84.13l-2.45.21-8.94.59c-7.57.48-18,1.06-29.56,1.65s-22,1-29.59,1.24-12.28.26-12.26,0L866,226l29.58-1.37,9-.35H907A2.66,2.66,0,0,1,907.82,224.25Z"/><path class="cls-8" d="M910.24,236.1c0,.23-19.22,1.31-43,2.4s-43,1.78-43,1.54,19.2-1.31,43-2.4S910.15,235.85,910.24,236.1Z"/><path class="cls-8" d="M911.51,246.46c0,.25-19.2,1.32-43,2.41s-43,1.77-43,1.54,19.2-1.32,43-2.4S911.49,246.23,911.51,246.46Z"/><path class="cls-3" d="M810.5,211.3a10.41,10.41,0,0,0,3.82,6.61,6.81,6.81,0,1,0,2.5-12.28"/><path class="cls-7" d="M810.22,211.28a5.42,5.42,0,1,0,5.12-5.7h0A5.42,5.42,0,0,0,810.22,211.28Z"/><path class="cls-7" d="M807.1,209.28a3.3,3.3,0,1,0-.06-1.18A3.3,3.3,0,0,0,807.1,209.28Z"/><path class="cls-8" d="M810.14,212.29c0-.13.51-.1,1.17-.35a3.14,3.14,0,0,0,1.85-1.78,3.3,3.3,0,0,0-.25-2.59c-.33-.64-.71-.94-.64-1.06s.59,0,1.14.71a3.44,3.44,0,0,1,.56,3.22,3.3,3.3,0,0,1-2.51,2.1C810.58,212.67,810.1,212.41,810.14,212.29Z"/><path class="cls-8" d="M812.86,207.12c.12-.21.93,0,1.83-.2s1.54-.78,1.65-.63-.25,1.16-1.54,1.47S812.66,207.29,812.86,207.12Z"/><path class="cls-8" d="M813.69,215.35c-.23,0-.46-1-1.32-1.8s-1.87-1-1.87-1.21,1.31-.5,2.46.58S813.92,215.4,813.69,215.35Z"/><path class="cls-3" d="M902,207.45a10.46,10.46,0,0,0,3.82,6.61,6.81,6.81,0,1,0,2.5-12.28"/><path class="cls-10" d="M912.52,206a5.24,5.24,0,1,1-5.52-5,5.24,5.24,0,0,1,5.52,5Z"/><path class="cls-10" d="M915.29,203.77a3.14,3.14,0,1,1-3.3-3,3.14,3.14,0,0,1,3.3,3Z"/><path class="cls-8" d="M912.7,207a1.66,1.66,0,0,1-1.24.38,3.14,3.14,0,0,1-2.64-1.75,3.3,3.3,0,0,1,.2-3.16c.46-.71,1-.89,1-.81s-.25.45-.5,1.09a3.19,3.19,0,0,0,0,2.5,3,3,0,0,0,1.95,1.54C912.2,206.92,912.66,206.84,912.7,207Z"/><path class="cls-8" d="M909.54,202.28c.18.17-.59,1-1.88.84s-1.83-1.14-1.65-1.27.84.33,1.73.43S909.41,202.08,909.54,202.28Z"/><path class="cls-8" d="M909.59,210.28c-.23,0-.55-1.24.45-2.41s2.35-1,2.31-.81-.94.51-1.65,1.37S909.84,210.26,909.59,210.28Z"/><polygon class="cls-3" points="191.21 391.86 288.57 404.27 287.26 368.63 191.21 391.86"/><rect class="cls-7" x="223.61" y="334.06" width="31.13" height="93.79" transform="translate(-160.35 587.63) rotate(-85.23)"/><path class="cls-8" d="M274.06,378.66c0,.23-15.7-.88-35-2.5s-34.95-3.11-34.93-3.3,15.7.88,35,2.48S274.07,378.43,274.06,378.66Z"/><path class="cls-8" d="M273.88,386.75c0,.23-15.7-.88-35-2.5s-34.95-3.11-34.93-3.3,15.68.88,35,2.48S273.89,386.52,273.88,386.75Z"/><polygon class="cls-2" points="221.43 359.43 257.65 362.43 255.75 364.05 258.23 366.22 255.27 367.57 257.92 369.92 219.96 366.75 222.32 364.75 221.15 362.6 223.18 361.56 221.43 359.43"/><path class="cls-3" d="M426.9,359.66a4.21,4.21,0,1,1-7.24,0h-5a4.26,4.26,0,0,1,.59,2.13,4.21,4.21,0,1,1-7.83-2.13h-4.87a4.1,4.1,0,0,1,.59,2.13,4.21,4.21,0,1,1-7.83-2.13h-5a4.1,4.1,0,0,1,.59,2.13,4.21,4.21,0,1,1-8.41,0,4.1,4.1,0,0,1,.59-2.13h-5a4.1,4.1,0,0,1,.59,2.13,4.21,4.21,0,1,1-8.41,0,4.1,4.1,0,0,1,.59-2.13h-5a4.21,4.21,0,1,1-7.24,0h-3.06V446.6l76,4.18-3.64-91.13Z"/><g class="cls-11"><path class="cls-4" d="M425.79,357.28a4.21,4.21,0,1,1-7.24,0h-4.87a4.26,4.26,0,0,1,.59,2.13,4.21,4.21,0,1,1-7.83-2.13h-5a4.1,4.1,0,0,1,.59,2.13,4.21,4.21,0,1,1-7.83-2.13h-4.87a4.1,4.1,0,0,1,.59,2.13,4.21,4.21,0,1,1-8.41,0,4.1,4.1,0,0,1,.59-2.13h-4.87a4.21,4.21,0,1,1-7.83,2.13,4.1,4.1,0,0,1,.59-2.13h-4.79a4.21,4.21,0,1,1-7.24,0H355v87h72.44v-87Z"/><path class="cls-3" d="M350.54,448.24c-.25,0-.64-21.07-.91-47.06s-.3-47.08,0-47.08.64,21.07.91,47.06S350.78,448.24,350.54,448.24Z"/><path class="cls-3" d="M362.18,448.12c-.25,0-.66-21.07-.93-47.06S361,354,361.25,354s.64,21.07.91,47.06S362.41,448.12,362.18,448.12Z"/><path class="cls-3" d="M367.94,448.12c-.23,0-.64-21.07-.91-47.06s-.3-47.08,0-47.08.64,21.07.91,47.06S368.17,448.12,367.94,448.12Z"/><path class="cls-3" d="M379.69,448.12c-.23,0-.64-21.07-.91-47.06s-.28-47.08,0-47.08.64,21.07.91,47.06S379.94,448.12,379.69,448.12Z"/><path class="cls-3" d="M391.44,448.12c-.23,0-.64-21.07-.91-47.06s-.28-47.08,0-47.08.64,21.07.91,47.06S391.69,448.12,391.44,448.12Z"/><path class="cls-3" d="M403.25,448.12c-.23,0-.64-21.07-.91-47.06s-.28-47.08,0-47.08.64,21.07.91,47.06S403.44,448.12,403.25,448.12Z"/><path class="cls-3" d="M414.34,448.12c-.23,0-.64-21.07-.91-47.06s-.28-47.08,0-47.08.64,21.07.91,47.06S414.59,448.12,414.34,448.12Z"/><path class="cls-3" d="M425.49,448.12c-.23,0-.64-21.07-.91-47.06s-.3-47.08,0-47.08.64,21.07.91,47.06S425.73,448.12,425.49,448.12Z"/><path class="cls-3" d="M373.79,448c-.23,0-.64-21.08-.91-47.08s-.28-47.06,0-47.06.64,21.05.91,47.06S374,448,373.79,448Z"/><path class="cls-3" d="M385.42,447.88c-.23,0-.64-21.07-.91-47.06s-.3-47.06,0-47.08.64,21.07.91,47.08S385.66,447.88,385.42,447.88Z"/><path class="cls-3" d="M397.06,447.76c-.25,0-.66-21.07-.93-47.06s-.28-47.08,0-47.08.64,21.07.91,47.08S397.29,447.76,397.06,447.76Z"/><path class="cls-3" d="M408.67,447.61c-.23,0-.64-21.07-.91-47.06s-.28-47.08,0-47.08.64,21.07.91,47.06S408.92,447.61,408.67,447.61Z"/><path class="cls-3" d="M419.78,448.24c-.25,0-.64-21.07-.91-47.06s-.3-47.08,0-47.08.64,21.07.91,47.06S420.06,448.24,419.78,448.24Z"/><path class="cls-3" d="M431.94,447.41c-.25,0-.64-21.08-.93-47.08s-.28-47.06,0-47.06.64,21.05.93,47.06S432.17,447.4,431.94,447.41Z"/><path class="cls-3" d="M444.41,436.37c0,.23-21.08.64-47.06.89s-47.08.28-47.08,0,21.07-.64,47.06-.91S444.4,436.14,444.41,436.37Z"/><path class="cls-3" d="M444.89,442.32c0,.23-21.07.64-47.06.89s-47.08.28-47.08,0,21.07-.64,47.08-.91S444.89,442.08,444.89,442.32Z"/><path class="cls-3" d="M444.3,424.74c0,.25-21.08.64-47.06.91s-47.08.28-47.08,0,21.07-.64,47.06-.89S444.28,424.48,444.3,424.74Z"/><path class="cls-3" d="M444.18,413.13c0,.23-21.08.63-47.08.89S350,414.3,350,414s21.07-.63,47.06-.89S444.17,412.91,444.18,413.13Z"/><path class="cls-3" d="M444.07,401.49c0,.23-21.08.64-47.08.89s-47.06.28-47.06,0,21.05-.64,47.06-.91S444.05,401.25,444.07,401.49Z"/><path class="cls-3" d="M444,389.86c0,.25-21.08.64-47.08.91s-47.06.26-47.06,0,21.05-.64,47.06-.89S443.93,389.63,444,389.86Z"/><path class="cls-3" d="M443.82,378.21c0,.25-21.07.64-47.06.91s-47.06.28-47.06,0,21.05-.63,47.06-.89S443.82,378,443.82,378.21Z"/><path class="cls-3" d="M443.7,366.65c0,.23-21.07.64-47.06.89s-47.06.28-47.08,0,21.07-.64,47.08-.91S443.7,366.36,443.7,366.65Z"/><path class="cls-3" d="M443.7,362c0,.23-21.07.64-47.06.89s-47.06.28-47.08,0,21.07-.64,47.08-.91S443.7,361.69,443.7,362Z"/><path class="cls-3" d="M443.7,372.54c0,.25-21.07.64-47.06.91s-47.06.28-47.08,0,21.07-.64,47.08-.89S443.7,372.31,443.7,372.54Z"/><path class="cls-3" d="M443.7,384.08c0,.25-21.07.64-47.06.91s-47.06.28-47.08,0,21.07-.63,47.08-.89S443.7,383.85,443.7,384.08Z"/><path class="cls-3" d="M443.7,395.61c0,.25-21.07.64-47.06.91s-47.06.28-47.08,0,21.07-.63,47.08-.89S443.7,395.38,443.7,395.61Z"/><path class="cls-3" d="M443.7,407.16c0,.23-21.07.63-47.06.89s-47.06.28-47.08,0,21.07-.63,47.08-.89S443.7,406.91,443.7,407.16Z"/><path class="cls-3" d="M443.7,418.69c0,.23-21.07.63-47.06.89s-47.06.28-47.08,0,21.07-.64,47.08-.91S443.7,418.45,443.7,418.69Z"/><path class="cls-3" d="M443.7,430.23c0,.23-21.07.63-47.06.89s-47.06.28-47.08,0,21.07-.64,47.08-.91S443.7,430,443.7,430.23Z"/><path class="cls-1" d="M425.79,357.28a4.21,4.21,0,1,1-7.24,0h-4.87a4.26,4.26,0,0,1,.59,2.13,4.21,4.21,0,1,1-7.83-2.13h-5a4.1,4.1,0,0,1,.59,2.13,4.21,4.21,0,1,1-7.83-2.13h-4.87a4.1,4.1,0,0,1,.59,2.13,4.21,4.21,0,1,1-8.41,0,4.1,4.1,0,0,1,.59-2.13h-4.87a4.21,4.21,0,1,1-7.83,2.13,4.1,4.1,0,0,1,.59-2.13h-4.79a4.21,4.21,0,1,1-7.24,0H355v87h72.44v-87Z"/></g><path class="cls-3" d="M386.2,370a10.41,10.41,0,0,0,3.82,6.61,6.81,6.81,0,1,0,2.5-12.28"/><path class="cls-10" d="M386.07,369.85a5.42,5.42,0,1,0,5.12-5.7h0A5.42,5.42,0,0,0,386.07,369.85Z"/><path class="cls-10" d="M383,367.85a3.3,3.3,0,1,0,3.18-3.43H386A3.3,3.3,0,0,0,383,367.85Z"/><path class="cls-8" d="M386,370.86c0-.13.51-.08,1.17-.33a3.17,3.17,0,0,0,1.85-1.8,3.3,3.3,0,0,0-.25-2.59c-.33-.63-.71-.94-.64-1s.59,0,1.14.69a3.44,3.44,0,0,1,.56,3.3,3.3,3.3,0,0,1-2.51,2.1C386.45,371.24,386,370.94,386,370.86Z"/><path class="cls-8" d="M388.71,365.69c.12-.21.93,0,1.83-.18s1.54-.78,1.73-.64-.25,1.17-1.54,1.47S388.56,365.87,388.71,365.69Z"/><path class="cls-8" d="M389.54,373.92c-.23,0-.46-1-1.31-1.8s-1.88-1-1.88-1.21,1.31-.48,2.46.58S389.79,374,389.54,373.92Z"/><path class="cls-8" d="M419.28,388.34c0,.23-11.57.43-25.81.43s-25.83-.2-25.83-.43,11.57-.43,25.83-.43S419.28,388.13,419.28,388.34Z"/><path class="cls-8" d="M419.28,393.71c0,.23-11.57.43-25.81.43s-25.83-.2-25.83-.43,11.57-.43,25.83-.43S419.28,393.46,419.28,393.71Z"/><path class="cls-8" d="M419.28,399.08c0,.23-11.57.43-25.81.43s-25.83-.2-25.83-.43,11.57-.43,25.83-.43S419.28,398.83,419.28,399.08Z"/><path class="cls-8" d="M419.28,404.43c0,.25-11.57.43-25.81.43s-25.83-.18-25.83-.43,11.57-.43,25.83-.43S419.28,404.2,419.28,404.43Z"/><path class="cls-8" d="M419.28,409.8c0,.25-11.57.43-25.81.43s-25.83-.18-25.83-.43,11.57-.43,25.83-.43S419.28,409.61,419.28,409.8Z"/><path class="cls-8" d="M419.28,415.18c0,.23-11.57.43-25.81.43s-25.83-.2-25.83-.43,11.57-.43,25.83-.43S419.28,414.94,419.28,415.18Z"/><path class="cls-8" d="M419.28,420.55c0,.23-11.57.43-25.81.43s-25.83-.2-25.83-.43,11.57-.43,25.83-.43S419.28,420.3,419.28,420.55Z"/><path class="cls-8" d="M524.85,662.28A1.75,1.75,0,0,1,523.2,661L464.39,437.06a1.76,1.76,0,1,1,3.4-.89h0l58.76,223.89a1.75,1.75,0,0,1-1.24,2.14h0A1.39,1.39,0,0,1,524.85,662.28Z"/><path class="cls-8" d="M509.32,667.81a1.75,1.75,0,0,1-1.65-1.31L448.87,442.6a1.76,1.76,0,1,1,3.4-.89h0L511,665.61a1.75,1.75,0,0,1-1.24,2.14h0A2.2,2.2,0,0,1,509.32,667.81Z"/><polygon class="cls-8" points="455.93 432.88 453.11 430.78 603.95 227.77 741.54 254.15 740.88 257.6 605.45 231.64 455.93 432.88"/><rect class="cls-8" x="417.06" y="333.7" width="249.36" height="3.52" transform="translate(-50.24 571.19) rotate(-53.48)"/><path class="cls-12" d="M230.49,283a9.91,9.91,0,1,0,0-.12Z"/><polygon class="cls-10" points="735.04 242.79 732.58 228.45 743.19 227.66 743.97 241.5 735.04 242.79"/><g class="cls-13"><polygon points="735.04 242.79 732.58 228.45 743.19 227.66 743.97 241.5 735.04 242.79"/></g><polyline class="cls-12" points="726.35 241.8 716.54 295.01 691.75 365.32 831.44 345.17 775.06 283.79 751.52 238.17 726.35 241.8"/><path class="cls-12" d="M446.15,438.83a11.09,11.09,0,1,0,11.09-11.09h0A11.09,11.09,0,0,0,446.15,438.83Z"/><path class="cls-12" d="M480.62,707.07c0-.74-.12-1.47-.12-2.23a44.35,44.35,0,0,1,88.68,0c0,.76-.08,1.49-.12,2.23Z"/><path class="cls-14" d="M722.45,690.46c-.55.12-2.88,2.48.45,6.23s23.35,14,27,7.88-5.2-10.39-5.2-10.39Z"/><path class="cls-14" d="M744.45,683.85s20.65-2.28,29.08-1.21c9.14,1.17,18.84-3.44,24.59-9.75a33,33,0,0,0,7.25-14.61l13.22-9.19s1.42-31.25-19.42-26.21l-24.34.86s-47.92,7.93-55.32,13.9c0,0-9,8.77-11.65,12.16-1,1.29-1.83,14.16,7.32,18.56,0,0-5.4,6.89-.64,10.79l2.23,1.65s-3.09,6.89-.18,8.86,25.89,8.94,32.42,4.4-1-9.78-4.49-10.24"/><path class="cls-15" d="M718.7,667.15a20.78,20.78,0,0,1,2.69.3c1.73.21,4.25.53,7.37.76,1.55.1,3.3.2,5.09.23s3.78,0,5.88.15a12.09,12.09,0,0,1,6.33,2,7,7,0,0,1,3.09,6.36,5.4,5.4,0,0,1-1.85,3.3,9.29,9.29,0,0,1-3.12,1.73,28.21,28.21,0,0,1-6.46,1.21,58.26,58.26,0,0,1-11.05-.21c-3.12-.33-5.62-.74-7.34-1a14.87,14.87,0,0,1-2.68-.56,18.9,18.9,0,0,1,2.71.23c1.75.2,4.26.51,7.37.76a62.67,62.67,0,0,0,10.91,0,28.31,28.31,0,0,0,6.26-1.21,8.87,8.87,0,0,0,2.84-1.57,4.63,4.63,0,0,0,1.55-2.76,6.2,6.2,0,0,0-2.73-5.57,11.7,11.7,0,0,0-5.9-1.9c-2-.18-4-.12-5.83-.21s-3.57-.18-5.14-.35c-3.12-.3-5.62-.69-7.35-1A13.22,13.22,0,0,1,718.7,667.15Z"/><path class="cls-15" d="M717,652.23a17.4,17.4,0,0,1,2.69.3c1.65.23,4.23.56,7.32.83s6.79.48,10.91.48a14.61,14.61,0,0,1,6.53,1,5.2,5.2,0,0,1,2.48,2.66,6.72,6.72,0,0,1,.35,3.7,8.89,8.89,0,0,1-4.18,5.73,14.34,14.34,0,0,1-6.28,2,62.32,62.32,0,0,1-11-.51l-7.34-.74a15.66,15.66,0,0,1-2.69-.4,17.77,17.77,0,0,1,2.71,0l7.37.48a68.59,68.59,0,0,0,10.86.31,13.65,13.65,0,0,0,5.92-2,8,8,0,0,0,3.77-5.16,5,5,0,0,0-2.36-5.47,13.85,13.85,0,0,0-6.13-.93,97.76,97.76,0,0,1-11-.66c-3.11-.35-5.6-.78-7.32-1.11A15.35,15.35,0,0,1,717,652.23Z"/><path class="cls-15" d="M727.68,654a27.07,27.07,0,0,1-1.87-3.82,23.55,23.55,0,0,1-2-3.75c.17-.17,1.65,1.19,2.74,3.3A7.12,7.12,0,0,1,727.68,654Z"/><path class="cls-14" d="M790.86,624.16l-19.53-2.59s-55.19-11.25-55.73-9.8-3.3,2-1.22,7.88,33.89,11.15,35.31,13,2.45,12.84,14.87,17.88,20.26,3.3,20.26,3.3"/><path class="cls-15" d="M784.88,653.9l-.41.12-1.27.18a29.75,29.75,0,0,1-5,0,43.16,43.16,0,0,1-7.65-1.35,42.15,42.15,0,0,1-9.6-3.73,22.31,22.31,0,0,1-8.61-9,50.38,50.38,0,0,1-2.64-6.43,6,6,0,0,0-.36-.73,1.75,1.75,0,0,0-.58-.36,16.83,16.83,0,0,0-1.65-.58c-1.16-.36-2.35-.68-3.57-1-4.86-1.27-10-2.5-15.25-4-2.63-.78-5.29-1.65-7.93-2.69a26.43,26.43,0,0,1-3.88-1.92,9.38,9.38,0,0,1-1.78-1.4,4,4,0,0,1-.68-1c-.18-.38-.23-.73-.36-1.07a8,8,0,0,1-.26-4.51,5.3,5.3,0,0,1,1.19-1.95,3.7,3.7,0,0,0,.55-.76l.13-.21a.58.58,0,0,1,.31-.2,1.85,1.85,0,0,1,.36,0h.58c2.88.18,5.6.66,8.26,1.09,5.4.89,10.59,1.85,15.53,2.79,9.91,1.87,18.74,3.65,26.19,5.19,1.85.36,3.64.79,5.3,1.07l4.79.66,7.65,1.09,4.84.73,1.26.21.43.1a1.3,1.3,0,0,1-.45,0l-1.26-.12-4.87-.58-7.68-.94-4.81-.61c-1.65-.26-3.45-.66-5.32-1l-26.22-5c-5-.91-10.13-1.87-15.52-2.74-2.69-.41-5.47-.89-8.26-1.07h-.66a.28.28,0,0,0-.08-.2h0c.64.23.17,0,.31.15h0a3.39,3.39,0,0,1-.68,1,4.58,4.58,0,0,0-1,1.65,7.27,7.27,0,0,0,.28,4,3.72,3.72,0,0,0,.86,1.75,8.69,8.69,0,0,0,1.65,1.26,27.27,27.27,0,0,0,3.75,1.85c2.59,1.06,5.22,1.9,7.85,2.68,5.22,1.55,10.34,2.78,15.2,4.06,1.22.33,2.43.66,3.6,1a13.86,13.86,0,0,1,1.75.63,2.07,2.07,0,0,1,.89.63,4,4,0,0,1,.45.88,49.85,49.85,0,0,0,2.59,6.38,21.58,21.58,0,0,0,8.26,8.79,42.27,42.27,0,0,0,9.42,3.8,43.44,43.44,0,0,0,7.55,1.47,33.4,33.4,0,0,0,4.86.17h1.27Z"/><path class="cls-15" d="M738.43,682.88a6.36,6.36,0,0,1,2,.1,19.51,19.51,0,0,1,5.32,1.57,17.52,17.52,0,0,1,3.3,2,5.88,5.88,0,0,1,2.45,3.83,4.74,4.74,0,0,1-2.45,4.36,9.17,9.17,0,0,1-5.25,1.09,98.53,98.53,0,0,1-18-2.66,46.52,46.52,0,0,1-5.29-1.65,9.35,9.35,0,0,1-1.87-.81,9.47,9.47,0,0,1,2,.48c1.26.36,3.06.86,5.32,1.35a116.94,116.94,0,0,0,17.93,2.4,8.46,8.46,0,0,0,4.78-.94,4,4,0,0,0,2.1-3.59,5.17,5.17,0,0,0-2.1-3.3,16.52,16.52,0,0,0-3.16-2A28.85,28.85,0,0,0,738.43,682.88Z"/><path class="cls-16" d="M882.1,570.07s24.47-40.28,30-66.87,33.92-68.77,43.16-79.78,45.85-23.83,45.85-23.83l13.52-7.3,104.74-9.2s69.68,7.34,90.78,26.59,37.57,63.27,37.57,85.26S1269,707.5,1269,707.5l-258.11-.33,5.78-94s-31.18-21.08-39.42-39.42-3.67-9.17-3.67-9.17-29.26,62.21-39.34,69.55-127.31,43.31-127.31,43.31l-16-61.52Z"/><path class="cls-16" d="M1186.85,417.36c-2.83.88-37.79,91.18-40.25,99.39s0,60,0,60l11.57,21.36s-3.3,15.6-.83,23L1105.58,631s-13.14-9-25.46,0L1019,636.17s17.93.2,12.59,27.69c-5.22,26.93-9.2,32.85-9.2,32.85l214.56-5s23.84-1.19,20.21-47-13.86-172.27-13.86-172.27S1227.64,404.71,1186.85,417.36Z"/><path class="cls-8" d="M1146.12,569.5a4.76,4.76,0,0,1-.51-1.11l-1.31-3.3c-.56-1.4-1.24-3.14-1.9-5.2s-1.54-4.36-2.23-7-1.65-5.49-2.3-8.61-1.42-6.46-2.08-9.91a182.61,182.61,0,0,1-2.53-23.28,187.34,187.34,0,0,1,.71-23.41c.43-3.57.78-7,1.35-10.13.26-1.65.48-3.11.78-4.58s.59-2.84.88-4.18c.53-2.66,1.21-5,1.75-7.14s1.06-3.87,1.54-5.32.81-2.48,1.07-3.3a12,12,0,0,1,.43-1.16,5,5,0,0,1-.26,1.21c-.23.84-.55,2-.93,3.3s-.93,3.3-1.39,5.35-1.14,4.46-1.65,7.14c-.26,1.34-.53,2.73-.81,4.18s-.48,3-.73,4.54c-.55,3.16-.88,6.61-1.27,10.11a175.54,175.54,0,0,0,1.8,46.46c.64,3.54,1.24,6.89,2,9.91s1.47,6,2.18,8.61,1.49,5,2.12,7,1.24,3.82,1.75,5.24l1.16,3.3A9.91,9.91,0,0,1,1146.12,569.5Z"/><path class="cls-8" d="M1220.77,667.43a6.45,6.45,0,0,1-.56-.63l-1.42-1.9c-.61-.84-1.37-1.85-2.3-3s-1.93-2.46-3.17-3.83-2.54-2.91-4.06-4.44-3.17-3.17-5-4.84a122.58,122.58,0,0,0-12.36-9.91,123.92,123.92,0,0,0-13.62-8.06c-2.2-1.06-4.26-2.1-6.28-2.91s-3.87-1.65-5.58-2.23-3.3-1.14-4.71-1.65-2.59-.83-3.59-1.09l-2.28-.68a3,3,0,0,1-.79-.3,3.67,3.67,0,0,1,.83.13l2.33.51c1,.23,2.23.53,3.65,1s3,.86,4.76,1.52,3.67,1.27,5.67,2.13,4.13,1.82,6.35,2.86a114.31,114.31,0,0,1,13.76,8.06,117.74,117.74,0,0,1,12.39,10c1.77,1.65,3.45,3.3,5,5s2.83,3.12,4,4.54,2.18,2.78,3.09,3.93a34.11,34.11,0,0,1,2.18,3.07c.53.86,1,1.45,1.31,2A3.41,3.41,0,0,1,1220.77,667.43Z"/><path class="cls-8" d="M1238.83,655.42c-.13.12-2-2-5.6-5a56.77,56.77,0,0,0-6.61-4.63,62.94,62.94,0,0,0-8.91-4.31,62.21,62.21,0,0,0-9.52-2.68,57.35,57.35,0,0,0-8-.94c-4.61-.18-7.47.17-7.49,0a8.89,8.89,0,0,1,2-.33,20.42,20.42,0,0,1,2.36-.21,28.32,28.32,0,0,1,3.14,0,52.59,52.59,0,0,1,8.16.78,57.22,57.22,0,0,1,9.67,2.66,56.61,56.61,0,0,1,9,4.43,52.17,52.17,0,0,1,6.61,4.82,30.39,30.39,0,0,1,2.3,2.15,18.57,18.57,0,0,1,1.65,1.65A9.26,9.26,0,0,1,1238.83,655.42Z"/><path class="cls-8" d="M1219,625.2c-.1.15-2.63-1.87-7.25-4.15a37.59,37.59,0,0,0-3.87-1.65c-1.39-.59-2.94-1-4.56-1.55a52.31,52.31,0,0,0-21.93-1.5c-1.65.28-3.3.51-4.73.91a39.17,39.17,0,0,0-4.06,1.16c-5,1.65-7.67,3.3-7.75,3.11a10.79,10.79,0,0,1,1.93-1.17,19.47,19.47,0,0,1,2.36-1.19,33.92,33.92,0,0,1,3.3-1.32,35.21,35.21,0,0,1,4.08-1.26,46,46,0,0,1,4.79-1,50.36,50.36,0,0,1,22.26,1.54,40.35,40.35,0,0,1,4.61,1.65,34.26,34.26,0,0,1,3.88,1.8,32.41,32.41,0,0,1,3,1.77,17.55,17.55,0,0,1,2.18,1.49A9.57,9.57,0,0,1,1219,625.2Z"/><path class="cls-8" d="M1093.5,692.91a77.24,77.24,0,0,0,1.52-9.19,59.35,59.35,0,0,0-.08-10.1,80.57,80.57,0,0,0-2.15-12.18,85.38,85.38,0,0,0-4.11-11.57,63.88,63.88,0,0,0-5-8.82,84.27,84.27,0,0,0-5.83-7.29,15.82,15.82,0,0,1,1.9,1.65,21.1,21.1,0,0,1,2,2.18L1083,639c.41.53.79,1.09,1.22,1.65a57.23,57.23,0,0,1,5.12,8.84,71.45,71.45,0,0,1,6.34,24.09,55.88,55.88,0,0,1-.1,10.21c-.08.73-.17,1.4-.23,2.07l-.36,1.82a18.88,18.88,0,0,1-.69,2.88A15.75,15.75,0,0,1,1093.5,692.91Z"/><path class="cls-8" d="M1057.53,630.9a1.65,1.65,0,0,1-.1-.48,10.59,10.59,0,0,0-.23-1.4c-.18-1.31-.45-3.12-.78-5.44-.68-4.73-1.55-11.57-2.58-20.06-2-16.94-4.46-40.4-6.36-66.37s-2.89-49.57-3.3-66.61c-.23-8.53-.35-15.43-.38-20.21v-6.92a.25.25,0,1,1,.1,0v1.44c0,1.31.1,3.14.18,5.49.15,4.82.36,11.72.63,20.19.61,17.05,1.65,40.6,3.59,66.57s4.23,49.41,6.11,66.36c1,8.43,1.75,15.27,2.3,20.08.26,2.33.46,4.15.61,5.47a12.6,12.6,0,0,0,.15,1.42A2.63,2.63,0,0,1,1057.53,630.9Z"/><path class="cls-8" d="M973.25,565.81a18.86,18.86,0,0,1-1.12-2.53c-.66-1.65-1.65-4-2.89-6.94-2.48-5.83-6.18-13.78-10.61-22.41s-8.43-16.28-11.42-22c-1.44-2.84-2.59-5.14-3.3-6.74a18,18,0,0,1-1.11-2.54,15.32,15.32,0,0,1,1.4,2.38l3.59,6.61c3,5.58,7.24,13.22,11.67,21.93s8,16.64,10.39,22.55c1.17,3,2.08,5.37,2.64,7.06A17.54,17.54,0,0,1,973.25,565.81Z"/><path class="cls-8" d="M960.06,535.28a5.06,5.06,0,0,1-1.5-.28c-.94-.23-2.3-.63-4-1.17a97.87,97.87,0,0,1-24.42-12.1c-1.44-1-2.58-1.83-3.3-2.45a5.88,5.88,0,0,1-1.12-1,53.88,53.88,0,0,1,4.81,2.94,129.53,129.53,0,0,0,11.83,6.61c4.76,2.33,9.19,4.16,12.44,5.39A55.93,55.93,0,0,1,960.06,535.28Z"/><path class="cls-8" d="M937.9,591.7a8.91,8.91,0,0,1-1.78-1.07c-1.09-.74-2.71-1.8-4.74-3a97.72,97.72,0,0,0-34.55-12.94c-2.35-.41-4.25-.68-5.57-.84a9.09,9.09,0,0,1-2-.35,9.15,9.15,0,0,1,2.08,0,45.88,45.88,0,0,1,5.63.56,86.83,86.83,0,0,1,18.18,4.63,87.86,87.86,0,0,1,16.69,8.39c2,1.32,3.57,2.45,4.61,3.3A11.32,11.32,0,0,1,937.9,591.7Z"/><path class="cls-8" d="M1116.55,383.24a13.32,13.32,0,0,1-.1,1.34c-.12,1-.26,2.23-.45,3.83-.43,3.3-1,8.13-2,14a178,178,0,0,1-4.63,20.56,95.84,95.84,0,0,1-10.36,23.6,72.34,72.34,0,0,1-8.61,11l-.33.36-.31-.41a43.7,43.7,0,0,0-15.68-13,41.67,41.67,0,0,0-8.26-3,36.57,36.57,0,0,0-7.52-1,31,31,0,0,0-10.71,1.5c-2.4.84-3.67,1.47-3.7,1.39a6,6,0,0,1,.91-.48,22.39,22.39,0,0,1,2.69-1.19,30,30,0,0,1,10.82-1.77,36.5,36.5,0,0,1,7.67.93,42.12,42.12,0,0,1,8.43,3,44,44,0,0,1,16,13.22h-.64a73.49,73.49,0,0,0,8.49-10.91,97.34,97.34,0,0,0,10.36-23.36,193.92,193.92,0,0,0,4.79-20.42c1.09-5.88,1.77-10.69,2.3-14,.25-1.65.46-2.86.61-3.8A5.88,5.88,0,0,1,1116.55,383.24Z"/><polygon class="cls-16" points="1117.96 384.29 1102.05 363.18 1084.75 363.73 1028.53 393.42 1117.96 384.29"/><path class="cls-8" d="M1043.83,443.44a3.8,3.8,0,0,1-.91,0,20.13,20.13,0,0,1-2.59-.43,32.2,32.2,0,0,1-8.87-3.8,19.46,19.46,0,0,0-6-2.5,17.76,17.76,0,0,0-7.47,0,17.47,17.47,0,0,0-12.48,10.86l-.89,2.41v-4.59c.2-13,.21-24.79.74-33.36.25-4.26.58-7.72.94-10.08.15-1.19.33-2.1.46-2.71a5.69,5.69,0,0,1,.23-.93c.08,0-.15,1.31-.36,3.68s-.5,5.8-.66,10.06c-.38,8.53-.28,20.31-.5,33.34v2l-.83-.17A18.18,18.18,0,0,1,1017.74,436a18.54,18.54,0,0,1,13.95,2.76,34.92,34.92,0,0,0,8.66,4C1042.58,443.27,1043.85,443.36,1043.83,443.44Z"/><path class="cls-14" d="M1102,261V387.74a30.73,30.73,0,0,1-7.22,19.83h0a93.27,93.27,0,0,1-25.45,21.07L1043.83,443l-21.15-18.94a30.78,30.78,0,0,1-10.23-21.73c-.36-9.22-.36-18.52-.36-18.52s-35.81-2.58-39.18-37.89c-1.65-16.62-2.08-50.68-2.16-82.07a68.7,68.7,0,0,1,63-68.62l1-.08A65.66,65.66,0,0,1,1102,259.23Q1102,260.12,1102,261Z"/><path class="cls-15" d="M1012,383.31s22.49,0,45-16.92c0,0-8.79,26.34-44.33,26.07Z"/><path class="cls-8" d="M982.65,287.59a5.07,5.07,0,0,0,5.29,4.69,4.84,4.84,0,0,0,4.83-4.86s0-.07,0-.1a5.06,5.06,0,0,0-5.27-4.69,4.84,4.84,0,0,0-4.84,4.84S982.65,287.55,982.65,287.59Z"/><path class="cls-8" d="M979.77,278.1c.68.59,4.26-2.54,9.7-3s9.65,1.95,10.18,1.24c.26-.33-.46-1.45-2.31-2.58a13.83,13.83,0,0,0-8.26-1.8,13.22,13.22,0,0,0-7.65,3.19C979.91,276.6,979.44,277.82,979.77,278.1Z"/><path class="cls-8" d="M1034.33,285.39a5.07,5.07,0,0,0,5.29,4.69,4.86,4.86,0,0,0,4.84-4.87v-.08a5.07,5.07,0,0,0-5.29-4.69,4.86,4.86,0,0,0-4.84,4.87Z"/><path class="cls-8" d="M1033.26,274.7c.68.59,4.28-2.54,9.7-3s9.65,1.95,10.18,1.22c.26-.31-.46-1.45-2.31-2.56a14,14,0,0,0-8.26-1.82,13.32,13.32,0,0,0-7.65,3.19C1033.39,273.18,1032.9,274.42,1033.26,274.7Z"/><path class="cls-8" d="M1016.87,316.69c0-.31-3.42-.63-9-.88-1.39,0-2.73-.18-3-1.11a7.14,7.14,0,0,1,.58-4.2c1-3.47,2.12-7.09,3.3-10.91,4.44-15.52,7.55-28.22,6.92-28.39s-4.74,12.26-9.19,27.76c-1.07,3.83-2.1,7.47-3.06,11a8,8,0,0,0-.26,5.5,3.47,3.47,0,0,0,2.45,1.85,9.34,9.34,0,0,0,2.38.13C1013.46,317.18,1016.89,316.92,1016.87,316.69Z"/><path class="cls-8" d="M1033.18,319c-.89,0-.41,5.92-5.12,10.53s-11,4.48-11,5.3c0,.36,1.5,1,4.16.88a14.69,14.69,0,0,0,9.2-4.1,12.76,12.76,0,0,0,3.92-8.79C1034.35,320.39,1033.57,319,1033.18,319Z"/><path class="cls-8" d="M1030.09,253.52c.66,1.44,6,.28,12.46.53s11.75,1.55,12.48.15c.33-.66-.68-2-2.88-3.3a21.71,21.71,0,0,0-19-.51C1030.88,251.58,1029.81,252.84,1030.09,253.52Z"/><path class="cls-8" d="M980.47,262.16c1.06,1.16,4.69-.43,9.19-.86s8.38.13,9.15-1.22c.33-.66-.36-1.85-2.13-2.88a12.82,12.82,0,0,0-7.65-1.4,12.62,12.62,0,0,0-7.12,3.09C980.42,260.33,980,261.65,980.47,262.16Z"/><path class="cls-8" d="M1060.46,225.41l.2.13a28,28,0,0,1,11.9,17.13l.15.71c2.21,9.91,2.83,20.24,5.14,30.19s1.88,17.55,11.85,19.83a13.22,13.22,0,0,0,13.86-5.63,8.49,8.49,0,0,0,.88-4.73c-.12-24.49,4.81-34,2.64-59.48a21.48,21.48,0,0,0-10.34-16.72c-5.65-3.39-12.49-6.81-18.18-3.52s-12.44,15-16.66,20.11"/><path class="cls-14" d="M1091.44,278c.59-.3,23.69-9.19,24.93,15.05s-23.36,20.46-23.43,19.83S1091.44,278,1091.44,278Z"/><path class="cls-15" d="M1099.88,303.24c.1-.08.43.28,1.16.56a4.2,4.2,0,0,0,3.16-.1c2.51-1.06,4.46-5.24,4.36-9.62a13.9,13.9,0,0,0-1.49-6,4.86,4.86,0,0,0-3.3-3.07,2.13,2.13,0,0,0-2.43,1.29c-.3.69-.12,1.16-.25,1.21s-.53-.38-.4-1.39a2.78,2.78,0,0,1,.88-1.57,3.3,3.3,0,0,1,2.31-.73,6,6,0,0,1,4.59,3.54,14.26,14.26,0,0,1,1.8,6.61c.1,5-2.16,9.58-5.62,10.77a4.51,4.51,0,0,1-3.9-.45C1099.95,303.82,1099.8,303.29,1099.88,303.24Z"/><path class="cls-8" d="M1079.61,207c5.16-10.16-12.29-22.7-24.54-25.48s-27.48,4.35-39,9.27c-7.29,3.11-14.46,7.19-22.37,7.5-5.3.23-10.51-1.27-15.65-2.63s-10.46-2.58-15.71-1.77-10.46,4-12,9.12,1.82,11.57,7.12,11.83c-7-3.12-16.28,2.5-16.72,10.15s8.06,14.34,15.38,12.11c-3.65-2.33-8.58,2.41-7.78,6.61s5,7.07,9,8.48c10.46,3.59,22.09,1.21,32.24-3.17s19.35-10.64,29.38-15.27,26.8-12.82,37.48-10c7.87,2.07,13.95,10.84,18.18,8.44a14.87,14.87,0,0,0,6.74-11.57,42.46,42.46,0,0,0-1.65-13.71"/><path class="cls-7" d="M954.43,214.39c.2-.13,1.39,1.65,4.23,4.3a33.39,33.39,0,0,0,14.14,7.52,30.72,30.72,0,0,0,23-2.83c7.91-4.36,14.34-12.33,21.86-19.93s16.61-13.65,26.09-15.3,18.47,1.06,23.76,6.08a21.23,21.23,0,0,1,6.79,15.17,16.82,16.82,0,0,1-.68,4.54c-.36,1-.59,1.47-.68,1.44a37.71,37.71,0,0,0,.41-5.95,20.87,20.87,0,0,0-7-13.95c-5-4.46-13.45-6.86-22.24-5.17s-17.47,7.34-24.79,14.87-14,15.61-22.47,20.18a33,33,0,0,1-38.85-6,23.66,23.66,0,0,1-2.83-3.55C954.61,214.92,954.36,214.44,954.43,214.39Z"/><path class="cls-7" d="M1097.52,276.42c-.08.08-1.11-.58-2.18-2.43a16.26,16.26,0,0,1-1.92-8.66c-.12-7.83,6.08-16.75,6.06-27.58a24.39,24.39,0,0,0-3.87-14.21,18.64,18.64,0,0,0-9.63-7,15.76,15.76,0,0,0-8.16-.43c-1.92.48-2.91,1-3,.83s.79-.93,2.76-1.65a15.27,15.27,0,0,1,8.89-.31,19.65,19.65,0,0,1,11,7.39,25.73,25.73,0,0,1,4.46,15.5,44.15,44.15,0,0,1-3.4,15.61,46.12,46.12,0,0,0-3.3,12C1094.41,272.62,1097.85,276.27,1097.52,276.42Z"/><rect class="cls-8" x="1085.41" y="293.46" width="28.8" height="12.44" rx="3.54" ry="3.54" transform="translate(132.46 902.69) rotate(-47.18)"/><path class="cls-8" d="M1247.8,500.38a7.21,7.21,0,0,0,.1,1c.1.64.12,1.65.21,2.84.18,2.53.43,6.25.78,11.07.66,9.72,1.65,23.91,2.83,41.9s2.59,39.79,4.25,64.69q.59,9.34,1.26,19.25c.25,3.3.38,6.61.53,10.08a48.52,48.52,0,0,1,0,5.14,49.93,49.93,0,0,1-.28,5.2l-.64,5.25c-.38,1.73-.76,3.49-1.12,5.24a50.68,50.68,0,0,1-1.65,5.17,27,27,0,0,1-2.28,5c-3.47,6.43-8.87,12.44-16.37,14.87H1021.86l.15-.55c1.57-5.58,3.12-11.1,4.66-16.61q1.17-4.11,2.3-8.26a57.05,57.05,0,0,0,1.92-8.15,35.41,35.41,0,0,0-1.42-16.23,19.83,19.83,0,0,0-3.87-7,11.37,11.37,0,0,0-6.61-3.88l-3.39-.53,3.3-.28,61.05-5.12h-.18a20.85,20.85,0,0,1,13.22-4,26.44,26.44,0,0,1,12.74,4.06h-.28l51.77-9.75-.23.4a21.7,21.7,0,0,1-.89-6.1,49.73,49.73,0,0,1,.17-5.9,91.36,91.36,0,0,1,1.57-11.17v.2c-4.15-7.75-7.95-14.87-11.47-21.38v-.1c-.81-19.05-1.11-34.07-1-44.32,0-5.12.25-9.05.51-11.7a20,20,0,0,1,.45-3c.15-.66.23-1,.23-1a4.67,4.67,0,0,1-.17,1,22,22,0,0,0-.38,3c-.23,2.64-.38,6.61-.4,11.68,0,10.24.3,25.26,1.17,44.3v-.1c3.52,6.53,7.35,13.6,11.57,21.33h0v.1a93.37,93.37,0,0,0-1.57,11.17,49.12,49.12,0,0,0-.15,5.85,21.28,21.28,0,0,0,.88,5.92l.1.33h-.33l-51.75,9.91h-.13l-.13-.08a25.53,25.53,0,0,0-12.36-3.9,20,20,0,0,0-12.67,3.92h-.2l-61,5.19v-.81a12.11,12.11,0,0,1,7.14,4.13,20.84,20.84,0,0,1,4,7.27,36.17,36.17,0,0,1,1.47,16.61,56.58,56.58,0,0,1-1.93,8.26l-2.3,8.26q-2.31,8.26-4.64,16.52l-.41-.55h51.22l161.65.12h0a24.79,24.79,0,0,0,9.37-5.78,34.9,34.9,0,0,0,6.53-8.74c.88-1.65,1.5-3.3,2.25-5a43.75,43.75,0,0,0,1.65-5.11c.53-1.7.74-3.45,1.12-5.17s.43-3.49.64-5.2a49.27,49.27,0,0,0,.3-5.16,47.9,47.9,0,0,0,0-5.11c-.15-3.39-.26-6.73-.51-10q-.61-9.91-1.22-19.27c-1.65-24.9-3-46.71-4.1-64.72s-2-32.19-2.61-41.9c-.28-4.82-.51-8.56-.66-11.09,0-1.24-.12-2.18-.15-2.84S1247.8,500.38,1247.8,500.38Z"/><path class="cls-8" d="M1201,410.34a31.64,31.64,0,0,1-2.94,1.83,68.82,68.82,0,0,0-7.65,5.49,89.75,89.75,0,0,0-19.83,23.69,195.74,195.74,0,0,0-13.22,28.09l-3.44,8.79-1,2.4a3.49,3.49,0,0,1-.38.81,3.3,3.3,0,0,1,.21-.88c.21-.64.5-1.45.81-2.45.73-2.11,1.78-5.16,3.19-8.91a177.1,177.1,0,0,1,13-28.34A86.05,86.05,0,0,1,1190,417.15a58.6,58.6,0,0,1,7.87-5.29c1-.58,1.77-.93,2.28-1.19A4.11,4.11,0,0,1,1201,410.34Z"/><g class="cls-13"><path d="M1136.33,473.45a109.68,109.68,0,0,0-9.25,49.42c.63,16.79,2.64,33.63,1,50.36s-7.45,33.81-19.93,45.06a16.21,16.21,0,0,0-4,4.48,4.54,4.54,0,0,0,.78,5.54,6.61,6.61,0,0,0,5.19.55c11.95-2.08,24-3.57,36-5.63,2.56-.45,11.17-2.13,11.17-2.13a46.73,46.73,0,0,1-.73-9.91c.38-3,1.55-13.22,1.55-13.22a17.58,17.58,0,0,0-2.3-4.26,97.74,97.74,0,0,1-9.91-25.43c-4.08-8.34-5.92-16.74-7.82-24.54-5.24-21.66-5.09-43-1.75-70.41"/></g><g class="cls-13"><path d="M1005.35,448.78c1,2.48,2,5,2.94,7.45a3,3,0,0,0,1.42,1.87c1.47.56,2.64-1.24,3.3-2.66a19.08,19.08,0,0,1,14.66-10.29c5-.58,10.18.88,15.12-.15a67,67,0,0,0-13.65-6.79,22.64,22.64,0,0,0-15-.15,13.83,13.83,0,0,0-9,11.29"/></g><g class="cls-13"><path d="M1046.2,442.51a80.5,80.5,0,0,1,17.5,1.65,27.3,27.3,0,0,1,15,8.63c4,4.87,5.49,11.27,7.11,17.35.31,1.17.88,2.56,2.07,2.69a2.94,2.94,0,0,0,2-.78c9.91-7.27,16.42-18.39,20-30.12s4.4-24.09,4.59-36.35c-4.73,8.44-6.77,18.06-9.91,27.21s-7.72,18.37-15.81,23.66a7.9,7.9,0,0,0-1.85-5.8,17.32,17.32,0,0,0-4.81-3.93,45.94,45.94,0,0,0-36.78-4.51"/></g><path class="cls-14" d="M1020.52,637.14h-20.24s-45.65-16.52-55-14.87c-8.46,1.42-39.41,22-45.47,26.06a3.82,3.82,0,0,0-1.47,1.87h0a6.61,6.61,0,0,0,3.7,8.43l.63.26-.26.93a11,11,0,0,0-.48,3.7,4.46,4.46,0,0,0,8.26,1.92L909,667.51a5,5,0,0,0-.64,2.78l.1,1.87a5.09,5.09,0,0,0,3.5,4.56h0a5.07,5.07,0,0,0,5.29-1.47c3.93-4.31,12.41-13,18.18-13.91a134.06,134.06,0,0,1,18.74-.94,6.36,6.36,0,0,1,5.9,4h0c-3.4.25-27.13,12.62-35.53,17.05a8.94,8.94,0,0,0-4.87,6.76c-.31,2.63,1,5.37,6.21,4.16,11.15-2.61,31.23-11.83,31.23-11.83s10.34-3,17.05,1.77c9.43,6.61,13.76,9.1,21.86,6.41a68.64,68.64,0,0,0,14.08-6.61l16-1.65S1041.16,642.93,1020.52,637.14Z"/><path class="cls-15" d="M960.19,644.84c0,.18-3.3-.84-8.58-1.19a44.25,44.25,0,0,0-36.9,15.75,85.37,85.37,0,0,0-5.07,7,10.08,10.08,0,0,1,1-2.12,38.38,38.38,0,0,1,3.59-5.29,42.86,42.86,0,0,1,37.43-16,39.66,39.66,0,0,1,6.3,1.06A10.74,10.74,0,0,1,960.19,644.84Z"/><path class="cls-15" d="M955.4,633.76a34.7,34.7,0,0,0-29.74,4.33A83.21,83.21,0,0,0,909,652.25l-4.59,4.82a11.78,11.78,0,0,1-1.75,1.65,15.92,15.92,0,0,1,1.5-1.95c1-1.22,2.5-3,4.4-5.06a76.9,76.9,0,0,1,16.74-14.49,38,38,0,0,1,21.23-5.75,25.51,25.51,0,0,1,6.61,1.22,14.87,14.87,0,0,1,1.65.64Z"/><g id="freepik--speech-bubble--inject-98"><path class="cls-6" d="M1219,174.77A67.55,67.55,0,0,0,1163.56,281l-8.11,25.2,24.79-8.44a67.56,67.56,0,1,0,38.7-123Z"/><path class="cls-8" d="M1201.17,241.8a5.83,5.83,0,1,1-5.66-6h0A5.83,5.83,0,0,1,1201.17,241.8Z"/><path class="cls-8" d="M1224.57,242.51a5.83,5.83,0,1,1-5.66-6h0A5.83,5.83,0,0,1,1224.57,242.51Z"/><path class="cls-8" d="M1247.82,240.3a5.83,5.83,0,1,1-7.9-2.37h0a5.82,5.82,0,0,1,7.88,2.37Z"/><path class="cls-8" d="M1221.07,174.3a4.84,4.84,0,0,1,1.17,0l3.47.2a12.63,12.63,0,0,1,2.54.18l3,.53,3.55.61,3.95,1.11a64.82,64.82,0,0,1,19,9,68.09,68.09,0,0,1,29.74,52.13,70.54,70.54,0,0,1,0,9.34c-.17,1.57-.18,3.17-.46,4.76s-.58,3.17-.86,4.79a68.75,68.75,0,0,1-7.15,18.8,73.48,73.48,0,0,1-12.92,16.69,71.76,71.76,0,0,1-18.26,12.31,65.2,65.2,0,0,1-22,6,43,43,0,0,1-5.83.31,53.78,53.78,0,0,1-5.88,0,71.05,71.05,0,0,1-11.72-1.83,69,69,0,0,1-23.13-10.57l.71.1-24.14,8.86-1.44.53.45-1.45,7.78-25.3.1.63A68.27,68.27,0,0,1,1151,252.54a61.75,61.75,0,0,1-.48-15,48.16,48.16,0,0,1,.89-7.14l.64-3.49c.25-1.14.63-2.23.94-3.3a68.24,68.24,0,0,1,27.78-38,65.41,65.41,0,0,1,16.09-7.88l3.6-1.17,3.42-.76,3.12-.66c1-.17,1.95-.25,2.86-.35,1.82-.18,3.4-.45,4.79-.46h5.65a2.76,2.76,0,0,1,.73,0,3.12,3.12,0,0,1-.73,0l-2.13.12-3.52.12a46.42,46.42,0,0,0-4.74.58,67.83,67.83,0,0,0-55.77,48.68c-.28,1.09-.66,2.18-.89,3.3s-.41,2.28-.63,3.42a48.83,48.83,0,0,0-.84,7,61.73,61.73,0,0,0,.53,14.66,67.3,67.3,0,0,0,11.7,28.9l.21.28-.12.35q-3.73,12.28-7.72,25.31l-1-.94,24.14-8.87.38-.15.33.23a67.17,67.17,0,0,0,22.6,10.31,66.29,66.29,0,0,0,11.45,1.8,51.37,51.37,0,0,0,5.75.08,43.37,43.37,0,0,0,5.68-.31,63.58,63.58,0,0,0,21.48-5.87,70.47,70.47,0,0,0,17.89-12A71.66,71.66,0,0,0,1277.79,275a66.94,66.94,0,0,0,7-18.39c.3-1.65.58-3.14.88-4.68s.3-3.14.46-4.68a71,71,0,0,0,.13-9.17,67.45,67.45,0,0,0-28.95-51.49,64.81,64.81,0,0,0-18.74-9.14l-3.9-1.16-3.5-.69-3-.58c-.93-.13-1.78-.18-2.53-.26l-3.44-.36A8.26,8.26,0,0,1,1221.07,174.3Z"/></g><g id="freepik--Cat--inject-98"><path class="cls-8" d="M1368.32,690.93a16.66,16.66,0,0,0-11,6.1,12.06,12.06,0,0,0-1.54,12.14,9.53,9.53,0,0,0,10.66,5.22,6,6,0,0,0,12,.2,7.19,7.19,0,0,0,12.59-5.25c-.13-1.9-1-3.67-1.22-5.54a59.74,59.74,0,0,1,.23-6.2,5.25,5.25,0,0,0-2.91-5.06"/><path class="cls-8" d="M1283.52,702.13a71.71,71.71,0,0,1,21.08-8.43c5.34-1.37,11.07-2.5,16.31-.78a16.09,16.09,0,0,1,10.31,10.87,8,8,0,0,1-.26,5.8c-1.24,2.33-4,3.4-6.61,4-1.95.5-4.46.64-5.55-1.06a7.57,7.57,0,0,1-10.63,1.25q-.24-.19-.46-.39a7.32,7.32,0,0,1-13.95-4.1,8.06,8.06,0,0,1-7.06,3.49,6.61,6.61,0,0,1-5.83-5,5.62,5.62,0,0,1,3.92-6.36"/><path class="cls-8" d="M1221.69,701.07a18.18,18.18,0,0,1,7-18.89c6.61-4.78,11.3-10.33,19.93-15.47a128.46,128.46,0,0,1,21.1-9.07c16.94-5.62,28.39-7,35.34-10.69,7.62-4,17.8-10.26,17.8-10.26l86.45,6.71s10.39,63.85-5.34,70.09c0,0-73.27.76-79-1.78-6.25-2.76-101.57-2.71-101.29-2.08Z"/><path class="cls-8" d="M1268.49,688.88a271.63,271.63,0,0,1-46.43,3.73,83.2,83.2,0,0,0-16.36,1.06,17.91,17.91,0,0,0-8.92,4.15,8.79,8.79,0,0,0-2.53,9.09c1.17,3.11,5.29,5,8.11,3.22a6.61,6.61,0,0,0,12.06,2.33,5.59,5.59,0,0,0,5.3,1.65,21.91,21.91,0,0,0,5.42-2.1c7.53-3.52,15.55-2.64,23.88-2.59,14.54.1,31,0,24.93,0"/><path class="cls-7" d="M1274,709.43a9.91,9.91,0,0,1,1.22-.08h0v.15h-3.45l-13.22.15h-9.29c-3.3,0-7-.17-10.77,0a34.7,34.7,0,0,0-11.75,2.1,61.13,61.13,0,0,1-6,2.53,7.75,7.75,0,0,1-3.49.2,5.19,5.19,0,0,1-3.16-1.8h.69a7,7,0,0,1-12.86-2.46l.66.28a6,6,0,0,1-6.86-.84,6.43,6.43,0,0,1-2.26-4,8.72,8.72,0,0,1,.58-4.51,11.81,11.81,0,0,1,6.13-6.1,27.38,27.38,0,0,1,8-2.18,65.37,65.37,0,0,1,7.93-.56c10.29,0,19.55-.1,27.3-.68s14-1.35,18.32-1.9l5-.64,1.29-.15h.45l-.43.12-1.29.23-5,.79c-4.31.64-10.56,1.55-18.32,2.18s-17.07.78-27.33.86a67,67,0,0,0-7.83.58,27,27,0,0,0-7.8,2.13,10.92,10.92,0,0,0-5.7,5.67,6.46,6.46,0,0,0,1.45,7.55,5.14,5.14,0,0,0,5.83.78l.53-.35.12.63a6.18,6.18,0,0,0,11.3,2.18l.31-.5.36.46a5.47,5.47,0,0,0,5.77,1.34,63.43,63.43,0,0,0,5.93-2.48,34.78,34.78,0,0,1,12-2.08c3.85-.08,7.45.13,10.81.15l9.27.08,13.22.1h3.45v.15h0A6.3,6.3,0,0,1,1274,709.43Z"/><path class="cls-7" d="M1389.62,706a4.56,4.56,0,0,1,1,1.27,7.42,7.42,0,0,1,.79,4.46,7.68,7.68,0,0,1-1.11,3.11,6.61,6.61,0,0,1-3,2.54,7.8,7.8,0,0,1-8.79-1.88l.59-.12a6.76,6.76,0,0,1-12.82,0l.5.26c-4.58,1.14-9.7-1.95-11.57-6.61a12.48,12.48,0,0,1,.71-10.49,17,17,0,0,1,6.91-7.06,23.78,23.78,0,0,1,8.53-2.69,37.41,37.41,0,0,1,7.77-.13,104.2,104.2,0,0,1,11.05,1.65l3,.58a8,8,0,0,1,1,.25,3.93,3.93,0,0,1-1.06,0l-3-.43c-2.61-.38-6.36-1.11-11-1.44a28.6,28.6,0,0,0-15.85,2.91,16.21,16.21,0,0,0-6.61,6.74,11.57,11.57,0,0,0-.68,9.78c1.78,4.3,6.61,7.12,10.64,6.1h.38l.12.36a6.13,6.13,0,0,0,6,4.13,6.25,6.25,0,0,0,5.39-4l.2-.58.4.46a7.19,7.19,0,0,0,8,1.82,6.61,6.61,0,0,0,3.88-5.19,7.37,7.37,0,0,0-.58-4.3C1390,706.49,1389.57,706.08,1389.62,706Z"/><path class="cls-7" d="M1402.56,689.49c-.1.1-1-.78-2.73-1.65a13.52,13.52,0,0,0-14.41.73c-1.65,1.12-2.43,2.08-2.54,2a6.74,6.74,0,0,1,2.18-2.46,12.9,12.9,0,0,1,15.09-.78A6.71,6.71,0,0,1,1402.56,689.49Z"/><path class="cls-7" d="M1283.21,712.24a3.7,3.7,0,0,1-.64-.43,7.43,7.43,0,0,1-1.42-1.65,10.24,10.24,0,0,1-.93-7.95,16.13,16.13,0,0,1,7.77-9c3.93-2.36,8.76-3.67,13.43-5.75a46,46,0,0,0,23.13-24.11,22,22,0,0,1,1.16-2.71,3.57,3.57,0,0,1-.17.74c-.15.48-.33,1.21-.68,2.08a39.29,39.29,0,0,1-3.49,7.27,44.61,44.61,0,0,1-19.63,17.51c-4.78,2.12-9.57,3.3-13.38,5.63a15.75,15.75,0,0,0-7.58,8.48,10,10,0,0,0,.63,7.62A11.66,11.66,0,0,0,1283.21,712.24Z"/><path class="cls-7" d="M1317.65,711.71a8.26,8.26,0,0,0,1.88,1.47,7.15,7.15,0,0,0,6.18.1,8.26,8.26,0,0,0,4.28-7.82,10.84,10.84,0,0,0-1.5-5.3,14.16,14.16,0,0,0-4.11-4.36,19.83,19.83,0,0,0-11.12-3.3,35.51,35.51,0,0,0-9.58,1.47c-2.68.76-4.81,1.52-6.28,2a15.54,15.54,0,0,1-2.33.73,11.78,11.78,0,0,1,2.2-1c1.45-.59,3.55-1.44,6.25-2.28a33.74,33.74,0,0,1,9.75-1.65,20.13,20.13,0,0,1,11.57,3.44,14.59,14.59,0,0,1,4.36,4.64,11.57,11.57,0,0,1,1.57,5.73,8.74,8.74,0,0,1-4.82,8.36,7.32,7.32,0,0,1-6.61-.35,5.35,5.35,0,0,1-1.39-1.21A3.3,3.3,0,0,1,1317.65,711.71Z"/><path class="cls-7" d="M1308,712.92a7.34,7.34,0,0,0,2.76,1.78,8,8,0,0,0,3.44.58,4.58,4.58,0,0,0,3.3-2.23,5.24,5.24,0,0,0,.35-4.06,10.13,10.13,0,0,0-1.65-3.16,26.12,26.12,0,0,1-2.12-2.66,9.17,9.17,0,0,1,2.58,2.28,9.43,9.43,0,0,1,1.93,3.3,6,6,0,0,1-.35,4.73,5.34,5.34,0,0,1-4,2.59,7.9,7.9,0,0,1-3.77-.81,6.3,6.3,0,0,1-2.1-1.5C1308,713.25,1308,712.94,1308,712.92Z"/><path class="cls-7" d="M1294.13,709.83a10.72,10.72,0,0,1,0,1.31,6.41,6.41,0,0,0,.91,3.3,6,6,0,0,0,3.95,2.88,7.06,7.06,0,0,0,5.8-1.34,8,8,0,0,0,2.84-5.35,8.86,8.86,0,0,0-1-5,16,16,0,0,0-3-3.75,4.37,4.37,0,0,1,1.16.68,9.67,9.67,0,0,1,2.38,2.79,9,9,0,0,1,1.22,5.32,8.63,8.63,0,0,1-3.09,5.93,7.78,7.78,0,0,1-6.61,1.45,6.46,6.46,0,0,1-4.3-3.3,6.13,6.13,0,0,1-.71-3.6A2.58,2.58,0,0,1,1294.13,709.83Z"/><path class="cls-8" d="M1328.45,651.57s18.29,20.14,41,17.6,40.2-24.55,40.2-24.55c3.49-5.54,2-11.25,1-15.48s-3.17-8.26-3.19-12.66c0-3.73,1.47-7.29,2.54-10.86,2.4-8,2.78-16.52,3.14-24.79.15-3.59,0-7.85-3.07-9.77a6.87,6.87,0,0,0-6.39-.12,19,19,0,0,0-5.29,4,225.73,225.73,0,0,0-19.22,20.92,25,25,0,0,0-31,2.5c-9.7-4.06-12.9-17.66-22.84-21.15a7.14,7.14,0,0,0-6.61.48c-2.43,1.82-2.56,5.32-2.46,8.34.41,13.6.91,27.59,6.44,40a26.85,26.85,0,0,0,5.25,24.42"/><path class="cls-7" d="M1361.71,654.44a9.12,9.12,0,0,1,11.27-3.21,3.06,3.06,0,0,1,1.27.91,1.31,1.31,0,0,1,.12,1.47,1.12,1.12,0,0,0-1.59-.06l-.06.06a2.66,2.66,0,0,0-.58,1.8,6.21,6.21,0,0,1-.21,1.92,2.36,2.36,0,0,1-1.65,1.42,2.33,2.33,0,0,1-2.1-.71,7.38,7.38,0,0,1-1-1.77,2.26,2.26,0,0,0-1.44-1.34,3.16,3.16,0,0,0-1.65.35,2.1,2.1,0,0,1-1.57.15c-.5-.23-.73-1-.28-1.31"/><path class="cls-7" d="M1370.11,657c.13,0,.1.73.36,1.8a6.61,6.61,0,0,0,6,5.11c1.11.08,1.82-.08,1.85,0s-.63.48-1.85.56a6.51,6.51,0,0,1-4.43-1.5,6.38,6.38,0,0,1-2.2-4.11C1369.74,657.65,1370,656.94,1370.11,657Z"/><path class="cls-7" d="M1370.24,655.88a3.47,3.47,0,0,1,.61,2.23,6.77,6.77,0,0,1-7.45,7c-1.47-.15-2.23-.69-2.18-.78s.86.18,2.2.17a6.61,6.61,0,0,0,6.82-6.38C1370.35,656.76,1370.09,655.91,1370.24,655.88Z"/><path class="cls-7" d="M1405.24,663.45a43.8,43.8,0,0,0-24.6-3.07,11.57,11.57,0,0,1,3.6-1,32.44,32.44,0,0,1,17.75,2.2A11.25,11.25,0,0,1,1405.24,663.45Z"/><path class="cls-7" d="M1415.76,659c0,.13-2.08-.38-5.4-1a81.1,81.1,0,0,0-26.21-.45c-3.3.48-5.39.91-5.42.78a5.16,5.16,0,0,1,1.4-.48c.91-.28,2.25-.58,3.92-.91a67.09,67.09,0,0,1,26.44.45c1.65.38,3,.74,3.9,1A5,5,0,0,1,1415.76,659Z"/><path class="cls-7" d="M1421.33,647.26c0,.13-2.51,0-6.61,0a86.14,86.14,0,0,0-15.58,1.29,55.43,55.43,0,0,0-14.87,4.84c-3.59,1.8-5.58,3.3-5.67,3.17a6.61,6.61,0,0,1,1.34-1.14,38.32,38.32,0,0,1,4-2.58,50.66,50.66,0,0,1,14.87-5.16,73.93,73.93,0,0,1,15.76-1,42.43,42.43,0,0,1,4.76.31A8,8,0,0,1,1421.33,647.26Z"/><path class="cls-7" d="M1326.58,673.59a9.41,9.41,0,0,1,1-1,32,32,0,0,1,2.94-2.23,45.85,45.85,0,0,1,22.85-7.72,30.49,30.49,0,0,1,3.68,0,4.56,4.56,0,0,1,1.35.17c0,.15-1.92.15-5,.45a53.52,53.52,0,0,0-22.57,7.63C1328.2,672.45,1326.68,673.59,1326.58,673.59Z"/><path class="cls-7" d="M1325.2,664.34a8.25,8.25,0,0,1,1.26-.66c.83-.36,2-.84,3.59-1.37a60,60,0,0,1,25.07-2.69c1.65.18,2.91.38,3.78.56a4.76,4.76,0,0,1,1.37.38c0,.13-2-.13-5.22-.35a76.6,76.6,0,0,0-12.51.26,75.83,75.83,0,0,0-12.29,2.41A51.87,51.87,0,0,1,1325.2,664.34Z"/><path class="cls-7" d="M1313.68,660.47a7.88,7.88,0,0,1,1.65-.79,47.43,47.43,0,0,1,4.87-1.65,70.17,70.17,0,0,1,33.59-1.17,50.55,50.55,0,0,1,5,1.29,7,7,0,0,1,1.77.66c0,.15-2.61-.59-6.86-1.35a79.46,79.46,0,0,0-33.26,1.27C1316.24,659.7,1313.8,660.61,1313.68,660.47Z"/><path class="cls-7" d="M1357.73,637.82a5.7,5.7,0,0,1-2.54,1.82,11.3,11.3,0,0,1-13.75-3.57,5.75,5.75,0,0,1-1.34-2.83c.13,0,.61,1,1.82,2.45a11.67,11.67,0,0,0,13,3.39C1356.76,638.43,1357.65,637.7,1357.73,637.82Z"/><path class="cls-7" d="M1394.53,629.89a4.4,4.4,0,0,1-.28,3,9.15,9.15,0,0,1-5,5.16,17.63,17.63,0,0,1-7.11,1.31,9.63,9.63,0,0,1-3-.23,10.77,10.77,0,0,1,2.94-.38,20.93,20.93,0,0,0,6.76-1.47,9.39,9.39,0,0,0,4.84-4.61A26.31,26.31,0,0,0,1394.53,629.89Z"/><path class="cls-7" d="M1330.5,605.53a17.93,17.93,0,0,0,2.76-3.5,7.85,7.85,0,0,0,1-4.58,9.91,9.91,0,0,0-2.1-4.49,43.21,43.21,0,0,0-9.07-9.2s-2.61-2-3.78,0c-.79,1.32-.3,23,2.73,24.41S1330.5,605.53,1330.5,605.53Z"/><path class="cls-7" d="M1405.48,574.45c-4.82,3.78-6.61,10.29-10.29,15.25a14.57,14.57,0,0,0-1.65,2.83,4.73,4.73,0,0,0-.28,3.22,6.2,6.2,0,0,0,2.08,2.68,24.78,24.78,0,0,0,6.39,3.88s5,1.54,6.33-3S1408.72,572,1405.48,574.45Z"/><path class="cls-8" d="M1251.95,668.12c-5.82.89-19.25-1.34-23.13-5.39s-2.83-10.39-.69-15.86,5.4-10.43,8.26-15.58c4.69-8.64,8.1-18.18,8.36-28s-2.92-20-9.91-26.92-17.93-10.06-27.1-6.51c-7.53,2.92-13.37,11.57-10.46,19.17,1.83,4.73,6.41,7.72,9.63,11.57a23.86,23.86,0,0,1,4.76,20.14c-1.65,7.58-7.09,13.88-9.12,21.38-3.09,11.43,2.51,24.12,12,31.3s22,9.3,33.74,7.91"/><path class="cls-10" d="M1374.17,664.16s.71,4.43-.81,6.23a3.75,3.75,0,0,1-6.51-.69,10.08,10.08,0,0,1-1.06-4.53s3.93-1.42,4.49-3.72A6.3,6.3,0,0,0,1374.17,664.16Z"/><path class="cls-7" d="M1394.2,666a7.9,7.9,0,0,1-1.29,1.45,29.74,29.74,0,0,1-4.1,3.3,33.53,33.53,0,0,1-33.39,2.69,31.39,31.39,0,0,1-4.58-2.66,9,9,0,0,1-1.5-1.22c.1-.15,2.28,1.57,6.33,3.3a34.7,34.7,0,0,0,32.82-2.54C1392.2,667.88,1394.08,665.83,1394.2,666Z"/><path class="cls-7" d="M1370.6,695.72c0,.13-1.14.74-2.64,2.25a12.77,12.77,0,0,0-2.36,15.14c1,1.88,1.95,2.84,1.83,2.94a7.06,7.06,0,0,1-2.36-2.64,12.49,12.49,0,0,1,2.48-15.88A6.91,6.91,0,0,1,1370.6,695.72Z"/><path class="cls-7" d="M1386.7,697.64a18,18,0,0,0-3.3.89,10.11,10.11,0,0,0-5.12,5.8,14.71,14.71,0,0,0-.12,7.93c.5,2,1.06,3.3.93,3.3a8,8,0,0,1-1.5-3.11,13.53,13.53,0,0,1-.12-8.38,9.91,9.91,0,0,1,5.7-6.08A5.07,5.07,0,0,1,1386.7,697.64Z"/><path class="cls-7" d="M1341.88,686.94a7.78,7.78,0,0,1-1.35,2.36,27.46,27.46,0,0,1-4.43,5,22,22,0,0,1-5.63,3.47,7.19,7.19,0,0,1-2.63.78c-.13-.28,3.87-1.65,7.72-5S1341.65,686.81,1341.88,686.94Z"/><path class="cls-7" d="M1321.92,637.24a5.45,5.45,0,0,1-.94.73c-.63.46-1.65,1.09-2.84,1.88a98.54,98.54,0,0,1-11,5.88,167.22,167.22,0,0,1-17.3,6.69c-6.61,2.16-14,4.21-21.63,6.74a127.23,127.23,0,0,0-20.85,8.66,70.85,70.85,0,0,0-15,10.66,53.42,53.42,0,0,0-8,9.47c-1.65,2.46-2.31,3.93-2.4,3.88a5.37,5.37,0,0,1,.48-1.07,31,31,0,0,1,1.65-3A49.57,49.57,0,0,1,1232,678a69.2,69.2,0,0,1,15-10.91,123.4,123.4,0,0,1,21-8.77c7.65-2.54,15.05-4.56,21.68-6.69a177,177,0,0,0,17.28-6.49,118.46,118.46,0,0,0,11.12-5.6c1.27-.74,2.25-1.34,2.91-1.75A7.57,7.57,0,0,1,1321.92,637.24Z"/><path class="cls-7" d="M1330.65,652a11.42,11.42,0,0,1-2.58-2.92,29.74,29.74,0,0,1-4.15-8.48,30.39,30.39,0,0,1-1.32-9.34,12.08,12.08,0,0,1,.48-3.87,48.56,48.56,0,0,0,1.65,13A48,48,0,0,0,1330.65,652Z"/></g><path class="cls-8" d="M735,708,680.22,570.36a18,18,0,0,1,16.66-24.79H867.66a18,18,0,0,1,17,12.21l47.09,138.8,55,.26c4.46,0,8.08,6.61,8.08,11h0l-60.54-.69Z"/><path class="cls-4" d="M814,632.43a11.1,11.1,0,1,1-11.12-11.09h0A11.1,11.1,0,0,1,814,632.43Z"/><g id="freepik--Desk--inject-98"><path class="cls-8" d="M1466.29,707.17c0,.23-227.13.43-507.27.43s-507.27-.2-507.27-.43,227.08-.43,507.27-.43S1466.29,706.92,1466.29,707.17Z"/></g><path class="cls-17" d="M602.72,650.46c-16.16-9.37-24.79-31.16-25.45-49s6.77-36.43,21.48-46.66c15.4-10.77,37.34-10.57,53.17-.45s25.12,29.28,24.39,48.07-11,36.72-26.09,47.92"/><path class="cls-6" d="M628.52,652.11a20.77,20.77,0,0,1-.3-4.08c-.08-2.92-.2-6.61-.31-11.12-.25-9.4-.61-22.37-1.24-36.68s-1.4-27.28-2-36.65c-.26-4.48-.48-8.26-.66-11.12a19.83,19.83,0,0,1,0-4.08,21.1,21.1,0,0,1,.64,4c.31,2.61.71,6.39,1.14,11.09.86,9.35,1.8,22.32,2.43,36.67s.83,27.33.79,36.73c0,4.69,0,8.51-.17,11.14A21.86,21.86,0,0,1,628.52,652.11Z"/><path class="cls-8" d="M582.05,597.39c0,.41-2.61.55-5.75.28s-5.67-.81-5.63-1.22,2.61-.55,5.75-.28S582.09,597,582.05,597.39Z"/><path class="cls-8" d="M582.95,581.38c-.18.38-2.4-.23-5-1.37s-4.51-2.38-4.35-2.76,2.4.23,5,1.37S583.11,581.06,582.95,581.38Z"/><path class="cls-8" d="M591.17,569.5c-.21.35-2.71-.83-5.32-3s-4.21-4.4-3.92-4.66,2.36,1.4,5,3.49S591.41,569.15,591.17,569.5Z"/><path class="cls-8" d="M599.45,558.29c-.38.17-1.65-1.65-2.68-4.18s-1.65-4.63-1.29-4.79,1.65,1.65,2.68,4.18S599.83,558.13,599.45,558.29Z"/><path class="cls-8" d="M612.46,550.35c-.38.17-1.65-1.82-2.53-4.58s-.93-5.14-.53-5.2,1.14,2.1,2,4.74S612.84,550.16,612.46,550.35Z"/><path class="cls-8" d="M634.14,541.41c.4.15.15,1.85-.55,3.8s-1.65,3.44-2,3.3-.15-1.85.55-3.8S633.74,541.24,634.14,541.41Z"/><path class="cls-8" d="M650.21,548.28c.28.31-.74,1.65-2.3,3.16s-3.06,2.36-3.3,2.07.74-1.73,2.3-3.17S649.93,548,650.21,548.28Z"/><path class="cls-8" d="M664.42,557.42c.23.35-1,1.65-2.81,2.83s-3.44,1.9-3.67,1.55,1-1.65,2.81-2.81S664.14,557.07,664.42,557.42Z"/><path class="cls-8" d="M674.42,571c.17.4-1.82,1.65-4.43,2.71s-4.86,1.65-5,1.32,1.82-1.65,4.43-2.71S674.34,570.67,674.42,571Z"/><path class="cls-8" d="M678.39,585.92c0,.41-2,1-4.51,1.32s-4.64.23-4.69-.18,2-1,4.51-1.32S678.34,585.51,678.39,585.92Z"/><path class="cls-8" d="M680.43,604.2c-.17.38-2.31-.18-4.79-1.27s-4.36-2.26-4.2-2.64,2.31.18,4.79,1.26S680.6,603.83,680.43,604.2Z"/><path class="cls-8" d="M678.63,619.93c-.13.38-2.86-.26-5.7-2.13s-4.53-4.08-4.23-4.36,2.38,1.35,5.06,3.09S678.78,619.51,678.63,619.93Z"/><path class="cls-8" d="M670.45,634.22c-.25.33-2.41-.94-4.49-3.19s-3.19-4.48-2.84-4.71,2,1.54,3.95,3.68S670.72,633.94,670.45,634.22Z"/><path class="cls-8" d="M592.81,635.9c.2.36-2.08,1.93-5.07,3.49s-5.58,2.53-5.77,2.15,2.07-1.93,5.07-3.49S592.61,635.59,592.81,635.9Z"/><path class="cls-8" d="M585.72,623c.17.38-1.65,1.65-4.06,2.68s-4.53,1.65-4.69,1.31,1.65-1.65,4.06-2.68S585.54,622.59,585.72,623Z"/><path class="cls-8" d="M580.5,611.52c0,.41-2.18,1.07-5,1.47s-5.16.4-5.22,0,2.2-1.07,5-1.47S580.45,611.1,580.5,611.52Z"/><path class="cls-8" d="M597.6,605.2c.13.4-2.07,1.4-5,1.73s-5.27-.18-5.24-.58,2.3-.61,5.07-.93S597.49,604.79,597.6,605.2Z"/><path class="cls-8" d="M611.81,591.08c.12.38-1.65,1.27-4,1.49s-4.23-.28-4.18-.69,1.85-.59,4-.81S611.68,590.66,611.81,591.08Z"/><path class="cls-8" d="M614.52,579.74c-.13.4-2,.12-4.21-.64s-3.85-1.65-3.7-2.08,2-.12,4.2.64S614.65,579.41,614.52,579.74Z"/><path class="cls-8" d="M619.81,568.29c-.28.3-1.65-.56-2.5-2.16s-1-3.16-.63-3.3,1.11,1.07,1.93,2.5S620,568,619.81,568.29Z"/><path class="cls-8" d="M613.45,615.17c.1.41-1.52,1.16-3.64,1.65a14.1,14.1,0,0,1-3.06.45l-.31-.89c.56-.1.91,0,1,.1s-.15.43-.59.76l-.3-.88a13.39,13.39,0,0,1,2.92-1C611.55,614.85,613.35,614.77,613.45,615.17Z"/><path class="cls-8" d="M616.37,635.24c.17.4-1.92,1.57-4.64,2.64s-5,1.65-5.19,1.22,1.92-1.57,4.64-2.63S616.22,634.86,616.37,635.24Z"/><path class="cls-8" d="M600.33,626.34c.13.4-1.24,1.22-3.09,1.85s-3.45.81-3.59.41,1.26-1.22,3.09-1.85S600.2,625.94,600.33,626.34Z"/><path class="cls-8" d="M601.63,585.47c-.1.4-2.51.17-5.3-.84s-4.82-2.31-4.64-2.68,2.43.3,5.14,1.26S601.63,585.06,601.63,585.47Z"/><path class="cls-8" d="M640.4,581.06c.23.35-1.14,1.65-3,2.91s-3.65,2-3.87,1.65,1.12-1.65,3-2.91S640.17,580.68,640.4,581.06Z"/><path class="cls-8" d="M642.5,601.19c.1.41-1.34,1.06-3.19,1.44s-3.4.36-3.5,0,1.35-1.06,3.21-1.44S642.41,600.77,642.5,601.19Z"/><path class="cls-8" d="M645,623.86c-.18.38-2.23-.2-4.59-1.31s-4.15-2.28-4-2.66,2.23.2,4.59,1.29S645.14,623.48,645,623.86Z"/><path class="cls-8" d="M639.77,645.92c-.33.26-1.65-.83-3-2.43s-2.13-3.14-1.82-3.4,1.65.83,3,2.43S640.08,645.65,639.77,645.92Z"/><path class="cls-8" d="M638.7,566.19c.26.31-.63,1.42-2.13,2.18s-2.92.81-3,.41,1-1.07,2.36-1.77S638.45,565.84,638.7,566.19Z"/><path class="cls-8" d="M657.81,586.52c.13.38-1.65,1.35-4,1.65s-4.36-.12-4.33-.51,1.88-.66,4.11-1S657.6,586.12,657.81,586.52Z"/><path class="cls-8" d="M653.95,568.27c.18.36-1.57,1.65-4,2.4s-4.64.79-4.69.4,1.87-1.07,4.23-1.83S653.75,567.84,653.95,568.27Z"/><path class="cls-8" d="M661.88,614.79c0,.41-3,.68-6.61,0s-6.31-1.95-6.18-2.33,3,.21,6.44.83S661.9,614.36,661.88,614.79Z"/><path class="cls-8" d="M654.81,641.29c-.25.33-2.45-1-4.64-3.17s-3.49-4.41-3.16-4.66,2.1,1.45,4.23,3.59S655.07,641,654.81,641.29Z"/><path class="cls-6" d="M623.73,546.69c.21.33-6,2.86-13.22,10.49A64.77,64.77,0,0,0,594,593.74a82.2,82.2,0,0,0,1,22.39,174.47,174.47,0,0,0,4.2,18c1.45,5.06,2.79,9.12,3.68,11.93a28.9,28.9,0,0,1,1.27,4.41,25.41,25.41,0,0,1-1.83-4.21c-1.06-2.76-2.56-6.77-4.15-11.81a151.17,151.17,0,0,1-4.54-18,80.24,80.24,0,0,1-1.12-22.8c1.87-16.28,9.68-29.74,17.27-37.11a47.67,47.67,0,0,1,9.91-7.75,30.77,30.77,0,0,1,3-1.65A3.27,3.27,0,0,1,623.73,546.69Z"/><path class="cls-6" d="M644.36,651.4c-.33-.17,3.4-5.92,6.81-16.28a91.84,91.84,0,0,0,4.06-41.8A78.37,78.37,0,0,0,648.79,571a52.56,52.56,0,0,0-11-15.3A40,40,0,0,0,627,548.91c-2.81-1.17-4.48-1.45-4.46-1.65a3.55,3.55,0,0,1,1.24.08,23.58,23.58,0,0,1,3.44.93,37.64,37.64,0,0,1,11.27,6.61,51.73,51.73,0,0,1,11.57,15.52,77.13,77.13,0,0,1,6.61,22.69,88.71,88.71,0,0,1-4.56,42.38c-.84,2.61-1.95,4.84-2.78,6.87a40.09,40.09,0,0,1-2.51,5A27.08,27.08,0,0,1,644.36,651.4Z"/><polygon class="cls-8" points="585.72 647.82 669.18 647.82 669.69 664.52 585.72 664.52 585.72 647.82"/><polygon class="cls-8" points="592.81 656.16 597.6 707.17 658.62 707.17 663.53 656.72 592.81 656.16"/><path class="cls-7" d="M669.69,664.72c0,.41-18.79.76-42,.76s-42-.35-42-.76,18.79-.76,42-.76S669.69,664.31,669.69,664.72Z"/><path class="cls-7" d="M661.22,680.2a12.49,12.49,0,0,1-1.75,3.3,48,48,0,0,1-6.48,7.65l-.38.36-.38-.4a121.2,121.2,0,0,0-16.36-14.33h.93l-7.25,6.36L621,690.63l-.48.41-.48-.41-13.93-11.72.81-.08-7.2,8.79a19.83,19.83,0,0,1-2.84,3.11,22.8,22.8,0,0,1,2.33-3.49l6.82-9.12.35-.46.46.38L621,689.51H620l8.53-7.5,7.29-6.34.45-.38.48.35A107.7,107.7,0,0,1,653,690.4h-.76A86.38,86.38,0,0,0,661.22,680.2Z"/></svg>