<?xml version="1.0" encoding="utf-8"?>
<!-- Generator: Adobe Illustrator 21.0.0, SVG Export Plug-In . SVG Version: 6.00 Build 0)  -->
<svg version="1.1" id="Layer_1" xmlns="http://www.w3.org/2000/svg" xmlns:xlink="http://www.w3.org/1999/xlink" x="0px" y="0px"
	 viewBox="0 0 500 500" style="enable-background:new 0 0 500 500;" xml:space="preserve">
<style type="text/css">
	.st0{fill:#E0E0E0;}
	.st1{fill:#FFFFFF;}
	.st2{fill:#FAFAFA;}
	.st3{fill:#263238;}
	.st4{fill:#95A6E5;}
	.st5{fill:#EBEBEB;}
	.st6{fill:#F5F5F5;}
	.st7{fill:#FFBE9D;}
	.st8{fill:#EB996E;}
	.st9{fill:#455A64;}
	.st10{fill:#FF725E;}
	.st11{fill:#B5E55A;}
	.st12{opacity:0.1;}
	.st13{fill:#B78876;}
	.st14{fill:#AA6550;}
	.st15{fill:#FF5571;}
	.st16{opacity:0.3;}
	.st17{fill:#FDB500;}
	.st18{fill:#A36853;}
	.st19{fill:#8F5039;}
	.st20{fill:#FFAD9D;}
	.st21{opacity:0.2;}
	.st22{fill:#ED9482;}
</style>
<path class="st0" d="M423.1,336.6c0-1.2-0.1-87.6-0.1-227.4l0.1,0.1l-408.5,0l0,0l0.2-0.2c0,80.4,0,157.3,0,227.4l-0.2-0.2
	L423.1,336.6l-408.5,0.2h-0.2v-0.2c0-70.1,0-147,0-227.4v-0.2h0.2l408.5,0h0.1v0.1C423.1,249,423.1,335.4,423.1,336.6z"/>
<rect x="14.5" y="109.3" class="st0" width="408.5" height="17.4"/>
<path class="st1" d="M27.9,117.4c0,1.6-1.3,2.8-2.8,2.8c-1.6,0-2.8-1.3-2.8-2.8c0-1.6,1.3-2.8,2.8-2.8c0,0,0,0,0,0
	C26.6,114.6,27.9,115.9,27.9,117.4C27.9,117.4,27.9,117.4,27.9,117.4z"/>
<path class="st1" d="M36.6,117.4c0,1.6-1.3,2.8-2.8,2.8c-1.6,0-2.8-1.3-2.8-2.8c0-1.6,1.3-2.8,2.8-2.8c0,0,0,0,0,0
	C35.3,114.6,36.6,115.9,36.6,117.4C36.6,117.4,36.6,117.4,36.6,117.4z"/>
<path class="st1" d="M45.3,117.4c0,1.6-1.3,2.8-2.8,2.8c-1.6,0-2.8-1.3-2.8-2.8s1.3-2.8,2.8-2.8l0,0C44,114.6,45.3,115.9,45.3,117.4
	C45.3,117.4,45.3,117.4,45.3,117.4z"/>
<rect x="45.2" y="144" class="st2" width="413.2" height="275.5"/>
<rect x="45.2" y="144" class="st3" width="413.2" height="17.6"/>
<path class="st3" d="M458.4,161.6c0-0.4,0-5.6-0.1-17.6l0.1,0.1l-413.1,0.1l0,0l0.2-0.2v17.6l-0.2-0.2L458.4,161.6l-413.2,0.2H45
	v-18h0.2l413.2,0.1h0.1v0.1C458.4,156,458.4,161.2,458.4,161.6z"/>
<path class="st0" d="M58.7,152.3c0,1.6-1.3,2.8-2.8,2.8c-1.6,0-2.8-1.3-2.8-2.8c0-1.6,1.3-2.8,2.8-2.8c0,0,0,0,0,0
	C57.4,149.4,58.7,150.7,58.7,152.3z"/>
<path class="st0" d="M67.4,152.3c0,1.6-1.3,2.8-2.8,2.8c-1.6,0-2.8-1.3-2.8-2.8c0-1.6,1.3-2.8,2.8-2.8c0,0,0,0,0,0
	C66.2,149.4,67.4,150.7,67.4,152.3C67.4,152.3,67.4,152.3,67.4,152.3z"/>
<path class="st0" d="M76.2,152.3c0,1.6-1.3,2.8-2.8,2.8c-1.6,0-2.8-1.3-2.8-2.8c0-1.6,1.3-2.8,2.8-2.8l0,0
	C75,149.4,76.2,150.7,76.2,152.3z"/>
<path class="st4" d="M161.2,212.5h-16.4l-3.1,7.6h-8.4l15.7-35.3h8.1l15.8,35.3h-8.6L161.2,212.5z M158.6,206.3l-5.6-13.5l-5.6,13.5
	H158.6z"/>
<path class="st4" d="M205.6,206.5c0,8.5-5.9,14-13.5,14c-3.6,0-6.6-1.2-8.5-3.5v3.1H176v-37.5h7.9v13.2c2-2.2,4.8-3.3,8.2-3.3
	C199.7,192.5,205.6,197.9,205.6,206.5z M197.6,206.5c0-4.7-3-7.5-6.9-7.5c-3.9,0-6.9,2.8-6.9,7.5s3,7.5,6.9,7.5
	C194.6,214,197.6,211.2,197.6,206.5z"/>
<path class="st4" d="M208.8,206.5c0-8.2,6.3-14,14.9-14s14.9,5.8,14.9,14s-6.3,14-14.9,14C215.1,220.5,208.8,214.6,208.8,206.5z
	 M230.7,206.5c0-4.7-3-7.5-6.9-7.5c-3.9,0-7,2.8-7,7.5s3,7.5,7,7.5C227.7,214,230.7,211.2,230.7,206.5L230.7,206.5z"/>
<path class="st4" d="M271.3,192.9v27.2h-7.5v-3.2c-2.1,2.4-5.2,3.7-8.4,3.6c-6.8,0-11.6-3.8-11.6-12.2v-15.3h7.9v14.2
	c0,4.5,2,6.6,5.5,6.6c3.6,0,6.3-2.3,6.3-7.3v-13.4L271.3,192.9z"/>
<path class="st4" d="M296.1,218.7c-1.9,1.2-4.2,1.8-6.4,1.7c-6.4,0-10.1-3.3-10.1-9.7v-11.2h-4.2v-6h4.2v-6.6h7.9v6.6h6.8v6.1h-6.8
	v11.1c0,2.3,1.3,3.6,3.4,3.6c1.1,0,2.3-0.3,3.2-1L296.1,218.7z"/>
<path class="st4" d="M342.2,192.9v27.2h-7.5v-3.2c-2.1,2.4-5.2,3.7-8.4,3.6c-6.8,0-11.6-3.8-11.6-12.2v-15.3h7.9v14.2
	c0,4.5,2,6.6,5.5,6.6c3.6,0,6.3-2.3,6.3-7.3v-13.4L342.2,192.9z"/>
<path class="st4" d="M346.9,217.5l2.6-5.7c2.8,1.7,6.1,2.6,9.4,2.6c3.6,0,5-1,5-2.5c0-4.5-16.4,0.1-16.4-10.8
	c0-5.2,4.6-8.8,12.6-8.8c3.7,0,7.9,0.9,10.4,2.4l-2.6,5.6c-2.4-1.4-5.1-2-7.8-2c-3.5,0-5,1.1-5,2.5c0,4.6,16.4,0.2,16.4,10.9
	c0,5-4.7,8.6-12.8,8.6C354.1,220.5,349.5,219.2,346.9,217.5z"/>
<path class="st5" d="M410.6,419.4c-15.9-16.8-39.4-25-62.5-24.8c-16.9,0.1-34.6,5.2-50.3-1.1c-14.5-5.8-23.8-19.8-35.1-30.6
	c-17.6-16.7-40.9-26-65.1-26.2c-16.3-0.1-34.2,3.7-47.6-5.5c-9.1-6.2-13.7-16.9-20-25.9c-18.6-26.3-54.5-37.2-84.6-25.6v139.5
	L410.6,419.4z"/>
<path class="st3" d="M458.4,419.4c0-1.3-0.1-107.5-0.2-275.5l0.2,0.2H45.2l0,0l0.2-0.2c0,98.1,0,191.4,0,275.5l-0.2-0.2L458.4,419.4
	l-413.1,0.1h-0.2v-0.2c0-84.1,0-177.4,0-275.5v-0.2h0.2h413.1h0.2v0.2C458.4,311.9,458.4,418.2,458.4,419.4z"/>
<path class="st3" d="M96.9,204.2c0,0.3-2,0.5-4.5,0.5s-4.5-0.2-4.5-0.5c0-0.3,2-0.5,4.5-0.5S96.9,204,96.9,204.2z"/>
<path class="st3" d="M101.8,191.9c0.3,0,0.5,2.1,0.5,4.6s-0.2,4.6-0.5,4.6s-0.5-2.1-0.5-4.6S101.5,191.9,101.8,191.9z"/>
<path class="st3" d="M106.9,204c0-0.3,2-0.5,4.5-0.5c2.5,0,4.5,0.2,4.5,0.5c0,0.3-2,0.5-4.5,0.5C108.9,204.5,106.9,204.2,106.9,204z
	"/>
<path class="st3" d="M102.1,216.3c-0.3,0-0.5-2.1-0.5-4.6c0-2.5,0.2-4.6,0.5-4.6s0.5,2.1,0.5,4.6
	C102.6,214.2,102.3,216.3,102.1,216.3z"/>
<path class="st3" d="M109.4,211c-0.2,0.2-1.1-0.5-2-1.6c-0.9-1.1-1.4-2.1-1.2-2.2c0.2-0.2,1.1,0.5,2,1.6
	C109.1,209.8,109.6,210.8,109.4,211z"/>
<path class="st3" d="M109,197c0.2,0.2-0.4,1.1-1.3,2s-1.8,1.5-2,1.3c-0.2-0.2,0.4-1.1,1.3-2.1C107.9,197.4,108.8,196.8,109,197z"/>
<path class="st3" d="M98.6,200.6c-0.2,0.2-1-0.2-1.9-0.9c-0.9-0.7-1.4-1.5-1.3-1.7c0.2-0.2,1,0.2,1.9,0.9
	C98.2,199.6,98.7,200.4,98.6,200.6z"/>
<path class="st3" d="M98.2,206.7c0.2,0.2-0.3,1.1-1.2,2c-0.8,0.9-1.7,1.5-1.9,1.3c-0.2-0.2,0.3-1.1,1.1-2
	C97.1,207.1,98,206.5,98.2,206.7z"/>
<path class="st3" d="M353.2,180.3c0,0.2-1.2,0.3-2.6,0.3s-2.6-0.1-2.6-0.3c0-0.2,1.2-0.3,2.6-0.3S353.2,180.2,353.2,180.3z"/>
<path class="st3" d="M355.9,173.3c0.2,0,0.3,1.2,0.3,2.6c0,1.4-0.1,2.6-0.3,2.6c-0.2,0-0.3-1.2-0.3-2.6S355.7,173.3,355.9,173.3z"/>
<path class="st3" d="M358.8,180.2c0-0.2,1.2-0.3,2.6-0.3c1.4,0,2.6,0.1,2.6,0.3c0,0.2-1.1,0.3-2.6,0.3
	C360,180.5,358.8,180.3,358.8,180.2z"/>
<path class="st3" d="M356.1,187.2c-0.2,0-0.3-1.2-0.3-2.6s0.1-2.6,0.3-2.6c0.2,0,0.3,1.2,0.3,2.6S356.2,187.2,356.1,187.2z"/>
<path class="st3" d="M360.2,184.2c-0.1,0.1-0.6-0.3-1.1-0.9s-0.8-1.2-0.7-1.3c0.1-0.1,0.6,0.3,1.1,0.9
	C360,183.5,360.4,184.1,360.2,184.2z"/>
<path class="st3" d="M360,176.2c0.1,0.1-0.2,0.6-0.7,1.2c-0.5,0.5-1,0.9-1.2,0.7c-0.1-0.1,0.2-0.6,0.7-1.2
	C359.4,176.5,359.9,176.1,360,176.2z"/>
<path class="st3" d="M354.1,178.3c-0.1,0.1-0.6-0.1-1.1-0.5c-0.5-0.4-0.8-0.9-0.7-1c0.1-0.1,0.6,0.1,1.1,0.5
	S354.2,178.1,354.1,178.3z"/>
<path class="st3" d="M353.9,181.8c0.1,0.1-0.2,0.6-0.7,1.1s-1,0.9-1.1,0.7c-0.1-0.1,0.2-0.6,0.7-1.1S353.8,181.7,353.9,181.8z"/>
<path class="st3" d="M236,239c-1.3,0.3-2.7,0.3-4,0C233.4,238.7,234.7,238.7,236,239z"/>
<path class="st3" d="M238.2,233.6c0.3,1.3,0.3,2.7,0,4C237.9,236.3,237.9,234.9,238.2,233.6z"/>
<path class="st3" d="M240.4,238.9c1.3-0.3,2.7-0.3,4,0C243,239.2,241.7,239.2,240.4,238.9z"/>
<path class="st3" d="M238.3,244.2c-0.3-1.3-0.3-2.7,0-4C238.6,241.6,238.6,242.9,238.3,244.2z"/>
<path class="st3" d="M241.5,241.9c-0.1,0.1-0.5-0.2-0.9-0.7s-0.6-0.9-0.5-1c0.1-0.1,0.5,0.2,0.9,0.7
	C241.3,241.4,241.6,241.9,241.5,241.9z"/>
<path class="st3" d="M241.3,235.8c0.1,0.1-0.2,0.5-0.6,0.9c-0.4,0.4-0.8,0.7-0.9,0.6c-0.1-0.1,0.2-0.5,0.6-0.9
	C240.8,236,241.2,235.8,241.3,235.8z"/>
<path class="st3" d="M236.8,237.4c-0.1,0.1-0.4-0.1-0.8-0.4c-0.4-0.3-0.6-0.7-0.6-0.7c0.1-0.1,0.4,0.1,0.8,0.4
	S236.8,237.3,236.8,237.4z"/>
<path class="st3" d="M236.6,240.1c0.1,0.1-0.1,0.5-0.5,0.9c-0.4,0.4-0.7,0.7-0.8,0.6c-0.1-0.1,0.1-0.5,0.5-0.9
	C236.1,240.3,236.5,240,236.6,240.1z"/>
<path class="st0" d="M341,247.4c0,0.2-1.2,0.3-2.6,0.3c-1.4,0-2.6-0.1-2.6-0.3c0-0.2,1.1-0.3,2.6-0.3S341,247.2,341,247.4z"/>
<path class="st0" d="M343.8,240.3c0.2,0,0.3,1.2,0.3,2.6s-0.1,2.6-0.3,2.6c-0.2,0-0.3-1.2-0.3-2.6S343.6,240.3,343.8,240.3z"/>
<path class="st0" d="M346.7,247.2c0-0.2,1.2-0.3,2.6-0.3c1.4,0,2.6,0.1,2.6,0.3c0,0.2-1.1,0.3-2.6,0.3
	C347.8,247.5,346.7,247.3,346.7,247.2z"/>
<path class="st0" d="M343.9,254.2c-0.2,0-0.3-1.2-0.3-2.6c0-1.4,0.1-2.6,0.3-2.6c0.2,0,0.3,1.2,0.3,2.6
	C344.2,253,344.1,254.2,343.9,254.2z"/>
<path class="st0" d="M348.1,251.2c-0.1,0.1-0.6-0.3-1.1-0.9c-0.5-0.6-0.8-1.2-0.7-1.3c0.1-0.1,0.6,0.3,1.1,0.9
	C347.9,250.5,348.2,251.1,348.1,251.2z"/>
<path class="st0" d="M347.9,243.2c0.1,0.1-0.2,0.6-0.7,1.2c-0.5,0.5-1,0.9-1.2,0.7s0.2-0.6,0.7-1.2
	C347.2,243.4,347.8,243.1,347.9,243.2z"/>
<path class="st0" d="M342,245.3c-0.1,0.1-0.6-0.1-1.1-0.5c-0.5-0.4-0.8-0.9-0.7-1c0.1-0.1,0.6,0.1,1.1,0.5
	C341.7,244.7,342.1,245.1,342,245.3z"/>
<path class="st0" d="M341.7,248.8c0.1,0.1-0.2,0.6-0.7,1.1c-0.5,0.5-1,0.9-1.1,0.7c-0.1-0.1,0.2-0.6,0.7-1.1
	C341.1,249,341.6,248.7,341.7,248.8z"/>
<path class="st0" d="M205.1,180.8l0.3,0.8c0.6,1.4,1.7,2.5,3.1,3.1l0.9,0.4l-0.8,0.3c-1.4,0.6-2.6,1.7-3.1,3.2l-0.2,0.6l-0.4-0.7
	c-0.6-1.3-1.8-2.4-3.2-2.9l-0.7-0.3l1-0.5c1.3-0.6,2.2-1.7,2.8-3L205.1,180.8z"/>
<path class="st0" d="M74.2,241.1l0.2,0.5c0.4,0.9,1.1,1.7,2.1,2.1L77,244l-0.6,0.2c-0.9,0.4-1.7,1.1-2.1,2.1l-0.2,0.4l-0.2-0.5
	c-0.4-0.9-1.2-1.6-2.1-1.9l-0.5-0.2l0.7-0.3c0.8-0.4,1.5-1.1,1.8-2L74.2,241.1z"/>
<path class="st0" d="M404.2,189.1l0.2,0.5c0.4,0.9,1.1,1.7,2.1,2.1l0.6,0.2l-0.6,0.2c-1,0.4-1.7,1.1-2.1,2.1l-0.2,0.4l-0.2-0.5
	c-0.4-0.9-1.2-1.6-2.1-1.9l-0.5-0.2l0.7-0.3c0.8-0.4,1.5-1.1,1.8-2L404.2,189.1z"/>
<path class="st3" d="M405.2,211.8l0.3,0.8c0.6,1.4,1.7,2.5,3.1,3.1l0.9,0.4l-0.8,0.3c-1.4,0.6-2.6,1.7-3.1,3.1l-0.2,0.6l-0.4-0.7
	c-0.6-1.3-1.8-2.4-3.2-2.9l-0.7-0.3l1-0.5c1.3-0.6,2.2-1.7,2.8-2.9L405.2,211.8z"/>
<path class="st3" d="M267.4,175.9l0.2,0.4c0.3,0.7,0.8,1.2,1.5,1.4l0.4,0.2l-0.4,0.2c-0.7,0.3-1.2,0.8-1.5,1.5l-0.1,0.3l-0.2-0.3
	c-0.3-0.6-0.8-1.1-1.5-1.4l-0.4-0.1l0.5-0.2c0.6-0.3,1.1-0.8,1.3-1.4L267.4,175.9z"/>
<path class="st3" d="M163.4,237.7l0.2,0.5c0.4,0.8,1,1.5,1.9,1.9l0.5,0.2l-0.5,0.2c-0.9,0.3-1.5,1-1.9,1.9l-0.1,0.4l-0.2-0.4
	c-0.4-0.8-1.1-1.4-1.9-1.7l-0.5-0.2l0.6-0.3c0.8-0.4,1.4-1,1.7-1.8L163.4,237.7z"/>
<path class="st6" d="M465.1,218.9c-17.5,0-31.7,14.2-31.7,31.7c0,8.7,3.6,17.1,10,23l-4.3,15l15.1-8.3c16.4,6,34.6-2.5,40.6-18.9
	c6-16.4-2.5-34.6-18.9-40.6C472.5,219.5,468.8,218.9,465.1,218.9L465.1,218.9z"/>
<path class="st3" d="M465.1,218.9c0,0,0.2,0,0.6,0l1.7,0.1c0.4,0,0.7,0,1.2,0.1l1.5,0.2c0.5,0.1,1.1,0.1,1.7,0.3l1.9,0.5
	c7.7,2.1,14.3,7,18.5,13.7l1,1.6c0.3,0.6,0.6,1.1,0.9,1.7c1.8,3.8,2.8,7.8,3,12c0.1,1.5,0.1,3-0.1,4.5c-0.1,0.7-0.2,1.5-0.3,2.2
	c-0.1,0.4-0.1,0.7-0.2,1.1l-0.3,1.1c-0.7,3.1-2,6.1-3.6,8.9c-3.6,6-9,10.6-15.4,13.2c-6.9,2.7-14.6,3-21.8,0.7l-1-0.4h0.2
	c-5.2,2.8-10.2,5.6-15.1,8.3l-0.4,0.2l0.1-0.4c1.5-5.2,2.9-10.2,4.3-15l0.1,0.2c-2-1.9-3.7-4-5.2-6.3c-1.4-2.2-2.5-4.6-3.3-7.1
	c-0.8-2.4-1.2-4.8-1.4-7.3c-0.1-0.6-0.1-1.2-0.1-1.8c0-0.6,0-1.2,0-1.8c0-1.2,0.1-2.3,0.3-3.5c0.6-4.3,2.1-8.4,4.4-12.1
	c2-3.2,4.4-5.9,7.3-8.3l2-1.5l2-1.2c0.6-0.4,1.3-0.7,1.9-1c0.6-0.3,1.2-0.6,1.9-0.9c2.1-0.8,4.2-1.4,6.4-1.8l2.4-0.4l1.8-0.1h1.1
	L465.1,218.9l-0.3,0l-1.1,0.1l-1.8,0.1l-2.4,0.4c-2.2,0.4-4.3,1-6.4,1.9c-0.6,0.2-1.2,0.6-1.8,0.9c-0.7,0.3-1.3,0.6-1.9,1l-2,1.2
	l-1.9,1.5c-2.9,2.3-5.3,5.1-7.2,8.2c-2.2,3.7-3.7,7.7-4.3,12c-0.2,1.1-0.3,2.3-0.3,3.5c0,0.6,0,1.2,0,1.8c0,0.6,0,1.2,0.1,1.8
	c0.2,2.5,0.7,4.9,1.4,7.2c1.7,5,4.5,9.6,8.4,13.2l0.1,0.1l0,0.1c-1.4,4.8-2.8,9.8-4.3,15l-0.3-0.2l15.1-8.3l0.1,0h0.1l1,0.4
	c7,2.2,14.6,2,21.5-0.7c6.4-2.6,11.7-7.1,15.3-13c1.7-2.7,2.9-5.7,3.6-8.8c0.1-0.4,0.2-0.7,0.3-1.1l0.2-1.1c0.1-0.7,0.3-1.5,0.3-2.2
	c0.1-1.5,0.2-2.9,0.1-4.4c-0.1-4.1-1.1-8.2-2.9-11.9l-0.8-1.7l-1-1.6c-2.3-3.8-5.5-7-9.2-9.5c-2.8-1.9-5.9-3.3-9.1-4.2l-1.9-0.5
	c-0.6-0.1-1.2-0.2-1.7-0.3l-1.5-0.2c-0.4-0.1-0.9-0.1-1.2-0.1l-1.7-0.1C465.3,218.9,465.1,218.9,465.1,218.9z"/>
<path class="st3" d="M458.2,246.3h2.2l4.9-6.8V235c0,0,3.5-0.2,3.1,5.7c-0.4,5.9,0,4.4,0,4.4s7.4,0,8,0.7c0.4,0.5,0.6,7.8,0.7,11.7
	c0.1,2-1.2,3.7-3,4.3c-0.3,0.1-0.5,0.1-0.8,0.1c-1.8,0-11.2-1.5-11.2-1.5h-3.9V246.3z"/>
<polygon class="st3" points="451.8,245 453.2,260.4 457,260.4 457,245.4 "/>
<path class="st3" d="M143.6,251.3c-0.1,2.4-3.2,5.6-2.3,7.8c1.8,4,0.7,8.9-1.6,12.7c-2.3,3.8-5.7,6.7-9.1,9.5
	c0.2-5.9-0.3-11.8-1.5-17.6c-0.4-1.8-1-3.8-2.6-4.6c-2.1-1.1-4.9,0.5-7-0.5c-2.3-1-2.8-4.2-4.8-5.8c-1.8-1.5-4.4-1.3-6.6-0.6
	c-2.2,0.7-4.2,2-6.4,2.5c-2.2,0.5-5,0.1-6.2-1.9c-0.7-1.2-0.2-0.5-0.9-1.7c0,0-4.4,0.1-5.9-4.9c0,0-2.1-5.7,2.5-8.2
	c0,0,1-10.2,11.3-5.6c3,1.3,6.5-2.9,9.3-1.5c2.4,1.2,3.1,4.6,5.5,5.8c2.8,1.4,6-0.7,9.1-0.8c4.1,0,7.5,3.3,7.5,7.5
	c0,0,0.5-2,3.8-1.1S143.8,246.7,143.6,251.3z"/>
<path class="st7" d="M139.2,267.8c0.1-1.2-0.2-2.3-0.6-3.4c-0.4-0.9-2.1-2.9-3.8-3l0.3-10.5c0-2.2-1.6-4-3.7-4.3l-20.6-2.2
	c-6.9-0.7-13.1,4.3-13.8,11.2c0,0.2,0,0.4,0,0.5c-0.5,7.9-0.8,17.7,0.1,23.6c1.9,11.9,11,13.4,11,13.4l-0.2,8.3
	c-0.4,8.9,6.3,14.2,13.1,14.2s13.2-5.9,13-14.7l0.7-26.8c1.2-0.1,2.2-0.6,3-1.5C138.7,271.3,139.3,269.6,139.2,267.8z"/>
<path class="st3" d="M101.4,262.7c0,0.8,0.7,1.5,1.5,1.5c0.8,0,1.5-0.6,1.6-1.4c0-0.8-0.6-1.5-1.4-1.5c0,0,0,0-0.1,0
	C102.1,261.2,101.4,261.9,101.4,262.7z"/>
<path class="st3" d="M98.9,261.3c0.2,0.2,1.3-0.7,3-0.7s2.8,0.8,3,0.6c0.1-0.1-0.1-0.4-0.6-0.8c-0.7-0.5-1.6-0.8-2.4-0.7
	c-0.9,0-1.7,0.2-2.4,0.7C98.9,260.8,98.7,261.2,98.9,261.3z"/>
<path class="st3" d="M117.2,263c0,0.8,0.7,1.5,1.5,1.5c0.8,0,1.5-0.6,1.6-1.4c0-0.8-0.7-1.5-1.5-1.5
	C118,261.6,117.3,262.2,117.2,263z"/>
<path class="st3" d="M115,261.6c0.2,0.2,1.3-0.7,3-0.6c1.6,0,2.8,0.8,3,0.6c0.1-0.1-0.1-0.4-0.6-0.8c-0.7-0.5-1.6-0.8-2.4-0.7
	c-0.9,0-1.7,0.3-2.4,0.7C115.1,261.1,114.9,261.5,115,261.6z"/>
<path class="st3" d="M109,273.8c-0.9-0.3-1.8-0.4-2.7-0.5c-0.4,0-0.8-0.1-0.9-0.4c0-0.4,0.1-0.9,0.3-1.2l1.2-3.2
	c1.7-4.6,3-8.3,2.8-8.4c-0.2-0.1-1.7,3.6-3.5,8.1c-0.4,1.1-0.8,2.2-1.2,3.2c-0.3,0.5-0.3,1.1-0.2,1.6c0.1,0.3,0.4,0.5,0.7,0.6
	c0.2,0.1,0.5,0.1,0.7,0.1C107.3,273.9,108.2,273.9,109,273.8z"/>
<path class="st8" d="M107.9,293.2c5.6,0.1,11.1-1.4,16-4.3c0,0-4.1,8.9-16.1,7.9L107.9,293.2z"/>
<path class="st3" d="M114.3,258.7c0.2,0.4,1.8,0.2,3.7,0.5c1.9,0.2,3.5,0.7,3.7,0.4c0.1-0.2-0.2-0.6-0.8-1c-0.8-0.5-1.8-0.9-2.8-1
	c-1-0.1-2,0-2.9,0.3C114.6,258.1,114.2,258.5,114.3,258.7z"/>
<path class="st3" d="M98.6,257.4c0.3,0.4,1.4,0,2.8,0c1.4,0,2.5,0.2,2.8-0.1c0.1-0.2-0.1-0.6-0.6-0.9c-1.4-0.9-3.1-0.8-4.5,0.1
	C98.6,256.9,98.5,257.3,98.6,257.4z"/>
<path class="st8" d="M109.4,283.1c0,0,0.1-0.2,0.4-0.4c0.5-0.3,1-0.4,1.5-0.4c0.5,0,1,0.1,1.5,0.4c0.3,0.2,0.5,0.4,0.5,0.4
	c-0.6-0.2-1.3-0.4-1.9-0.4C110.7,282.7,110,282.8,109.4,283.1z"/>
<path class="st8" d="M133.7,271c0.4-0.2,0.8-0.3,1.1-0.6c0.8-0.5,1.3-1.5,1.4-2.4c0-1-0.4-1.9-1.2-2.5c-0.3-0.2-0.7-0.4-1.1-0.4
	c0,0,0.6-0.2,1.3,0.2c0.9,0.6,1.5,1.7,1.5,2.8c0,0.6-0.2,1.2-0.6,1.7c-0.3,0.4-0.6,0.7-1.1,1C134.6,270.9,134.1,271,133.7,271z"/>
<path class="st3" d="M94.5,241.6c-1.9,5.1,2.6,8.9,6.2,9.7c5,1.2,10.3-2,13.7-0.6c2.5,1,4.9,3,7.6,2.6c1.3-0.2,2.6-0.9,3.9-0.6
	c1.6,0.4,2.3,2.4,2.2,4.1c0,2.1-0.7,4.2-0.5,6.2s2.1,4.2,4.1,3.7c1.9-0.7,3.3-2.4,3.4-4.5c0.2-2.9-0.3-6.3-0.1-9.2
	c0.1-2.5,0.1-5.3-1.5-7.3c-1.6-2-4.4-2.5-6.9-2.8c-10.7-1.5-21.4-2-32.2-1.7"/>
<path class="st9" d="M88.2,242.7c-0.1-0.2-0.1-0.4-0.1-0.5c0-0.5,0.1-1.1,0.3-1.5c0.4-0.8,1-1.4,1.8-1.7c0.5-0.2,1-0.2,1.6-0.2
	c0.6,0.1,1.1,0.2,1.7,0.2c0.6,0,1.2-0.1,1.8-0.4c0.6-0.3,1.1-0.7,1.6-1.2c0.5-0.5,1.1-1,1.7-1.4c0.7-0.5,1.4-0.8,2.2-1
	c1.7-0.3,3.5,0,5,0.9c1.6,0.9,3.1,1.9,4.4,3.2c1.3,1.2,2.8,2.2,4.4,3c0.8,0.3,1.6,0.4,2.4,0.4c0.8-0.1,1.5-0.4,2.2-0.7
	c1.3-0.8,2.7-1.4,4.1-1.9c1.3-0.4,2.7-0.4,4-0.1c1.1,0.2,2.1,0.8,2.9,1.6c0.6,0.6,1.1,1.3,1.4,2.1c0.2,0.5,0.3,1,0.3,1.5
	c0,0.1,0,0.3,0,0.4c0,0.1,0,0.1,0,0.1c0-0.7-0.1-1.4-0.4-2c-0.3-0.7-0.8-1.4-1.4-2c-0.8-0.7-1.8-1.2-2.8-1.4
	c-1.3-0.3-2.6-0.2-3.8,0.2c-1.4,0.5-2.8,1.1-4.1,1.9c-0.7,0.4-1.6,0.6-2.4,0.7c-0.9,0.1-1.8,0-2.6-0.4c-1.7-0.8-3.2-1.8-4.5-3
	c-1.3-1.2-2.8-2.2-4.3-3.1c-1.5-0.8-3.1-1.1-4.8-0.8c-1.6,0.3-2.7,1.4-3.7,2.3c-0.5,0.5-1.1,0.9-1.7,1.2c-0.6,0.3-1.3,0.4-1.9,0.4
	c-0.6,0-1.2-0.2-1.7-0.3c-0.5-0.1-1,0-1.5,0.1c-0.7,0.3-1.4,0.9-1.7,1.6c-0.2,0.5-0.4,1-0.4,1.5C88.2,242.6,88.3,242.7,88.2,242.7z"
	/>
<path class="st9" d="M94,251c-0.2,0-0.4,0-0.5,0c-0.5-0.1-0.9-0.4-1.2-0.9c-0.4-0.7-0.5-1.6-0.3-2.3c0.2-1,0.6-2,1.2-2.9
	c0.8-1,1.8-1.8,3-2.3c1.4-0.5,2.9-0.6,4.3-0.1c1.5,0.6,2.9,1.4,4.2,2.4c1.3,1.1,2.8,1.9,4.4,2.5c1.6,0.4,3.3,0.3,4.9-0.3
	c1.5-0.5,2.9-1.2,4.3-2c1.2-0.7,2.5-1.4,3.8-2c1.2-0.5,2.4-0.8,3.7-0.9c1.9-0.2,3.7,0.5,5.1,1.7c0.4,0.4,0.7,0.8,0.9,1.2
	c0.1,0.2,0.1,0.3,0.2,0.5c-0.3-0.6-0.7-1.1-1.2-1.6c-1.4-1.2-3.2-1.7-5-1.6c-1.2,0.1-2.4,0.4-3.6,1c-1.3,0.6-2.6,1.3-3.8,2
	c-1.4,0.8-2.8,1.5-4.3,2.1c-1.6,0.6-3.4,0.7-5.2,0.3c-1.6-0.6-3.1-1.4-4.5-2.5c-1.2-1-2.6-1.8-4.1-2.3c-1.3-0.4-2.8-0.4-4.1,0.1
	c-1.2,0.4-2.2,1.2-2.9,2.1c-0.6,0.8-1,1.8-1.2,2.8c-0.2,0.7-0.1,1.5,0.2,2.2c0.2,0.4,0.6,0.8,1.1,0.9C93.7,251,93.8,251,94,251z"/>
<path class="st9" d="M139.7,270.9c0,0,0.3-0.4,0.7-1c0.5-1,0.8-2.1,0.9-3.2c0-0.8-0.1-1.5-0.3-2.2c-0.3-0.8-0.7-1.6-1.2-2.3
	c-0.5-0.7-1.1-1.6-1.7-2.5c-0.6-0.9-1-2-1-3.1c0.1-1.1,0.4-2.1,1-3.1c0.5-0.8,0.8-1.8,0.8-2.7c0-1.7-0.8-3.2-2.2-4.1
	c-1-0.6-2.1-0.8-3.2-0.6c-0.4,0.1-0.8,0.2-1.2,0.3c0.1-0.1,0.2-0.1,0.3-0.2c0.3-0.1,0.6-0.2,0.9-0.3c1.1-0.2,2.3,0,3.4,0.5
	c1.5,0.9,2.5,2.6,2.4,4.3c-0.1,1-0.4,2-0.9,2.9c-0.5,0.9-0.8,1.9-1,2.9c0,1,0.3,2,0.9,2.9c0.5,0.9,1.1,1.7,1.7,2.5
	c0.5,0.8,0.9,1.6,1.2,2.5c0.2,0.8,0.3,1.6,0.2,2.4c-0.1,1.1-0.4,2.2-1,3.2c-0.2,0.3-0.3,0.5-0.6,0.7
	C139.7,270.8,139.7,270.9,139.7,270.9z"/>
<path class="st3" d="M108.4,262.2c-0.1-0.6-0.2-1.2-0.3-1.9c-1-4-5.2-6.5-9.2-5.4c-0.2,0.1-0.5,0.1-0.7,0.2
	c-1.4,0.5-2.6,1.4-3.5,2.6c-1.9,2.6-1.9,6.2,0,8.8c0.4,0.6,1,1.2,1.6,1.6c0.6,0.4,1.2,0.8,1.9,1c2.4,0.9,5.1,0.5,7.1-1
	c1.4-1,2.4-2.5,2.8-4.1C108.3,263.4,108.4,262.8,108.4,262.2c0,0.6,0,1.2-0.2,1.8c-0.4,1.7-1.4,3.3-2.8,4.4
	c-2.1,1.6-4.9,2.1-7.4,1.2c-0.7-0.2-1.4-0.6-2-1.1c-0.6-0.5-1.2-1-1.7-1.7c-2-2.8-2-6.5,0-9.3c0.9-1.3,2.2-2.2,3.7-2.7
	c1.3-0.5,2.7-0.6,4.1-0.3c3,0.6,5.4,2.8,6.1,5.8C108.4,260.9,108.5,261.6,108.4,262.2z"/>
<path class="st3" d="M125.9,262.2c-0.1-0.6-0.2-1.2-0.3-1.9c-1-4-5.2-6.5-9.2-5.4c-0.2,0.1-0.5,0.1-0.7,0.2
	c-1.4,0.5-2.6,1.4-3.5,2.6c-1.9,2.6-1.9,6.2,0,8.8c0.4,0.6,1,1.2,1.6,1.6c0.6,0.4,1.2,0.8,1.9,1c3.9,1.4,8.3-0.6,9.7-4.5
	c0.1-0.2,0.1-0.4,0.2-0.6C125.7,263.4,125.8,262.8,125.9,262.2c0,0.6,0,1.3-0.2,1.9c-0.4,1.7-1.4,3.3-2.8,4.3
	c-2.1,1.6-4.9,2.1-7.4,1.2c-0.7-0.2-1.4-0.6-2-1.1c-0.6-0.5-1.2-1-1.7-1.7c-2-2.8-2-6.5,0-9.3c0.9-1.2,2.2-2.2,3.7-2.7
	c1.3-0.5,2.7-0.6,4.1-0.3c3,0.6,5.3,2.9,6.1,5.8C125.9,260.9,126,261.6,125.9,262.2z"/>
<path class="st3" d="M111,260.9L111,260.9L111,260.9L111,260.9L111,260.9L111,260.9L111,260.9L111,260.9L111,260.9L111,260.9
	c-0.4,0.2-0.8,0.2-1.3,0.2c-0.7,0-1.4-0.1-1.4-0.2s0.6-0.2,1.4-0.2C110.2,260.7,110.6,260.8,111,260.9L111,260.9L111,260.9
	L111,260.9L111,260.9L111,260.9L111,260.9L111,260.9L111,260.9L111,260.9z"/>
<path class="st3" d="M135.1,262.6c-1.6,0.1-3.1,0-4.7-0.1c-1.6,0-3.1-0.2-4.7-0.5c1.6-0.1,3.1,0,4.7,0.1
	C132,262.1,133.6,262.3,135.1,262.6z"/>
<path class="st3" d="M115.9,273.4c0.1,0.4,0.2,0.8,0.1,1.2c-0.3,2.1-2.1,3.5-4.2,3.5c-0.4,0-0.8-0.1-1.2-0.3c0-0.1,0.5,0.1,1.2,0
	c1.9-0.1,3.5-1.4,4-3.2C115.9,273.8,115.8,273.4,115.9,273.4z"/>
<path class="st3" d="M86.3,326.9c0,0.1,0,0.2,0,0.2v0.7c0,0.6,0,1.6,0,2.7c0,2.4,0,5.7,0.1,9.9c0,8.4-0.3,19.9-0.9,32.7
	s-1.3,24.3-1.8,32.7c-0.2,4.2-0.4,7.5-0.5,9.9c-0.1,1.1-0.1,2-0.1,2.7c0,0.3,0,0.5,0,0.7c0,0.1,0,0.2,0,0.2c0-0.1,0-0.2,0-0.2
	c0-0.2,0-0.4,0-0.7c0-0.6,0-1.5,0.1-2.7c0.1-2.3,0.2-5.7,0.4-9.9c0.4-8.4,1-19.9,1.7-32.7c0.6-12.8,1-24.3,1-32.7
	c0-4.2,0.1-7.5,0.1-9.9c0-1.1,0-2.1,0-2.7v-0.7C86.3,327,86.3,327,86.3,326.9z"/>
<path class="st10" d="M158.4,314c-4-4.6-11.8-5.3-15.3-2.8c-3.5,2.5-5.4,6.8-5.8,11.1s0.7,8.6,2.4,12.5c2.6,6.4,6.5,11.5,12.3,18
	l14.9,19.6l-28.7,28.1l11.9,18.8l24.4-19.7l20.2-21.4"/>
<path class="st3" d="M54.4,374.3c0.5-0.3,1-0.6,1.6-0.7c1.3-0.4,2.7-0.6,4.1-0.6c1.4,0.1,2.8,0.4,4,1c0.6,0.2,1.1,0.5,1.5,0.9
	c0,0.1-0.6-0.3-1.6-0.7c-1.3-0.5-2.6-0.8-3.9-0.9c-1.4-0.1-2.7,0.1-4,0.4C55.1,374.1,54.5,374.4,54.4,374.3z"/>
<path class="st11" d="M162.3,318.4L162.3,318.4c-10-13.3-20.8-12.2-26.3-12.4v-5.8c-4.1,0-9.6,3.7-12.5,6.3l-2.8,3.9l0,0
	c-1.5-4.3-4.9-7.7-9.3-9.1c-1.6-0.5-3.1-0.9-4.8-1.1v5.2c-13.5,0.4-20.7,4.1-29.7,14.5c-0.5,0.5-1.4,1.5-2.4,2.5l0,0l-26.7,31.3
	c-5.4,6-10.4,14.3-9.3,22.4l0,0c1.3,9.1,6.6,15,16.7,21.9l28,18.2l-0.1,3.1H150c0,0,45.4-33.5,46.5-45.9
	C197.4,363.6,181.7,342.9,162.3,318.4z M84.4,389.5l-19.6-14.6l21.2-21.9L84.4,389.5z M148.6,390.7l-0.5-10.8l2.8-28.5
	c5.6,6.4,15.9,19.1,15.9,21L148.6,390.7z"/>
<path class="st3" d="M135.9,306.1c-0.1,0.3-0.3,0.6-0.5,0.9c-0.4,0.6-0.9,1.3-1.6,2.3c-1.7,2.5-3.7,4.9-5.9,7.1
	c-0.6,0.6-1.3,1.2-1.9,1.8l-0.3,0.3v-0.4c0-2.5-1-4.8-2.7-6.5c-0.5-0.5-1-1-1.7-1.2c-0.3-0.1-0.5,0-0.7,0.1c0.2-0.2,0.5-0.3,0.7-0.3
	c0.7,0.2,1.4,0.6,1.9,1.2c0.8,0.8,1.5,1.7,2,2.7c0.6,1.3,1,2.6,1,4l-0.3-0.1c0.6-0.6,1.3-1.2,1.9-1.8c2.1-2.2,4.1-4.5,5.9-7l1.6-2.2
	C135.5,306.6,135.7,306.4,135.9,306.1z"/>
<path class="st3" d="M106.6,305.5c0.2,0.2,0.4,0.4,0.6,0.7l1.5,2c1.2,1.7,2.9,4,4.8,6.6l1.2,1.7l-0.3,0.1c0.4-1.2,0.9-2.4,1.5-3.5
	c0.5-0.9,1.3-1.6,2.2-2.1c0.6-0.3,1.3-0.5,1.9-0.5c0.3,0,0.5,0,0.7,0.1c0,0-0.3,0-0.7,0c-0.6,0.1-1.3,0.3-1.8,0.6
	c-0.8,0.5-1.5,1.2-2,2.1c-0.6,1.1-1.1,2.2-1.4,3.4l-0.1,0.4l-0.2-0.3l-1.2-1.7c-1.8-2.6-3.5-4.9-4.7-6.6c-0.5-0.8-1-1.5-1.4-2
	C106.8,306,106.7,305.8,106.6,305.5z"/>
<g class="st12">
	<path d="M120.6,310.4c2.3,2.5,3.3,5.8,2.9,9.2c-0.1,1.1-0.3,2.5,0.7,2.9c0.7,0.3,1.5-0.2,2.1-0.7c4.4-3.5,7.9-7.9,10.5-12.8
		c0.3-0.4,0.4-0.8,0.4-1.3c0-0.5-0.4-0.9-0.9-0.9c-0.3,0.1-0.6,0.3-0.7,0.5c-3.1,3.6-6.5,7.3-9.6,10.9c0.1-2-0.5-4-1.7-5.5
		C123,311.3,121.7,309.7,120.6,310.4"/>
</g>
<path class="st3" d="M149.2,418c-0.1-0.1-0.2-0.2-0.2-0.3c-0.2-0.2-0.4-0.6-0.6-0.9l-2.3-3.5c-1.9-3.1-4.7-7.4-7.8-12.4l-0.1-0.1
	l0.1-0.1l7-7l15.2-15.1c1.9-1.9,3.5-3.4,4.6-4.5l1.3-1.2c0.1-0.1,0.3-0.3,0.5-0.4c-0.1,0.2-0.3,0.3-0.4,0.5
	c-0.3,0.3-0.7,0.7-1.2,1.3l-4.6,4.6L145.5,394c-2.5,2.5-4.8,4.8-7,7v-0.2c3.1,5,5.8,9.4,7.7,12.5c0.9,1.5,1.7,2.7,2.2,3.6
	c0.2,0.4,0.4,0.7,0.6,1C149.1,417.8,149.1,417.9,149.2,418z"/>
<path class="st3" d="M141,313.7l-0.1,0.1l-0.3,0.4c-0.3,0.3-0.7,0.9-1.3,1.6c-1.5,2-2.5,4.3-2.9,6.8c-0.5,3.7,0.1,7.4,1.7,10.8
	c0.8,2,2,3.9,3.3,5.6c1.4,1.8,2.9,3.6,4.4,5.5c6,7.6,11.2,14.6,15,19.7l4.5,6c0.5,0.7,0.9,1.2,1.2,1.6l0.3,0.4l0.1,0.1
	c0,0-0.1,0-0.1-0.1l-0.3-0.4l-1.3-1.6c-1.1-1.4-2.7-3.4-4.6-6c-3.8-5-9.1-12.1-15.1-19.6c-1.5-1.9-3-3.7-4.4-5.5
	c-1.3-1.8-2.5-3.7-3.3-5.7c-1.6-3.4-2.1-7.2-1.6-10.9c0.6-3.2,2.1-6.1,4.4-8.4l0.4-0.4C140.9,313.7,141,313.7,141,313.7z"/>
<path class="st2" d="M166.1,323.3c0,0-0.4,0.2-1.1,0.6c-1,0.5-1.9,1.2-2.6,2c-1.1,1.2-2.1,2.5-3,4c-1,1.8-2.1,3.5-3.3,5.2
	c-2.3,3.1-5.8,5-9.7,5.2c-1.1,0.1-2.3-0.1-3.4-0.3c-0.3-0.1-0.6-0.2-0.9-0.3c-0.1,0-0.2-0.1-0.3-0.1c1.5,0.4,3,0.5,4.6,0.4
	c1.7-0.1,3.3-0.5,4.8-1.3c1.8-0.9,3.4-2.2,4.6-3.8c1.3-1.7,2.3-3.5,3.3-5.1c0.9-1.4,1.9-2.8,3.1-4c0.8-0.8,1.7-1.5,2.8-2
	c0.3-0.1,0.6-0.2,0.9-0.3C165.9,323.3,166,323.3,166.1,323.3z"/>
<path class="st2" d="M148.3,388.9h-0.2l-0.5-0.1c-0.2-0.1-0.5-0.1-0.8-0.1c-0.4-0.1-0.8-0.1-1.1-0.1c-2.4-0.1-4.9,0.2-7.2,0.9
	c-1.6,0.5-3.2,1-4.7,1.7c-1.7,0.7-3.4,1.7-5.2,2.5c-1.9,0.9-3.9,1.7-6,2.3c-1.1,0.3-2.2,0.5-3.4,0.5c-1.2,0.1-2.4,0-3.5-0.3
	c-2.3-0.5-4.4-1.4-6.4-2.6c-1.9-1.1-3.6-2.5-5.3-3.7c-3.3-2.4-6.4-4.5-9.3-5.4c-1.3-0.4-2.7-0.6-4.1-0.7c-1,0-2.1,0.1-3.1,0.4
	c-0.9,0.2-1.7,0.6-2.5,1l0.1-0.1l0.4-0.3c0.6-0.3,1.2-0.6,1.8-0.7c1-0.3,2.1-0.4,3.1-0.4c1.4,0,2.8,0.2,4.1,0.6
	c3,0.9,6.2,2.9,9.5,5.3c1.7,1.2,3.4,2.5,5.3,3.6c1.9,1.2,4.1,2.1,6.3,2.6c1.1,0.2,2.3,0.3,3.4,0.2c1.1-0.1,2.2-0.2,3.3-0.5
	c2.1-0.6,4.1-1.3,6-2.2c1.8-0.9,3.6-1.8,5.2-2.5c1.6-0.7,3.2-1.2,4.8-1.7c2.4-0.7,4.8-1,7.3-0.8
	C146.6,388.4,147.5,388.6,148.3,388.9z"/>
<path class="st2" d="M74.6,382.2c0,0,0,0.1,0.1,0.3c0,0.2,0.1,0.5,0.1,0.7c0.1,0.9,0,1.9-0.1,2.8c-0.2,1.4-0.8,2.7-1.6,3.8
	c-1,1.4-2.3,2.5-3.8,3.3c-1.5,0.9-3,1.7-4.3,2.6c-1.1,0.8-2.1,1.7-2.9,2.8c-0.5,0.7-0.8,1.6-0.9,2.5c0,0.6,0.1,1,0.1,1
	c0-0.1-0.1-0.2-0.1-0.2c-0.1-0.2-0.1-0.5-0.1-0.7c0-0.9,0.2-1.9,0.7-2.7c0.8-1.1,1.8-2.1,2.9-2.9c1.3-0.9,2.8-1.7,4.3-2.6
	c1.4-0.8,2.7-1.9,3.7-3.2c0.8-1.1,1.3-2.3,1.6-3.7c0.2-0.9,0.3-1.8,0.2-2.7C74.6,382.9,74.6,382.6,74.6,382.2z"/>
<path class="st2" d="M187.2,351.4c-1.5,0.3-3,0.7-4.4,1.4c-1.5,0.7-2.9,1.7-4,3c-0.7,0.7-1.2,1.5-1.7,2.4c-0.5,0.9-0.8,1.9-1.3,2.9
	c-0.4,1-1.1,1.9-2,2.6c-0.8,0.6-1.7,1.2-2.7,1.5c-1.6,0.5-3.4,0.8-5.1,0.6c-1.1-0.1-2.3-0.2-3.4-0.4c-0.4-0.1-0.8-0.1-1.2-0.3
	c0.4,0,0.8,0,1.3,0.1c0.8,0.1,2,0.2,3.4,0.3c1.7,0.1,3.4-0.2,4.9-0.7c2-0.6,3.6-2.1,4.4-3.9c0.5-1,0.8-2,1.3-2.9
	c0.5-0.9,1.1-1.7,1.8-2.5c1.2-1.3,2.6-2.3,4.1-3c1-0.5,2.1-0.8,3.3-1c0.3-0.1,0.6-0.1,0.9-0.1C187,351.4,187.1,351.4,187.2,351.4z"
	/>
<path class="st2" d="M150.1,357.7l-0.2,0.1l-0.5,0.1c-0.4,0.1-1.1,0.2-2,0.4c-2.4,0.4-4.9,0.6-7.4,0.5c-3.7,0-7.3-0.6-10.8-1.8
	c-2-0.7-4-1.7-5.9-2.8c-2-1.2-4-2.2-6.2-3c-1.1-0.4-2.2-0.6-3.4-0.7c-1.1-0.1-2.2,0-3.3,0.2c-2.1,0.4-4.1,1.2-6,2.2
	c-3.6,1.9-6.7,4-9.4,5.5c-2.1,1.3-4.4,2.2-6.9,2.7c-0.7,0.1-1.3,0.2-2,0.2h-0.5c-0.1,0-0.1,0-0.2,0h0.2l0.5-0.1c0.7,0,1.3-0.1,2-0.3
	c2.4-0.6,4.7-1.5,6.8-2.8c2.7-1.5,5.7-3.7,9.4-5.6c1.9-1,4-1.8,6.1-2.2c1.1-0.2,2.3-0.3,3.4-0.2c1.2,0.1,2.3,0.4,3.5,0.8
	c2.2,0.8,4.2,1.9,6.2,3.1c1.9,1.1,3.8,2,5.8,2.7c3.4,1.2,7,1.8,10.7,1.9c2.4,0.1,4.9-0.1,7.3-0.4c0.9-0.1,1.5-0.2,2-0.3l0.5-0.1
	C150,357.7,150,357.7,150.1,357.7z"/>
<path class="st2" d="M77.2,362c0.1-0.4,0.1-0.8,0-1.1c-0.4-1-1.3-1.7-2.3-1.9c-0.6-0.2-1.4-0.3-2.2-0.5c-0.9-0.2-1.7-0.5-2.4-1.1
	c-0.7-0.7-1.3-1.5-1.7-2.4c-0.4-1-0.7-2-0.9-3c-0.2-1-0.5-2-0.9-2.9c-0.4-0.9-0.8-1.7-1.4-2.4c-1-1.3-2.2-2.3-3.6-3
	c-0.9-0.5-1.9-0.8-3-1.1c-0.7-0.1-1.2-0.2-1.2-0.2c0.1,0,0.2,0,0.3,0c0.3,0,0.6,0,0.9,0.1c1.1,0.2,2.1,0.5,3.1,1
	c1.5,0.7,2.7,1.8,3.7,3.1c0.6,0.8,1.1,1.6,1.5,2.5c0.4,1,0.7,2,0.9,3c0.2,1,0.5,2,0.8,2.9c0.3,0.9,0.9,1.6,1.5,2.2
	c0.6,0.5,1.4,0.9,2.2,1.1c0.7,0.2,1.5,0.3,2.2,0.5c1.1,0.3,2,1.1,2.4,2.1c0.1,0.3,0.1,0.6,0,0.9C77.3,361.8,77.3,361.9,77.2,362z"/>
<path class="st2" d="M136.1,323.7c-0.7-0.4-1.4-0.7-2.2-0.9c-0.9-0.2-1.8-0.2-2.7,0c-1.2,0.2-2.4,0.6-3.5,1.2c-1.2,0.6-2.6,1.3-4,2
	c-1.5,0.8-3.1,1.5-4.8,2c-1.9,0.5-3.8,0.5-5.7,0.2c-2-0.4-4-1-5.8-1.9c-3.8-1.9-7-4.3-10-6.3c-2.6-1.8-5.6-3.2-8.7-4
	c-2.1-0.5-4.3-0.5-6.4-0.1c-0.8,0.2-1.5,0.5-2.2,0.7c0.7-0.4,1.5-0.7,2.2-0.9c2.1-0.5,4.4-0.5,6.5,0c3.2,0.8,6.1,2.1,8.8,3.9
	c3.1,1.9,6.3,4.4,10,6.2c1.8,0.9,3.7,1.5,5.7,1.9c1.9,0.3,3.8,0.3,5.6-0.2c1.6-0.5,3.2-1.1,4.7-1.9c1.4-0.7,2.8-1.5,4-2
	c1.1-0.5,2.3-0.9,3.6-1.1c0.9-0.2,1.9-0.1,2.8,0.1c0.6,0.2,1.1,0.4,1.6,0.7C135.8,323.5,135.9,323.6,136.1,323.7z"/>
<path class="st7" d="M131.9,418.4l2.1,1h11.9l2.4-2l-8.7-14.4c-1.1,0.5-5.7,1.2-7.3,1.7c-1.3,0.5-2.7,0.7-4.1,0.7
	c-1.5,0-3.1-0.1-4.6-0.4l-0.3-0.1c-0.2-0.1-0.4-0.1-0.6-0.1c-1.3-0.1-2.3,1.2-1.6,2.3c0.7,1.1,4.3,2.5,8.8,2.4h0.2
	c4,0,0.3,3.3-2,5.3c-0.8,0.7-1.3,1.8-1.1,2.8c0,0.4,0.2,0.7,0.5,1C128.5,419.3,131.9,418.4,131.9,418.4z"/>
<path class="st3" d="M83.2,416.6c0-0.1,0-0.1,0-0.2c0-0.2,0-0.4,0-0.6c0-0.6,0-1.4,0.1-2.4c0.1-2.1,0.2-5.1,0.4-8.7
	c0.3-7.4,0.7-17.6,1.2-28.8s0.7-21.4,1-28.8c0.1-3.7,0.1-6.6,0.2-8.7c0-1,0-1.8,0.1-2.4c0-0.3,0-0.5,0-0.6c0-0.1,0-0.1,0-0.2
	c0,0.1,0,0.1,0,0.2c0,0.2,0,0.4,0,0.6c0,0.6,0,1.4,0,2.4c0,2.1,0,5-0.1,8.7c-0.1,7.4-0.4,17.6-0.8,28.8s-0.9,21.4-1.3,28.8
	c-0.2,3.7-0.4,6.6-0.5,8.7c-0.1,1-0.1,1.8-0.2,2.4l-0.1,0.6C83.2,416.5,83.2,416.6,83.2,416.6z"/>
<path class="st3" d="M115.7,418c0-0.1,0-0.2,0-0.3c0-0.2,0-0.5-0.1-0.8l-0.2-3.1c-0.1-1.4-0.2-3-0.3-5s-0.2-4.1-0.2-6.6
	s-0.1-5.1-0.1-8c0-1.4,0-2.9,0-4.5s0.1-3.1,0.1-4.7c0.2-6.5,0.5-13.5,1-21c1-14.9,2.4-28.3,3.2-38c0.4-4.8,0.7-8.8,1-11.5
	c0.1-1.3,0.2-2.4,0.3-3.1c0-0.3,0.1-0.6,0.1-0.8c0-0.2,0-0.3,0-0.3c0,0.1,0,0.2,0,0.3l0,0.8c-0.1,0.7-0.1,1.8-0.2,3.1
	c-0.2,2.7-0.5,6.7-0.9,11.5c-0.8,9.7-2.1,23.1-3.1,38c-0.5,7.5-0.9,14.5-1.1,20.9c0,1.6-0.1,3.2-0.1,4.7c0,1.5,0,3-0.1,4.5
	c0,2.9,0,5.5,0,8c0,2.4,0.1,4.6,0.2,6.6s0.1,3.6,0.2,5c0.1,1.4,0.1,2.4,0.1,3.1v0.8C115.6,417.9,115.7,418,115.7,418z"/>
<path class="st3" d="M121.1,344.6c0,0,0.4-0.2,0.8,0.2c0.3,0.2,0.4,0.6,0.4,0.9c-0.1,0.6-0.7,1-1.3,0.8c-0.3-0.1-0.6-0.2-0.7-0.5
	c-0.2-0.3-0.1-0.7,0-1C120.7,344.5,121.1,344.5,121.1,344.6c0,0.1-0.4,0.1-0.5,0.6c-0.1,0.2-0.1,0.5,0,0.7c0.3,0.3,0.8,0.4,1.1,0.1
	c0.1-0.1,0.2-0.2,0.3-0.4c0-0.3,0-0.5-0.2-0.7C121.5,344.6,121.1,344.6,121.1,344.6z"/>
<path class="st3" d="M119.1,378.1c0,0,0.4-0.2,0.9,0.2c0.3,0.2,0.4,0.6,0.4,0.9c-0.1,0.5-0.4,0.8-0.9,0.9c-0.4,0.1-0.9-0.1-1.1-0.5
	c-0.1-0.3-0.1-0.7,0-1C118.6,378,119,378,119.1,378.1c0,0.1-0.4,0.1-0.5,0.6c-0.1,0.2-0.1,0.5,0,0.7c0.2,0.4,0.7,0.5,1,0.2
	c0.2-0.1,0.3-0.3,0.3-0.5c0-0.2,0-0.5-0.2-0.7C119.4,378.1,119.1,378.1,119.1,378.1z"/>
<path class="st2" d="M172.6,401.1c-0.3,0-0.7-0.1-1-0.1c-0.9-0.2-1.8-0.5-2.6-0.8c-2.8-1.2-5.2-3.3-6.7-6c-0.8-1.5-1.4-3-1.9-4.6
	c-0.4-1.3-0.9-2.5-1.6-3.7c-0.5-0.8-1.1-1.4-1.9-1.9c-0.5-0.3-0.9-0.4-0.9-0.5c0.1,0,0.2,0,0.3,0.1c0.2,0.1,0.5,0.2,0.7,0.3
	c0.8,0.5,1.5,1.1,2,1.9c0.8,1.1,1.4,2.4,1.8,3.7c0.5,1.6,1.1,3.1,1.8,4.6c1.5,2.6,3.8,4.7,6.5,6
	C170.2,400.4,171.4,400.8,172.6,401.1z"/>
<path class="st9" d="M249,419.4l-12.7-36.8l5.9-35.3c1.7-9.5,2.7-17.9,0.1-22.7c-6.8-12.8-15.1-13.9-26.4-16.9
	c-2.3-0.6-20-1.2-22-0.7c-15.4,1.7-25.2,9.9-30.6,23.1l-5.8,23.6l-8,24.6c-1.4,2.9-4,5-7.1,5.8l-31,10.6l0.3,6.1l-0.3,8.2l41.2-7.8
	c8.3-1.6,16.7-4.6,19-12.6l4.4-13.1c2.2,5.6,4.5,10.7,4.5,10.7l-3,33.1L249,419.4z"/>
<path class="st9" d="M238.3,354.1l-11.8,39.4c-1.8,6.1-6.6,10.9-12.7,12.7l-49,13.1l-6.5-16.9l44.3-16.5l10.9-39.4
	c0,0,2.5-22.1,22.5-20.9"/>
<path class="st3" d="M236,325.5h-0.6c-0.4,0-1,0-1.7,0c-2.2,0.1-4.5,0.5-6.6,1.3c-1.5,0.6-2.9,1.4-4.2,2.4c-1.5,1.2-2.9,2.6-4,4.1
	c-2.7,3.9-4.5,8.4-5.2,13.1l0,0c-3,11-6.7,24.4-10.8,39.5v0.1h-0.1l-44.4,16.6l0.1-0.2l1.2,3c1.8,4.8,3.6,9.5,5.3,13.9l-0.2-0.1
	l42.1-11.2l4.8-1.3c0.7-0.2,1.6-0.4,2.3-0.6c0.7-0.2,1.5-0.5,2.2-0.8c4.1-1.8,7.4-5.1,9.3-9.2c0.6-1.3,1-2.6,1.4-3.9
	c0.8-2.6,1.5-5.1,2.2-7.5c2.9-9.5,5.2-17.2,6.8-22.4l1.8-6l0.5-1.6c0.1-0.4,0.2-0.5,0.2-0.5s0,0.2-0.1,0.5s-0.3,0.9-0.5,1.6
	c-0.4,1.4-1,3.4-1.8,6.1l-6.7,22.4c-0.7,2.4-1.4,4.9-2.2,7.5c-0.4,1.3-0.8,2.7-1.4,3.9c-0.6,1.3-1.4,2.6-2.2,3.7
	c-1.9,2.4-4.3,4.4-7.1,5.7c-0.7,0.3-1.5,0.6-2.2,0.9c-0.7,0.2-1.5,0.4-2.3,0.6l-4.8,1.3l-42.1,11.2l-0.2,0l-0.1-0.2
	c-1.7-4.5-3.5-9.2-5.3-13.9l-1.2-3l-0.1-0.2l0.2-0.1l44.3-16.5l-0.1,0.1c4.2-15,7.9-28.5,10.9-39.4l0,0c0.7-4.7,2.5-9.3,5.3-13.2
	c1.2-1.6,2.5-3,4.1-4.2c1.3-1,2.8-1.8,4.3-2.4c2.1-0.8,4.3-1.2,6.6-1.3c0.6,0,1.2,0,1.7,0L236,325.5z"/>
<path class="st3" d="M205.1,377c-0.2,0-0.4,0.1-0.6,0c-0.5,0-1.1-0.1-1.6-0.2c-1.7-0.4-3.3-1.2-4.7-2.5c-1.3-1.2-2.4-2.7-3-4.3
	c-0.1-0.3-0.2-0.6-0.3-0.9c-0.1-0.2-0.1-0.4-0.1-0.7c-0.1-0.4-0.1-0.6-0.1-0.6c0,0,0.2,0.8,0.7,2c0.7,1.6,1.7,3,3,4.1
	c1.3,1.2,2.8,2,4.5,2.5C204.3,376.9,205.1,376.9,205.1,377z"/>
<path class="st3" d="M176,347c-0.1,0.4-0.2,0.8-0.4,1.2c-0.3,0.7-0.7,1.8-1.2,3.1c-1,2.6-2.3,6.4-2.5,10.7c-0.1,2,0.2,4,0.8,6
	c0.5,1.6,1.2,3.1,2,4.5c0.6,1,1.2,1.9,1.9,2.8c0.3,0.3,0.5,0.6,0.7,1c0,0-0.1-0.1-0.2-0.2c-0.1-0.2-0.4-0.4-0.6-0.7
	c-0.7-0.9-1.4-1.8-2-2.7c-0.9-1.4-1.6-2.9-2.1-4.5c-0.6-2-0.9-4-0.9-6.1c0.2-3.7,1.1-7.3,2.6-10.8c0.5-1.3,1-2.4,1.3-3.1
	C175.6,347.8,175.8,347.4,176,347z"/>
<path class="st3" d="M207,391.1c-0.5-1.1-1.1-2.1-1.8-3.1c-0.8-0.9-1.7-1.6-2.8-2.2c0.4,0,0.7,0.2,1,0.4c1.6,0.8,2.7,2.2,3.3,3.9
	C206.9,390.4,207,390.7,207,391.1z"/>
<path class="st13" d="M159.2,404.7c0,0-14,1.3-13.8,10.4l17.5-0.9L159.2,404.7z"/>
<path class="st3" d="M181.8,252c-1.3,6.2-2.5,12.4-3.7,18.6c-1.5,7.9-2.8,16.1-0.6,23.9c1.2,4.2,3.5,8.1,5.7,11.9
	c1.3,2.1,2.6,4.4,4.8,5.5c3,1.5,6.8,0.3,9.2-2.1c2.4-2.4,3.6-5.7,4.5-8.9c1.6-6.4,2-13,2.2-19.6c0.3-6.6,0.4-13.4-1.5-19.8
	c-1.9-6.4-6-12.4-12.2-14.9"/>
<path class="st3" d="M182.9,247c1.8-1.4,3.9-2.2,6.1-2.3c1.8-3.6,6-5.3,10-6.1c5.8-1.1,5.2-1.3,10.7,1.1c5.4,2.4,13.2,9.2,14.2,15.1
	c0.9,5.2,2.6,10.1,4.9,14.8c1.5,3.1,4.4,5.2,6.1,8.2c1.9,3.3,2.1,7.2,0.7,10.7c-1.4,3.4-4.4,6.3-4.1,10c0.2,2.1,0.1,3.6,0.9,5.6
	c2.8,6.6,1.5,15.4-4.6,19.2c-6.1,3.8-14.9,2.5-19.5-3c-4.1-4.7-4.9-11.4-4.5-17.7c0.4-6.2,1.8-12.4,1.4-18.6"/>
<path class="st3" d="M189.8,419.3l-0.1-2.1l-31.6-3.3l-13.9-39.8l-59.3-1.3l17.9,46.7C132.2,419.5,161.2,419.5,189.8,419.3z"/>
<path class="st1" d="M117.8,396.6c0.9,1.5,2.8,2,4.2,1.1c1.5-0.9,2-2.8,1.1-4.2c-0.9-1.5-2.8-2-4.2-1.1c0,0,0,0,0,0
	C117.5,393.2,117,395.1,117.8,396.6z"/>
<path class="st13" d="M204.2,323.2c7.1,0,13.5-6.1,13.3-15.1l1.3-51.5l0,0c0-2.2-1.6-4.1-3.8-4.4l-21.2-2.2
	c-7.1-0.7-13.5,4.4-14.2,11.5c0,0.2,0,0.4,0,0.5c-0.5,8.1-0.8,18.1,0.1,24.2c1.9,12.2,11.3,13.8,11.3,13.8l-0.2,8.5
	C190.4,317.7,197.2,323.2,204.2,323.2L204.2,323.2z"/>
<path class="st3" d="M184.3,268.7c0,0.8,0.7,1.5,1.5,1.6c0.8,0.1,1.5-0.5,1.6-1.4c0,0,0,0,0,0c0-0.8-0.6-1.5-1.5-1.6
	C185,267.3,184.3,267.9,184.3,268.7C184.3,268.7,184.3,268.7,184.3,268.7z"/>
<path class="st3" d="M181.7,267.3c0.2,0.2,1.4-0.7,3.1-0.7s2.9,0.9,3.1,0.6c0.1-0.1-0.1-0.5-0.6-0.9c-0.7-0.5-1.6-0.8-2.5-0.7
	c-0.9,0-1.7,0.3-2.4,0.8C181.8,266.8,181.6,267.2,181.7,267.3z"/>
<path class="st3" d="M200.5,269c0,0.8,0.6,1.5,1.5,1.6c0.8,0.1,1.5-0.5,1.6-1.4c0,0,0,0,0-0.1c0-0.8-0.7-1.5-1.5-1.6
	C201.3,267.6,200.6,268.2,200.5,269C200.5,269,200.5,269,200.5,269z"/>
<path class="st3" d="M198.3,267.6c0.2,0.2,1.4-0.7,3.1-0.7c1.7,0,2.9,0.9,3.1,0.6c0.1-0.1-0.1-0.5-0.6-0.9c-0.7-0.5-1.6-0.8-2.5-0.7
	c-0.9,0-1.7,0.3-2.4,0.8C198.3,267.1,198.2,267.5,198.3,267.6z"/>
<path class="st3" d="M192.1,280.1c-0.9-0.3-1.8-0.4-2.7-0.5c-0.4,0-0.8-0.1-0.9-0.4c0-0.4,0.1-0.9,0.3-1.3c0.4-1,0.8-2.1,1.3-3.3
	c1.8-4.7,3.1-8.5,2.9-8.6s-1.8,3.7-3.5,8.3c-0.4,1.2-0.8,2.2-1.2,3.3c-0.3,0.5-0.3,1.1-0.2,1.7c0.1,0.3,0.4,0.5,0.7,0.6
	c0.2,0.1,0.5,0.1,0.7,0.1C190.3,280.2,191.2,280.2,192.1,280.1z"/>
<path class="st14" d="M191,300.1c5.8,0.1,11.4-1.4,16.4-4.4c0,0-4,8.4-16.2,7.3L191,300.1z"/>
<path class="st14" d="M192.9,284.2c0.6-0.8,1.7-1.3,2.7-1.1c0.8,0.1,1.4,0.4,1.9,1c0.5,0.6,0.5,1.4,0.1,2c-0.6,0.6-1.4,0.9-2.2,0.6
	c-0.8-0.3-1.5-0.7-2.2-1.3c-0.2-0.1-0.4-0.3-0.5-0.5C192.6,284.7,192.6,284.4,192.9,284.2"/>
<path class="st3" d="M197.1,281.3c-0.3,0-0.3,1.8-1.8,3.1c-1.6,1.3-3.5,1.1-3.5,1.4c0,0.1,0.4,0.4,1.3,0.4c1.1,0,2.1-0.3,3-1
	c0.8-0.7,1.3-1.6,1.4-2.6C197.4,281.7,197.2,281.3,197.1,281.3z"/>
<path class="st3" d="M197.5,264.6c0.2,0.5,1.8,0.2,3.8,0.5c2,0.2,3.6,0.7,3.8,0.4c0.1-0.2-0.2-0.6-0.8-1.1c-0.9-0.6-1.8-0.9-2.8-1
	c-1-0.1-2,0-3,0.4C197.8,264.1,197.4,264.4,197.5,264.6z"/>
<path class="st3" d="M182.3,262.4c0.3,0.4,1.5,0,2.9,0c1.4,0,2.6,0.3,2.8-0.1c0.1-0.2-0.1-0.6-0.6-0.9c-1.4-0.9-3.2-0.8-4.6,0.1
	C182.3,261.8,182.2,262.2,182.3,262.4z"/>
<path class="st3" d="M179.8,260.1c4.6-2.7,9.1-5.1,11.9-9.6c1.6,4.5,4.7,6.7,8.8,9.1c4.1,2.4,8.7,3.8,13.3,5.1
	c-2.3,2.2-2.6,5.9-2.1,9c0.5,3.2,1.7,6.2,1.9,9.4c0.3,4.3-1.3,8.5-1.4,12.8c-0.1,5.9,2.5,11.4,5,16.7l11-6.4l-1.6-28.7l0.1-20.3
	l-17.2-16l-21.8,2.4L179.8,260.1z"/>
<path class="st15" d="M177.3,320.4c5.6,5.7,5,15.7,11.2,20.8c3.8,3.1,9.3,3.4,13.9,1.8c4.6-1.6,8.5-4.7,12.1-8.1
	c3.6-3.3,7-6.9,11-9.6c3.9-2.6,10.7-4.3,11.7-8.9c0.7-3.4-2.9-7.5-3.5-10.9c-1.1-5.4,4.8-9.6,5.8-15c2-10.9-3.8-23.6-9.7-32.8
	c-6-9.2-9.3-19.7-24.5-20.5c-13.5-0.6-22.8,5.9-27.3,15.3c-2.2,4.7-2.8,10-3.2,15.2c-1,12.2-1.6,25,4,35.9c1.2,2.2,2.6,5.1,1,7.1
	c-1.4,1.8-4.7,1.7-5.6,3.9S175.6,318.7,177.3,320.4z M194.2,248.3c1.8-0.1,7.2,0,13.2,8c3.6,4.8,3.6,12.5,3.5,19.3
	c-0.1,5,0,17.7,0,17.7s0.8,16-4.7,17.5c-6.7,1.7-12.6,0.5-17.6-4.2c-5-4.8-7.9-11.5-9-18.3s-1.8-13.8-0.9-20.6
	c0.5-4.2,1.9-8.3,4.1-11.9C185.4,251.8,189.5,249.1,194.2,248.3z"/>
<g class="st16">
	<path d="M236,311.1c-4.5,2.4-7.6,6-11.2,9.6c-3.6,3.6-7.7,7-12.7,8.3s-10.9-0.2-13.4-4.7c14,2.4,30.2-8.8,35-22.2
		c-0.3,1.2-0.3,2.4,0,3.5C234.4,307.6,235.1,309.4,236,311.1z"/>
</g>
<g class="st16">
	<path d="M180.3,307.5c1,3.7,3.4,6.7,6.8,8.5c0.8,0.3,1.5,0.7,2.1,1.3c0.7,0.5,0.9,1.4,0.6,2.2c-0.5,0.8-1.5,1.2-2.4,0.9
		c-0.9-0.3-1.6-0.9-2.2-1.6c-2.4-2.4-5-4.7-5.6-8.1c0.4-0.5,0.7-1.1,0.8-1.7C180.4,308.5,180.4,308,180.3,307.5z"/>
</g>
<path class="st3" d="M232.6,304.8c-0.1,0.2-0.1,0.3-0.2,0.4c-0.2,0.3-0.4,0.7-0.7,1.2c-0.9,1.5-1.8,2.9-2.9,4.2
	c-1.5,2-3.3,3.9-5.1,5.6c-2.3,2.1-4.8,3.9-7.6,5.3c-1.5,0.6-3,1.2-4.5,1.6c-1.4,0.4-2.9,0.7-4.4,1c-2.5,0.4-5,0.5-7.6,0.3
	c-1.7-0.2-3.4-0.5-5-1c-0.6-0.2-1-0.3-1.3-0.4c-0.2,0-0.3-0.1-0.4-0.2c0,0,0.6,0.2,1.8,0.5c1.6,0.4,3.3,0.7,5,0.8
	c2.5,0.2,5,0.1,7.5-0.4c1.5-0.2,2.9-0.6,4.3-1c1.5-0.4,3-1,4.5-1.6c2.7-1.4,5.3-3.1,7.5-5.2c1.9-1.7,3.6-3.5,5.1-5.5
	c1.1-1.3,2.1-2.7,3-4.1c0.3-0.5,0.6-0.9,0.7-1.2C232.4,305.1,232.5,304.9,232.6,304.8z"/>
<path class="st3" d="M198.3,318.7c-0.3,0.1-0.6,0.2-0.9,0.2c-0.8,0.1-1.7,0.2-2.5,0.2c-5.7,0-10.9-3.1-13.6-8.1
	c-0.4-0.7-0.7-1.5-1-2.3c-0.1-0.3-0.2-0.6-0.2-0.9c0.4,1,0.9,2.1,1.4,3.1c2.7,4.8,7.8,7.9,13.3,8C197,318.9,198.3,318.6,198.3,318.7
	z"/>
<path class="st3" d="M195.4,337.1c0.1-0.1,0.3-0.1,0.4-0.1c0.3-0.1,0.7-0.1,1.3-0.3c1.5-0.3,3-0.8,4.5-1.3c4.9-1.7,9.5-4.2,13.6-7.3
	c4.1-3.1,8.1-6.5,11.7-10.1l3.4-3.3c0.4-0.4,0.7-0.7,0.9-0.9c0.1-0.1,0.2-0.2,0.3-0.3c-0.1,0.1-0.2,0.2-0.3,0.3l-0.9,0.9
	c-0.7,0.8-1.9,2-3.3,3.4c-3.6,3.7-7.5,7.2-11.7,10.3c-4.2,3.1-8.8,5.6-13.8,7.2c-1.5,0.5-3,0.9-4.6,1.1c-0.5,0.1-1,0.1-1.3,0.2
	C195.7,337.1,195.6,337.1,195.4,337.1z"/>
<path class="st17" d="M458,352.8l-26.3-31l-0.1,0.1c-1-1-1.9-1.9-2.4-2.5c-9.1-10.6-16.4-14.2-30.3-14.4l0,0l-27.1,0.6
	c-5,0.4-16.5-1.7-27.1,12.3l0,0c-19.3,24.2-34.7,44.7-33.9,54.4c1.1,12.3,47.9,47.2,47.9,47.2l64.3-0.1l-0.1-4.9l27.7-18
	c10-6.8,15.2-12.7,16.5-21.6C468.3,367,463.4,358.8,458,352.8z M340.2,371.3c0-1.9,10.1-13.8,15.7-20.1l2.9,27.5l-0.5,10.7
	L340.2,371.3z M421.8,388.2l-1.5-36.2l0,0l21,21.7L421.8,388.2z"/>
<path class="st0" d="M334.1,391.4l47.5-23.5c1.3-0.6,2.8-0.1,3.4,1.2l15.4,31.1c0.6,1.3,0.1,2.8-1.2,3.4l-47.5,23.5
	c-1.3,0.6-2.8,0.1-3.4-1.2l-15.4-31.1C332.3,393.6,332.8,392.1,334.1,391.4z"/>
<path class="st1" d="M366.4,394.6c1.4-0.8,3.2-0.4,4,1c0.8,1.4,0.4,3.2-1,4c-1.4,0.8-3.2,0.4-4-1c0,0,0,0,0,0
	C364.6,397.3,365.1,395.5,366.4,394.6z"/>
<path class="st3" d="M419.9,326.2c0,0.1,0,0.2,0,0.2c0,0.2,0,0.4,0,0.7c0,0.6,0,1.5,0,2.7c0,2.3,0,5.7,0.1,9.8
	c0,8.3,0.4,19.7,1,32.3c0.6,12.6,1.3,24,1.6,32.3c0.2,4.1,0.3,7.5,0.4,9.8c0,1.1,0,2,0.1,2.7c0,0.3,0,0.5,0,0.7c0,0.1,0,0.2,0,0.2
	c0-0.1,0-0.2,0-0.2c0-0.2,0-0.4,0-0.7c0-0.6-0.1-1.5-0.1-2.7c-0.1-2.3-0.3-5.7-0.5-9.8c-0.5-8.3-1.1-19.7-1.8-32.3
	c-0.7-12.6-0.9-24.1-0.9-32.3c0-4.1,0-7.5,0.1-9.8c0-1.1,0-2,0-2.7c0-0.3,0-0.5,0-0.7C419.8,326.4,419.8,326.3,419.9,326.2z"/>
<path class="st17" d="M352.9,310c3.4-2.5,7.4-1.7,10.9,0.7s5.3,6.7,5.7,10.9c0.3,4.2-0.7,8.5-2.3,12.4c-2.6,6.3-6.4,11.4-12.1,17.8
	l-14.7,19.4l28.4,27.8l-11.8,18.6l-23.8-19.2c-8.1-6.9-15.1-13.9-20.1-21.2"/>
<path class="st3" d="M312.9,377.3l0.2,0.2l0.5,0.7c0.4,0.6,1.1,1.5,2,2.6c2.6,3.2,5.3,6.2,8.2,9.1c1.9,1.9,4,3.8,6.4,6
	c2.4,2.1,5,4.2,7.9,6.5l18.9,15.2l-0.3,0c3.7-5.8,7.6-12.1,11.8-18.6v0.2l-14.7-14.3L340,371.5l-0.1-0.1l0.1-0.1
	c5.2-6.8,10.2-13.3,14.8-19.3l0,0c2.8-3.1,5.4-6.4,7.8-9.8c2.1-3.1,3.8-6.5,5.1-10.1c1.2-3.2,1.8-6.5,1.7-9.9c-0.1-2.8-1-5.6-2.5-8
	c-1.3-1.9-3-3.5-5.1-4.5c-1.5-0.8-3.2-1.2-4.9-1.1c-1.1,0.1-2.1,0.4-3,0.9c-0.6,0.3-0.9,0.6-0.9,0.6l0.2-0.2
	c0.2-0.2,0.5-0.3,0.7-0.4c0.9-0.5,2-0.9,3-1c1.7-0.1,3.5,0.3,5,1.1c2.1,1,3.9,2.6,5.2,4.6c1.6,2.4,2.5,5.2,2.6,8.1
	c0.1,3.4-0.4,6.7-1.6,9.9c-1.3,3.6-3,7-5.1,10.1c-2.4,3.4-5,6.7-7.8,9.8l0,0c-4.6,6-9.5,12.5-14.7,19.4v-0.3l13.8,13.4l14.7,14.3
	l0.1,0.1l-0.1,0.1c-4.1,6.5-8.1,12.8-11.8,18.6l-0.1,0.2l-0.2-0.1l-18.9-15.3c-2.8-2.3-5.5-4.4-7.9-6.5s-4.5-4.1-6.3-6
	c-2.9-2.9-5.6-6-8.2-9.2c-0.9-1.1-1.5-2-1.9-2.6c-0.2-0.3-0.4-0.5-0.5-0.7S312.9,377.3,312.9,377.3z"/>
<path class="st3" d="M451.5,373.1c-0.5-0.1-1-0.3-1.5-0.5c-2.4-0.8-5-0.6-7.3,0.4c-0.5,0.2-0.9,0.4-1.4,0.6c0.4-0.4,0.8-0.7,1.3-0.9
	c2.3-1.2,5-1.3,7.5-0.4C450.6,372.6,451,372.8,451.5,373.1z"/>
<path class="st18" d="M374.5,416.7l-5.2,2.6c-2.6,1.3-5.6,0.9-7.9-0.9l-3.2-2.6l8.9-14.1c1.1,0.5,5.4,1.1,6.9,1.6
	c1.3,0.5,2.7,0.7,4,0.7c1.5,0,3.1-0.1,4.6-0.4c0.1,0,0.2-0.1,0.3-0.1c0.2-0.1,0.4-0.1,0.6-0.1c1.3-0.1,2.3,1.2,1.6,2.2
	c-0.7,1-4.2,2.5-8.7,2.3h-0.2c-3.9,0-0.3,3.3,2,5.2c0.8,0.7,1.3,1.7,1.1,2.8c0,0.4-0.2,0.7-0.5,1
	C377.9,417.6,374.5,416.7,374.5,416.7z"/>
<path class="st18" d="M386.5,318c-6.9,0-13-5.8-13-14.6l-1.2-49.6h0.1c0-2.2,1.6-4,3.7-4.2l20.4-2.2c6.8-0.7,13,4.2,13.7,11.1
	c0,0.2,0,0.4,0,0.5c0.5,7.9,0.8,17.5-0.1,23.3c-1.9,11.8-10.9,13.3-10.9,13.3l0.2,8.2C399.8,312.6,393.3,317.9,386.5,318L386.5,318z
	"/>
<path class="st3" d="M405.7,265.5c0,0.8-0.6,1.5-1.5,1.5c-0.8,0.1-1.5-0.5-1.6-1.3c0,0,0,0,0-0.1c0-0.8,0.7-1.5,1.5-1.5
	C405,264.1,405.7,264.7,405.7,265.5z"/>
<path class="st3" d="M408.2,264.1c-0.2,0.2-1.3-0.6-3-0.6c-1.7,0-2.8,0.8-3,0.6c-0.2-0.2,0.1-0.4,0.6-0.8c0.7-0.5,1.5-0.7,2.4-0.7
	c0.8,0,1.7,0.3,2.4,0.7C408.1,263.6,408.3,264,408.2,264.1z"/>
<path class="st3" d="M390,265.8c0,0.8-0.6,1.5-1.5,1.5c0,0,0,0,0,0c-0.8,0-1.5-0.6-1.6-1.4c0-0.8,0.6-1.5,1.5-1.5c0,0,0,0,0,0
	C389.3,264.3,390,265,390,265.8z"/>
<path class="st3" d="M392.2,264.4c-0.2,0.2-1.3-0.6-3-0.6s-2.8,0.8-3,0.6c-0.1-0.1,0.1-0.4,0.6-0.8c0.7-0.5,1.5-0.8,2.4-0.7
	c0.8,0,1.7,0.3,2.4,0.7C392.2,263.9,392.3,264.3,392.2,264.4z"/>
<path class="st3" d="M398.1,276.4c0.9-0.3,1.7-0.4,2.6-0.5c0.4,0,0.8-0.1,0.9-0.4c0-0.4-0.1-0.9-0.3-1.2c-0.4-1-0.8-2.1-1.2-3.2
	c-1.7-4.5-2.9-8.2-2.8-8.3s1.7,3.5,3.4,8c0.4,1.1,0.8,2.2,1.2,3.2c0.3,0.5,0.3,1.1,0.2,1.6c-0.1,0.3-0.4,0.5-0.7,0.6
	c-0.2,0.1-0.5,0.1-0.7,0.1C399.9,276.5,399,276.5,398.1,276.4z"/>
<path class="st19" d="M399.3,295.7c-5.6,0.1-11-1.4-15.8-4.2c0,0,4.1,8.9,15.9,7.8L399.3,295.7z"/>
<path class="st3" d="M393,261.5c-0.2,0.4-1.8,0.2-3.7,0.5c-1.9,0.2-3.5,0.7-3.7,0.4c-0.1-0.2,0.1-0.6,0.7-1c1.7-1.1,3.8-1.3,5.6-0.6
	C392.7,261,393,261.3,393,261.5z"/>
<path class="st3" d="M407.6,259.3c-0.3,0.4-1.4,0-2.8,0c-1.3,0-2.5,0.2-2.8-0.1c-0.1-0.2,0.1-0.6,0.6-0.9c0.7-0.4,1.4-0.6,2.2-0.6
	c0.8,0,1.6,0.3,2.2,0.7C407.6,258.8,407.7,259.2,407.6,259.3z"/>
<path class="st3" d="M372.4,265.1c2-0.4,3.6,0.3,4.2,2.2c0.8,2.9,0.3,4.4,0.4,6.4l3-0.9c-0.7-6.8,0.9-11.8,0.2-18.6
	c4.1,1.3,9.8-1.2,11.6-5.5c3.6,2.6,8.4,3,12.3,0.9c1,1.8,3,2.8,5.1,2.4c2.2-0.6,4.6-3.8,5.3-6.1c1.2-4.1,0.6-9.9-2.7-12.5
	c-3.3-2.6-9.9-2-12.5,1.3c-1,1.3-1.1,3.8-2.8,4.1c-1.5,0.3-2.8-0.7-4.1-1.4c-4.1-2.1-9.9,0.7-10.9,5.2c-3.5-2.1-7.7-3.4-11.5-2.3
	c-3.9,1.1-7,5.4-5.6,9.2c0.5,1.6,1.8,3,1.9,4.6c0.3,3.2-3.6,6.2-2.4,9.2c0.7,1.7,2.7,2.4,3.6,4c1,1.8,0.4,4,0.5,6
	c0.1,3.4,1.9,8.4,5.1,9.4"/>
<path class="st18" d="M372.7,265c-1,0.1-1.9,0.8-2.2,1.8c-0.4,0.9-0.6,1.9-0.6,2.9c-0.1,1.6,0.4,3.1,1.4,4.3c1,1.2,2.7,1.6,4.2,1.1"
	/>
<path class="st19" d="M374.8,272.6c0,0-0.4,0.2-1.1,0c-0.4-0.2-0.8-0.4-1-0.7c-0.3-0.4-0.5-1-0.5-1.5c0-0.5,0.1-1,0.3-1.5
	c0.2-0.4,0.5-0.7,0.8-0.9c0.6-0.4,1.1-0.4,1.1-0.3c-0.3,0.2-0.6,0.3-0.9,0.6c-0.7,0.5-1,1.4-0.9,2.2c0,0.8,0.5,1.6,1.3,2
	C374.1,272.4,374.4,272.5,374.8,272.6z"/>
<path class="st2" d="M393,282.2c1.5,1,4.3,0.5,5.4-1c-2.3-1.2-4.4-2.8-6.2-4.6C392.1,276.6,390,280.1,393,282.2z"/>
<path class="st14" d="M397.8,285.6c-0.6-0.2-1.2-0.4-1.9-0.4c-0.6,0.1-1.3,0.2-1.9,0.4c0,0,0.1-0.2,0.4-0.4c0.9-0.5,2-0.5,2.9,0
	C397.7,285.4,397.8,285.6,397.8,285.6z"/>
<path class="st20" d="M379.6,333.4c3.1-4.6,6-9.5,8.6-14.5c3.1-5.9,2.6-6.2,1.8-6.4c-2-0.7-5.8,10.1-6.3,7.3
	c-0.5-2.8,6.2-12.7,4.1-13.3c-2.7-0.9-6.5,10.6-6.9,11.5c-0.4,0.9-1.8,0.4-1.3-0.5c0.6-1.2,6.3-13.9,3.6-14.7c-1.5-0.5-2,2.3-2,2.3
	s-4.5,12.3-5.7,11.8c-1.3-0.4,1.1-7.7,2.1-10.1c1-2.4,0.2-3.8-1.1-3.4c-1,0.3-4.1,7.6-5,10s-3.3,9-4.7,4.7c0-0.1-0.1-0.1-0.1-0.2
	c-1.3-4.3-3.7-7.1-5-7.5c-1.3-0.3-2.2,1-1.7,2.2c0.1,0.2,0.2,0.4,0.3,0.6c0.1,0.1,0.1,0.2,0.2,0.3c0.7,1.3,1.4,2.7,1.8,4.2
	c0.4,1.3,0.7,2.7,0.6,4c0,1.6,0.7,6.2,0.7,7.4"/>
<path class="st4" d="M362.7,327.4l-18,35.8c0,0-10.2-29.5-15.7-41.2c-2.1-4.5-6.3-7.6-10.3-9.6v-0.1l-0.8-0.3
	c-2.9-1.4-5.9-2.4-9.1-3.1c-19-5.5-37-3.5-57.7,3.7c0,0-10.8,2.9-16,17c-4.7,12.7-10,32.1-10.9,35.5c-6.5,21.8,2.8,33.9,15.6,32.4
	c5.3-0.8,9.8-5.2,11.8-6.9l6.8-6.4l0.1,4.9l-7.6,30.5l78.1-0.2l-14.1-36.2l3.1-16.6l5.4,12.7c4.8,11.4,17.9,16.7,29.2,11.9
	c5.2-2.2,9.4-6.3,11.7-11.4l18.3-46L362.7,327.4z"/>
<path class="st3" d="M268.7,372c-0.2,0.4-0.4,0.7-0.7,1c-0.5,0.6-1.2,1.5-2.1,2.6c-1.8,2.2-4.4,5.1-7.4,8.2c-3,3.1-5.9,5.7-8,7.6
	c-1.1,0.9-2,1.6-2.6,2.1c-0.3,0.3-0.6,0.5-1,0.7c0.3-0.3,0.6-0.6,0.9-0.8c0.6-0.5,1.5-1.3,2.5-2.2c2.1-1.9,4.9-4.6,7.9-7.6
	c3-3.1,5.6-6,7.5-8.1c0.9-1.1,1.7-1.9,2.2-2.5C268.1,372.6,268.4,372.3,268.7,372z"/>
<path class="st3" d="M315.1,382c0-0.1,0-0.3,0-0.4c0.1-0.3,0.1-0.7,0.2-1.2l0.8-4.3c0.7-3.7,1.6-8.7,2.4-14.3
	c0.2-1.4,0.4-2.8,0.5-4.1c0.2-1.3,0.3-2.5,0.2-3.8c-0.1-2.2-0.5-4.3-1-6.4c-0.4-1.8-0.7-3.3-1-4.3c-0.1-0.5-0.2-0.9-0.2-1.2
	c0-0.1,0-0.3,0-0.4c0,0.1,0.1,0.3,0.1,0.4c0.1,0.3,0.1,0.7,0.3,1.2c0.2,1,0.7,2.5,1.1,4.3c0.5,2.1,0.9,4.3,1.1,6.5
	c0,1.3,0,2.6-0.2,3.9c-0.1,1.3-0.3,2.7-0.5,4.1c-0.7,5.6-1.7,10.7-2.5,14.3c-0.4,1.8-0.7,3.2-0.9,4.3c-0.1,0.5-0.2,0.9-0.3,1.2
	C315.2,381.7,315.2,381.8,315.1,382z"/>
<path class="st3" d="M343.1,371.9c0.3-2.9,0.8-5.8,1.6-8.7c-0.1,1.5-0.3,3-0.6,4.4C343.9,369.1,343.5,370.5,343.1,371.9z"/>
<path class="st3" d="M345.8,373c-0.4-1.7-0.6-3.3-0.7-5c-0.3-1.7-0.4-3.4-0.4-5.1c0.4,1.7,0.6,3.3,0.7,5
	C345.7,369.6,345.8,371.3,345.8,373z"/>
<path class="st3" d="M288.2,419.3c-0.1,0-0.2-12-0.2-26.8s0.1-26.8,0.2-26.8c0.1,0,0.2,12,0.2,26.8S288.3,419.3,288.2,419.3z"/>
<g class="st21">
	<path d="M317.5,343.6c3.7,7,6.8,14,7.1,21.9c0.2,6.2-2.2,11.3,0.3,16.9c-0.1,0.1-2.3-4.7-3.3-7c-2-4.7-3.7-8.8-3.7-8.8
		s1.4-10.5,1.5-12.3C319.6,352.4,317.5,343.6,317.5,343.6z"/>
</g>
<g class="st21">
	<path d="M226.9,379.2c0,3.5-2.2-8.1-0.1-11c1.4-2,3.9-3,6.3-3.6c2.4-0.6,4.9-1,7-2.2c2.7-1.6,4.5-4.5,6.4-7s4.5-13.2,7.6-13.5v15.7
		c-7.6,4.9-15.4,9.3-23.6,13.2C228.2,373,226.8,376,226.9,379.2z"/>
</g>
<g class="st21">
	<path d="M258.3,384c5.1-2.9,8.8-6.7,14.6-7.7c5.6-1,11.3,0,16.9-0.4c-0.3-2.8-0.6-5.7-0.9-8.5l-16.1-0.2L258.3,384z"/>
</g>
<path class="st3" d="M254.1,341.8c0.1,0,0.2,3.5,0.2,7.8c0,4.3-0.1,7.8-0.2,7.8c-0.2-2.6-0.3-5.2-0.2-7.8
	C253.8,347,253.9,344.4,254.1,341.8z"/>
<path class="st3" d="M226.9,379.1c-0.1-0.5-0.2-0.9-0.1-1.4c0.1-1.1,0.3-2.2,0.8-3.3c0.4-1,1.1-2,1.8-2.8c0.3-0.4,0.7-0.7,1.1-0.9
	c-1,1.2-1.9,2.5-2.5,3.9C227.4,376.1,227,377.6,226.9,379.1z"/>
<path class="st3" d="M230.1,371c0.4-0.1,0.8-0.2,1.2-0.4c0.7-0.3,1.8-0.7,3.1-1.4c2.6-1.2,6.2-3,9.9-5.2s7.1-4.4,9.4-6.1
	c1.2-0.9,2.1-1.6,2.7-2.1c0.3-0.2,0.6-0.5,0.9-0.8c-0.4,0.2-0.7,0.4-1,0.7l-2.8,1.9c-2.3,1.6-5.6,3.8-9.4,6c-3.8,2.2-7.3,4-9.9,5.3
	l-3.1,1.5C230.8,370.6,230.5,370.8,230.1,371z"/>
<path class="st3" d="M328.1,275c-1.3-1.7-3.3-3-3.7-5c-0.5-2.8,2.2-5.3,1.7-8.1c-0.3-1.9-2.1-3.2-3.8-3.9c-1.8-0.7-3.7-1.1-5.4-2.1
	c-2-1.3-3.4-3.1-4.3-5.3c-0.2-0.6-0.5-1.2-0.6-1.8c-0.2-1.3-0.5-2.6-0.9-3.9c-0.1-0.3-0.1-0.7-0.2-1l0.1,0.7c-0.2-0.6-0.6-1.2-1-1.7
	c-1.4-1.8-4.1-2.8-6-1.6l0.9-0.6c-2.3-5.6-7.3-9.5-13.3-10.4c-1.1-0.2-2.2-0.2-3.4-0.1c-4-0.2-9.8,1-12.3,2.5
	c-3.1,2-6.3,4.7-7.9,8.1c-0.8,1.8-1.4,3.9-3,5.1c-2.1,1.6-5.1,1-7.8,1.3c-4.4,0.5-8.2,3.9-9.7,8c-1.4,4.3-1,8.9,1.2,12.8
	c0.5,0.9,1,1.8,0.6,2.8c-0.4,0.7-1,1.2-1.7,1.5c-1.8,0.9-3.2,2.4-4.1,4.2c-0.7,1.9-0.5,4.2,1,5.5c1.3,1,3,1.3,4.5,0.6
	c-0.4,1.1-0.7,2.3-0.7,3.5c-0.1,2.7,1.3,5.2,3.7,6.6c2.3,1.2,5.6,0.6,7-1.7c0,5.1,4.1,9.2,9.1,9.2c1.8,0,3.5-0.5,5-1.5
	c1.1-0.7,2.2-1.7,3.5-1.5s2,1.5,2.9,2.4c2.4,2.5,6.5,2.8,9.6,1.4c3.1-1.4,5.5-4.2,7.1-7.2c1.7,2.5,5.1,3.2,7.7,1.5
	c1-0.7,1.8-1.7,2.2-2.9c3.1,4.1,9,4.8,13,1.7c2.2-1.7,3.5-4.2,3.6-6.9c4.2-0.6,7-4.5,6.4-8.7C329.4,277.3,328.9,276.1,328.1,275
	L328.1,275z M253.1,277.3C253.1,277.3,253.1,277.3,253.1,277.3L253.1,277.3L253.1,277.3z"/>
<path class="st20" d="M300.4,296c0,0,9.6-1.6,11.5-14c1-6.2,0.7-16.4,0.1-24.7c-0.5-7.3-6.7-12.8-14-12.3c-0.2,0-0.4,0-0.6,0
	l-21.6,2.3c-2.3,0.2-4,2.2-3.9,4.5l2.3,54.1c-1.6,0.3-5.1,1.1-6.9,1.6c0,0,16.7,37.4,20.8,36.9c4.1-0.4,20.5-35.8,20.5-35.8
	c-2.8-0.9-5.7-1.6-8.7-2.1C300,303.1,300.1,299.5,300.4,296z"/>
<path class="st3" d="M307.3,264.1c0,0.9-0.7,1.6-1.5,1.6c-0.8,0.1-1.6-0.5-1.6-1.3c0,0,0-0.1,0-0.1c0-0.9,0.7-1.6,1.5-1.6
	C306.4,262.6,307.2,263.2,307.3,264.1C307.2,264.1,307.3,264.1,307.3,264.1z"/>
<path class="st3" d="M309.9,262.6c-0.2,0.2-1.4-0.7-3.1-0.7c-1.7,0-3,0.9-3.2,0.7c-0.1-0.1,0.1-0.5,0.7-0.9c0.8-0.5,1.6-0.8,2.5-0.8
	c0.9,0,1.8,0.3,2.5,0.8C309.8,262.2,310,262.6,309.9,262.6z"/>
<path class="st3" d="M290.7,264.4c0,0.9-0.7,1.6-1.5,1.6c-0.8,0.1-1.6-0.5-1.6-1.3c0,0,0-0.1,0-0.1c0-0.9,0.7-1.6,1.5-1.6
	C289.9,262.9,290.6,263.6,290.7,264.4C290.7,264.4,290.7,264.4,290.7,264.4z"/>
<path class="st3" d="M293,263c-0.2,0.2-1.4-0.7-3.1-0.7c-1.7,0-3,0.9-3.2,0.7c-0.1-0.1,0.1-0.5,0.7-0.9c0.7-0.5,1.6-0.8,2.5-0.8
	c0.9,0,1.8,0.3,2.5,0.8C292.9,262.5,293.1,262.9,293,263z"/>
<path class="st3" d="M299.2,275.7c0.9-0.3,1.8-0.5,2.8-0.5c0.4,0,0.9-0.1,0.9-0.4c0-0.5-0.1-0.9-0.3-1.3c-0.4-1.1-0.8-2.2-1.3-3.3
	c-1.8-4.8-3.1-8.7-2.9-8.7c0.2-0.1,1.8,3.7,3.6,8.5l1.2,3.4c0.3,0.5,0.4,1.1,0.2,1.7c-0.1,0.3-0.4,0.6-0.7,0.6
	c-0.2,0.1-0.5,0.1-0.7,0.1C301.1,275.8,300.2,275.8,299.2,275.7z"/>
<path class="st22" d="M300.4,296c-5.9,0.1-11.6-1.5-16.7-4.5c0,0,4,8.6,16.5,7.4L300.4,296z"/>
<path class="st22" d="M294.4,278.4c0.4-0.3,0.8-0.5,1.3-0.5c0.5-0.1,0.9,0.1,1.2,0.6c0,0.1,0.1,0.3,0.2,0.4c0.3,0.3,0.8,0.2,1.2,0.3
	c0.6,0.3,0.9,1,0.7,1.6c0,0,0,0,0,0c-0.3,0.6-0.8,1.1-1.5,1.3c-0.8,0.3-1.8,0.5-2.7,0.4c-0.6,0-1.2-0.3-1.6-0.8
	c-0.4-0.7-0.3-1.5,0.1-2.1c0.5-0.6,1-1.1,1.7-1.5"/>
<path class="st3" d="M294.2,276.9c0.3,0,0.3,1.8,1.9,3.2c1.6,1.3,3.6,1.1,3.6,1.4c0,0.1-0.4,0.4-1.3,0.4c-1.1,0-2.1-0.4-3-1
	c-0.8-0.7-1.4-1.6-1.5-2.7C293.8,277.4,294,276.9,294.2,276.9z"/>
<path class="st3" d="M293.8,260c-0.2,0.5-1.9,0.2-3.9,0.5c-2,0.2-3.7,0.8-3.9,0.4c-0.1-0.2,0.2-0.6,0.8-1.1c1.8-1.1,4-1.4,6-0.7
	C293.5,259.4,293.8,259.7,293.8,260z"/>
<path class="st3" d="M309.2,258.7c-0.3,0.4-1.5,0-2.9,0s-2.6,0.3-2.9-0.1c-0.1-0.2,0.1-0.6,0.6-1c1.4-0.9,3.3-0.9,4.7,0.1
	C309.2,258.2,309.4,258.6,309.2,258.7z"/>
<path class="st3" d="M304.8,243.2c-1.9,9.1-10.9,15-20,13c-0.1,0-0.3-0.1-0.4-0.1c-0.7,5.6-4.3,10.3-9.5,12.6
	c3.4,6.3,4.9,13.4,4,20.5c-0.4,3-1.2,6.2-3.5,8.2c-3.5,3.1-9.3,2.3-12.6-0.9c-3.2-3.1-4.3-8-3.4-12.3c0.9-4.4,3.6-8.2,7.1-11
	c-4.3-0.7-7.2-4.8-6.5-9.1c0.3-1.7,1.1-3.2,2.4-4.4c1-0.9,2.2-1.6,3-2.7c0.7-1.1,0.9-2.4,1.3-3.6c1.1-3.1,3.9-5.3,6.6-7.3
	c2.2-1.7,4.7-3.4,7.6-3.4c1.5,0,3,0.5,4.5,0.3c2.1-0.3,3.7-1.8,5.3-3c2.4-1.8,5.3-2.6,8.2-2.2c2.9,0.5,5.6,2.6,6.1,5.5"/>
<path class="st3" d="M303.7,244.5c-0.4,2.4,0.7,4.9,2.6,6.6c1.8,1.7,4,2.7,6.3,3.7c-0.8-2.4-1.9-4.6-3.2-6.7
	c-1.4-2.1-3.6-3.6-6.1-4.1"/>
<path class="st2" d="M248.9,273.2c-0.1-0.3-0.1-0.5-0.1-0.8c0.1-0.8,0.5-1.5,1.1-1.9c1-0.7,2.2-1,3.4-0.9c1.4,0,2.9,0.5,4.6,0.4
	c1.9-0.2,3.6-1.2,4.5-2.8c0.5-0.9,0.8-1.9,0.9-2.9c0.1-1.1,0-2.2,0-3.3c0-1.2,0.4-2.4,1.1-3.4c0.8-1,1.8-1.8,3-2.2
	c2.3-1.1,5-1.1,7.6-1.6c1.3-0.2,2.5-0.6,3.6-1.3c1.1-0.7,2-1.5,2.7-2.6c1.5-2,2.4-4.2,3.8-6.1c3.3-4.9,9.5-6.9,15.1-4.9
	c1.1,0.4,2.2,1,3.1,1.7c0.8,0.6,1.6,1.3,2.2,2.1c-0.1,0-0.1-0.1-0.1-0.1L305,242c-0.5-0.5-1.1-1-1.7-1.4c-2.3-1.6-5-2.4-7.7-2.3
	c-4.1,0.1-7.9,2.2-10.2,5.6c-1.3,1.9-2.3,4.1-3.7,6.2c-0.8,1.1-1.7,2-2.8,2.7c-1.2,0.7-2.4,1.1-3.7,1.3c-2.6,0.5-5.2,0.5-7.5,1.5
	c-1.1,0.4-2.1,1.2-2.8,2.1c-0.7,0.9-1,2.1-1,3.2c-0.1,1.1,0,2.2-0.1,3.3c0,1.1-0.4,2.1-0.9,3.1c-1,1.7-2.8,2.8-4.8,2.9
	c-1.8,0.1-3.3-0.4-4.7-0.4c-1.2-0.1-2.3,0.2-3.3,0.8c-0.6,0.4-1,1.1-1.1,1.8C248.9,272.7,248.9,272.9,248.9,273.2z"/>
<polygon class="st3" points="267.4,330.8 268.2,350.6 270.2,369.6 291.3,368.7 289.8,331.2 "/>
<polygon class="st9" points="264.3,330.7 265.1,350.6 267.1,369.6 288.2,368.7 286.7,331.1 "/>
<path class="st20" d="M262.3,372c5.6-0.3,11.2-0.9,16.7-1.8c6.5-1.1,6.5-1.6,6.2-2.4c-0.6-2-11.6,1.4-9.6-0.7
	c2-2.1,13.8-2.6,13.1-4.7c-1-2.7-12.4,1.1-13.4,1.3c-1,0.2-1.3-1.2-0.4-1.4c1.3-0.3,14.9-3.3,13.9-5.9c-0.5-1.5-3.1-0.2-3.1-0.2
	s-12.5,3.7-12.9,2.5c-0.4-1.2,6.9-3.7,9.4-4.4c2.5-0.7,3.2-2.1,2-3c-0.8-0.6-8.5,1.2-11,1.9c-2.5,0.7-9.2,2.8-6.6-1
	c0-0.1,0.1-0.1,0.1-0.2c2.6-3.6,3.5-7.2,3-8.5c-0.5-1.2-2.1-1.1-2.8,0c-0.1,0.2-0.2,0.4-0.3,0.6c0,0.1-0.1,0.2-0.1,0.3
	c-0.6,1.4-1.4,2.7-2.2,4c-0.8,1.1-1.7,2.1-2.8,2.9c-1.3,0.9-4.5,4.3-5.5,5"/>
<polygon class="st10" points="257.5,355.3 268.7,372 250.2,390.8 250.9,360.3 "/>
</svg>
