<?xml version="1.0" encoding="utf-8"?>
<!-- Generator: Adobe Illustrator 21.0.0, SVG Export Plug-In . SVG Version: 6.00 Build 0)  -->
<svg version="1.1" id="Layer_1" xmlns="http://www.w3.org/2000/svg" xmlns:xlink="http://www.w3.org/1999/xlink" x="0px" y="0px"
	 viewBox="0 0 750 500" style="enable-background:new 0 0 750 500;" xml:space="preserve">
<style type="text/css">
	.st0{fill:#EBEBEB;}
	.st1{fill:#FAFAFA;}
	.st2{fill:#F5F5F5;}
	.st3{fill:#E0E0E0;}
	.st4{fill:#455A64;}
	.st5{fill:#95A6E5;}
	.st6{fill:#263238;}
	.st7{fill:#FFDD98;}
	.st8{opacity:0.2;}
	.st9{opacity:0.2;enable-background:new    ;}
	.st10{fill:#FFBE9D;}
	.st11{fill:#FF5571;}
	.st12{fill:#EB996E;}
</style>
<g>
	<rect x="29.7" y="64.4" class="st0" width="123.4" height="221.6"/>
	<rect x="34.6" y="70.8" class="st1" width="112.2" height="208.6"/>
	<polygon class="st2" points="146.9,73.3 34.6,216 34.6,70.8 146.9,70.8 	"/>
	<rect x="34.6" y="130.8" class="st0" width="114.7" height="2.2"/>
	<rect x="34.6" y="180.5" class="st0" width="114.7" height="2.2"/>
	<rect x="34.6" y="230.2" class="st0" width="114.7" height="2.2"/>
	<rect x="87.9" y="131.9" class="st0" width="5.7" height="153.4"/>
	<rect x="56.3" y="70.8" class="st0" width="2.6" height="61.1"/>
	<rect x="78.4" y="70.8" class="st0" width="2.6" height="61.1"/>
	<rect x="100.6" y="70.8" class="st0" width="2.6" height="61.1"/>
	<rect x="122.7" y="70.8" class="st0" width="2.6" height="61.1"/>
	<rect x="24.5" y="60.6" class="st2" width="5.2" height="226.7"/>
	<polygon class="st3" points="158.3,288 153.1,286 153.1,60.6 158.3,60.6 	"/>
	<rect x="24.5" y="58.3" class="st3" width="133.8" height="6"/>
	<rect x="20.8" y="288.7" class="st3" width="141" height="5.6"/>
	<polygon class="st0" points="153.1,286 161.8,288.7 20.8,288.7 29.7,286 	"/>
	<path class="st0" d="M683.7,202.5c0,0-8.7-0.6-7.9,18.9s2.8,30,2.8,30s-0.3,4.3-3.6,3.5c-3.4-0.9-9.7-5.1-12.8-1.9
		c-3.1,3.2-2.1,8.3,2.2,14.2c4.3,6,13.2,19.2,14,20.4c0.8,1.2,1.1,3.4-1.3,3.2c-2.4-0.2-18.4-5.7-20.6,2.1s12.5,22.3,14.1,23.9
		s1.7,2.6,1,3.6c-0.6,1-5.9-1.4-10.5-2.7s-10.2-2.1-11.1,2.5c-0.9,4.6,5.6,18,29.8,32.2l11.6,5.8l11-7c22.7-16.5,27.7-30.5,26.4-35
		s-6.8-3.2-11.3-1.3c-4.5,1.8-9.4,4.7-10.2,3.8s-0.8-1.9,0.6-3.7c1.4-1.8,14.5-17.7,11.6-25.2s-18.3-0.5-20.6-0.1
		c-2.3,0.4-2.3-1.8-1.6-3s8.3-15.4,11.9-21.7c3.7-6.3,4.3-11.4,0.8-14.4c-3.5-2.9-9.3,2-12.5,3.2s-3.9-3.1-3.9-3.1
		s0.9-10.6-0.2-30.1c-1.2-19.5-10-18-10-18"/>
	<path class="st3" d="M684.4,220.1c0,0.1,0,0.3,0,0.4l0.1,1.2c0.1,1,0.2,2.6,0.3,4.6c0.3,4,0.6,9.8,1,17c0.8,14.4,1.7,34.2,2.7,56.1
		c0.9,21.9,1.8,41.8,2.6,56.1c0.4,7.2,0.7,13,0.9,17c0.1,2,0.2,3.5,0.2,4.6c0,0.5,0,0.9,0,1.2c0,0.1,0,0.3,0,0.4c0,0,0-0.1,0-0.4
		s0-0.7-0.1-1.2c-0.1-1-0.2-2.6-0.3-4.6c-0.3-4-0.6-9.8-1-17c-0.8-14.4-1.7-34.2-2.7-56.1s-1.8-41.8-2.6-56.1
		c-0.4-7.2-0.7-13-0.9-17c-0.1-2-0.2-3.5-0.2-4.6c0-0.5,0-0.9,0-1.2C684.4,220.2,684.4,220.1,684.4,220.1z"/>
	<path class="st3" d="M670.8,259.3c0.3,0.2,0.5,0.4,0.7,0.6c0.5,0.4,1,1,1.8,1.8c1.5,1.5,3.6,3.7,5.8,6.1c2.2,2.4,4.1,4.5,5.7,6.2
		l1.7,1.9c0.2,0.2,0.4,0.5,0.6,0.7c0,0-0.3-0.2-0.7-0.6c-0.4-0.4-1-1-1.8-1.8c-1.5-1.5-3.6-3.7-5.8-6.2l-5.7-6.2
		c-0.7-0.7-1.3-1.4-1.7-1.9C671.2,259.7,671,259.5,670.8,259.3z"/>
	<path class="st3" d="M688.4,276.2c-0.1-0.1,4.2-4.5,9.5-10c5.3-5.4,9.7-9.7,9.8-9.6c0.1,0.1-4.1,4.5-9.5,10
		S688.5,276.3,688.4,276.2z"/>
	<path class="st3" d="M688.4,309.9c0.2-0.2,0.5-0.4,0.8-0.5l2.3-1.3c1.9-1,4.6-2.6,7.4-4.3c2.9-1.8,5.4-3.4,7.2-4.7l2.2-1.5
		c0.3-0.2,0.5-0.4,0.8-0.5c-0.2,0.2-0.5,0.4-0.7,0.6c-0.5,0.4-1.2,0.9-2.1,1.6c-1.8,1.3-4.3,3-7.2,4.8s-5.6,3.2-7.5,4.2
		c-1,0.5-1.8,0.9-2.4,1.2C688.9,309.7,688.7,309.8,688.4,309.9z"/>
	<path class="st3" d="M669.1,298.1c0.3,0.1,0.6,0.2,0.8,0.4c0.5,0.3,1.2,0.7,2.1,1.2c1.8,1,4.2,2.4,6.9,4c2.7,1.6,5.1,3.1,6.8,4.1
		c0.9,0.5,1.6,1,2.1,1.3c0.3,0.1,0.5,0.3,0.7,0.5c-0.3-0.1-0.6-0.2-0.8-0.4c-0.5-0.3-1.2-0.7-2.1-1.2c-1.8-1-4.2-2.4-6.9-4
		c-2.7-1.6-5.1-3.1-6.8-4.1c-0.9-0.5-1.6-1-2.1-1.3S669,298.1,669.1,298.1z"/>
	<path class="st3" d="M665.2,327.9c0.4,0.1,0.7,0.3,1,0.5l2.7,1.5c2.3,1.3,5.4,3.1,8.9,5.1s6.6,3.8,8.8,5.2l2.6,1.6
		c0.3,0.2,0.7,0.4,0.9,0.6c-0.4-0.1-0.7-0.3-1-0.5l-2.7-1.5c-2.3-1.3-5.4-3.1-8.9-5.1c-3.4-2-6.6-3.8-8.8-5.2l-2.6-1.6
		C665.9,328.3,665.5,328.1,665.2,327.9z"/>
	<path class="st3" d="M689.7,341.9c0.3-0.3,0.7-0.5,1-0.7l2.8-1.7c2.4-1.5,5.7-3.5,9.3-5.8c3.6-2.3,6.8-4.5,9-6.1l2.7-1.9
		c0.3-0.3,0.7-0.5,1-0.6c-0.3,0.3-0.6,0.5-0.9,0.8c-0.6,0.5-1.5,1.2-2.6,2c-2.2,1.7-5.4,3.9-9,6.2s-6.9,4.3-9.3,5.7
		c-1.2,0.7-2.2,1.2-2.9,1.6C690.5,341.5,690.1,341.7,689.7,341.9z"/>
	<polygon class="st3" points="707.2,362 675,362 685.5,441.5 696.7,441.5 	"/>
	<path class="st2" d="M676.7,371.7c0,0,0,0.1,0.2,0.3c0.2,0.2,0.5,0.4,0.8,0.6c1.1,0.4,2.4,0.2,3.4-0.4c1.3-0.7,2.4-2.1,4.1-2.7
		c1.9-0.6,4-0.6,5.9,0.1c1.9,0.7,3.8,1.6,5.5,2.7c1.4,0.9,2.9,1.7,4.5,2.4c1.1,0.5,2.2,0.8,3.3,1c0.3,0,0.6,0.1,0.9,0.1
		c0.2,0,0.3,0,0.3,0c-1.5-0.2-3-0.7-4.4-1.3c-1.5-0.7-3-1.6-4.4-2.5c-1.7-1.2-3.6-2.1-5.6-2.8c-2-0.7-4.2-0.8-6.3-0.1
		c-0.9,0.3-1.7,0.8-2.4,1.5c-0.6,0.5-1.2,1-1.8,1.4c-0.9,0.6-2,0.8-3.1,0.5C677.3,372.3,676.9,372,676.7,371.7z"/>
	<path class="st2" d="M677.8,386.4c0,0,0.3-0.3,0.8-0.9c0.7-0.7,1.6-1.3,2.6-1.6c1.4-0.5,3-0.8,4.5-0.7c1.9,0.1,3.8,0.4,5.6,0.8
		c1.9,0.4,3.8,0.4,5.7,0.2c1.6-0.2,3.1-0.6,4.5-1.3c1-0.4,1.9-1,2.7-1.6c0.3-0.2,0.6-0.5,0.9-0.8c-1.2,0.8-2.4,1.5-3.7,2.1
		c-1.4,0.6-2.9,1-4.4,1.2c-1.9,0.2-3.8,0.1-5.6-0.3c-1.9-0.4-3.8-0.6-5.7-0.7c-1.6,0-3.2,0.2-4.6,0.8c-1,0.4-1.9,1-2.6,1.8
		c-0.2,0.2-0.3,0.5-0.5,0.7C677.9,386.2,677.9,386.3,677.8,386.4z"/>
	<path class="st2" d="M703.5,394.2c-0.3-0.2-0.6-0.4-0.9-0.5c-0.9-0.3-1.8-0.5-2.7-0.6c-1.3-0.1-2.7,0-4,0.2c-1.5,0.2-3.1,0.7-4.8,1
		c-1.6,0.4-3.2,0.5-4.8,0.5c-1.3,0-2.6-0.3-3.8-0.8c-1.1-0.5-2.1-1.2-2.9-2.1c0.1,0.3,0.3,0.6,0.5,0.8c0.6,0.7,1.4,1.3,2.2,1.7
		c1.2,0.6,2.6,0.9,3.9,1c1.7,0,3.3-0.1,4.9-0.5c1.7-0.4,3.3-0.8,4.8-1c1.3-0.2,2.6-0.4,3.9-0.3C701.2,393.7,702.4,393.9,703.5,394.2
		z"/>
	<path class="st2" d="M680.7,405.3c1-0.4,2.1-0.5,3.1-0.3c1.1,0.3,2.2,0.7,3.3,1.2c1.3,0.6,2.8,1,4.3,1.2c2.7,0.2,5.4-0.4,7.7-1.8
		c0.7-0.4,1.3-0.9,1.9-1.5c0.4-0.4,0.6-0.6,0.6-0.7c-0.9,0.7-1.7,1.3-2.7,1.8c-2.3,1.3-4.9,1.8-7.5,1.6c-3-0.2-5.4-2-7.5-2.2
		c-0.8-0.1-1.6-0.1-2.4,0.2C680.9,405,680.7,405.3,680.7,405.3z"/>
	<path class="st2" d="M682.5,420.5c0.9,0,1.8-0.2,2.7-0.5c1.6-0.5,3.6-1.8,6-2.7c1.1-0.4,2.2-0.7,3.4-0.7c1,0,1.9,0.2,2.8,0.6
		c0.8,0.4,1.5,1,2,1.7c0-0.2-0.2-0.5-0.3-0.7c-0.4-0.6-0.9-1-1.5-1.4c-0.9-0.5-1.9-0.8-2.9-0.8c-1.2,0-2.5,0.2-3.6,0.7
		c-2.4,1-4.4,2.2-5.9,2.9C683.5,420.3,682.5,420.5,682.5,420.5z"/>
	<path class="st2" d="M684,427.6c0.7,0.3,1.3,0.5,2.1,0.7c1.7,0.4,3.4,0.7,5.1,0.9c1.7,0.2,3.4,0.2,5.2,0.2c0.7,0,1.4-0.1,2.1-0.3
		c0-0.2-3.3,0-7.2-0.4S684.1,427.5,684,427.6z"/>
	<rect x="589.5" y="73.5" class="st3" width="99.4" height="65.4"/>
	<rect x="593" y="76.2" class="st1" width="92.4" height="59.8"/>
	<rect x="624.1" y="98" class="st3" width="30.2" height="16.4"/>
	<path class="st0" d="M274.1,26H487l0,0v202.7c0,9.2-7.5,16.7-16.7,16.7l0,0H274.1l0,0V26L274.1,26z"/>
	<path class="st4" d="M469.4,91.3c0,0.4-38.5,0.8-85.9,0.8s-85.9-0.4-85.9-0.8c0-0.4,38.5-0.8,85.9-0.8S469.4,90.9,469.4,91.3z"/>
	<path class="st4" d="M384.5,106.2c0,0.4-19,0.8-42.5,0.8s-42.5-0.4-42.5-0.8s19-0.8,42.5-0.8C365.5,105.4,384.5,105.7,384.5,106.2z
		"/>
	<path class="st4" d="M418.4,104.8c0,0.4-5,0.8-11.2,0.8s-11.2-0.4-11.2-0.8c0-0.4,5-0.8,11.2-0.8S418.4,104.4,418.4,104.8z"/>
	<path class="st4" d="M474,103.9c0,0.4-10,0.8-22.3,0.8s-22.3-0.4-22.3-0.8c0-0.4,10-0.8,22.3-0.8S474,103.4,474,103.9z"/>
	<path class="st4" d="M377.4,120.4c0,0.5-17.9,0.8-39.9,0.8c-22.1,0-39.9-0.4-39.9-0.8s17.9-0.8,39.9-0.8
		C359.5,119.6,377.4,120,377.4,120.4z"/>
	<path class="st4" d="M474,120c0,0.4-19.5,0.8-43.6,0.8c-24.1,0-43.6-0.4-43.6-0.8s19.5-0.8,43.6-0.8C454.5,119.2,474,119.6,474,120
		z"/>
	<path class="st4" d="M474,134.3c0,0.4-8.7,0.8-19.4,0.8c-10.7,0-19.4-0.4-19.4-0.8c0-0.4,8.7-0.8,19.4-0.8S474,133.9,474,134.3z"/>
	<path class="st5" d="M393.7,75.4c0,0.4-21.1,0.8-47,0.8c-26,0-47.1-0.4-47.1-0.8s21.1-0.8,47.1-0.8S393.7,74.9,393.7,75.4z"/>
	<path class="st6" d="M112.4,148.9h412.2c8.3,0,15,6.7,15,15v262.4c0,8.3-6.7,15-15,15H112.4c-8.3,0-15-6.7-15-15V164
		C97.4,155.7,104.1,148.9,112.4,148.9z"/>
	<path class="st6" d="M79.5,419.7h479.1l0,0v7.2c0,10.1-8.2,18.4-18.4,18.4H97.9c-10.1,0-18.4-8.2-18.4-18.4V419.7L79.5,419.7z"/>
	<rect x="109.9" y="160.5" class="st4" width="417.2" height="247"/>
	<path class="st4" d="M275.5,419.7h1.9h5.4l20.2-0.1l67.6-0.1h0.5l-0.2,0.4l-2.7,4.6l-2.8,4.9l-0.1,0.1h-0.2l-83.7-0.2h-0.1v-0.1
		l-4.4-7.1l-1.1-1.8L275.5,419.7c0,0.1,0.2,0.3,0.4,0.7l1.2,1.8c1,1.6,2.5,3.9,4.5,7l-0.1-0.1l83.7-0.2l-0.2,0.1l2.8-4.9l2.7-4.6
		l0.2,0.4l-67.3-0.1l-20.3-0.1h-5.5H276L275.5,419.7z"/>
	<path class="st4" d="M539.6,419.7c0,0.2-99,0.3-221.1,0.3s-221.1-0.1-221.1-0.3c0-0.2,99-0.3,221.1-0.3S539.6,419.6,539.6,419.7z"
		/>
	<path class="st6" d="M426.7,111.2L426.7,111.2c6.8,0,12.4,5.5,12.4,12.4V149h-36.9v-23.4c0-7.9,6.4-14.3,14.3-14.3c0,0,0,0,0,0
		H426.7z"/>
	<path class="st6" d="M426.7,111.2c0,0.2-34.8,0.2-77.8,0.2c-43,0-77.8-0.2-77.8-0.3c0-0.1,34.8-0.2,77.8-0.2
		S426.7,111.1,426.7,111.2z"/>
	<path class="st1" d="M426.4,111.2l-15.4-0.1l-22.4,0.1H224.2c-14,0-25.3,11.3-25.3,25.3l0,0v271.6h212.9v-283
		C412.5,111.2,426.4,111.2,426.4,111.2z"/>
	<path class="st6" d="M426.4,111.2L298,111.5h-64.2h-8c-1.3,0-2.7,0-4,0.1c-1.3,0.1-2.6,0.4-3.9,0.7c-7.8,2-14.2,7.7-17,15.3
		c-0.2,0.6-0.5,1.2-0.6,1.9l-0.5,1.9c-0.3,1.3-0.4,2.6-0.5,3.9c-0.1,5.3,0,10.7,0,16l0.2,256.7l-0.5-0.5l212.9,0.1l-0.4,0.4
		l0.1-152.7l0.1-76.3l0.1-38.2v-9.5v-4.8c0-0.8,0-1.6,0.1-2.4c0.1-0.8,0.2-1.6,0.4-2.4c0.7-3.2,2.5-5.9,5.2-7.8
		c1.3-0.9,2.8-1.6,4.3-2.1C423.3,111.5,424.8,111.2,426.4,111.2z M426.4,111.2c-1.6,0.1-3.2,0.4-4.7,0.8c-1.5,0.5-3,1.2-4.3,2.1
		c-2.6,1.8-4.5,4.6-5.1,7.8c-0.2,0.8-0.3,1.6-0.4,2.3c-0.1,0.8-0.1,1.6-0.1,2.4v14.3l0.1,38.2l0.1,76.3l0.1,152.7v0.4h-0.4
		l-212.9,0.1h-0.5v-0.5l0.2-256.7c0-5.4,0-10.7,0.1-16.1c0.1-1.4,0.2-2.7,0.5-4l0.5-2c0.1-0.7,0.4-1.3,0.6-1.9
		c2.9-7.7,9.5-13.6,17.5-15.6c1.3-0.3,2.6-0.6,4-0.7c1.4-0.1,2.7-0.1,4-0.1h8H298L426.4,111.2z"/>
	<path class="st5" d="M231,160.1h37.1l0.1,12.4h-1.8c-0.6-4.4-2.2-7.5-5-9c-2.2-1-4.5-1.5-6.9-1.4v32.5c0,2.3,0.4,3.8,1.2,4.5
		c0.8,0.7,2.4,1.1,5,1.1v1.6h-22v-1.6c2.4,0,4-0.4,4.8-1.1c0.8-0.8,1.2-2.2,1.2-4.5v-32.5c-2.4-0.1-4.8,0.4-6.9,1.4
		c-3,1.6-4.6,4.6-5,9H231L231,160.1z"/>
	<path class="st5" d="M382.6,162.9c0,0.4-20.5,0.8-45.8,0.8s-45.8-0.4-45.8-0.8c0-0.4,20.5-0.8,45.8-0.8S382.6,162.5,382.6,162.9z"
		/>
	<path class="st4" d="M328.3,177.5c0,0.4-7.9,0.8-17.7,0.8s-17.7-0.4-17.7-0.8c0-0.4,7.9-0.8,17.7-0.8S328.3,177.1,328.3,177.5z"/>
	<path class="st4" d="M283.7,222.1c0,0.4-15,0.8-33.6,0.8s-33.6-0.4-33.6-0.8c0-0.4,15-0.8,33.6-0.8S283.7,221.7,283.7,222.1z"/>
	<path class="st5" d="M359.8,222.1c0,0.4-15.1,0.8-33.6,0.8c-18.5,0-33.6-0.4-33.6-0.8c0-0.4,15-0.8,33.6-0.8
		S359.8,221.7,359.8,222.1z"/>
	<path class="st4" d="M283.7,234.1c0,0.4-15,0.8-33.6,0.8s-33.6-0.4-33.6-0.8c0-0.4,15-0.8,33.6-0.8S283.7,233.6,283.7,234.1z"/>
	<path class="st5" d="M283.7,246c0,0.4-15,0.8-33.6,0.8s-33.6-0.4-33.6-0.8s15-0.8,33.6-0.8S283.7,245.5,283.7,246z"/>
	<path class="st4" d="M328.3,201.8c0,0.4-7.9,0.8-17.7,0.8s-17.7-0.4-17.7-0.8c0-0.4,7.9-0.8,17.7-0.8S328.3,201.3,328.3,201.8z"/>
	<path class="st4" d="M389.7,222.1c0,0.4-5.3,0.8-11.8,0.8s-11.8-0.4-11.8-0.8c0-0.4,5.3-0.8,11.8-0.8S389.7,221.7,389.7,222.1z"/>
	<path class="st4" d="M396,177.5c0,0.4-13.6,0.8-30.4,0.8c-16.8,0-30.4-0.4-30.4-0.8c0-0.4,13.6-0.8,30.4-0.8
		C382.4,176.7,396,177.1,396,177.5z"/>
	<path class="st4" d="M393.3,189.1c0,0.4-22.5,0.8-50.2,0.8s-50.2-0.4-50.2-0.8c0-0.4,22.5-0.8,50.2-0.8S393.3,188.7,393.3,189.1z"
		/>
	<path class="st4" d="M389.7,234.1c0,0.4-21.7,0.8-48.5,0.8c-26.8,0-48.5-0.4-48.5-0.8c0-0.4,21.7-0.8,48.5-0.8
		C368.1,233.2,389.7,233.6,389.7,234.1z"/>
	<path class="st5" d="M389.7,268.5c0,0.4-20.4,0.8-45.5,0.8c-25.2,0-45.6-0.4-45.6-0.8s20.4-0.8,45.6-0.8
		C369.3,267.7,389.7,268.1,389.7,268.5z"/>
	<path class="st4" d="M389.7,280.1c0,0.4-20.4,0.8-45.5,0.8c-25.2,0-45.6-0.4-45.6-0.8s20.4-0.8,45.6-0.8
		C369.3,279.3,389.7,279.7,389.7,280.1z"/>
	<path class="st4" d="M389.7,291.7c0,0.4-20.4,0.8-45.5,0.8c-25.2,0-45.6-0.4-45.6-0.8s20.4-0.8,45.6-0.8
		C369.3,290.9,389.7,291.3,389.7,291.7z"/>
	<path class="st4" d="M389.7,303.3c0,0.4-20.4,0.8-45.5,0.8c-25.2,0-45.6-0.4-45.6-0.8s20.4-0.8,45.6-0.8
		C369.3,302.5,389.7,302.9,389.7,303.3z"/>
	<path class="st4" d="M351.1,314.9c0,0.2-2.9,0.4-7.7,0.6c-4.7,0.1-11.3,0.2-18.6,0.2s-13.8-0.1-18.6-0.2s-7.7-0.4-7.7-0.6
		s2.9-0.4,7.7-0.6s11.3-0.2,18.6-0.2s13.8,0.1,18.6,0.2C348.1,314.5,351.1,314.7,351.1,314.9z"/>
	<path class="st4" d="M373.2,246.6c0,0.4-17.5,0.8-39.2,0.8c-21.7,0-39.2-0.4-39.2-0.8c0-0.4,17.5-0.8,39.2-0.8
		C355.7,245.8,373.2,246.1,373.2,246.6z"/>
	<polygon class="st3" points="282.1,269.9 287,359.4 199.5,370.3 199.4,269.1 	"/>
	
		<rect x="180.4" y="252.1" transform="matrix(6.457721e-03 -1 1 6.457721e-03 -85.0721 537.3908)" class="st2" width="95" height="118.8"/>
	
		<rect x="186.3" y="256.3" transform="matrix(6.457721e-03 -1 1 6.457721e-03 -85.1546 537.318)" class="st7" width="83" height="110.4"/>
	<g class="st8">
		<polygon points="172.3,352.6 211.2,301.3 234.9,333.7 251.2,316.6 282.8,353.4 		"/>
	</g>
	<g class="st8">
		<path d="M245.3,295.2c0,4.8-3.9,8.7-8.7,8.6c-4.8,0-8.7-3.9-8.6-8.7c0-4.8,3.9-8.7,8.7-8.6c0,0,0,0,0,0
			C241.5,286.5,245.3,290.4,245.3,295.2C245.3,295.2,245.3,295.2,245.3,295.2z"/>
	</g>
	<path class="st6" d="M298.4,381.8c0,1-0.8,1.8-1.8,1.8s-1.8-0.8-1.8-1.8s0.8-1.8,1.8-1.8l0,0C297.6,379.9,298.4,380.7,298.4,381.8
		C298.4,381.7,298.4,381.7,298.4,381.8z"/>
	<path class="st6" d="M309.3,381.8c0,1-0.8,1.8-1.8,1.8s-1.8-0.8-1.8-1.8s0.8-1.8,1.8-1.8l0,0C308.5,379.9,309.3,380.7,309.3,381.8z
		"/>
	<path class="st6" d="M320.2,381.8c0,1-0.8,1.8-1.8,1.8s-1.8-0.8-1.8-1.8s0.8-1.8,1.8-1.8l0,0C319.4,379.9,320.2,380.7,320.2,381.8z
		"/>
	<path class="st5" d="M360.4,339.1c0,0.4-15.1,0.8-33.6,0.8s-33.6-0.4-33.6-0.8c0-0.4,15.1-0.8,33.6-0.8S360.4,338.6,360.4,339.1z"
		/>
	<path class="st4" d="M390.2,351c0,0.4-21.7,0.8-48.5,0.8c-26.8,0-48.5-0.4-48.5-0.8s21.7-0.8,48.5-0.8
		C368.5,350.2,390.2,350.6,390.2,351z"/>
	
		<rect x="613.2" y="365.4" transform="matrix(9.999500e-03 -0.9999 0.9999 9.999500e-03 234.2576 1038.8937)" class="st2" width="57.2" height="71.5"/>
	
		<rect x="614.4" y="366.4" transform="matrix(6.457721e-03 -1 1 6.457721e-03 235.5644 1036.4733)" class="st5" width="50" height="66.5"/>
	<polygon class="st9" points="605.9,424.5 629.4,393.5 643.6,413.1 653.5,402.7 672.5,424.9 	"/>
	<g class="st8">
		<path d="M649.9,389.9c0,2.9-2.4,5.2-5.3,5.2c-2.9,0-5.2-2.4-5.2-5.3s2.4-5.2,5.3-5.2c0,0,0,0,0,0
			C647.6,384.7,649.9,387,649.9,389.9z"/>
	</g>
	
		<rect x="600.3" y="357.9" transform="matrix(6.457721e-03 -1 1 6.457721e-03 231.1723 1020.0907)" class="st2" width="57.2" height="71.5"/>
	
		<rect x="603.9" y="360.5" transform="matrix(6.457721e-03 -1 1 6.457721e-03 231.1362 1020.0543)" class="st5" width="50" height="66.5"/>
	<polygon class="st9" points="595.5,418.5 618.9,387.6 633.1,407.1 643,396.8 662,418.9 	"/>
	<g class="st8">
		<path d="M639.4,383.9c0,2.9-2.4,5.2-5.3,5.2c-2.9,0-5.2-2.4-5.2-5.3c0-2.9,2.4-5.2,5.3-5.2c0,0,0,0,0.1,0
			C637.1,378.7,639.4,381,639.4,383.9z"/>
	</g>
	
		<rect x="591" y="353" transform="matrix(6.457721e-03 -1 1 6.457721e-03 226.8199 1005.866)" class="st2" width="57.2" height="71.5"/>
	
		<rect x="594.6" y="355.5" transform="matrix(6.457721e-03 -1 1 6.457721e-03 226.7839 1005.809)" class="st5" width="50" height="66.5"/>
	<polygon class="st9" points="586.1,413.5 609.5,382.6 623.8,402.2 633.6,391.8 652.6,414 	"/>
	<g class="st8">
		<path d="M630.1,378.9c0,2.9-2.4,5.2-5.3,5.2c-2.9,0-5.2-2.4-5.2-5.3c0-2.9,2.4-5.2,5.3-5.2c0,0,0,0,0.1,0
			C627.8,373.7,630.1,376.1,630.1,378.9z"/>
	</g>
	
		<rect x="582.8" y="360.6" transform="matrix(9.999500e-03 -0.9999 0.9999 9.999500e-03 208.9177 1003.7128)" class="st2" width="57.2" height="71.5"/>
	
		<rect x="584.1" y="361.7" transform="matrix(6.457721e-03 -1 1 6.457721e-03 210.2176 1001.4289)" class="st4" width="50" height="66.5"/>
	<polygon class="st9" points="575.6,419.7 599.1,388.8 613.3,408.3 623.1,398 642.1,420.1 	"/>
	<g class="st8">
		<path d="M619.6,385.1c0,2.9-2.4,5.2-5.3,5.2c-2.9,0-5.2-2.4-5.2-5.3c0-2.9,2.4-5.2,5.3-5.2c0,0,0,0,0.1,0
			C617.3,379.9,619.6,382.2,619.6,385.1z"/>
	</g>
	<rect x="645" y="387.4" class="st6" width="41.3" height="55.2"/>
	<path class="st5" d="M566,387.4v55.2h82.5v-55.2H566z M616.1,400.4h-17.5c-2.1,0-3.8-1.7-3.8-3.8c0-2.1,1.7-3.8,3.8-3.8h17.5
		c2.1,0,3.8,1.7,3.8,3.8C619.9,398.7,618.2,400.4,616.1,400.4C616.1,400.4,616.1,400.4,616.1,400.4z"/>
	<path class="st4" d="M512.4,436.8l-76.8-4.7c-0.5-1.1-0.8-1.7-0.8-1.7l-20.8,0.4l-6.8-0.4l-0.3,0.6l-69.9,1.4
		c-13.9,0-28.6,8.5-28.6,19.4c-0.2,10.3,4.8,21.6,17.3,21.3l95.2-0.3l95.2,0.3c12.5,0.3,15.8-7.2,15.8-16.2
		C533.4,440.1,523,436.9,512.4,436.8z"/>
	<path class="st6" d="M334.5,473h0.5h1.4l5.2-0.1l19.2-0.1l64-0.1l-0.3,0.3c-0.1-2.1-0.3-4.3-0.4-6.6c-0.3-4.6-0.6-9.1-0.8-13.4
		l0.2,0.2l-58.9-6.7l-17.5-2l-4.7-0.6l-1.2-0.2c-0.1,0-0.3,0-0.4-0.1h0.4l1.2,0.1l4.7,0.5l17.5,1.8l58.9,6.4h0.2v0.2
		c0.3,4.3,0.6,8.8,0.8,13.4c0.1,2.2,0.3,4.5,0.4,6.6v0.3h-0.3l-64-0.1l-19.2-0.1h-5.2h-1.4L334.5,473z"/>
	<path class="st6" d="M354.1,445.7c-0.1,0.1-1-0.7-2.7-1.7c-2.2-1.3-4.5-2.4-7-3.1c-2.5-0.7-5-1.1-7.6-1.1c-2,0-3.2,0.1-3.2,0
		c0.3-0.1,0.6-0.2,0.8-0.2c0.8-0.1,1.6-0.2,2.3-0.2c5.2-0.2,10.4,1.3,14.8,4.2c0.7,0.4,1.3,0.9,1.9,1.4
		C353.9,445.4,354.1,445.6,354.1,445.7z"/>
	<path class="st6" d="M506.4,441.6c0,0.1-15.1,3.8-33.8,8.2c-18.7,4.4-33.9,7.8-34,7.7c0-0.1,15.1-3.8,33.8-8.2
		S506.4,441.5,506.4,441.6z"/>
	<path class="st6" d="M493.6,440.1c-2.1,0.7-4.1,1.7-5.9,2.8c-1.8,1.3-3.4,2.8-4.8,4.5c0.2-0.6,0.6-1.2,1-1.7c2-2.5,4.7-4.4,7.8-5.3
		C492.3,440.2,493,440.1,493.6,440.1z"/>
	<path class="st10" d="M465,352.9l24.3,42.4c3,5.2,3.2,11.6,0.5,17l0,0c-3.1,6.3-9.6,10.1-16.6,9.9l-37.4-1l-1-13.6l32.9-6.3
		l-22.2-38.4L465,352.9z"/>
	<path class="st10" d="M374.3,425.4l34.4,9.1l0.8-10.3l-31.7-18.4l23.1-42.9l-19.4-10l-24.3,42.4l0,0c-5.2,9.6-1.6,21.7,8.1,26.9
		c1.1,0.6,2.2,1.1,3.4,1.4L374.3,425.4z"/>
	<path class="st11" d="M454.7,380.1l23.5-12.4c-2.9-5.9-6.3-11.5-10.1-16.8c-7.3-10.1-18.6-17.1-31.4-19.8l0,0l-27,0.3
		c-3.3,0.3-6.5,1-9.6,2.2v-0.1c-14.7,3.2-30.9,35.2-30.9,35.2l21.4,11.3l0.5,3.4c0.6,4.5,2.6,8.6,5.6,12l-6.2,40.9l69.3,1.4
		l-8.8-29.3L454.7,380.1z"/>
	<path class="st6" d="M397.2,395.6c-0.4-0.2-0.7-0.5-1-0.8c-0.9-0.8-1.7-1.7-2.4-2.6c-2.2-3.3-3.3-7.2-2.9-11.2
		c0.3-2.1,0.9-4.2,1.6-6.2c0.6-1.9,1.3-3.5,1.8-4.9c0.5-1.4,1-2.5,1.4-3.2c0.2-0.4,0.4-0.8,0.6-1.1c-0.1,0.4-0.2,0.8-0.4,1.2
		c-0.3,0.9-0.7,2-1.2,3.3c-0.5,1.3-1.1,3.1-1.7,4.9c-0.7,2-1.2,4-1.5,6.1c-0.2,2.1,0,4.2,0.6,6.2c0.4,1.7,1.1,3.2,2.1,4.7
		C395.1,393.3,396.1,394.5,397.2,395.6z"/>
	<polygon class="st6" points="386.8,446.2 382.9,400.5 467.4,400.5 461.8,446.8 	"/>
	<path class="st1" d="M430.5,424.9c0,3-2.4,5.4-5.4,5.4c-3,0-5.4-2.4-5.4-5.4c0-3,2.4-5.4,5.4-5.4c0,0,0,0,0,0
		C428.1,419.5,430.5,421.9,430.5,424.9z"/>
	<polygon class="st10" points="423.7,455.1 438,457.1 438,472.7 424.8,472.4 	"/>
	<path class="st11" d="M438,457.1h6.4c1.3,0,2.5,0.3,3.6,1l3.4,2c1.9,1.1,3.9,2,5.9,2.8c3.9,1.3,10.5,3,11.9,4c4,3.1,2.8,6.7,0.6,7
		c-1.9,0.3-31.8-1.2-31.8-1.2L438,457.1z"/>
	<path class="st6" d="M448.6,471.4c-0.5-1.3-0.7-2.7-0.7-4.1c-0.1-1.4,0-2.8,0.5-4.1c0.1,1.4,0.1,2.7,0.1,4.1
		C448.6,468.7,448.7,470,448.6,471.4z"/>
	<path class="st6" d="M451.7,471.3c-0.3-2.5-0.3-5,0.1-7.4c0.2,1.2,0.3,2.5,0.2,3.7C452.1,468.9,452,470.1,451.7,471.3z"/>
	<path class="st6" d="M455.3,471.9c-0.6-2.5-0.8-5.1-0.6-7.7c0.4,1.2,0.6,2.5,0.6,3.8C455.5,469.4,455.5,470.7,455.3,471.9z"/>
	<path class="st6" d="M445.8,467.3c-0.5-0.1-0.9-0.2-1.3-0.4c-1.2-0.5-2.3-1.2-3.2-2c-0.3-0.3-0.6-0.5-0.9-0.9
		c-0.3-0.3-0.6-0.7-0.8-1.2c-0.2-0.5-0.2-1.1,0.2-1.6c0.2-0.2,0.5-0.4,0.8-0.4c0.3,0,0.6,0,0.9,0.1c3.3,1.2,5.1,4.9,3.9,8.2
		c-0.5,1.3-1.4,2.4-2.5,3.2c-0.4,0.3-1,0.5-1.5,0.7c-0.3,0.1-0.6,0.1-0.8,0c-0.3-0.1-0.5-0.3-0.6-0.6c-0.2-0.5-0.1-1.1,0.2-1.5
		c0.2-0.4,0.5-0.7,0.8-1c0.9-0.9,2-1.6,3.2-2.1c0.4-0.2,0.9-0.3,1.3-0.4c0,0-0.5,0.2-1.2,0.6c-1.1,0.5-2.1,1.3-3,2.2
		c-0.3,0.3-0.5,0.6-0.7,0.9c-0.2,0.3-0.3,0.7-0.2,1.1c0.2,0.3,0.6,0.5,1,0.4c0.5-0.1,0.9-0.3,1.3-0.6c2.7-1.8,3.5-5.5,1.6-8.3
		c-0.7-1-1.7-1.8-2.9-2.3c-0.4-0.2-0.8-0.1-1.2,0.2c-0.2,0.3-0.3,0.8-0.1,1.1c0.4,0.7,0.9,1.4,1.6,1.9
		C442.8,465.7,444.3,466.6,445.8,467.3z"/>
	<path class="st6" d="M469.9,473.9c0.3-0.3,0.6-0.6,0.8-1c0.4-1.1,0.2-2.3-0.4-3.2c-0.9-1.4-2.3-2.5-4-3c-1.8-0.7-4-1-6.2-1.7
		c-3.8-1.1-7.3-2.8-10.7-4.8c-1.3-0.8-2.2-1.5-2.9-2.1c-0.4-0.2-0.7-0.5-1-0.9c0.4,0.2,0.8,0.4,1.1,0.7c0.7,0.5,1.7,1.1,3,1.9
		c3.3,2,6.9,3.5,10.6,4.7c2.2,0.7,4.3,1,6.2,1.7c1.7,0.6,3.2,1.7,4.1,3.3c0.7,1.1,0.8,2.4,0.3,3.5c-0.2,0.3-0.4,0.5-0.7,0.7
		C470,473.9,469.9,474,469.9,473.9z"/>
	<path class="st2" d="M460.1,342.4c0,0.1,0,0.2,0,0.2v0.6c-0.1,0.6-0.1,1.4-0.2,2.5c-0.2,2.2-0.5,5.4-0.9,9.4v0.2l-0.2-0.1
		l-12.5-6.6l0.3-0.1l-6.8,11.4l-0.1,0.2l-0.2-0.2l-11.3-8.7h0.3l-5,3.9l-6.8,5.3l-0.2,0.2l-0.1-0.3l-6.4-11.9l0.3,0.1l-13.7,6.1
		l-0.3,0.1v-0.3l-2.1-12.2l0.2,0.1l-7.9,3l-2.1,0.8l-0.5,0.2l-0.2,0.1c0,0,0.1,0,0.2-0.1l0.5-0.2l2.1-0.8l7.8-3.1l0.2-0.1v0.2
		c0.6,3.4,1.3,7.5,2.2,12.1l-0.3-0.2l13.6-6.2l0.2-0.1l0.1,0.2c2.1,3.8,4.2,7.8,6.5,11.9l-0.4-0.1l6.8-5.3l5-3.9l0.2-0.1l0.2,0.1
		l11.3,8.8l-0.4,0.1l6.8-11.3l0.1-0.2l0.2,0.1l12.4,6.7l-0.2,0.1l1.1-9.3c0.1-1,0.2-1.9,0.3-2.5c0-0.3,0.1-0.5,0.1-0.6
		C460.1,342.6,460.1,342.5,460.1,342.4z"/>
	<path class="st2" d="M470.1,353.9c0,0.1,0,0.2-0.1,0.3c-0.1,0.2-0.1,0.5-0.2,0.9c-0.2,0.8-0.5,1.9-0.9,3.4c-0.8,3-1.9,7.2-3.4,12.6
		l-0.1,0.2l-0.2-0.1l-14.6-7l0.3-0.1c-3.7,5.3-7.9,11.2-12.3,17.5l-0.2,0.3l-0.2-0.2l-11.7-11.9l-2.5-2.5h0.3l-15.9,10l-0.2,0.1
		l-0.1-0.2l-8.6-15.1l0.3,0.1l-16.3,5.6l-0.2,0.1l-0.1-0.2c-1.5-4.5-2.8-8-3.6-10.5c-0.4-1.2-0.7-2.1-0.9-2.8
		c-0.1-0.3-0.2-0.5-0.2-0.7c0-0.1-0.1-0.2-0.1-0.2c0,0.1,0.1,0.2,0.1,0.2l0.3,0.7c0.2,0.7,0.6,1.6,1,2.8c0.9,2.5,2.2,6,3.8,10.5
		l-0.2-0.1l16.3-5.7l0.2-0.1l0.1,0.2l8.6,15.1l-0.4-0.1l15.9-10l0.2-0.1l0.2,0.2c0.8,0.8,1.6,1.7,2.5,2.5l11.8,12h-0.4l12.3-17.4
		l0.1-0.2l0.2,0.1l14.5,7.1l-0.2,0.1l3.5-12.5l1-3.4c0.1-0.4,0.2-0.6,0.3-0.9C470.1,354,470.1,353.9,470.1,353.9z"/>
	<path class="st6" d="M459.7,281.9c-4.2,0.4-8.4-0.9-11.5-3.6c3.8,1.9,8.8-0.7,10.1-4.7c1.3-4,0.2-11.4-3-14.1
		c-3.2-2.5-7.4-3.4-11.3-2.4c-3.9,1-8,6.9-9.2,10.7l0.1,0.1c-0.6-0.2-1.2-0.5-1.8-0.7c-4.3-1.5-8.8-2.1-13.4-1.6
		c-4.5,0.5-8.8,2.3-12.2,5.4l26.2,42.2c4.8-0.4,9-3.6,11.5-7.7c2.5-4.1,3.5-8.9,3.7-13.7c0.1-1.2,0.1-2.4,0-3.6l8.4,1.4
		c-1.5-2-3.4-3.7-5.6-5C454.6,285.5,457.9,284.5,459.7,281.9z"/>
	<path class="st10" d="M426.6,347.3c7.1-0.1,12.8-5.9,12.9-13l0.6-52.5l0,0c0.1-2.2-1.6-4-3.7-4.2l-22.2-5.6
		c-7.1-0.7-11.8,8-12.3,15.1c-0.5,7.9-0.8,17.6,0.1,23.5c1.9,11.9,11,13.4,11,13.4s0,4.6,0,10.2c0,7.3,6,13.2,13.3,13.1
		C426.4,347.4,426.5,347.4,426.6,347.3L426.6,347.3z"/>
	<path class="st6" d="M406.5,294.8c0,0.8,0.6,1.5,1.5,1.5c0.8,0.1,1.5-0.5,1.6-1.3c0,0,0,0,0,0c0-0.8-0.6-1.5-1.5-1.5
		C407.3,293.4,406.6,294,406.5,294.8C406.5,294.8,406.5,294.8,406.5,294.8z"/>
	<path class="st6" d="M404,292.1c0.2,0.2,1.3-0.6,3-0.6s2.8,0.8,3,0.6s-0.1-0.5-0.6-0.8c-0.7-0.5-1.6-0.7-2.4-0.7
		c-0.9,0-1.7,0.3-2.4,0.8C404.1,291.7,404,292.1,404,292.1z"/>
	<path class="st6" d="M422.1,294.8c0,0.8,0.6,1.5,1.5,1.5c0.8,0.1,1.5-0.5,1.6-1.3c0,0,0,0,0,0c0-0.8-0.6-1.5-1.5-1.5
		C422.9,293.4,422.2,293.9,422.1,294.8C422.1,294.8,422.1,294.8,422.1,294.8z"/>
	<path class="st6" d="M420.1,292.5c0.2,0.2,1.3-0.6,3-0.6c1.6,0,2.8,0.8,3,0.6c0.2-0.2-0.1-0.4-0.6-0.8c-0.7-0.5-1.6-0.7-2.4-0.7
		c-0.9,0-1.7,0.3-2.4,0.8C420.2,292,420.1,292.4,420.1,292.5z"/>
	<path class="st6" d="M414.2,304.6c-0.9-0.3-1.8-0.4-2.7-0.5c-0.4,0-0.8-0.1-0.9-0.4c0-0.4,0.1-0.9,0.3-1.2l1.2-3.2
		c1.7-4.5,3-8.3,2.8-8.3c-0.2-0.1-1.7,3.5-3.4,8.1l-1.2,3.2c-0.3,0.5-0.3,1.1-0.2,1.6c0.1,0.3,0.4,0.5,0.7,0.6
		c0.2,0.1,0.5,0.1,0.7,0.1C412.4,304.7,413.3,304.7,414.2,304.6z"/>
	<path class="st12" d="M413.1,324c5.6,0.1,11.1-1.4,15.9-4.2c0,0-3.9,8.1-15.7,7L413.1,324z"/>
	<path class="st12" d="M414.9,308.5c0.6-0.8,1.6-1.2,2.6-1.1c0.7,0.1,1.4,0.4,1.9,1c0.5,0.6,0.5,1.3,0.1,1.9
		c-0.5,0.6-1.4,0.8-2.1,0.5c-0.8-0.3-1.5-0.7-2.1-1.2c-0.2-0.1-0.3-0.3-0.5-0.5C414.7,309.1,414.7,308.8,414.9,308.5"/>
	<path class="st6" d="M419,305.7c-0.3,0-0.3,1.8-1.8,3s-3.4,1-3.4,1.3c0,0.3,0.4,0.4,1.2,0.4c1,0,2.1-0.4,2.9-1
		c0.8-0.6,1.3-1.5,1.4-2.5C419.3,306.2,419.1,305.7,419,305.7z"/>
	<path class="st6" d="M419.4,289.6c0.2,0.4,1.8,0.2,3.7,0.5c1.9,0.2,3.5,0.8,3.7,0.4c0.1-0.2-0.2-0.6-0.8-1
		c-1.7-1.1-3.8-1.3-5.7-0.6C419.7,289,419.3,289.4,419.4,289.6z"/>
	<path class="st6" d="M404.3,289.1c0.3,0.4,1.4,0,2.8,0c1.4,0,2.5,0.3,2.8-0.1c0.1-0.2-0.1-0.6-0.6-0.9c-0.7-0.4-1.5-0.6-2.2-0.6
		c-0.8,0-1.6,0.3-2.2,0.8C404.3,288.6,404.1,288.9,404.3,289.1z"/>
	<path class="st10" d="M438.8,296.6c1-0.5,2.2-0.5,3.1,0.2c2.6,1.5,3.5,4.9,2,7.5c-1.1,1.9-3.3,3-5.4,2.7"/>
	<path class="st12" d="M439.6,303.4c0-0.1,0.5,0.1,1-0.2c0.7-0.4,1.1-1.2,1-2.1c0-0.8-0.5-1.6-1.3-1.9c-0.6-0.2-1-0.1-1-0.2
		c0-0.1,0.4-0.4,1.2-0.2c0.5,0.1,0.9,0.4,1.2,0.7c0.4,0.4,0.6,1,0.6,1.6c0.1,1.1-0.5,2.1-1.5,2.5C440,303.9,439.6,303.5,439.6,303.4
		z"/>
	<path class="st4" d="M442.9,305.8c0,0,0.2,0.1,0.5,0.4l1.5,1.2l5.2,4.4l0.2,0.1L450,312c-1.9,2.3-4,5.2-6.4,8.1
		c-0.5,0.7-1.1,1.3-1.6,2l-0.4,0.5V322c-0.2-4.8-0.4-9.1-0.5-12.2c0-1.5-0.1-2.7-0.1-3.6c0-0.4,0-0.9,0-1.3c0.1,0.4,0.2,0.9,0.2,1.3
		c0.1,0.9,0.1,2.1,0.2,3.6c0.2,3.1,0.4,7.3,0.6,12.2l-0.5-0.2l1.6-1.9c2.4-3,4.5-5.8,6.5-8.1v0.3l-5-4.5l-1.4-1.2
		C443.1,306.2,443,306,442.9,305.8z"/>
	<path class="st6" d="M418.8,266.8c-2.9,0-5.8,0.3-8.7,0.9c-2.9,0.6-5.5,2.1-7.5,4.2c-2,2.2-2.8,5.2-2.1,8.1
		c0.8,2.9,3.6,4.8,6.6,4.6c2.2-0.3,4.3-1.9,6.4-1.3c2.1,0.6,3.1,3,5.2,3.4c2.1,0.4,3.8-1.4,5.9-1.6c2.3-0.2,4.2,1.7,5.2,3.7
		c1,2,1.4,4.3,2.4,6.4c0.6,1.4,1.7,2.4,3.1,2.9c1.3,0.3,2.7-0.1,3.7-1c1-0.9,1.7-2.1,2.2-3.3c3.8-9.4-0.7-20.2-10.1-24
		c-1.6-0.6-3.2-1-4.8-1.2"/>
	<path class="st5" d="M447.8,279.4c-0.1,0-0.4-1-1.1-2.4c-1.9-3.8-5.2-6.7-9.2-8.3c-1.5-0.6-2.5-0.8-2.5-0.8c0-0.1,0.3,0,0.7,0
		c0.7,0.1,1.3,0.2,1.9,0.4c2.1,0.7,4,1.8,5.6,3.3c1.6,1.5,2.9,3.2,3.8,5.2c0.3,0.6,0.5,1.2,0.6,1.9
		C447.7,278.9,447.8,279.2,447.8,279.4z"/>
	<path class="st4" d="M456.9,262c-0.9-0.4-1.9-0.7-2.9-0.9c-2.4-0.4-4.8,0-7,1c-2.1,1.1-4,2.7-5.4,4.7c-1.1,1.5-1.6,2.5-1.7,2.5
		c0-0.3,0.1-0.5,0.3-0.8c0.3-0.7,0.7-1.3,1.1-1.9c1.4-2.1,3.2-3.8,5.5-4.9c2.2-1.1,4.8-1.5,7.2-0.9c0.7,0.2,1.5,0.4,2.1,0.8
		C456.6,261.8,456.9,262,456.9,262z"/>
	<path class="st4" d="M445.4,276c0.1,0.8,0.1,1.6,0,2.4c-0.2,2-0.7,3.9-1.5,5.7c-0.8,1.8-1.8,3.5-3.1,5c-0.5,0.6-1.1,1.2-1.8,1.7
		c1.8-2.1,3.3-4.4,4.4-6.9C444.5,281.4,445.1,278.7,445.4,276z"/>
	<path class="st4" d="M445.8,276.2c0.1,0.2,0.2,0.4,0.3,0.7c0.2,0.6,0.4,1.3,0.5,1.9c0.7,4.5-0.5,9-3.2,12.6c-0.4,0.5-0.9,1-1.3,1.5
		c-0.4,0.3-0.5,0.5-0.6,0.5c0,0,0.7-0.8,1.6-2.2c1.2-1.8,2.1-3.8,2.7-5.9c0.5-2.1,0.7-4.3,0.5-6.4
		C446,277.3,445.7,276.3,445.8,276.2z"/>
</g>
</svg>
