<?xml version="1.0" encoding="utf-8"?>
<!-- Generator: Adobe Illustrator 21.0.0, SVG Export Plug-In . SVG Version: 6.00 Build 0)  -->
<svg version="1.1" id="Layer_1" xmlns="http://www.w3.org/2000/svg" xmlns:xlink="http://www.w3.org/1999/xlink" x="0px" y="0px"
	 viewBox="0 0 750 500" style="enable-background:new 0 0 750 500;" xml:space="preserve">
<style type="text/css">
	.st0{fill:#E0E0E0;}
	.st1{fill:#FAFAFA;stroke:#FAFAFA;stroke-width:1.1815;stroke-miterlimit:10;}
	.st2{fill:#EBEBEB;}
	.st3{fill:#F5F5F5;}
	.st4{fill:#FAFAFA;}
	.st5{fill:#FFFFFF;}
	.st6{fill:#263238;}
	.st7{fill:#B5E55A;}
	.st8{fill:#455A64;}
	.st9{fill:#95A6E5;}
	.st10{fill:none;stroke:#FAFAFA;stroke-width:1.1815;stroke-linecap:round;stroke-linejoin:round;}
	.st11{fill:#FF725E;}
	.st12{opacity:0.38;}
	.st13{fill:#FFBE9D;}
	.st14{fill:#EB996E;}
	.st15{fill:#FF5571;}
</style>
<rect x="159.8" y="46.9" class="st0" width="167.7" height="231.2"/>
<rect x="167" y="52.6" class="st1" width="151.3" height="218.5"/>
<rect x="166.2" y="115.3" class="st0" width="154.8" height="3.4"/>
<rect x="240.9" y="115.3" class="st0" width="3.4" height="156.8"/>
<rect x="134" y="25.1" class="st0" width="220.2" height="4.3"/>
<path class="st2" d="M134,39.8c0,0,2,231.2,0.1,231.2h43.5V39.8H134z"/>
<path class="st0" d="M144.9,44.8c-0.3-3.2-0.4-6.4-0.3-9.6c-0.1-3.2,0-6.4,0.3-9.6c0.3,3.2,0.4,6.4,0.3,9.6
	C145.3,38.4,145.2,41.6,144.9,44.8z"/>
<path class="st0" d="M139,44.8c-0.3-3.2-0.4-6.4-0.3-9.6c-0.1-3.2,0-6.4,0.3-9.6c0.3,3.2,0.4,6.4,0.3,9.6
	C139.4,38.4,139.3,41.6,139,44.8z"/>
<path class="st0" d="M151.6,44.8c-0.3-3.2-0.4-6.4-0.3-9.6c-0.1-3.2,0-6.4,0.3-9.6c0.3,3.2,0.4,6.4,0.3,9.6
	C152,38.4,151.9,41.6,151.6,44.8z"/>
<path class="st0" d="M158.3,44.8c-0.3-3.2-0.4-6.4-0.3-9.6c-0.1-3.2,0-6.4,0.3-9.6c0.3,3.2,0.4,6.4,0.3,9.6
	C158.8,38.4,158.6,41.6,158.3,44.8z"/>
<path class="st0" d="M165.1,44.8c-0.3-3.2-0.4-6.4-0.3-9.6c-0.1-3.2,0-6.4,0.3-9.6c0.3,3.2,0.4,6.4,0.3,9.6
	C165.5,38.4,165.4,41.6,165.1,44.8z"/>
<path class="st0" d="M171.6,44.8c-0.3-3.2-0.4-6.4-0.3-9.6c-0.1-3.2,0-6.4,0.3-9.6c0.3,3.2,0.4,6.4,0.3,9.6
	C172,38.4,171.9,41.6,171.6,44.8z"/>
<path class="st2" d="M309.2,39.8c0,0,2,231.2,0.1,231.2h43.5V39.8H309.2z"/>
<path class="st0" d="M320,44.8c-0.3-3.2-0.4-6.4-0.3-9.6c-0.1-3.2,0-6.4,0.3-9.6c0.3,3.2,0.4,6.4,0.3,9.6
	C320.5,38.4,320.3,41.6,320,44.8z"/>
<path class="st0" d="M314.2,44.8c-0.3-3.2-0.4-6.4-0.3-9.6c-0.1-3.2,0-6.4,0.3-9.6c0.3,3.2,0.4,6.4,0.3,9.6
	C314.6,38.4,314.5,41.6,314.2,44.8z"/>
<path class="st0" d="M326.8,44.8c-0.3-3.2-0.4-6.4-0.3-9.6c-0.1-3.2,0-6.4,0.3-9.6c0.3,3.2,0.4,6.4,0.3,9.6
	C327.2,38.4,327.1,41.6,326.8,44.8z"/>
<path class="st0" d="M333.5,44.8c-0.3-3.2-0.4-6.4-0.3-9.6c-0.1-3.2,0-6.4,0.3-9.6c0.3,3.2,0.4,6.4,0.3,9.6
	C333.9,38.4,333.8,41.6,333.5,44.8z"/>
<path class="st0" d="M340.3,44.8c-0.3-3.2-0.4-6.4-0.3-9.6c-0.1-3.2,0-6.4,0.3-9.6c0.3,3.2,0.4,6.4,0.3,9.6
	C340.7,38.4,340.6,41.6,340.3,44.8z"/>
<path class="st0" d="M346.7,44.8c-0.3-3.2-0.4-6.4-0.3-9.6c-0.1-3.2,0-6.4,0.3-9.6c0.3,3.2,0.4,6.4,0.3,9.6
	C347.2,38.4,347.1,41.6,346.7,44.8z"/>
<polygon class="st2" points="477.6,458.1 477.6,492.8 528.3,492.8 584.3,492.8 584.3,458.1 "/>
<polygon class="st3" points="473.1,448.4 473.1,458.1 588.1,458.1 588.1,448.4 528.3,448.4 "/>
<polygon class="st0" points="530.6,492.8 584.3,492.8 584.3,458.1 588.1,458.1 588.1,448.4 528.3,448.4 528.3,457.2 "/>
<rect x="492.5" y="463.7" class="st0" width="21.7" height="5.2"/>
<rect x="489.7" y="475.5" class="st4" width="27.8" height="11"/>
<polygon class="st2" points="504.7,410.3 504.6,397.3 550.3,401.2 551.7,414.1 "/>
<rect x="527.6" y="391.3" transform="matrix(8.524302e-02 -0.9964 0.9964 8.524302e-02 79.5688 897.895)" class="st0" width="2.4" height="28.7"/>
<polygon class="st0" points="499.2,397.9 499.2,384.9 544.9,389.3 546.1,401 "/>
<polygon class="st5" points="499.2,386.7 499.2,395.5 543.7,398.7 543,390.6 "/>
<path class="st0" d="M540.4,394c-0.5,0.1-1.1,0.1-1.6,0l-4.4-0.3c-3.7-0.3-8.8-0.8-14.4-1.4c-5.6-0.6-10.7-1.1-14.4-1.5l-4.4-0.5
	c-0.5,0-1.1-0.1-1.6-0.3c0.5,0,1.1,0,1.6,0l4.4,0.3c3.7,0.3,8.8,0.8,14.4,1.4c5.6,0.6,10.7,1.1,14.4,1.5l4.4,0.5
	C539.3,393.8,539.8,393.9,540.4,394z"/>
<path class="st0" d="M540.3,395.1c-0.5,0.1-1.1,0.1-1.6,0l-4.4-0.2c-3.7-0.2-8.9-0.5-14.6-0.9c-5.7-0.4-10.8-0.8-14.6-1.1l-4.4-0.4
	c-0.5,0-1.1-0.1-1.6-0.2c0.5-0.1,1.1-0.1,1.6,0l4.4,0.2c3.7,0.2,8.9,0.5,14.6,0.9c5.7,0.4,10.8,0.8,14.5,1.1l4.4,0.4
	C539.2,394.9,539.7,395,540.3,395.1z"/>
<polygon class="st0" points="505.2,422.4 505.1,409.3 550.8,413.2 552.1,424.8 "/>
<path class="st3" d="M510.3,422.6c-0.4-2.1-0.6-4.3-0.6-6.4c-0.2-2.1-0.2-4.3,0.1-6.5c0.4,2.1,0.6,4.3,0.6,6.4
	C510.5,418.3,510.5,420.5,510.3,422.6z"/>
<path class="st3" d="M512,409.9c0.3,2.1,0.5,4.3,0.4,6.4c0.1,2.1,0.1,4.3-0.2,6.4c-0.3-2.1-0.5-4.3-0.4-6.4
	C511.7,414.2,511.7,412,512,409.9z"/>
<path class="st5" d="M516.2,415.6c8,0.9,17.3,1.4,25.4,2.1"/>
<path class="st3" d="M541.6,417.8c-1.2,0.1-2.5,0-3.7-0.1c-2.3-0.1-5.5-0.3-9-0.6s-6.7-0.6-9-0.8c-1.2-0.1-2.5-0.3-3.7-0.6
	c1.3,0,2.5,0,3.7,0.2l9,0.6c3.5,0.3,6.7,0.5,9,0.8C539.1,417.3,540.4,417.5,541.6,417.8z"/>
<path class="st3" d="M544.9,424.5c-0.4-1.9-0.6-3.9-0.6-5.8c-0.2-1.9-0.2-3.9,0-5.8c0.4,1.9,0.6,3.9,0.6,5.8
	C545.2,420.6,545.2,422.5,544.9,424.5z"/>
<path class="st3" d="M547.8,424.6c-0.5-1.9-0.8-3.9-0.9-5.8c-0.3-2-0.4-3.9-0.3-5.9c0.5,1.9,0.8,3.8,0.9,5.8
	C547.8,420.6,547.9,422.6,547.8,424.6z"/>
<path class="st5" d="M522.9,418.6c5,0.3,8.9,0.6,12.9,0.7"/>
<path class="st3" d="M535.8,419.3c-2.1,0.2-4.3,0.2-6.5,0c-2.2,0-4.3-0.2-6.4-0.6c2.1-0.2,4.3-0.2,6.5,0
	C531.6,418.6,533.7,418.8,535.8,419.3z"/>
<polygon class="st0" points="508.3,447.9 507.4,434.8 553.3,436.3 555.2,447.8 "/>
<polygon class="st4" points="510.1,446.2 554.8,445.6 553.5,437.5 509.3,436.7 "/>
<polygon class="st2" points="509.6,435.1 509.1,422 554.9,425 556.5,436.6 "/>
<rect x="532.3" y="415.5" transform="matrix(6.488066e-02 -0.9979 0.9979 6.488066e-02 69.9488 934.3478)" class="st0" width="2.4" height="28.7"/>
<path class="st0" d="M554,440.8c-0.6,0.1-1.2,0.1-1.8,0.1l-4.7,0.1c-4,0.1-9.6,0.1-15.8,0.2s-11.7,0-15.8,0l-4.7-0.1
	c-0.6,0-1.2,0-1.8-0.1c0.6-0.1,1.2-0.1,1.7-0.1l4.8-0.1c4-0.1,9.6-0.1,15.8-0.1c6.2,0,11.7,0,15.8,0l4.7,0.1
	C552.8,440.7,553.4,440.7,554,440.8z"/>
<path class="st0" d="M554.5,443.3c-0.6,0.1-1.2,0.1-1.8,0.1h-4.8c-4.1,0-9.7,0-15.9-0.1c-6.2-0.1-11.8-0.2-15.9-0.3l-4.8-0.1
	c-0.6,0-1.2,0-1.8-0.1c0.6-0.1,1.2-0.1,1.8-0.1h4.8c4.1,0,9.7,0,15.9,0.1c6.2,0.1,11.8,0.2,15.9,0.3l4.8,0.2
	C553.3,443.2,553.9,443.3,554.5,443.3z"/>
<path class="st3" d="M168.2,360.8c-5.7,0.9-8.3,8-7.8,13.8c0.5,5.8,2.9,11.4,2.2,17.2c-0.8,7.3-6.4,13.6-7,20.9
	c-0.8,8.7,5.4,16.4,7.2,24.9c0.9,4.1,0.8,8.5,2.4,12.5c3.2,8,12.2,12,20.2,8.8c5.8-2.3,9.7-7.9,9.9-14.2c0.1-6.7-4-12.9-3.5-19.6
	c0.4-4.9,3.2-9.6,2.6-14.4c-0.7-5.8-6.1-9.9-8-15.5c-1.9-5.5-0.1-11.6-0.7-17.5C184.4,367.2,178.6,360,168.2,360.8"/>
<path class="st2" d="M138.8,411.4c-1,9.7,3.3,21.1,8.3,29.4c5,8.4,12.6,15,21.7,18.8c1,0.4,2.3,0.8,3.1,0.1c0.6-0.7,0.9-1.6,0.8-2.5
	C172.8,436.1,159,417.4,138.8,411.4"/>
<path class="st0" d="M181,479.9c-0.1-0.2-0.2-0.4-0.3-0.5c-0.2-0.4-0.4-0.9-0.7-1.6c-0.6-1.4-1.5-3.4-2.6-5.8
	c-2.9-6.4-6.1-12.6-9.6-18.6c-3.5-6-7.4-11.9-11.5-17.5c-1.6-2.2-2.9-3.9-3.8-5.1l-1-1.4c-0.1-0.2-0.2-0.3-0.3-0.5
	c0.2,0.1,0.3,0.3,0.4,0.4l1.1,1.3c1,1.2,2.4,2.8,4,5c4.2,5.6,8.1,11.4,11.7,17.5c3.5,6,6.7,12.3,9.5,18.7c1.1,2.5,1.9,4.5,2.4,5.9
	c0.2,0.7,0.4,1.2,0.6,1.6C180.9,479.5,181,479.7,181,479.9z"/>
<path class="st0" d="M174.8,387.6c0,0,0,0.3,0.1,0.9c0.1,0.6,0.1,1.5,0.2,2.7c0.2,2.4,0.4,5.7,0.6,9.8c0.5,8.3,1.3,19.7,2.2,32.4
	s1.8,24.1,2.4,32.3c0.3,4.1,0.6,7.4,0.7,9.8c0.1,1.1,0.1,2,0.2,2.7c0,0.3,0,0.6,0,0.9c-0.1-0.3-0.1-0.6-0.1-0.9l-0.3-2.7
	c-0.2-2.4-0.5-5.7-0.9-9.8c-0.7-8.3-1.7-19.7-2.6-32.3c-0.9-12.6-1.6-24.1-2-32.4c-0.2-4.1-0.4-7.4-0.5-9.8c0-1.1-0.1-2-0.1-2.7
	C174.7,388.2,174.7,387.9,174.8,387.6z"/>
<path class="st0" d="M165.9,466.1h24.2v17.8c0,6.4-5.2,11.6-11.6,11.6c0,0,0,0,0,0l0,0c-6.2,0-11.3-4.8-11.6-11L165.9,466.1z"/>
<polygon class="st2" points="518.3,44.3 511.9,103.7 593.9,103.7 600.7,44.3 "/>
<polygon class="st4" points="521.7,48.6 515.4,100.6 589.5,100.6 595.5,48.6 "/>
<polygon class="st0" points="534.1,57.4 530.3,91.8 577,91.8 579.4,57.4 "/>
<polyline class="st3" points="597.8,69.9 614.7,104 593.9,103.7 598.1,67.7 "/>
<rect x="607.6" y="110.8" class="st0" width="7.4" height="18.5"/>
<rect x="499.6" y="110.8" class="st0" width="7.4" height="18.5"/>
<rect x="484.4" y="104.1" class="st0" width="144.1" height="7.8"/>
<path class="st6" d="M605.9,493.2c0,0.2-108.5,0.3-242.2,0.3s-242.3-0.1-242.3-0.3c0-0.2,108.5-0.3,242.3-0.3S605.9,493,605.9,493.2
	z"/>
<path class="st7" d="M468.5,322.1c-20.4-14.2-25-40.7-24.2-64.4c0.1-4-0.3-8.1,1.6-11.6c1.9-3.5,6.3-5.8,9.8-4.2
	c3,1.4,4.2,4.8,5.9,7.6c2.2,3.8,5.4,6.9,9.3,8.9c2.5,1.3,5.6,2.1,8.1,0.7c3.4-1.9,3.8-6.6,3.8-10.6l-0.1-22.1c0-3.9,0-8,1.2-11.7
	c1.2-3.7,3.9-7.2,7.7-8.3c3.7-1.1,8.4,1.1,9.2,5c0.1,1.6,0.2,3.3,0.1,4.9c0.1,1.6,0.9,3.4,2.4,3.9s3.2-0.7,4.3-1.8
	c4.1-4,6.8-9.1,9.5-14.2s5.1-10.3,8.8-14.7s8.8-7.8,14.4-8.1s11.7,3.2,13.1,8.7s-1.9,11.2-5.4,15.7c-5.2,6.7-11.4,12.6-18.3,17.5
	c-1.3,0.8-2.4,1.9-3,3.3c-0.9,2.6,1.6,5.2,4.2,6.1c2.9,1,6.1,0.7,9.2,1c3.1,0.4,6.4,1.7,7.6,4.6c1.6,4-1.8,8.3-5.1,11
	c-6.6,5.5-14.2,9.9-22.3,12.9c-2.9,1.1-5.9,2-8.3,4s-3.8,5.6-2.4,8.4c1.4,2.8,5,3.7,8.1,3.1c3-0.6,5.8-2.2,8.7-3.3
	c5.4-2,12.4-1.7,15.9,3c2.3,3.1,2.5,7.4,1.3,11c-1.3,3.6-3.4,6.9-6,9.7c-8.6,10.3-19.8,18.2-32.4,22.8
	C492.6,325.6,480.9,326.7,468.5,322.1"/>
<path class="st6" d="M547.6,184.9c-0.1,0.1-0.2,0.3-0.4,0.4l-1.2,1.1c-1,0.9-2.6,2.3-4.5,4c-5.4,5-10.5,10.5-15.1,16.3
	c-2.9,3.7-6,7.8-9.2,12.3c-3.2,4.5-6.6,9.4-9.9,14.6c-3.6,5.4-6.8,11.1-9.7,16.8c-1.5,3-2.9,6.2-4.3,9.4c-1.4,3.2-2.8,6.5-4.2,9.8
	c-5.4,12.4-10.1,25.1-14,38c-3.2,10.6-5.4,21.4-6.6,32.4c-0.8,7.4-0.9,14.9-0.4,22.3c0.2,2.6,0.4,4.7,0.6,6c0.1,0.7,0.1,1.2,0.2,1.6
	c0,0.2,0,0.4,0,0.5c-0.1-0.2-0.1-0.4-0.1-0.5c-0.1-0.4-0.1-0.9-0.2-1.6c-0.2-1.4-0.5-3.4-0.7-6c-0.6-7.4-0.6-14.9,0.1-22.3
	c1.1-11,3.3-21.9,6.5-32.5c3.9-12.9,8.6-25.6,14-38l4.2-9.8c1.4-3.2,2.8-6.4,4.3-9.5c3-5.8,6.2-11.5,9.8-16.9
	c3.4-5.2,6.8-10.1,10-14.6s6.3-8.6,9.3-12.3c4.7-5.8,9.8-11.1,15.3-16.1c1.9-1.7,3.5-3.1,4.6-3.9l1.2-1
	C547.3,185.1,547.5,185,547.6,184.9z"/>
<path class="st6" d="M497.3,250c-0.2-0.5-0.3-1.1-0.4-1.7c-0.2-1.1-0.4-2.7-0.7-4.6c-0.6-3.9-1.2-9.4-1.8-15.4
	c-0.6-6-1.3-11.4-1.9-15.4c-0.3-1.9-0.6-3.5-0.8-4.6c-0.1-0.6-0.2-1.1-0.2-1.7c0.2,0.5,0.4,1.1,0.5,1.7c0.3,1.1,0.6,2.6,1,4.6
	c0.7,3.9,1.5,9.3,2.1,15.4c0.6,6,1.2,11.3,1.5,15.4c0.2,1.8,0.4,3.4,0.5,4.7C497.3,248.8,497.3,249.4,497.3,250z"/>
<path class="st6" d="M548,240.5c-0.7,0.1-1.3,0.2-2,0.2c-1.3,0.1-3.2,0.3-5.5,0.5c-4.7,0.5-11,1.4-18.1,2.7c-7,1.3-13.3,2.9-17.8,4
	c-2.3,0.6-4.1,1.1-5.4,1.5c-0.6,0.2-1.3,0.4-2,0.5c0.6-0.3,1.2-0.6,1.9-0.8c1.2-0.4,3-1,5.3-1.7c4.5-1.3,10.8-2.9,17.8-4.2
	c6-1.2,12-2,18.1-2.5c2.4-0.2,4.2-0.3,5.5-0.3C546.6,240.4,547.3,240.4,548,240.5z"/>
<path class="st6" d="M475.2,306.3c-0.1-0.2-0.3-0.4-0.3-0.6l-0.9-1.8c-0.8-1.6-1.8-3.9-3-6.8c-2.4-5.8-5.6-13.9-8.9-23
	c-3.3-9-6.4-17.2-8.7-23c-1.2-2.8-2.1-5.2-2.8-6.9c-0.3-0.8-0.5-1.4-0.7-1.9c-0.1-0.2-0.2-0.4-0.2-0.7c0.1,0.2,0.3,0.4,0.3,0.6
	c0.2,0.5,0.5,1.1,0.9,1.8c0.8,1.6,1.8,3.9,3,6.8c2.4,5.8,5.6,13.9,8.9,23c3.3,9,6.4,17.2,8.7,23l2.8,6.9c0.3,0.8,0.5,1.4,0.7,1.9
	C475.1,305.8,475.2,306.1,475.2,306.3z"/>
<path class="st6" d="M542.6,284.6c-0.2,0.1-0.4,0.2-0.7,0.3l-2,0.6l-7.2,2.4c-6.1,2-14.5,4.8-23.7,7.9c-9.3,3.1-17.7,5.9-23.8,7.7
	c-3.1,0.9-5.6,1.6-7.3,2.1l-2,0.5c-0.4,0.1-0.7,0.2-0.7,0.1c0.2-0.1,0.4-0.2,0.7-0.3l2-0.6l7.2-2.4c6.1-2,14.5-4.8,23.7-7.9
	c9.3-3.1,17.7-5.9,23.8-7.7c3.1-0.9,5.6-1.7,7.3-2.1l2-0.5C542.1,284.6,542.3,284.6,542.6,284.6z"/>
<path class="st8" d="M484.7,317.2c4.2,0,8.1-2.3,10.2-5.9c2-3.7,2.4-8,1.2-11.9c-0.5-1.8-1.5-3.7-3.2-4.5c-1.7-0.6-3.6-0.3-5,0.9
	c-1.3,1.2-2.3,2.7-2.9,4.4C482.8,306,481.8,311.9,484.7,317.2"/>
<path class="st8" d="M482.5,328.2c8.8-0.3,17.3,3.6,22.7,10.6c1.3,1.8,2.5,4.2,1.3,6.1s-3.8,2.1-6,1.7c-9.3-1.7-16.6-8.9-18.6-18.1"
	/>
<path class="st8" d="M535.4,312.9c-2.2-3-5.6-4.9-9.3-5.4c-3.7-0.4-7.4,0-10.9,1.2c-6.8,2.2-13,7.5-17.7,12.9
	c6.3,4.8,15.5,4.3,20.1,3.8C524.9,324.7,537.7,318.8,535.4,312.9"/>
<path class="st6" d="M466.5,328.8c1.2-0.3,2.3-0.6,3.4-1c4.1-1.8,8-4.1,11.5-6.9c3.5-2.9,6.2-6.6,7.8-10.9c0.4-1.3,0.7-2.7,0.9-4
	c0.1-0.5,0.1-1,0-1.5c-0.3,1.8-0.8,3.6-1.4,5.3c-1.7,4.1-4.4,7.7-7.8,10.5c-3.5,2.8-7.3,5.1-11.3,7"/>
<path class="st6" d="M466.3,328.9l6.6-1.5c5.5-1.2,13.2-2.9,21.7-4.7s16.2-3.2,21.8-4.3l6.6-1.3c0.8-0.1,1.6-0.3,2.4-0.6
	c-0.8,0-1.6,0.1-2.5,0.3c-1.6,0.2-3.8,0.6-6.6,1c-5.6,0.9-13.3,2.4-21.8,4.1c-8.5,1.7-16.1,3.5-21.6,4.9c-2.8,0.7-5,1.3-6.5,1.7"/>
<path class="st6" d="M498.4,339.3c-0.2-0.4-0.5-0.8-0.8-1.2c-0.3-0.5-0.7-0.9-1.1-1.3c-0.5-0.6-1-1.1-1.6-1.6
	c-1.4-1.3-3-2.5-4.6-3.5c-2-1.2-4.2-2.3-6.4-3c-2.3-0.7-4.6-1.2-7-1.5c-1.9-0.2-3.9-0.2-5.8,0.1c-0.7,0.1-1.5,0.2-2.2,0.3
	c-0.6,0.1-1.1,0.2-1.6,0.4c-0.9,0.3-1.1,0.6-1.1,0.6c1.6-0.4,3.3-0.6,4.9-0.8c1.9-0.1,3.8-0.1,5.7,0.1c4.6,0.5,9.1,2,13.1,4.4
	c1.6,1,3.2,2.1,4.6,3.3C497,337.7,498.3,339.4,498.4,339.3z"/>
<path class="st6" d="M444.3,393.8l-131.8-0.6c-15.8-0.1-28.6-13-28.6-28.8c0,0,0,0,0,0l1.4-330.3c0.1-15.9,13-28.7,28.8-28.6
	c0,0,0,0,0,0L446,6.1c15.8,0.1,28.6,13,28.6,28.8l-1.4,330.3C473.1,381.1,460.2,393.9,444.3,393.8
	C444.3,393.8,444.3,393.8,444.3,393.8z"/>
<path class="st4" d="M445.8,17.5l-25.5-0.1c-3.5,0.1-6.3,2.9-6.2,6.4c0,0,0,0,0,0v4.6c0.1,3.5-2.7,6.4-6.2,6.5c0,0,0,0,0,0L358,34.7
	c-3.5-0.1-6.3-3-6.2-6.5l0-4.6c0.1-3.5-2.7-6.4-6.2-6.5h-9l-22.4-0.1c-11.1-0.1-20.1,8.9-20.2,20c0,0,0,0.1,0,0.1l-1.4,322.3
	c-0.1,11.1,8.9,20.1,20,20.2c0,0,0,0,0,0l131.5,0.6c11.1,0.1,20.1-8.9,20.2-20c0,0,0-0.1,0-0.1l1.4-322.4
	C465.9,26.5,456.9,17.5,445.8,17.5C445.8,17.5,445.8,17.5,445.8,17.5z"/>
<rect x="364.9" y="55.7" class="st8" width="33.9" height="6.2"/>
<path class="st8" d="M324.9,108.2c0.3,0,0.5,0,0.8,0.1c0.2-0.1,0.5-0.1,0.7-0.1H324.9z"/>
<path class="st4" d="M334.2,91.1c-0.6-0.9-1.4-1.6-2.2-2.2c-3.7-2.7-8.8-2.7-12.5,0c-0.9,0.6-1.6,1.4-2.3,2.2
	c-0.6,0.8-1.1,1.7-1.4,2.7c-1.3,3.4-0.7,7.2,1.5,10.1c0.1,0.2,0.3,0.3,0.4,0.5c0.9-2.9,3.4-5,6.4-5.3c-1.9-0.8-3.1-2.7-3.1-4.7
	c-0.2-2.6,1.8-4.9,4.5-5.1s4.9,1.8,5.1,4.5c0,0.2,0,0.4,0,0.7c0,2-1.2,3.9-3,4.7c3,0.4,5.4,2.4,6.3,5.3l0.4-0.5
	c2.2-2.9,2.7-6.7,1.5-10.1C335.3,92.8,334.8,91.9,334.2,91.1z"/>
<path class="st8" d="M336.2,93.6c-0.3-1-0.9-2-1.5-2.8c-0.7-0.9-1.5-1.7-2.4-2.4c-4-2.9-9.4-2.9-13.3,0c-0.9,0.7-1.7,1.5-2.4,2.4
	c-0.7,0.9-1.2,1.8-1.5,2.8c-0.7,1.9-0.8,3.9-0.4,5.9c0.3,1.7,1.1,3.3,2.1,4.7c1.5,2,3.7,3.4,6.2,4c0.7,0.2,1.3,0.2,2,0.2
	c0.2,0,0.5,0,0.7,0c-0.3-0.1-0.5-0.1-0.8-0.1h1.5c-0.3,0-0.5,0-0.7,0.1c0.2,0,0.5,0,0.7,0c0.7,0,1.3-0.1,2-0.2c2.5-0.6,4.6-2,6.2-4
	c1.1-1.4,1.8-3,2.1-4.7C337.1,97.5,336.9,95.5,336.2,93.6z M336.1,99.4c-0.3,1.7-1,3.2-2,4.5l-0.4,0.5c-0.9-2.9-3.3-4.9-6.3-5.3
	c1.9-0.8,3.1-2.7,3-4.7c0.2-2.6-1.8-4.9-4.5-5.1s-4.9,1.8-5.1,4.5c0,0.2,0,0.4,0,0.7c0,2,1.2,3.9,3.1,4.7c-3,0.4-5.5,2.4-6.4,5.3
	c-0.1-0.2-0.3-0.3-0.4-0.5c-2.2-2.9-2.7-6.7-1.5-10.1c0.3-1,0.8-1.9,1.4-2.7c0.6-0.9,1.4-1.6,2.3-2.2c3.7-2.7,8.8-2.7,12.5,0
	c0.9,0.6,1.6,1.4,2.2,2.2c0.6,0.8,1.1,1.7,1.5,2.7C336.3,95.6,336.4,97.5,336.1,99.4z"/>
<path class="st8" d="M453.3,118.1c0,0,0.3,0,1-0.1c0.9-0.2,1.8-0.7,2.5-1.3c1.1-1.1,1.7-2.6,1.6-4.2c0-1.9,0-4,0-6.5
	c0-4.9,0-10.8-0.1-17.7c0-1.7,0-3.5,0-5.4c0.1-1.9-0.9-3.6-2.5-4.6c-1.6-1-3.8-0.6-5.8-0.7h-6.4l-135.9,0.1c-1.6,0-3,0.8-4,2
	c-0.4,0.6-0.7,1.4-0.8,2.1c-0.1,0.8-0.1,1.6-0.1,2.4v28.8c0.1,1.5,0.8,2.8,2,3.7c0.6,0.4,1.3,0.7,2,0.8c0.7,0.1,1.5,0.1,2.2,0.1H336
	l61.1,0.1l41.2,0.1l11.2,0.1h2.9c0.7,0,1,0,1,0h-1h-2.9l-11.2,0.1l-41.2,0.1l-61.1,0.1h-26.8c-0.8,0-1.6,0-2.4-0.1
	c-2.5-0.5-4.4-2.6-4.5-5.2c0-6.3,0-12.6,0-19.1v-9.8c0-0.8,0-1.6,0-2.5c0.1-0.9,0.5-1.7,1-2.4c1-1.5,2.7-2.4,4.5-2.4L443.7,77h9.5
	c1,0,2.1,0.2,3,0.8c1.7,1,2.8,2.9,2.7,5c0,1.8,0,3.6,0,5.4c0,6.9,0,12.8-0.1,17.7c0,2.4,0,4.6,0,6.5c0.1,1.6-0.5,3.2-1.7,4.3
	c-0.7,0.7-1.6,1.1-2.6,1.3C454.1,118,453.7,118.1,453.3,118.1z"/>
<rect x="346.8" y="88" class="st8" width="38.4" height="2.9"/>
<rect x="346.8" y="104.3" class="st8" width="67.2" height="2.9"/>
<rect x="346.8" y="95.9" class="st8" width="97.4" height="2.9"/>
<path class="st8" d="M324.9,210c0.5,0.1,0.8,0.1,0.8,0.1c0.2-0.1,0.5-0.1,0.7-0.1L324.9,210z"/>
<path class="st4" d="M334.2,192.9c-0.6-0.9-1.4-1.6-2.2-2.2c-3.7-2.7-8.8-2.7-12.5,0c-1.7,1.2-3,2.9-3.7,4.9
	c-1.3,3.4-0.7,7.2,1.5,10.1l0.4,0.5c0.9-2.9,3.4-5,6.4-5.3c-1.9-0.8-3.1-2.7-3.1-4.7c-0.2-2.6,1.8-4.9,4.5-5.1
	c2.6-0.2,4.9,1.8,5.1,4.5c0,0.2,0,0.4,0,0.7c0,2-1.2,3.9-3,4.7c3,0.4,5.4,2.4,6.3,5.3l0.4-0.5c2.2-2.9,2.7-6.7,1.5-10.1
	C335.3,194.6,334.8,193.7,334.2,192.9z"/>
<path class="st8" d="M336.2,195.4c-0.3-1-0.9-2-1.5-2.9c-0.7-0.9-1.5-1.7-2.4-2.4c-4-2.9-9.4-2.9-13.3,0c-1.8,1.3-3.1,3.1-3.9,5.2
	c-0.7,1.9-0.8,3.9-0.4,5.9c0.3,1.7,1.1,3.3,2.1,4.7c1.5,2,3.7,3.4,6.2,3.9c0.7,0.2,1.3,0.2,2,0.2c0.2,0,0.5,0,0.7,0
	c0,0-0.3,0-0.8-0.1h1.5c-0.3,0-0.5,0-0.7,0.1c0.2,0,0.5,0,0.7,0c0.7,0,1.3-0.1,2-0.2c2.4-0.6,4.6-2,6.2-3.9c1.1-1.4,1.8-3,2.1-4.7
	C337.1,199.3,336.9,197.3,336.2,195.4z M336.1,201.2c-0.3,1.6-1,3.2-1.9,4.5l-0.4,0.5c-0.9-2.9-3.3-4.9-6.3-5.3
	c1.9-0.8,3.1-2.7,3-4.7c0.2-2.6-1.8-4.9-4.5-5.1c-2.6-0.2-4.9,1.8-5.1,4.5c0,0.2,0,0.4,0,0.7c0,2,1.2,3.9,3.1,4.7
	c-3,0.3-5.5,2.4-6.4,5.3l-0.4-0.5c-2.2-2.9-2.7-6.7-1.5-10.1c0.7-2,2-3.7,3.7-4.9c3.7-2.7,8.8-2.7,12.5,0c0.9,0.6,1.6,1.4,2.2,2.2
	c0.6,0.8,1.1,1.7,1.5,2.7C336.3,197.4,336.5,199.3,336.1,201.2L336.1,201.2z"/>
<path class="st8" d="M453.3,219.9c0,0,0.3,0,1-0.1c0.9-0.2,1.8-0.7,2.5-1.3c1.1-1.1,1.7-2.7,1.6-4.2c0-1.9,0-4,0-6.5
	c0-4.9,0-10.8-0.1-17.7c0-1.7,0-3.5,0-5.4c0.1-1.9-0.9-3.6-2.5-4.6c-1.6-1-3.8-0.6-5.8-0.7h-6.4l-135.9,0.1c-1.6,0-3,0.8-4,2
	c-0.5,0.6-0.7,1.4-0.8,2.1c-0.1,0.8-0.1,1.6-0.1,2.4V215c0.1,1.5,0.8,2.8,2,3.7c0.6,0.4,1.3,0.7,2,0.8c0.7,0.1,1.5,0.1,2.2,0.1H336
	l61.1,0.1l41.2,0.1h11.2h2.9c0.7,0,1,0,1,0s-0.3,0-1,0h-2.9l-11.2,0.1l-41.2,0.1L336,220h-26.8c-0.8,0-1.6,0-2.4-0.1
	c-2.5-0.4-4.3-2.5-4.5-5c0-6.3,0-12.6,0-19.1v-9.8c0-0.8,0-1.6,0-2.5c0.1-0.9,0.4-1.7,1-2.4c1-1.5,2.7-2.4,4.5-2.4l135.9,0.1h9.5
	c3-0.1,5.5,2.2,5.6,5.2c0,0.2,0,0.3,0,0.5c0,1.8,0,3.6,0,5.4c0,6.9,0,12.9-0.1,17.7c0,2.4,0,4.6,0,6.5c0.1,1.6-0.5,3.2-1.7,4.3
	c-0.7,0.7-1.6,1.1-2.6,1.3C454.1,219.9,453.7,219.9,453.3,219.9z"/>
<rect x="346.8" y="189.8" class="st8" width="38.4" height="2.9"/>
<rect x="346.8" y="206.1" class="st8" width="67.2" height="2.9"/>
<rect x="346.8" y="197.8" class="st8" width="97.4" height="2.9"/>
<path class="st9" d="M303,163.1l0.1-31.4c0-2.6,2.1-4.6,4.7-4.6l146.6,0.4c2.6,0,4.6,2.1,4.6,4.7l-0.1,31.4c0,2.6-2.1,4.6-4.7,4.6
	l-146.6-0.4C305,167.7,303,165.7,303,163.1z"/>
<rect x="364.9" y="120" transform="matrix(2.792512e-03 -1 1 2.792512e-03 226.0767 505.1707)" class="st4" width="2.9" height="38.4"/>
<rect x="379.3" y="121.9" transform="matrix(2.792512e-03 -1 1 2.792512e-03 224.1197 535.8024)" class="st4" width="2.9" height="67.2"/>
<rect x="394.4" y="98.5" transform="matrix(2.792512e-03 -1 1 2.792512e-03 247.4749 542.6724)" class="st4" width="2.9" height="97.4"/>
<path class="st4" d="M327.9,148.7c1.9-0.9,3-2.8,3-4.8c0.1-2.7-1.9-4.9-4.6-5.1c-2.7-0.1-4.9,1.9-5.1,4.6c0,0.2,0,0.4,0,0.7
	c0,2.1,1.2,3.9,3.2,4.7c-3.1,0.4-5.6,2.7-6.4,5.7c1.8,1.9,4.2,3.1,6.7,3.4h3c2.6-0.4,5-1.7,6.7-3.8C333.6,151.2,331,149,327.9,148.7
	z"/>
<path class="st4" d="M326.3,158c0-0.1,1,0,2.6-0.5c5.7-1.6,9-7.5,7.4-13.2c-0.1-0.3-0.2-0.6-0.3-1c-0.4-1-0.9-1.8-1.5-2.6
	c-0.6-0.8-1.4-1.6-2.3-2.2c-3.8-2.7-8.9-2.5-12.5,0.3c-0.9,0.6-1.6,1.4-2.2,2.3c-0.6,0.8-1.1,1.7-1.4,2.7
	c-1.9,5.6,1.1,11.8,6.8,13.7c0.3,0.1,0.6,0.2,0.9,0.3C325.4,158,326.3,157.9,326.3,158c-0.9,0.1-1.8,0.1-2.6-0.1
	c-2.5-0.5-4.7-1.9-6.2-3.8c-1.1-1.3-1.9-2.9-2.2-4.6c-0.4-2-0.3-4,0.3-5.9c0.7-2.1,2-3.9,3.8-5.3c3.9-3,9.3-3.1,13.3-0.3
	c0.9,0.7,1.7,1.5,2.4,2.4c0.7,0.8,1.2,1.8,1.6,2.8c0.7,1.9,0.9,3.9,0.6,5.9c-0.7,4.3-3.9,7.7-8.1,8.8
	C328.1,158,327.2,158.1,326.3,158z"/>
<path class="st8" d="M371.4,349.2c-0.2,1.5-1.6,2.5-3.1,2.3c-1.2-0.2-2.1-1.1-2.3-2.3c0.2-1.5,1.6-2.5,3.1-2.3
	C370.3,347.1,371.2,348,371.4,349.2z"/>
<path class="st8" d="M379.8,349.3c0.2,1.5-0.8,2.9-2.3,3.1c-1.5,0.2-2.9-0.8-3.1-2.3c-0.2-1.5,0.8-2.9,2.3-3.1c0.1,0,0.3,0,0.4,0
	C378.5,346.8,379.7,347.9,379.8,349.3z"/>
<path class="st8" d="M388.2,349.3c0.2,1.5-0.8,2.9-2.3,3.1c-1.5,0.2-2.9-0.8-3.1-2.3c-0.2-1.5,0.8-2.9,2.3-3.1c0.1,0,0.3,0,0.4,0
	C386.9,346.9,388.1,347.9,388.2,349.3z"/>
<path class="st8" d="M324.9,262.8c0.5,0.1,0.8,0.1,0.8,0.1s0.3,0,0.7-0.1L324.9,262.8z"/>
<path class="st4" d="M334.2,245.7c-0.6-0.9-1.4-1.6-2.2-2.2c-3.7-2.7-8.8-2.7-12.5,0c-0.9,0.6-1.6,1.4-2.3,2.2
	c-0.6,0.8-1.1,1.7-1.4,2.7c-1.3,3.4-0.7,7.2,1.5,10.1c0.1,0.2,0.3,0.3,0.4,0.5c0.9-2.9,3.4-5,6.4-5.3c-1.9-0.8-3.1-2.7-3.1-4.8
	c-0.2-2.6,1.8-4.9,4.5-5.1c2.6-0.2,4.9,1.8,5.1,4.5c0,0.2,0,0.4,0,0.7c0,2-1.2,3.9-3,4.7c3,0.4,5.4,2.4,6.3,5.3l0.4-0.5
	c2.2-2.9,2.7-6.7,1.5-10.1C335.3,247.4,334.8,246.5,334.2,245.7z"/>
<path class="st8" d="M336.2,248.2c-0.3-1-0.9-2-1.5-2.9c-0.7-0.9-1.5-1.7-2.4-2.4c-4-2.9-9.4-2.9-13.3,0c-1.8,1.3-3.1,3.1-3.9,5.2
	c-0.7,1.9-0.8,3.9-0.4,5.9c0.3,1.7,1.1,3.3,2.1,4.7c1.5,2,3.7,3.4,6.2,3.9c0.7,0.2,1.3,0.2,2,0.2c0.2,0,0.5,0,0.7,0
	c0,0-0.3,0-0.8-0.1h1.5c-0.5,0.1-0.7,0.1-0.7,0.1c0.2,0,0.5,0,0.7,0c0.7,0,1.3-0.1,2-0.2c2.4-0.6,4.6-2,6.2-3.9
	c1.1-1.4,1.8-3,2.1-4.7C337.1,252.1,336.9,250.1,336.2,248.2z M336.1,253.9c-0.3,1.6-1,3.2-1.9,4.5l-0.4,0.5
	c-0.9-2.9-3.3-4.9-6.3-5.3c1.9-0.8,3.1-2.7,3-4.7c0.2-2.6-1.8-4.9-4.5-5.1c-2.6-0.2-4.9,1.8-5.1,4.5c0,0.2,0,0.4,0,0.7
	c0,2.1,1.2,4,3.1,4.8c-3,0.3-5.5,2.4-6.4,5.3c-0.1-0.2-0.3-0.3-0.4-0.5c-2.2-2.9-2.7-6.7-1.5-10.1c0.3-1,0.8-1.9,1.4-2.7
	c0.6-0.9,1.4-1.6,2.3-2.2c3.7-2.7,8.8-2.7,12.5,0c0.9,0.6,1.6,1.4,2.2,2.2c0.6,0.8,1.1,1.7,1.5,2.7
	C336.3,250.2,336.5,252.1,336.1,253.9z"/>
<path class="st8" d="M453.3,272.7c0,0,0.3,0,1-0.1c0.9-0.2,1.8-0.7,2.5-1.3c1.1-1.1,1.7-2.7,1.6-4.2c0-1.9,0-4,0-6.5
	c0-4.9,0-10.8-0.1-17.7c0-1.7,0-3.5,0-5.4c0.1-1.9-0.9-3.6-2.5-4.6c-1.6-1-3.8-0.6-5.8-0.7h-6.4l-135.9,0.1c-1.6,0-3.1,0.8-4,2
	c-0.5,0.6-0.7,1.4-0.8,2.1c-0.1,0.8-0.1,1.6-0.1,2.4v28.9c0.1,1.5,0.8,2.9,2,3.7c0.6,0.4,1.3,0.7,2,0.8c0.7,0.1,1.5,0.1,2.2,0.1H336
	l61.1,0.1l41.2,0.1l11.2,0.1h2.9C453,272.7,453.3,272.7,453.3,272.7l-1-0.1h-2.9h-11.2l-41.2,0.1l-61.1,0.1h-26.8
	c-0.8,0-1.6,0-2.4-0.1c-0.8-0.1-1.6-0.5-2.3-0.9c-1.4-1-2.2-2.5-2.3-4.2c0-6.3,0-12.7,0-19.1v-9.8c0-0.8,0-1.6,0-2.5
	c0.1-0.9,0.4-1.7,1-2.4c1-1.5,2.7-2.3,4.5-2.4l135.9,0.1h9.5c1,0,2.1,0.2,3,0.8c1.7,1,2.8,3,2.7,5c0,1.8,0,3.6,0,5.4
	c0,6.9,0,12.8-0.1,17.7c0,2.4,0,4.6,0,6.5c0.1,1.6-0.5,3.2-1.7,4.3c-0.7,0.7-1.6,1.1-2.6,1.3C454.1,272.6,453.7,272.7,453.3,272.7z"
	/>
<rect x="346.8" y="242.6" class="st8" width="38.4" height="2.9"/>
<rect x="346.8" y="258.9" class="st8" width="67.2" height="2.9"/>
<rect x="346.8" y="250.6" class="st8" width="97.4" height="2.9"/>
<path class="st8" d="M324.9,314.5c0.5,0.1,0.8,0.1,0.8,0.1s0.3-0.1,0.7-0.1L324.9,314.5z"/>
<path class="st4" d="M334.2,297.4c-0.6-0.9-1.4-1.6-2.2-2.2c-3.7-2.7-8.8-2.7-12.5,0c-0.9,0.6-1.6,1.4-2.3,2.2
	c-0.6,0.8-1.1,1.7-1.4,2.7c-1.3,3.4-0.7,7.2,1.5,10.1c0.1,0.2,0.3,0.3,0.4,0.5c0.9-2.9,3.4-5,6.4-5.3c-1.9-0.8-3.1-2.7-3.1-4.7
	c-0.2-2.6,1.8-4.9,4.5-5.1c2.6-0.2,4.9,1.8,5.1,4.5c0,0.2,0,0.4,0,0.7c0,2-1.2,3.9-3,4.7c3,0.3,5.4,2.4,6.3,5.3
	c0.1-0.2,0.3-0.3,0.4-0.5c1-1.3,1.7-2.9,1.9-4.5c0.3-1.9,0.2-3.8-0.5-5.6C335.3,299.2,334.8,298.3,334.2,297.4z"/>
<path class="st8" d="M336.2,299.9c-0.3-1-0.9-2-1.5-2.8c-0.7-0.9-1.5-1.7-2.4-2.4c-4-2.9-9.3-2.9-13.3,0c-0.9,0.7-1.7,1.5-2.4,2.4
	c-0.7,0.9-1.2,1.8-1.5,2.8c-0.7,1.9-0.8,3.9-0.4,5.9c0.3,1.7,1.1,3.3,2.1,4.7c1.5,2,3.7,3.4,6.2,4c0.7,0.2,1.3,0.2,2,0.2
	c0.2,0,0.5,0,0.7,0c0,0-0.3-0.1-0.8-0.1h1.5c-0.5,0-0.7,0-0.7,0.1c0.2,0,0.5,0,0.7,0c0.7,0,1.3-0.1,2-0.2c4.2-1,7.4-4.4,8.3-8.6
	C337.1,303.9,336.9,301.8,336.2,299.9z M336.1,305.7c-0.3,1.6-1,3.2-1.9,4.5c-0.1,0.2-0.3,0.3-0.4,0.5c-0.8-2.9-3.3-4.9-6.3-5.3
	c1.9-0.8,3.1-2.7,3-4.7c0.2-2.6-1.8-4.9-4.5-5.1s-4.9,1.8-5.1,4.5c0,0.2,0,0.4,0,0.7c0,2,1.2,3.9,3.1,4.7c-3,0.3-5.5,2.4-6.4,5.3
	c-0.1-0.2-0.3-0.3-0.4-0.5c-2.2-2.9-2.7-6.7-1.5-10.1c0.3-1,0.8-1.9,1.4-2.7c0.6-0.9,1.4-1.6,2.3-2.2c3.7-2.7,8.8-2.7,12.5,0
	c1.7,1.2,3,3,3.7,4.9C336.3,301.9,336.5,303.8,336.1,305.7z"/>
<path class="st8" d="M453.3,324.5c0,0,0.3,0,1-0.1c2.6-0.6,4.3-2.9,4.1-5.6c0-1.9,0-4,0-6.5c0-4.9,0-10.8-0.1-17.7
	c0-1.7,0-3.5,0-5.4c0.1-1.9-0.9-3.7-2.5-4.6c-1.6-1-3.8-0.6-5.8-0.7h-6.4l-135.9,0.1c-1.6,0-3,0.8-4,2.1c-0.5,0.6-0.7,1.4-0.8,2.1
	c-0.1,0.8-0.1,1.6-0.1,2.4v28.9c0.1,1.5,0.8,2.8,2,3.7c0.6,0.4,1.3,0.7,2,0.9c0.7,0.1,1.5,0.1,2.2,0.1h26.8l61.1,0.1l41.2,0.1
	l11.2,0.1h2.9L453.3,324.5c-0.1-0.1-0.4-0.1-1.1-0.1h-2.9l-11.2,0.1l-41.2,0.1l-61.1,0.1h-26.7c-0.8,0-1.6,0-2.4-0.1
	c-0.8-0.1-1.6-0.5-2.3-1c-1.4-1-2.2-2.5-2.3-4.2c0-6.3,0-12.6,0-19.1v-9.8c0-0.8,0-1.6,0-2.5c0.1-0.9,0.4-1.7,1-2.4
	c1-1.5,2.7-2.4,4.5-2.4l135.9,0.1h9.5c1,0,2.1,0.2,3,0.8c1.7,1,2.8,3,2.7,5c0,1.8,0,3.6,0,5.4c0,6.9,0,12.8-0.1,17.7
	c0,2.4,0,4.6,0,6.5c0.1,1.6-0.5,3.2-1.7,4.3c-0.7,0.7-1.6,1.1-2.6,1.3C454.1,324.4,453.7,324.5,453.3,324.5z"/>
<rect x="346.8" y="294.4" class="st8" width="38.4" height="2.9"/>
<rect x="346.8" y="310.6" class="st8" width="67.2" height="2.9"/>
<rect x="346.8" y="302.3" class="st8" width="97.4" height="2.9"/>
<circle class="st6" cx="453.8" cy="130.4" r="7.9"/>
<polyline class="st10" points="449.9,129.8 453.3,132.7 457.7,128.1 "/>
<polygon class="st11" points="235.7,480.8 233.8,491.9 251.1,493.2 251.1,482.2 "/>
<path class="st6" d="M243.5,480.9c0,3.4-0.4,6.8-1.2,10.2c-0.1-1.7,0-3.4,0.3-5.1C242.8,484.2,243.1,482.6,243.5,480.9z"/>
<path class="st6" d="M251.1,492c-0.8,0-1.7,0-2.5-0.2l-6-0.7c-2.4-0.3-4.5-0.6-6-0.8c-0.8-0.1-1.7-0.3-2.4-0.5c0.8,0,1.7,0,2.5,0.2
	l6,0.7c2.4,0.3,4.5,0.6,6,0.8C249.5,491.5,250.3,491.7,251.1,492z"/>
<path class="st11" d="M298,486.9v-10l-18.8-0.2l-0.2,14.7l1.2,0.1c5.2,0.3,26.4,1.3,29.9,0.3C313.9,490.6,298,486.9,298,486.9z"/>
<g class="st12">
	<path d="M285.9,491.2c-0.3-1.6-1.1-3-2.4-4c-1.2-1-2.8-1.5-4.4-1.4v5.3L285.9,491.2z"/>
</g>
<g class="st12">
	<path d="M305.8,489c0,0,5.6,1.7,4.9,2.6c-0.7,0.9-22.2,0.7-31.6-0.2v-0.4l25,0.5C304.1,491.4,304.7,489.1,305.8,489z"/>
</g>
<path class="st6" d="M278.8,490.9h0.3l0.9,0.1l3.4,0.2c2.9,0.1,6.9,0.3,11.3,0.3c4.4,0,8.4,0,11.3-0.1l3.4-0.1h0.9
	c0.1,0,0.2,0,0.3,0h-1.3H306c-2.9,0-6.9,0-11.3,0c-4.4,0-8.4-0.2-11.3-0.2l-3.4-0.1h-0.9L278.8,490.9z"/>
<path class="st6" d="M304.1,491.7c0.2-0.6,0.4-1.1,0.7-1.6c0.3-0.5,0.7-0.9,1.2-1.3c-0.6,0.2-1.1,0.6-1.4,1.2
	C304.2,490.4,304,491,304.1,491.7z"/>
<path class="st6" d="M298.6,488.8c0,0,0.3-0.3,0.6-0.7c0.2-0.2,0.3-0.5,0.4-0.8c0,0-0.3,0.3-0.6,0.7S298.5,488.7,298.6,488.8z"/>
<path class="st6" d="M297.1,488c0,0,0.3-0.2,0.7-0.4c0.3-0.3,0.6-0.6,0.5-0.6s-0.3,0.1-0.7,0.4C297.3,487.7,297,487.9,297.1,488z"/>
<path class="st6" d="M296.1,486.2c0.6,0.1,1.3,0.1,2,0c0-0.1-0.4-0.1-1-0.1C296.8,486,296.4,486.1,296.1,486.2z"/>
<path class="st6" d="M295.8,484.9c0.3,0.2,0.7,0.3,1.1,0.3c0.4,0.1,0.8,0,1.2-0.1c-0.4-0.1-0.7-0.1-1.1-0.1
	C296.6,485,296.2,484.9,295.8,484.9z"/>
<path class="st6" d="M299.2,487.2c0.4,0.1,0.8,0.1,1.2,0c0.4-0.1,0.9-0.1,1.3-0.3c0.3-0.1,0.5-0.2,0.7-0.3c0.1-0.1,0.3-0.2,0.3-0.4
	c0-0.2,0-0.4-0.2-0.5c-0.9-0.5-2.1-0.2-2.7,0.6c-0.2,0.2-0.3,0.5-0.4,0.8c0,0.2,0,0.3,0,0.3c0.1-0.4,0.3-0.7,0.6-1
	c0.3-0.3,0.6-0.5,1-0.7c0.5-0.2,1-0.1,1.4,0.1c0.2,0.1,0.1,0.4-0.1,0.5c-0.2,0.1-0.4,0.2-0.7,0.3c-0.4,0.1-0.8,0.2-1.3,0.3
	C299.7,487.1,299.2,487.1,299.2,487.2z"/>
<path class="st6" d="M299.5,487.2c0,0,0.2-0.3,0.2-0.8c0-0.3-0.2-0.6-0.3-0.9c-0.2-0.4-0.6-0.6-1-0.6c-0.3,0-0.4,0.3-0.4,0.6
	c0,0,0,0,0,0c0,0.2,0.1,0.4,0.2,0.5c0.2,0.3,0.3,0.5,0.6,0.7c0.2,0.2,0.4,0.4,0.7,0.5c0,0-0.2-0.2-0.6-0.6c-0.2-0.2-0.3-0.5-0.5-0.7
	c-0.2-0.3-0.3-0.7,0-0.8s0.6,0.3,0.8,0.5c0.2,0.2,0.3,0.5,0.3,0.8C299.5,486.7,299.6,486.9,299.5,487.2z"/>
<path class="st6" d="M279.2,485.7c0,0,0.5,0,1.4,0.1c1.1,0.1,2.1,0.6,3,1.3c0.9,0.7,1.5,1.6,1.9,2.7c0.1,0.4,0.3,0.9,0.3,1.3
	c0-0.1,0-0.3,0-0.4c0-0.3-0.1-0.7-0.2-1c-0.3-1.1-1-2.1-1.9-2.8c-0.9-0.7-2-1.2-3.1-1.3c-0.3,0-0.7,0-1,0
	C279.5,485.7,279.3,485.7,279.2,485.7z"/>
<path class="st6" d="M281.2,478c-0.1,1.3-0.2,2.6-0.2,3.9c-0.1,1.3-0.1,2.6,0,3.9c0.1-1.3,0.2-2.6,0.2-3.9
	C281.3,480.5,281.3,479.2,281.2,478z"/>
<path class="st6" d="M288.2,489.4c0.9,0.2,1.8,0.3,2.7,0.3c0.9,0.1,1.8,0,2.8-0.2c0-0.1-1.2,0-2.7,0S288.3,489.4,288.2,489.4z"/>
<path class="st6" d="M284.5,489.4c0,0,0.1,0.3,0.2,0.5s0.2,0.5,0.3,0.5s0.1-0.3,0-0.6S284.6,489.3,284.5,489.4z"/>
<path class="st6" d="M283.2,487.7c0,0,0.1,0.2,0.3,0.4c0.2,0.2,0.4,0.3,0.4,0.3c0,0-0.1-0.2-0.3-0.4S283.2,487.6,283.2,487.7z"/>
<path class="st6" d="M281.2,486.8c0,0.1,0.3,0.1,0.5,0.2c0.3,0.1,0.5,0.2,0.5,0.2s-0.1-0.3-0.4-0.4
	C281.5,486.7,281.2,486.8,281.2,486.8z"/>
<path class="st6" d="M279.8,486.4c0,0,0.1,0.2,0.2,0.2c0.2,0.1,0.3,0,0.3,0c0,0-0.1-0.2-0.2-0.2C280,486.4,279.8,486.4,279.8,486.4z
	"/>
<path class="st13" d="M269.5,181.9c0.1-2.9,0.5-6.3,0.5-6.3s7.3-0.8,7.7-8.3c0.4-7.5,0-24.8,0-24.8l-13.3-6.8l-14.6,11.5l2.2,37.6
	l13.4,0.9c2.1,0.1,3.9-1.6,4-3.7C269.5,182,269.5,182,269.5,181.9z"/>
<path class="st14" d="M270.8,161.4c0,0,0,0.1-0.1,0.3c-0.2,0.2-0.5,0.4-0.8,0.4c-0.9,0-1.7-1-2-2.1c-0.1-0.5-0.1-1.1,0-1.7
	c0-0.5,0.3-1,0.8-1.2c0.2-0.1,0.4-0.1,0.6,0c0.1,0.1,0.2,0.2,0.3,0.3c0.1,0.2,0,0.4,0,0.3s0-0.1-0.1-0.3c-0.1-0.2-0.4-0.3-0.6-0.1
	c-0.3,0.2-0.5,0.6-0.5,0.9c-0.1,0.5-0.1,1,0.1,1.5c0.3,1,1,1.9,1.6,1.9c0.3,0,0.5,0,0.7-0.2C270.8,161.5,270.8,161.4,270.8,161.4z"
	/>
<path class="st6" d="M270.8,166.1c0.1-0.3,0.2-0.6,0.2-0.9c0.1-0.3,0.1-0.4,0.2-0.6l0,0c0.1-0.6,0.2-1.2,0.2-1.9
	c-1.3,0.5-2.8,0.2-3.8-0.8c-1-1.1-1.3-2.6-0.9-3.9c0.6-1.5,1.9-2.7,3.4-3.2c1.5-0.6,3-0.9,4.5-1.6c3-1.4,5.2-4.5,6.6-7.6
	c1-2.2,1.8-4.7,1.1-7.1c-1-3.5-4.7-5.2-8-6.1c-5.1-1.4-10.6-2.1-15.6-0.2c-5,1.8-11,5.1-11,10.6c-2.9-0.2-4.6,2.4-5.8,5.5
	c-0.6,2-1,4-1.3,6"/>
<path class="st6" d="M251.6,177.2c-7.5-5.2-11.7-13.9-11.1-22.9c0.8-15.8,30.3,11.8,30.3,11.8s-5.7,18.6-18.6,11.1"/>
<path class="st11" d="M247.2,161.4c-0.1-0.1,0.5-0.6,1-1.8c1.3-2.9,0-6.3-2.8-7.6c-0.2-0.1-0.4-0.2-0.6-0.2c-1.2-0.4-2-0.4-2-0.5
	c0.7-0.2,1.4-0.2,2.1,0.1c1.7,0.5,3.1,1.7,3.9,3.3c0.7,1.6,0.6,3.5-0.2,5.1C248,161,247.3,161.5,247.2,161.4z"/>
<path class="st6" d="M241.1,151.7c-0.3,0-0.5,0-0.8-0.2c-0.7-0.3-1.2-0.8-1.6-1.5c-0.5-1-0.7-2.1-0.5-3.2c0.1-1.3,0.5-2.6,1.2-3.7
	c0.7-1.2,1.7-2.1,2.9-2.6c1-0.4,2.2-0.4,3.2,0c0.7,0.3,1.3,0.8,1.7,1.4c0.2,0.4,0.3,0.7,0.2,0.7c-0.5-0.8-1.2-1.4-2.1-1.7
	c-0.9-0.3-1.9-0.3-2.8,0.1c-1.1,0.5-2,1.3-2.6,2.4c-1.3,2.3-1.6,4.8-0.9,6.3C239.6,150.7,240.3,151.4,241.1,151.7z"/>
<path class="st13" d="M375.3,157.1c-0.5-0.5-1.8-0.3-1.8-0.3c0.1-0.8,0.1-1.5,0-2.3c-0.2-0.7-1.9-0.6-1.9-0.6
	c-0.1-0.6-0.1-1.3,0-1.9c0-0.3-0.1-0.5-0.4-0.7c-0.8-0.3-1.6-0.5-2.5-0.4c-1-0.7,3.1-6.5,4.6-8.3s1.3-3.3-0.1-3.3
	c-0.9,0-5.7,5.5-7.2,7.4c-1.5,1.9-5.4,7-5.5,2.9s-1.8-7.3-2.8-7.8c-1-0.5-2.2,0.7-1.6,1.9c0.5,1.3,0.8,2.7,0.9,4.1
	c0.1,1.1,0.1,2.2-0.2,3.3c-0.4,2-1,4-1.8,5.9l-0.1-0.1c0,0-28.8,27.6-30.9,29.5c-1.9,1.8-39.3-2.1-46.8-2.9
	c-2.6-0.4-5.1-0.5-7.7-0.5c-3.2,0.1-3.8,0.6-7.1,0.6c-7.7,0-15.5,0.7-23.1,1.9c-7.5,1.3-11.6,7.1-13.9,14.3
	c-7.6,23.6-28,79.2-31.1,110.6c-2.3,4.1-4.3,8.4-6.2,12.8c-2.1,5.8-1.6,6-0.9,6.1c1.9,0.4,4.1-10,4.9-7.5c0.8,2.5-4.2,12.4-2.1,12.7
	c2.6,0.4,4.7-10.5,5-11.4c0.2-0.9,1.6-0.6,1.3,0.2c-0.4,1.2-4.1,13.5-1.5,13.9c1.4,0.2,1.6-2.4,1.6-2.4s2.6-11.8,3.8-11.5
	s-0.1,7.2-0.7,9.5c-0.6,2.3,0.2,3.5,1.5,2.9c0.9-0.4,2.9-7.4,3.4-9.7c0.6-2.3,1.9-8.6,3.8-5s4.7,5.8,5.9,5.9c0.7,0,1.3-0.6,1.2-1.3
	c0-0.4-0.2-0.8-0.6-1c-1-1-1.9-2.1-2.6-3.3c-0.6-1-1-2-1.3-3.1c-0.5-2.2-0.8-4.4-0.9-6.7l-0.2-1.4c3-14.6,13-64.5,25.2-91.9
	l3.5,17.3l2.2,7.7l-13.4,33.2l57.3-0.8l-8.5-32.9l10.4-34.3l0,0c11.2,0.2,40.1,0.7,44.9-1.5c6-2.7,37.3-42.1,37.3-42.1l0,0
	c2.1-1.6,4-3.3,5.9-5.1C374.6,159.8,376.4,158.2,375.3,157.1z"/>
<path class="st15" d="M224.9,252c1.7-5.7,10.2-33.7,10.2-33.7s4.2,22.9,3.1,25.6c-1,2.4-2.2,4.6-3.6,6.8
	c-9.7,14.7-8.4,22.1-8.4,22.1l58.5-1.8c0.1-8.2-4.7-27.2-5.7-30.2c-1-3.1,2.4-13,2.4-13s6.6-6.7,6.4-10.2c-0.1-3.1-0.5-6.2-1.2-9.2
	l43.3,0.8l-4.8-23.5l-41.8-3.1l-13.9-1.3c-7,5.9-17.5,0-17.5,0c-13.3,1.3-15.3,3.4-20.7,8.9c-6.5,6.5-24.1,56-24.1,56L224.9,252z"/>
<path class="st6" d="M259.5,246.3c-1,0.2-2.1,0.2-3.1,0.2c-1.9,0-4.5-0.1-7.4-0.4c-2.9-0.3-5.5-0.7-7.4-1.1c-1-0.1-2-0.4-3-0.8
	c1,0,2.1,0.1,3.1,0.3c1.9,0.2,4.5,0.6,7.4,0.9s5.5,0.5,7.4,0.6C257.5,246,258.5,246.1,259.5,246.3z"/>
<path class="st6" d="M263.5,241.3c-1,0.5-2.1,0.9-3.2,1.1c-2.6,0.7-5.3,1.2-8,1.5c-2.7,0.3-5.4,0.5-8.1,0.4c-1.1,0-2.3-0.1-3.4-0.3
	c1.1-0.2,2.2-0.2,3.4-0.2c2.1-0.1,4.9-0.2,8.1-0.6c3.1-0.4,5.9-0.9,8-1.3C261.3,241.6,262.4,241.4,263.5,241.3z"/>
<path class="st6" d="M283.2,219.1c0,1-0.1,2-0.4,3c-0.3,1.8-0.9,4.3-1.5,7.1c-0.7,2.8-1.4,5.2-1.9,7c-0.2,1-0.6,1.9-1,2.8
	c0.1-1,0.3-2,0.6-3c0.5-2.1,1.1-4.4,1.7-7c0.6-2.6,1.2-5,1.7-7.1C282.5,221,282.8,220,283.2,219.1z"/>
<path class="st8" d="M225.8,273.2l58.5-1.8l25.4,99.4l-4.7,114h-31l3.9-111.5L255.3,304l3.4,181.9l-31.3,0.5l-3.2-170.8
	c-0.1-4.8-1.7-15.7-1.2-20.5L225.8,273.2z"/>
<path class="st6" d="M263.1,305.4c-1,0.1-1.9,0-2.9-0.2c-1.8-0.2-4.2-0.6-6.8-1.1c-2.6-0.5-5-1.2-6.7-1.6c-0.9-0.2-1.9-0.5-2.7-1
	c0-0.2,4.3,0.8,9.6,1.9C258.8,304.6,263.1,305.2,263.1,305.4z"/>
<path class="st6" d="M304.8,478.6c0,0.2-7,0.3-15.7,0.3c-8.6,0-14.8-0.3-14.8-0.5c0-0.2,6.2-0.2,14.8-0.2
	C297.8,478.2,304.8,478.4,304.8,478.6z"/>
<path class="st6" d="M258.3,478.9c0,0.2-6.8,0.3-15.2,0.3c-8.4,0-15.2-0.2-15.2-0.3c0-0.2,6.8-0.3,15.2-0.3
	C251.5,478.6,258.3,478.7,258.3,478.9z"/>
<path class="st6" d="M254.5,478.9c-0.2,0-1-39.3-1.8-87.9s-1.3-87.9-1.2-87.9c0.2,0,1.1,39.4,1.9,87.8
	C254.2,439.4,254.7,478.9,254.5,478.9z"/>
<path class="st6" d="M300.6,478.6c0-0.2,0-0.4,0-0.5c0-0.4,0-0.9,0-1.6c0-1.4,0.1-3.5,0.2-6.1c0.2-5.3,0.4-12.9,0.8-22.3
	c0.7-18.9,1.7-44.9,2.8-73.7c0-0.3,0-0.5,0-0.8v0.1c-6.9-27.8-13.2-52.8-17.7-71l-5.3-21.5c-0.6-2.5-1.1-4.5-1.4-5.9
	c-0.1-0.6-0.3-1.1-0.4-1.5c0-0.2-0.1-0.3-0.1-0.5c0.1,0.2,0.1,0.3,0.2,0.5c0.1,0.4,0.2,0.9,0.4,1.5c0.4,1.4,0.9,3.3,1.5,5.8
	c1.3,5.1,3.2,12.4,5.5,21.5c4.6,18.2,10.9,43.3,17.9,71v0.1c0,0.2,0,0.5,0,0.8c-1.2,28.8-2.2,54.8-3,73.7c-0.4,9.5-0.8,17-1,22.3
	c-0.1,2.6-0.2,4.6-0.3,6.1c0,0.7-0.1,1.2-0.1,1.6C300.7,478.2,300.6,478.4,300.6,478.6z"/>
<path class="st6" d="M290.5,371.3c-2.2,0.7-4.5,1.2-6.8,1.5c-2.8,0.5-5.3,0.8-6.4,0.9v-0.3c0.4,0.1,0.5,0.2,0.5,0.2c0,0-0.2,0-0.6,0
	h-0.8l0.8-0.2c1-0.3,3.5-0.8,6.3-1.3C285.8,371.6,288.2,371.3,290.5,371.3z"/>
<path class="st6" d="M289.9,375c-2.1,0.1-4.1,0-6.2-0.3c-2.1-0.1-4.1-0.3-6.1-0.7c2.1-0.3,4.1-0.3,6.2,0
	C285.9,374.1,287.9,374.5,289.9,375z"/>
<path class="st6" d="M225.5,275.3c1.4,2,3.4,2.7,5.8,3.1c2.4,0.3,4.7,0.2,7.1-0.1c15.1-1.7,31.1-3.2,45.9-6.8
	c-19.1,1.1-39.3,0.7-58.5,1.8c0,0-0.2,1.3-0.2,1.6"/>
<polygon class="st6" points="245.3,302.3 256,344.1 255.3,304 "/>
<path class="st6" d="M243.1,152.2c-4.2-1.1-8.5,3.3-8.6,7.6c0,1.2,0.1,2.6-0.7,3.5c-0.9,0.9-2.4,0.6-3.7,0.8c-2.8,0.3-5,2.4-5.3,5.2
	c-0.2,1.9,0.6,4-0.2,5.7c-0.8,1.7-2.7,2.5-3.9,3.8c-1.6,1.8-2.3,4.2-2.1,6.5c0.3,2.3,0.9,4.6,1.8,6.8c0.8,2,1.7,4.3,3.8,5h17.5
	l1.3-6.6l2.1,6.6h2.8l-1.5-42.8C246.3,154.3,246.3,153.1,243.1,152.2z"/>
<path class="st6" d="M219.2,172.7c0,0-0.2,0-0.5,0.1c-0.4,0.2-0.6,0.7-0.4,1.2c0.5,1,1.7,1.5,2.8,1c1-0.4,1.4-1.5,1.1-2.5
	c-0.2-0.6-0.6-1.1-1-1.6c-0.9-1.2-1.3-2.7-1.1-4.2c0.2-1.7,1.2-3.1,2.6-4c1.6-0.9,3.5-1,5.1-0.3c1.6,0.7,3,1.7,4.5,1.5
	c0.7,0,1.4-0.4,1.7-1c0.2-0.7,0.3-1.4,0.2-2.1c-0.2-2.7,0.8-5.4,2.8-7.4c1.3-1.3,3.1-2,5-1.9c0.5,0,1,0.1,1.4,0.2
	c0.2,0,0.3,0.1,0.5,0.2c-0.6-0.1-1.3-0.2-1.9-0.2c-1.8,0-3.5,0.8-4.7,2c-1.8,1.9-2.7,4.5-2.5,7.1c0.1,0.8,0,1.6-0.3,2.4
	c-0.4,0.8-1.3,1.3-2.2,1.4c-0.9,0.1-1.8-0.1-2.6-0.4c-0.8-0.3-1.5-0.8-2.3-1.1c-1.5-0.6-3.2-0.6-4.6,0.2c-1.3,0.7-2.2,2.1-2.4,3.5
	c-0.2,1.3,0.1,2.7,0.9,3.8c0.4,0.5,0.7,1.1,1,1.7c0.2,0.6,0.2,1.3-0.1,1.9c-0.2,0.5-0.7,0.9-1.2,1.2c-0.5,0.2-1,0.3-1.5,0.2
	c-0.8-0.2-1.5-0.8-1.7-1.6c-0.2-0.5,0.1-1.1,0.6-1.3C219,172.5,219.2,172.7,219.2,172.7z"/>
<path class="st6" d="M286.9,208c-0.4,0.1-0.9,0.1-1.3,0c-1.2-0.1-2.4-0.5-3.5-1c-1.7-0.8-3.2-1.9-4.4-3.3c-3.1-3.4-4.1-8.3-2.4-12.7
	c0.6-1.7,1.6-3.3,2.9-4.6c0.9-0.9,1.8-1.6,2.9-2.2c0.4-0.2,0.8-0.4,1.3-0.5c-1.4,0.8-2.7,1.8-3.9,3c-1.2,1.3-2.1,2.8-2.7,4.5
	c-1.6,4.1-0.7,8.8,2.2,12.1c1.2,1.3,2.6,2.5,4.1,3.3C283.6,207.3,285.2,207.8,286.9,208z"/>
</svg>
