<?xml version="1.0" encoding="utf-8"?>
<!-- Generator: Adobe Illustrator 21.0.0, SVG Export Plug-In . SVG Version: 6.00 Build 0)  -->
<svg version="1.1" id="Layer_1" xmlns="http://www.w3.org/2000/svg" xmlns:xlink="http://www.w3.org/1999/xlink" x="0px" y="0px"
	 viewBox="0 0 500 500" style="enable-background:new 0 0 500 500;" xml:space="preserve">
<style type="text/css">
	.st0{opacity:0.12;}
	.st1{fill:#95A6E5;}
	.st2{opacity:0.13;fill:#95A6E5;}
	.st3{fill:#FF5571;}
	.st4{fill:#FFBE9D;}
	.st5{fill:#263238;}
	.st6{fill:#FAFAFA;}
	.st7{fill:#394FE1;}
	.st8{fill:#E0E0E0;}
	.st9{fill:#EBEBEB;}
	.st10{fill:#455A64;}
	.st11{opacity:0.76;}
	.st12{opacity:0.4;enable-background:new    ;}
	.st13{opacity:0.6;}
	.st14{fill:#FFFFFF;}
	.st15{opacity:0.6;fill:#FFFFFF;enable-background:new    ;}
	.st16{fill:#EB996E;}
	.st17{fill:#FFDD98;}
	.st18{opacity:0.2;}
	.st19{fill:#F5F5F5;}
	.st20{opacity:0.78;}
	.st21{fill:#FDB500;}
	.st22{opacity:0.3;}
	.st23{opacity:0.19;}
	.st24{opacity:0.18;}
	.st25{opacity:0.13;}
</style>
<g>
	<g id="freepik--background-simple--inject-91_1_" class="st0">
		<path class="st1" d="M427.2,104.9L427.2,104.9c-15.8-25.7-42.1-43.5-72.1-47.5c-11.6-1.6-23.5-1.2-35,1.2
			c-34.3,7.3-64.1,32.8-76.4,65.6c-7.3,19.3-9.3,41.5-23.1,56.8c-18,19.9-48.4,20.5-75.3,19.7s-57.3-0.1-75.2,19.9
			c-11.2,12.5-14.8,30.3-13.9,47.1c2.4,44.4,33.7,84.1,73.6,103.8c39.9,19.7,86.8,21.5,130.4,12.8c61.1-12.2,119.2-45.6,154.1-97.1
			c33.2-49.1,42.9-115.3,19.5-169.5C432,113.3,429.8,109,427.2,104.9z"/>
	</g>
	<path class="st2" d="M304.6,290.7c2.4-17.8-10.2-32.6-25.9-41.4c-15.7-8.8-33.9-11.8-51.2-16.7c-16.3-4.6-32.6-11.4-44.7-23.3
		c-12.1-11.9-19.4-29.8-15-46.2c1.1-4.1,3-8.3,6.6-10.6c3.5-2.4,8.9-2.3,11.6,1c5.6,7.1-5.3,19.9,1.5,25.8c1.6,1.4,3.7,1.9,5.4,3.2
		c4.3,3.5,2.9,10.2,3.5,15.7c1.2,10.9,11.4,18.5,21.5,22.9c13.5,5.9,28,8.7,42.3,12.2c14.3,3.5,28.7,7.9,40.6,16.6
		c11.9,8.7,22.2,22.1,22.1,36.9c0,4.1-0.5,9.2-3.1,12.3c-2.6,3.2-5.9,3.9-9.6,2.1C306.5,299.4,303.9,296.7,304.6,290.7"/>
	<path class="st2" d="M228.7,148.9c-0.6-6.6,4.4-12.4,10-15.4s12-4.3,17.8-7.1c14.3-6.8,23.5-22.8,24.1-39.2s-6.4-32.8-17.6-44.9
		c-4.5-4.9-10.1-10-10.2-16.7c-0.1-7,6.6-12.5,13.4-12.4c6.8,0.1,13,4.6,17,10.3c4,5.7,6.3,12.4,8.4,19.1c-1.6-2.8,1.6-6.2,4.7-5.9
		c3.1,0.3,5.5,2.9,7.4,5.4c8.2,11.1,12.1,24.8,11.1,38.6c-1.1,13.5-7.2,26.1-17.2,35.4c-10.9,10-25.4,14.6-39.4,19.1l-29.2,9.2"/>
	<path class="st2" d="M220.6,9.9c-3.2,1.3-4.7,4.9-3.4,8.1c1.3,3.2,4.9,4.7,8.1,3.4c3.2-1.3,4.7-4.9,3.4-8.1
		c-1.2-2.8-4.2-4.4-7.1-3.7"/>
	<path class="st2" d="M256.7,436.6c-3.6-7.4-0.5-16.7,5.3-22.7c5.7-6,13.5-9.4,21-12.7c16.7-7.4,34.3-16.1,42.8-32.2
		c2.9-5.4,4.5-11.4,6.1-17.4c3.1-11.5,6-24.5-0.2-34.6c-1.8-2.9-4.5-5.5-7.9-6.1c-3.8-0.7-7.8,1.4-10.1,4.5c-2.2,3.2-3.6,7-3.9,10.9
		c-0.9,7.3-0.2,14.8-0.9,22.1c-0.8,7.3-3.4,15.2-9.5,19.3c-7.4,5.1-17.9,4-25.1,9.4c-5.8,4.4-8,12-12.5,17.7c-3.8,4.8-9.1,8-14,11.7
		s-9.6,8.2-11.3,14c-2.5,8.8,2.6,18,11.5,20.5c3.9,1.1,8,0.8,11.7-1"/>
	<path class="st2" d="M145.8,61.2c-10.2-7.6-12.4-22.1-4.8-32.3c1.5-2,3.3-3.8,5.4-5.2c3.4-2.3,7.4-3.8,10.5-6.6
		c2.7-2.5,4.4-6,7.5-8.1c4.9-3.5,11.7-2.3,15.1,2.6c2.1,2.9,2.6,6.6,1.3,10c-1.4,3.9-4.9,6.7-6.3,10.6c-1.6,4.2-0.6,8.9-1.1,13.2
		c-1.3,10-10.5,17-20.5,15.7c-1.3-0.2-2.7-0.5-3.9-1"/>
	<path class="st3" d="M146.2,37.5h13.6l0,0v28.1c0,3.3-2.7,6-6,6l0,0h-1.6c-3.3,0-6-2.7-6-6v0L146.2,37.5L146.2,37.5z"/>
	<polygon class="st4" points="146.2,37.5 153,25 159.8,37.5 	"/>
	<path class="st3" d="M150.3,30c0,0,2.1,3.1,5.4,0L153,25L150.3,30z"/>
	<path class="st5" d="M160,64.2c-2.3,0.3-4.6,0.4-6.9,0.3c-2.3,0.1-4.6,0-6.9-0.3c2.3-0.3,4.6-0.4,6.9-0.3
		C155.4,63.8,157.7,63.9,160,64.2z"/>
	<path class="st5" d="M159.8,62.1c-2.2,0.3-4.5,0.4-6.8,0.3c-2.3,0.1-4.5,0-6.8-0.3c2.2-0.3,4.5-0.4,6.8-0.3
		C155.3,61.7,157.6,61.8,159.8,62.1z"/>
	<path class="st6" d="M150.2,37.7c0.1,0,0.3,5.4,0.3,12.1S150.3,62,150.2,62c-0.1,0-0.3-5.4-0.3-12.2S150,37.7,150.2,37.7z"/>
	<path class="st6" d="M155.7,37.7c0.2,0,0.3,5.4,0.3,12.1S155.8,62,155.7,62s-0.3-5.4-0.3-12.2S155.5,37.7,155.7,37.7z"/>
	<polygon class="st7" points="264.4,421 326.3,423.7 327.8,427.3 287.2,493 214.1,490.9 	"/>
	<polygon class="st8" points="211.3,484.5 284.9,488.7 323.4,429 296.4,431.2 228,455.3 	"/>
	<path class="st9" d="M201,480.1l67.6,1.1c-2.8-8.6,3.8-20.8,12.9-24.9c6-2.7,17.4-6.2,23.2-9.2c11.1-5.7,21.2-16.5,20.3-25.8
		l-27.8-0.9l-35.4-1.4c-3,8.8-9.3,14.5-18.9,18c-8.6,3.1-18.4,3.1-26.8,6.6C202.4,449.3,195.9,467.7,201,480.1"/>
	<path class="st5" d="M201,480.1c0,0-0.1-0.1-0.2-0.4l-0.5-1.3c-0.2-0.7-0.4-1.5-0.6-2.2c-0.2-1-0.4-2-0.5-3.1
		c-0.2-2.9,0-5.8,0.5-8.6c0.8-3.8,2.3-7.4,4.3-10.7c0.6-0.9,1.2-1.9,1.9-2.7c0.4-0.4,0.7-0.9,1.1-1.3l1.3-1.3
		c0.4-0.4,0.9-0.8,1.4-1.2c0.5-0.4,0.9-0.8,1.5-1.2c1.1-0.7,2.2-1.4,3.3-2c4.7-2.4,10.3-3.3,16.1-4.4c2.9-0.5,5.9-1.1,8.9-1.9
		c3.1-0.8,6.1-2.1,8.9-3.6c1.5-0.8,2.8-1.7,4.2-2.7c1.3-1,2.6-2.2,3.7-3.5c2.3-2.7,4-5.7,5.1-9.1l0.1-0.2h0.2l29.5,1.1
		c10.2,0.4,20.8,0.7,31.7,1l2,0.1h0.2v0.2c0.1,2.1-0.2,4.2-0.9,6.2c-0.3,1-0.8,1.9-1.2,2.9c-0.5,0.9-1,1.8-1.6,2.7
		c-2.3,3.4-5.2,6.3-8.4,8.9c-3.1,2.5-6.5,4.6-10.1,6.2c-3.6,1.6-7.2,2.9-10.7,4.2s-7,2.5-10.3,4c-1.6,0.7-3.2,1.7-4.6,2.8
		c-0.7,0.5-1.3,1.2-2,1.7c-0.7,0.6-1.2,1.3-1.7,1.9c-2.2,2.6-3.8,5.6-4.7,8.9c-1,3.1-1,6.4-0.2,9.5l0.1,0.3h-0.3l-49.2-0.9
		l-13.6-0.3l-3.6-0.1L201,480.1c0,0,0.4,0,1.2,0h3.6l13.6,0.2l49.1,0.7l-0.2,0.3c-0.9-3.2-0.9-6.6,0.1-9.7c1-3.3,2.6-6.4,4.8-9.1
		c0.5-0.7,1.2-1.3,1.8-2c0.6-0.7,1.3-1.3,2-1.8c1.4-1.1,3-2.1,4.7-2.8c3.3-1.5,6.8-2.7,10.4-4c3.5-1.3,7.1-2.6,10.7-4.2
		c3.6-1.6,6.9-3.7,10-6.2c3.2-2.5,6-5.4,8.3-8.7c0.6-0.8,1.1-1.7,1.6-2.6c0.5-0.9,0.9-1.8,1.2-2.8c0.7-1.9,1-4,0.9-6l0.3,0.2l-2-0.1
		c-10.9-0.4-21.5-0.7-31.7-1.1l-29.5-1.1l0.3-0.2c-1.1,3.4-2.9,6.5-5.2,9.2c-1.1,1.3-2.4,2.5-3.8,3.5c-1.3,1-2.7,2-4.2,2.8
		c-2.9,1.6-5.9,2.8-9,3.6c-3,0.8-6.1,1.4-9,1.9c-5.8,1-11.4,2-16,4.3c-1.1,0.6-2.2,1.2-3.2,1.9c-0.5,0.4-1,0.8-1.4,1.1
		c-0.5,0.4-0.9,0.8-1.3,1.2l-1.3,1.3c-0.4,0.4-0.7,0.9-1.1,1.3c-0.7,0.8-1.4,1.7-1.9,2.7c-2.1,3.2-3.6,6.8-4.4,10.6
		c-0.6,2.8-0.8,5.7-0.6,8.5c0.1,1,0.2,2.1,0.4,3.1c0.1,0.8,0.3,1.5,0.5,2.2c0.2,0.6,0.3,1,0.4,1.3C200.9,480,201,480.1,201,480.1z"
		/>
	<path class="st5" d="M280.7,420.1c0,0,0.1-0.4,0.2-1.2c0.1-1.1-0.1-2.2-0.5-3.2c-0.6-1.5-1.7-2.7-3.2-3.4c-3.7-1.7-8-0.1-9.7,3.5
		c0,0.1-0.1,0.1-0.1,0.2c-0.7,1.5-0.9,3.1-0.7,4.7c0.2,1.1,0.5,2.1,1.1,3c0.4,0.7,0.7,1,0.7,1c-0.3-0.2-0.6-0.5-0.9-0.9
		c-0.7-0.9-1.2-2-1.4-3.1c-0.3-1.7-0.1-3.4,0.6-5c1.6-4,6.2-5.8,10.1-4.2c0.1,0.1,0.2,0.1,0.4,0.2c1.5,0.8,2.7,2.1,3.3,3.7
		c0.4,1.1,0.5,2.2,0.4,3.3c0,0.3-0.1,0.6-0.2,0.9C280.8,420,280.7,420.1,280.7,420.1z"/>
	<path class="st5" d="M291.3,420.1c-0.1,0,0.1-0.4,0.2-1.2c0.1-1.1-0.1-2.2-0.5-3.2c-0.6-1.5-1.7-2.7-3.2-3.4
		c-3.7-1.7-8-0.1-9.7,3.6c0,0.1-0.1,0.1-0.1,0.2c-0.7,1.5-0.9,3.1-0.6,4.7c0.2,1.1,0.5,2.1,1.1,3c0.4,0.7,0.7,1,0.7,1
		c-0.4-0.2-0.6-0.5-0.9-0.9c-0.7-0.9-1.1-2-1.4-3.1c-0.3-1.7-0.1-3.4,0.6-5c1.7-4,6.2-5.8,10.1-4.2c0.1,0,0.2,0.1,0.3,0.2
		c1.5,0.8,2.7,2.1,3.3,3.7c0.4,1.1,0.5,2.2,0.4,3.3c0,0.3-0.1,0.6-0.2,0.9C291.4,419.9,291.4,420,291.3,420.1z"/>
	<path class="st5" d="M299.3,420.6c0,0,0.1-0.4,0.1-1.2c0-1.1-0.2-2.2-0.7-3.2c-0.7-1.5-1.9-2.6-3.4-3.2c-1.8-0.7-3.9-0.7-5.7,0.1
		c-1.8,0.8-3.2,2.3-3.9,4.2c-0.6,1.5-0.7,3.2-0.4,4.7c0.2,1.1,0.7,2.1,1.3,3c0.5,0.6,0.8,0.9,0.8,1c-0.4-0.2-0.7-0.5-0.9-0.8
		c-0.7-0.9-1.3-1.9-1.5-3c-0.4-1.7-0.3-3.4,0.3-5c1.4-4,5.8-6.2,9.9-4.7c0.1,0,0.2,0.1,0.4,0.1c1.6,0.7,2.8,2,3.5,3.5
		c0.5,1,0.7,2.2,0.6,3.3c0,0.3-0.1,0.6-0.2,0.9C299.4,420.5,299.3,420.6,299.3,420.6z"/>
	<path class="st5" d="M308,421.1c0,0,0-0.4,0-1.2c0-1.1-0.3-2.2-0.9-3.1c-0.8-1.4-2-2.5-3.6-3.1c-3.8-1.3-8,0.8-9.3,4.6
		c0,0.1,0,0.1-0.1,0.2c-0.5,1.5-0.6,3.2-0.1,4.8c0.3,1.1,0.8,2,1.5,2.9c0.5,0.6,0.8,0.9,0.8,0.9c-0.4-0.2-0.7-0.5-1-0.8
		c-0.8-0.8-1.4-1.8-1.7-2.9c-0.5-1.6-0.5-3.4,0-5c0.6-2,2-3.7,3.9-4.7c1.9-1,4.1-1.1,6.1-0.4c1.6,0.6,2.9,1.8,3.7,3.3
		c0.5,1,0.8,2.2,0.7,3.3c0,0.3-0.1,0.6-0.1,0.9C308,421,308,421.1,308,421.1z"/>
	<path class="st5" d="M316.6,420.9c0,0,0-0.4,0-1.2c-0.1-1.1-0.4-2.2-1-3.1c-0.8-1.4-2.1-2.5-3.6-3c-3.9-1.2-7.9,1-9.1,4.8
		c0,0.1-0.1,0.2-0.1,0.3c-0.8,2.6-0.2,5.5,1.6,7.6c0.5,0.6,0.9,0.9,0.8,0.9c-0.4-0.2-0.7-0.4-1-0.7c-0.8-0.8-1.4-1.8-1.8-2.9
		c-0.6-1.6-0.6-3.4-0.1-5c0.5-2,1.9-3.8,3.8-4.8c1.9-1,4.1-1.2,6.1-0.6c1.6,0.6,3,1.7,3.8,3.2c0.6,1,0.9,2.2,0.8,3.3
		c0,0.3,0,0.6-0.1,0.9C316.7,420.8,316.7,420.9,316.6,420.9z"/>
	<path class="st5" d="M323.9,421.9c0,0,0-0.4,0-1.2c0-1.1-0.3-2.2-0.8-3.1c-0.8-1.4-2-2.5-3.5-3.1c-3.8-1.3-8,0.7-9.3,4.5
		c0,0.1-0.1,0.2-0.1,0.2c-0.9,2.6-0.4,5.5,1.3,7.7c0.5,0.6,0.8,0.9,0.8,0.9c-0.4-0.2-0.7-0.5-1-0.8c-0.8-0.8-1.3-1.8-1.7-2.9
		c-0.5-1.6-0.5-3.4,0.1-5c0.6-2,2.1-3.7,3.9-4.7c1.9-0.9,4.1-1.1,6.1-0.3c1.6,0.6,2.9,1.8,3.7,3.4c0.5,1,0.8,2.2,0.7,3.3
		c0,0.3-0.1,0.6-0.1,0.9C324,421.8,323.9,421.9,323.9,421.9z"/>
	<path class="st1" d="M355.8,195c-3.1-0.1-6.1,0-9.2,0.4c-19.1,2.5-33.3,18.7-33.2,38c0,6.1,0.8,12.2,2.4,18.1
		c5.3,18.9,7,35.5,6.4,43.7l17.8,9.6c0,0,8.3-11.9,16.2-17c8-5.1,34.5-18.8,45-32.8c6.8-9.1,8.1-27.7-8.1-43.9
		C383.2,201.1,369.9,195.4,355.8,195z"/>
	<polygon class="st10" points="313.6,315.8 329.7,324.5 319.3,337.8 308.5,332.9 	"/>
	<path class="st5" d="M314.4,316.3c-0.1-0.1,1.5-4.8,3.6-10.7c2.1-5.8,3.9-10.5,4.1-10.5s-1.5,4.8-3.6,10.7S314.6,316.4,314.4,316.3
		z"/>
	<path class="st5" d="M328.7,323.9c-0.1-0.1,2.4-4.6,5.6-10.1c3.2-5.5,6-9.8,6.1-9.8c0.1,0-2.4,4.6-5.6,10.1
		C331.6,319.5,328.8,323.9,328.7,323.9z"/>
	<g class="st11">
		<path class="st7" d="M361.1,195.5c-0.7,0-9.6,10.4-13.5,17.4c-13.2,23.6-13.8,46.6-17.4,73.4c-0.5,3.8-2.4,12.1-2.4,11.9
			c1.9,1.5,8.5,4.6,8.5,4.6s6.2-7.5,8.6-11.2c9.8-15,20.5-26.8,28.9-42.6s16.5-29.9,8.7-46.1C382.6,202.8,369.1,195.1,361.1,195.5z"
			/>
	</g>
	<path class="st5" d="M401.2,257.3c-0.1-0.2-0.2-0.3-0.2-0.5c-0.1-0.3-0.3-0.9-0.6-1.5c-0.8-1.9-1.9-3.6-3.1-5.2
		c-1.9-2.5-4.2-4.7-6.8-6.4c-3.4-2.2-7.2-3.7-11.2-4.2h-0.1l-0.1-0.1c-2.2-3-4.6-5.7-7.2-8.3c-2.9-2.8-6.2-5.1-9.8-6.8
		c-3.6-1.6-7.6-2.4-11.6-2.2c-3.6,0.1-7.2,1.3-10.2,3.4l-0.2,0.1l-0.1-0.1c-3-2.7-6.8-4.4-10.9-4.8c-3.1-0.4-6.3,0-9.2,1.2
		c-1.9,0.7-3.7,1.7-5.3,3c-0.6,0.4-1,0.8-1.2,1c-0.1,0.1-0.3,0.3-0.4,0.4c0.1-0.1,0.2-0.3,0.4-0.4c0.3-0.3,0.7-0.6,1.2-1.1
		c1.6-1.3,3.4-2.4,5.3-3.1c3-1.2,6.2-1.6,9.4-1.3c4.1,0.4,8,2.1,11.1,4.9h-0.3c3.1-2.1,6.7-3.4,10.4-3.5c4.1-0.2,8.1,0.6,11.9,2.2
		c3.7,1.7,7.1,4,10,6.9c2.7,2.6,5.1,5.4,7.2,8.4l-0.2-0.1c4.1,0.5,8,2,11.4,4.3c2.6,1.8,5,4,6.9,6.5c1.2,1.7,2.2,3.5,3,5.4
		c0.3,0.7,0.4,1.2,0.6,1.5C401.1,257,401.2,257.1,401.2,257.3z"/>
	<path class="st5" d="M368.1,280.8c-0.3-1.4-0.8-2.7-1.5-3.9c-0.9-1.4-2-2.5-3.4-3.3c-1.8-1.1-3.8-1.6-5.9-1.4H357V272
		c-0.9-5.4-4.5-9.9-9.5-12c-2.2-0.9-4.6-1.2-6.9-1.1c-2.2,0.2-4.3,0.8-6.2,1.8l-0.2,0.1l-0.1-0.1c-1.7-1.7-3.8-2.9-6.2-3.3
		c-1.8-0.4-3.7-0.3-5.5,0.2c-1.6,0.4-3.1,1.2-4.4,2.2c0,0,0.1-0.1,0.2-0.2s0.4-0.4,0.8-0.6c1-0.7,2.1-1.3,3.3-1.6
		c1.9-0.5,3.8-0.6,5.7-0.3c2.5,0.4,4.7,1.6,6.5,3.4l-0.3-0.1c2-1,4.1-1.7,6.4-1.8c2.4-0.2,4.9,0.2,7.2,1.1c2.7,1.1,5.1,3,6.8,5.3
		c1.6,2.1,2.6,4.5,3,7.1l-0.3-0.2c2.2-0.2,4.3,0.4,6.1,1.5c1.4,0.9,2.6,2.1,3.5,3.5c0.6,0.9,1,1.9,1.2,2.9c0.1,0.3,0.1,0.5,0.1,0.8
		C368,280.7,368.1,280.8,368.1,280.8z"/>
	<path class="st5" d="M326.6,328.7c0,0-0.2-0.2-0.6-0.4c-0.6-0.2-1.3-0.2-1.9,0.1c-0.5,0.1-0.9,0.2-1.4,0.3c-0.6,0-1.2-0.3-1.6-0.7
		c-0.9-0.9-1.2-2.2-2-3.1c-0.4-0.4-0.9-0.7-1.5-0.6c-0.6,0.1-1.1,0.2-1.7,0.3c-0.5,0.2-1.1,0.2-1.7,0.1c-1.2-0.3-2.1-1.3-2.4-2.5
		c-0.1-0.2-0.1-0.5,0-0.8c0,0,0,0.3,0.2,0.7c0.2,0.6,0.6,1.1,1.1,1.5c0.3,0.3,0.7,0.4,1.2,0.5c0.5,0.1,1,0,1.5-0.1
		c0.6-0.2,1.2-0.3,1.8-0.4c0.7,0,1.4,0.2,1.9,0.8c0.9,1.1,1.2,2.3,1.9,3.1c0.3,0.4,0.8,0.6,1.2,0.6c0.4,0,0.9-0.1,1.3-0.2
		c0.7-0.2,1.4-0.2,2.1,0.1C326.6,328.4,326.6,328.7,326.6,328.7z"/>
	<path class="st5" d="M328.5,326.1c-2.7-1.1-5.3-2.4-7.9-3.9c-2.6-1.3-5.2-2.8-7.6-4.4c2.7,1.1,5.3,2.4,7.9,3.9
		C323.5,323,326,324.5,328.5,326.1z"/>
	<path class="st5" d="M325.3,330.2c0,0-0.2,0.1-0.6,0.3c-0.2,0.1-0.4,0.2-0.7,0.4c-0.4,0.1-0.7,0.2-1.1,0.1c-1-0.1-1.9-0.4-2.7-1
		c-0.4-0.4-0.8-0.8-1-1.4c-0.2-0.5-0.4-1-0.8-1.5c-0.8-0.7-1.9-1-2.9-0.8c-0.9,0.1-1.9,0-2.8-0.3c-0.6-0.2-1.1-0.7-1.4-1.3
		c-0.2-0.4-0.1-0.7-0.1-0.7c0,0,0.1,0.2,0.3,0.6c0.3,0.5,0.8,0.9,1.4,1c0.9,0.2,1.8,0.3,2.6,0.1c1.2-0.2,2.4,0.2,3.3,1
		c0.4,0.5,0.7,1,0.9,1.6c0.2,0.5,0.5,0.9,0.9,1.2c0.7,0.6,1.5,0.9,2.4,1c0.6,0.1,1.2-0.1,1.7-0.3C325,330.1,325.3,330.1,325.3,330.2
		z"/>
	<g id="freepik--Character--inject-91_1_">
		<path class="st1" d="M203.7,226.7l27.9-4.1l-13.3-18.8l-7.1,0.4c-4.8,0.3-9,3.2-11,7.7l0,0c-1,2.4-1.3,5-0.8,7.5L203.7,226.7z"/>
		<path class="st12" d="M203.7,226.7l27.9-4.1l-13.3-18.8l-7.1,0.4c-4.8,0.3-9,3.2-11,7.7l0,0c-1,2.4-1.3,5-0.8,7.5L203.7,226.7z"/>
		<path class="st4" d="M323.3,257.6c0.3,0.8,0.6,1.7,0.9,2.9c0.3,1,0.4,2,0.3,3c0,1.2-0.3,2.5-0.6,3.7c-0.5,1.1,0.6,2.1,1.5,1.6
			s2.2-3.4,2.2-7.1c0-3.7,3.7,0.7,5.1,2.3c1.4,1.6,6,6.3,6.8,6.3c1.2-0.1,1.4-1.4-0.1-2.9c-1.4-1.6-5.4-6.5-4.6-7.2
			c0.9-0.7,7.9,7.5,7.9,7.5s1.2,2,2.2,1.2c1.9-1.4-6.3-9.6-7.1-10.3c-0.5-0.5,0.4-1.3,0.9-0.7c0.6,0.6,6.8,8.4,8.8,6.9
			c1.5-1.1-6.6-6.8-7-9.1c-0.4-2.3,5.7,5,7.1,3.9c0.5-0.4,0.8-0.8-3.3-4.4c-2-1.8-9.6-7.1-9.6-7.1L312,182.4l-17.7,10.1L323.3,257.6
			z"/>
		<path class="st4" d="M187.2,133.8l-25.5-30.5l0,0c-0.3-1.1-0.7-2.1-1.3-3c-1.2-2.5-3.4-4.3-6-5c-1.6-0.4-3.5-0.2-4.8-1.2
			c-0.6-0.5-0.9-1.1-1.5-1.6c-0.6-0.5-1.6-0.5-2,0.1c-0.2,0.5-0.2,1.1,0.1,1.5c1,2.3,2.5,4.2,4.4,5.7c-2.4,0.7-5.8,1.8-5.8,1.8
			s-5.4-5.9-8.2-5.8s2.2,5.2,2.2,5.2s-4.4-4.1-5.8-2.9c-1.4,1.2,2.1,4.2,2.1,4.2c-1.1-0.7-2.3-1.1-3.6-1c-1.3,0.2-2.3,1.7-1.7,2.8
			c0.3,0.4,0.7,0.7,1.1,0.9l6.8,3.8c1.1,0.7,2.3,1.2,3.6,1.3c3.5,0.1,6.1-2,9.5-1.9c0,0,19.3,40.5,21.2,42.6s44.3,4.9,44.3,4.9
			l24.5-21.1L187.2,133.8z"/>
		<path class="st1" d="M264,354.7L290,366l-14,32.5c-3-1.5-2-21-2-21l-17-6.6L264,354.7z"/>
		<g class="st13">
			<path class="st14" d="M276.9,366.9c0.5-0.6,1.3-0.7,1.9-0.3c0.6,0.5,0.7,1.3,0.3,1.9c-0.5,0.6-1.4,0.7-2,0.3
				c-0.6-0.5-0.6-1.4-0.1-2"/>
		</g>
		<path class="st15" d="M290,366l-2.7-1L275,396.6c0,0,0,1.7,1.1,2L290,366z"/>
		<path class="st5" d="M273.6,378c0.2,0.1,0.6-0.7,1.4-1.3s1.7-0.7,1.7-0.9c0-0.2-1-0.3-2,0.4C273.7,376.9,273.5,378,273.6,378z"/>
		<path class="st5" d="M273.6,382c0.1,0.1,0.7-0.5,1.6-0.7c0.9-0.3,1.7-0.1,1.7-0.3c0.1-0.2-0.8-0.7-1.9-0.3
			C273.9,381,273.4,381.9,273.6,382z"/>
		<path class="st5" d="M276.8,385.7c0.1-0.1-0.6-0.7-1.7-0.7c-1,0-1.7,0.6-1.6,0.8c0.1,0.1,0.8-0.1,1.6-0.1
			C276.1,385.6,276.8,385.9,276.8,385.7z"/>
		<path class="st5" d="M269.9,376.1c0.2,0,0.3-0.8,0.7-1.7c0.5-0.9,1-1.5,0.9-1.6c-0.1-0.1-1,0.3-1.5,1.3
			C269.6,375.1,269.8,376.1,269.9,376.1z"/>
		<path class="st5" d="M266.4,373.6c0.1,0,0.4-0.6,0.7-1.6c0.2-0.6,0.2-1.3,0.2-1.9c0-0.4,0-0.7-0.1-1.1c0-0.2-0.1-0.4-0.2-0.7
			c-0.1-0.3-0.5-0.5-0.8-0.4c-0.3,0.1-0.5,0.3-0.7,0.5c-0.1,0.2-0.1,0.4-0.2,0.7c-0.2,1-0.1,2.1,0.3,3.1c0.4,1.1,0.9,1.6,0.9,1.5
			s-0.3-0.6-0.5-1.6c-0.1-0.6-0.2-1.2-0.2-1.8c0-0.4,0-0.7,0.1-1.1c0.1-0.4,0.2-0.7,0.4-0.7c0.2,0,0.1,0,0.2,0.1
			c0.1,0.2,0.1,0.3,0.1,0.5c0.1,0.4,0.1,0.7,0.1,1.1c0,0.6,0,1.2-0.1,1.8C266.5,372.5,266.5,373.1,266.4,373.6z"/>
		<path class="st5" d="M266.7,373.5c0,0-0.4-0.6-1.4-1.1c-0.6-0.3-1.2-0.5-1.9-0.5c-0.4,0-0.7,0-1.1,0c-0.5,0-1,0.3-1.3,0.7
			c-0.1,0.3-0.1,0.6,0.2,0.9c0.2,0.2,0.3,0.3,0.5,0.4c0.3,0.2,0.7,0.4,1.1,0.5c0.6,0.2,1.3,0.2,2,0c1.1-0.3,1.6-0.9,1.6-0.9
			c-0.5,0.2-1.1,0.3-1.6,0.5c-0.6,0.1-1.2,0-1.7-0.1c-0.3-0.1-0.6-0.3-0.9-0.4c-0.3-0.2-0.5-0.4-0.5-0.6c0.2-0.2,0.5-0.4,0.8-0.3
			c0.4,0,0.7,0,1.1,0c0.6,0,1.2,0.2,1.8,0.4C266.1,373.2,266.7,373.6,266.7,373.5z"/>
		<path class="st1" d="M243.9,399.4l10.8,22.6l3.4,20.4c0.2,1.4,1.5,2.3,2.9,2.1c0.1,0,0.1,0,0.2,0l0,0c0.8-0.2,1.5-0.8,1.8-1.5
			c2-4.9,9.2-23,8.3-24.6c-1-1.9-9.8-24.6-9.8-24.6L243.9,399.4z"/>
		<path class="st15" d="M261.2,444.4l9.4-27.7l0.4,1c0.4,0.8,0.4,1.8,0.2,2.7c-0.7,2.4-2.7,8.9-8.2,22.5
			C262.7,443.6,262,444.2,261.2,444.4z"/>
		<g class="st13">
			<path class="st14" d="M262.6,411.4c-0.4,0.7-0.2,1.6,0.4,2c0.7,0.4,1.6,0.2,2-0.4c0.4-0.7,0.2-1.7-0.5-2.1
				c-0.8-0.4-1.7-0.1-2,0.7"/>
		</g>
		<path class="st5" d="M261.9,432c-1.7-1.1-3.9-1.2-5.7-0.2c0,0,0.2-0.4,0.7-0.7c0.7-0.4,1.4-0.6,2.2-0.6c0.8,0,1.5,0.3,2.2,0.7
			C261.8,431.7,261.9,432,261.9,432z"/>
		<path class="st5" d="M261.7,435.8c-0.8-0.1-1.6-0.1-2.5-0.1c-0.8,0.2-1.6,0.4-2.4,0.7c-0.1-0.1,0.8-1.1,2.3-1.3
			C260,435,261,435.2,261.7,435.8z"/>
		<path class="st5" d="M263.2,426.8c-1.3-0.2-2.5-0.3-3.8-0.4c-1.3,0.1-2.5,0.4-3.7,0.7C257.8,425.5,260.8,425.4,263.2,426.8
			L263.2,426.8z"/>
		<path class="st5" d="M260.4,419.6c0,0.2-1.5,0.2-3.2,0.9s-2.8,1.7-2.9,1.5c0.6-1,1.6-1.7,2.7-2
			C258.1,419.5,259.3,419.3,260.4,419.6z"/>
		<path class="st5" d="M257.4,412.9c-1.1,0.1-2.3,0.4-3.3,0.8c-1,0.6-1.9,1.3-2.7,2.1c-0.1,0,0.1-0.4,0.5-1c0.5-0.7,1.2-1.3,2-1.7
			c0.8-0.4,1.6-0.6,2.5-0.6C257.1,412.7,257.5,412.8,257.4,412.9z"/>
		<path class="st5" d="M253.6,412.5c-0.2-0.3-0.3-0.5-0.4-0.9c-0.3-0.8-0.4-1.7-0.3-2.6c0-0.6,0.2-1.3,0.6-1.8
			c0.3-0.3,0.7-0.4,1.1-0.3c0.4,0.2,0.7,0.5,0.8,0.9c0.6,1.6,0,3.5-1.5,4.4c-1.5,0.9-3.3,0.7-4.7-0.3c-0.3-0.3-0.5-0.7-0.6-1.1
			c0-0.4,0.3-0.8,0.7-0.9c0.6-0.1,1.3-0.1,1.9,0.1c0.8,0.2,1.6,0.6,2.4,1.1c0.5,0.3,0.7,0.6,0.7,0.6c-1-0.6-2-1.1-3.1-1.3
			c-0.5-0.2-1.1-0.2-1.6-0.1c-0.2,0.1-0.4,0.3-0.4,0.5c0,0.3,0.2,0.5,0.4,0.7c1.2,0.9,2.8,1,4.1,0.2c1.3-0.8,1.9-2.3,1.4-3.7
			c-0.1-0.3-0.3-0.5-0.6-0.6c-0.2-0.1-0.5,0-0.6,0.1c-0.3,0.4-0.5,1-0.5,1.5C253.2,410.2,253.3,411.3,253.6,412.5z"/>
		<path class="st5" d="M280.2,357.4l-29.6-19.9l9.8-96.1l-28-16.4l-25.6-5.9c0,0-10.7,22.3-15.5,36.5
			c-10.1,30.3-17.2,41.2-15.6,63.1c0.5,7,26.2,24.4,42.4,34c0.2,1.9,0.5,3.8,0.9,5.7c5.5,25.1,22.5,58.4,22.5,58.4l25.7-11.9
			l-8.3-28.4l8.6,5L280.2,357.4z M216.6,295.4l3.5-15.4c-0.7,9.8-1.4,20-1.9,29.8C216.6,305.2,216,300.3,216.6,295.4L216.6,295.4z"
			/>
		<path class="st10" d="M241.5,416.9c-0.1-0.1-0.1-0.3-0.2-0.4l-0.5-1.2l-2-4.7c-1.7-4.1-4.2-10-7.1-17.3c-2.9-7.4-6.4-16.1-10-25.9
			c-0.9-2.5-1.7-5-2.5-7.6c-0.4-1.3-0.8-2.6-1-4c-0.1-0.3-0.1-0.7-0.2-1l-0.1-1.1l-0.2-2.1c-0.3-2.8-0.6-5.7-0.7-8.7
			c-0.1-1.5-0.2-2.9-0.2-4.4c-0.1-1.5-0.1-3,0-4.5c0.4-12.1,1.5-23.5,2.3-33.9c0.8-10.4,1.7-19.8,2.3-27.7
			c0.7-7.9,1.1-14.3,1.3-18.7c0.1-2.2,0.2-3.9,0.3-5.1l0.1-1.3c0-0.1,0-0.3,0-0.4c0,0.1,0,0.3,0,0.4c0,0.3,0,0.8,0,1.3
			c0,1.2-0.1,2.9-0.2,5.1c-0.2,4.4-0.6,10.8-1.2,18.7s-1.4,17.3-2.2,27.7s-1.8,21.9-2.2,33.9c-0.1,1.5,0,3,0,4.5s0.1,3,0.2,4.4
			c0.2,3,0.4,5.8,0.7,8.6l0.2,2.1l0.1,1c0.1,0.3,0.1,0.7,0.2,1c0.2,1.4,0.7,2.7,1,4c0.8,2.6,1.6,5.1,2.5,7.6
			c3.5,9.8,6.9,18.6,9.8,26c2.9,7.4,5.3,13.3,6.9,17.4c0.8,2,1.5,3.6,1.9,4.7c0.2,0.5,0.4,0.9,0.5,1.2S241.5,416.9,241.5,416.9z"/>
		<path class="st10" d="M221.7,243.4c0,0-0.3-0.2-0.7-0.5c-0.5-0.6-1-1.3-1.3-2c-0.9-2.4-1.3-5-1.3-7.6c0-2.6,0.1-5.2,0.4-7.8
			c0.1-1.1,0.2-2.1,0.4-3.2c0.1,1.1,0.1,2.1,0,3.2c-0.1,2-0.3,4.7-0.2,7.7c0,2.5,0.4,5.1,1.1,7.5c0.3,0.7,0.6,1.4,1.1,2
			C221.5,243.1,221.7,243.4,221.7,243.4z"/>
		<path class="st10" d="M210.6,220.6c0.3,0.9,0.3,1.8,0.2,2.7c-0.3,4.5-3,8.5-7.1,10.4c-0.8,0.4-1.7,0.7-2.6,0.8
			c0-0.1,1-0.4,2.4-1.1c3.8-2,6.4-5.8,6.9-10.1C210.6,221.6,210.5,220.6,210.6,220.6z"/>
		<path class="st10" d="M256.6,276.4c0,0,0,0.1,0,0.3c0,0.2,0,0.5-0.1,0.9c-0.1,0.8-0.2,1.9-0.3,3.3c-0.3,2.9-0.8,7-1.3,12
			c-1.1,10.2-2.7,24.3-4.5,39.8c-0.6,7.3-0.1,14.7,1.5,21.8c0.7,3.1,1.6,6.2,2.7,9.2c1,2.8,1.9,5.5,2.8,7.9c1.7,4.8,3,8.7,4,11.5
			c0.4,1.3,0.8,2.4,1.1,3.1l0.3,0.8c0,0.1,0.1,0.2,0.1,0.3c0,0,0-0.1-0.1-0.3c-0.1-0.2-0.2-0.5-0.3-0.8c-0.3-0.7-0.7-1.8-1.1-3.1
			l-4.1-11.4c-0.9-2.4-1.8-5.1-2.8-7.9c-1.1-3-2-6.1-2.7-9.2c-1.6-7.2-2.1-14.6-1.5-22c1.7-15.6,3.5-29.6,4.7-39.8
			c0.6-5,1.1-9.2,1.5-12c0.2-1.4,0.3-2.5,0.4-3.3c0-0.3,0.1-0.6,0.1-0.8C256.6,276.6,256.6,276.5,256.6,276.4z"/>
		<polyline class="st4" points="206.8,218.9 211.3,207.3 221.7,222.8 207.9,219.3 		"/>
		<path class="st1" d="M315.1,184.1l-12.3-27.5c-1.5-4.4-4.2-5.1-6.5-7.7l-30.8-17.4c-22.4-9.2-34.7,21.6-34.7,21.6l-20.4,46.5
			c-24,7.9-7,26.4-7,26.4s-6.5-11.3-0.1-15.4c6.7-4.3,14.2,7,21.3,17.7c8.4,12.6,35.9,20.9,35.9,20.9c3.2-3.4,2.3-15.2,4.8-21.6
			c0.8-2,19.8-46,19.8-46l7.4,17.8c0,0,9.4-11.1,14-12.8C309.4,185.5,312.2,184.7,315.1,184.1z"/>
		<path class="st5" d="M260.6,203.7c-0.3,0.3-0.6,0.5-0.9,0.7c-0.9,0.5-1.8,1-2.8,1.3c-6.6,2.5-13.9,1.3-19.4-3
			c-0.8-0.6-1.6-1.3-2.3-2.1c-0.3-0.3-0.5-0.6-0.7-0.9c0.1-0.1,1.1,1.2,3.2,2.7c5.5,4.1,12.6,5.2,19.1,2.9
			C259.2,204.4,260.6,203.6,260.6,203.7z"/>
		<path class="st1" d="M209.6,160L209.6,160l19,1.8l30.4-32.1l-17.9-0.6l-31.8,3.1C211,141.3,211.1,150.7,209.6,160z"/>
		<path class="st5" d="M236,143.1c0,0.2-0.1,0.4-0.2,0.6l-0.8,1.6c-0.7,1.5-1.7,3.5-2.8,6c-2.4,5.1-5.5,12.2-8.9,20
			c-3.3,7.9-6.5,15-8.9,20.1c-1.2,2.6-2.1,4.6-2.8,6l-0.8,1.6c-0.1,0.2-0.2,0.4-0.3,0.6c0.1-0.2,0.1-0.4,0.2-0.6l0.7-1.7l2.7-6.1
			c2.2-5.2,5.3-12.3,8.7-20.2s6.6-14.9,9-20c1.2-2.5,2.2-4.6,3-5.9c0.4-0.6,0.6-1.2,0.9-1.6C235.7,143.4,235.8,143.2,236,143.1z"/>
		<path class="st5" d="M293.9,152.4c0.1,0.1-1.1,0.7-2.7,2.1c-0.9,0.8-1.8,1.7-2.6,2.6c-0.9,1.2-1.7,2.5-2.4,3.8
			c-0.6,1.4-1.1,2.8-1.5,4.3c-0.3,1.2-0.4,2.4-0.5,3.7c-0.1,2.1,0.2,3.4,0.1,3.4c-0.1-0.3-0.2-0.6-0.2-0.9c-0.1-0.4-0.1-0.7-0.2-1.1
			c-0.1-0.5-0.1-1-0.1-1.5c0-1.3,0.1-2.5,0.4-3.8c0.3-1.5,0.8-3,1.5-4.4c0.7-1.4,1.5-2.7,2.5-3.9c0.8-1,1.7-1.8,2.7-2.6
			c0.4-0.3,0.8-0.6,1.2-0.8c0.3-0.2,0.6-0.4,0.9-0.6C293.3,152.5,293.6,152.4,293.9,152.4z"/>
		<path class="st4" d="M299.2,108.3l-17.8,33.3c-2.9,5.4-9.5,7.7-15.2,5.2l0,0c-5.9-2.7-8.5-9.6-5.9-15.5c0.1-0.2,0.2-0.4,0.3-0.7
			l3.1-5.8c0,0-7.8-5-4.1-13.4c3.2-7.5,15.1-28.6,17.6-33l15,6.7c8.3,4.3,11.5,14.5,7.2,22.8C299.4,108,299.3,108.1,299.2,108.3z"/>
		<path class="st16" d="M263.8,124.7c3.8,1.8,8.1,2.4,12.2,1.8c0,0-5.2,4.8-13.2,0.4L263.8,124.7z"/>
		<path class="st5" d="M269.5,98c-0.3,0.6,0,1.4,0.6,1.7c0.6,0.3,1.4,0.1,1.7-0.5c0,0,0,0,0,0c0.3-0.6,0-1.4-0.6-1.7
			C270.6,97.2,269.9,97.4,269.5,98C269.5,98,269.5,98,269.5,98z"/>
		<path class="st5" d="M269.6,97c0.1,0.2,1.3,0,2.6,0.5c1.3,0.5,1.9,1.6,2.1,1.5c0.2-0.1,0.1-0.4-0.2-0.9c-0.4-0.6-1-1.1-1.6-1.4
			c-0.7-0.3-1.4-0.4-2.1-0.2C269.8,96.6,269.5,96.8,269.6,97z"/>
		<path class="st5" d="M281.5,103.9c-0.3,0.6,0,1.4,0.6,1.7c0.6,0.3,1.4,0.1,1.7-0.5c0,0,0,0,0,0c0.3-0.6,0-1.4-0.6-1.7
			C282.6,103.1,281.8,103.3,281.5,103.9C281.5,103.9,281.5,103.9,281.5,103.9z"/>
		<path class="st5" d="M282.1,102.8c0.1,0.2,1.3,0,2.6,0.5c1.3,0.5,1.9,1.6,2.1,1.6c0.2-0.1,0.1-0.4-0.2-0.9c-0.4-0.6-1-1.1-1.6-1.4
			c-0.7-0.3-1.4-0.4-2.1-0.2C282.3,102.5,282,102.7,282.1,102.8z"/>
		<path class="st5" d="M273.2,110.2c-0.6-0.5-1.2-0.9-1.9-1.3c-0.3-0.2-0.6-0.4-0.6-0.6s0.3-0.6,0.7-0.9l2.1-2.1
			c1.8-1.7,3.5-3.6,5.1-5.5c-2,1.5-3.8,3.3-5.5,5.1l-2,2.1c-0.4,0.3-0.6,0.7-0.7,1.2c0,0.3,0.1,0.5,0.3,0.7c0.2,0.1,0.3,0.2,0.5,0.3
			C271.7,109.7,272.4,110,273.2,110.2z"/>
		<path class="st5" d="M276.5,112.8c-0.2-0.1-0.8,1.3-2.4,1.7s-3-0.4-3.1-0.2c-0.1,0.2,0.2,0.4,0.8,0.7c0.8,0.4,1.7,0.5,2.6,0.2
			c0.8-0.2,1.5-0.8,2-1.5C276.6,113.3,276.6,112.9,276.5,112.8z"/>
		<path class="st5" d="M284,97.7c0,0.4,1.3,0.8,2.7,1.7s2.5,1.8,2.8,1.6c0.2-0.1,0.1-0.5-0.2-1.1c-1-1.4-2.5-2.3-4.2-2.5
			C284.4,97.3,284,97.5,284,97.7z"/>
		<path class="st5" d="M271.7,93.5c0.1,0.4,1.1,0.5,2.2,0.9c1.1,0.5,1.9,1.1,2.2,0.9c0.3-0.2,0.2-0.5-0.1-0.9
			c-0.4-0.6-0.9-1-1.5-1.3c-0.6-0.3-1.3-0.3-2-0.2C271.9,93,271.7,93.3,271.7,93.5z"/>
		<path class="st4" d="M293.6,113.3c0.2,0,6.5,0.9,3.8,6.5s-7.8,1.7-7.8,1.6C289.6,121.1,293.6,113.3,293.6,113.3z"/>
		<path class="st16" d="M292.4,120c0,0,0.1,0.1,0.2,0.3c0.2,0.2,0.4,0.3,0.7,0.4c1-0.1,1.8-0.7,2.2-1.6c0.2-0.5,0.4-1,0.4-1.5
			c0.1-0.4-0.1-0.8-0.4-1.1c-0.2-0.2-0.5-0.2-0.7,0c-0.1,0.1-0.2,0.2-0.2,0.2c0,0-0.1-0.2,0.1-0.4c0.1-0.1,0.2-0.2,0.4-0.2
			c0.2,0,0.4,0,0.6,0.1c0.4,0.3,0.6,0.8,0.6,1.4c0,0.6-0.1,1.2-0.4,1.7c-0.4,1-1.5,1.7-2.6,1.7c-0.3-0.1-0.6-0.3-0.8-0.6
			C292.4,120.2,292.4,120,292.4,120z"/>
		<path class="st5" d="M296.9,114.6c-1.1-0.5-2.3-0.5-3.3,0.2c-0.7,0.6-1.2,1.5-2,2.2c-0.7,0.7-1.8,0.9-2.7,0.4
			c-0.5-0.5-0.7-1.2-0.6-1.8c0.1-0.7,0.4-1.3,0.8-1.8c1.5-2.5,3.3-4.9,4.6-7.5c1.4-2.6,2-5.5,1.8-8.5c-0.3-3-2.2-5.6-5-6.7
			c-1.8-0.6-3.9-0.5-5.7-1c-2.2-0.7-4.1-2.3-4.9-4.5c-0.2-0.4-0.5-0.9-0.7-1.3c0.1-0.1,0.7-1.3,1.4-1.5c4.9-1.7,11.6,0.2,15.7,3.5
			c4.2,3.3,6.8,8.3,7,13.6C303.3,105,300,110.7,296.9,114.6"/>
		<path class="st5" d="M297,113.9c1.6-2.7,4.1-4.6,6-7s3.3-5.8,1.9-8.5c-0.5-0.9-1.2-1.7-1.6-2.7c-0.3-1-0.5-2.1-0.6-3.1
			c-0.5-3.3-2.5-6.1-5.4-7.8c-2-1.1-4.2-1.6-6.2-2.6c-3.2-1.7-5.5-4.7-8.9-6.1c-1.1-0.5-2.3-0.6-3.4-0.1c-1,0.5-1.5,1.7-1,2.8
			c0,0.1,0.1,0.1,0.1,0.2c-0.2-1-1.2-1.5-2.2-1.3c-0.1,0-0.2,0.1-0.3,0.1c-1,0.5-1.5,1.6-1.4,2.7c0.1,1.1,0.5,2.1,1.2,2.9
			c2.1,2.9,5.1,5,8.5,5.9l7.7-0.6l6.3,4.6l4.6,7.4l-8.4,10.9L297,113.9z"/>
	</g>
	<path class="st17" d="M249.1,70.4c-1-14.9-13.8-26.2-28.7-25.2c-14.9,1-26.2,13.8-25.2,28.7c0.7,10.4,7.3,19.5,17,23.4
		c0.2,3.2,0.4,6.8,0.4,6.8l23.6-1.5c0,0-0.1-3.8-0.3-7.2C244.7,90.1,249.8,80.5,249.1,70.4z"/>
	<path class="st5" d="M227.8,102.9c0,0,0-0.1,0-0.3s0-0.6,0-1c0-0.9,0.1-2.1,0.3-3.8s0.3-3.6,0.7-5.9c0.4-2.6,1.1-5.2,2-7.7
		c0.5-1.4,1.2-2.8,2-4.2c0.4-0.7,1-1.3,1.7-1.8c0.8-0.4,1.7-0.5,2.6-0.1c0.4,0.2,0.8,0.6,0.9,1c0.2,0.4,0.2,0.9,0,1.4
		c-0.4,0.9-1.1,1.5-2,1.9c-3.8,1.5-8.1-0.4-9.6-4.2c0,0,0-0.1,0-0.1c-0.4-1-0.5-2.1-0.4-3.1c0.2-1.1,1.2-2,2.3-2
		c0.6,0,1.1,0.3,1.4,0.9c0.3,0.5,0.4,1.1,0.3,1.6c-0.3,1.1-0.9,2.1-1.7,2.8c-1.6,1.6-3.9,2.4-6.2,2.2c-2.3-0.2-4.3-1.5-5.5-3.5
		c-0.6-1-0.7-2.2-0.4-3.3c0.3-1,1.4-1.6,2.4-1.3c0.1,0,0.2,0.1,0.3,0.1c0.5,0.2,0.9,0.6,1.2,1.1c0.3,0.5,0.4,1,0.5,1.5
		c0.1,1,0.1,2.1-0.2,3.1c-0.5,2-1.8,3.7-3.5,4.8c-1.7,1-3.6,1.4-5.5,1.1c-0.9-0.1-1.8-0.5-2.5-1.1c-0.7-0.7-0.8-1.8-0.3-2.6
		c0.3-0.4,0.7-0.6,1.2-0.7c0.4-0.1,0.9,0,1.3,0.2c0.8,0.4,1.4,1,1.8,1.7c0.8,1.4,1.4,2.8,2,4.1c2.5,5.3,4.3,9.7,5.5,12.7
		c0.6,1.5,1.1,2.7,1.4,3.5c0.1,0.4,0.3,0.7,0.3,0.9c0,0.1,0.1,0.2,0.1,0.3l-0.1-0.3l-0.4-0.9l-1.4-3.5c-1.3-3-3.1-7.4-5.6-12.6
		c-0.6-1.3-1.3-2.7-2.1-4.1c-0.4-0.7-0.9-1.3-1.6-1.6c-0.7-0.3-1.6-0.2-2.2,0.4c-0.4,0.7-0.3,1.6,0.3,2.2c0.6,0.6,1.5,1,2.3,1
		c1.9,0.3,3.7-0.1,5.3-1.1c1.6-1.1,2.8-2.7,3.3-4.6c0.3-1,0.3-2,0.2-3c-0.1-1-0.6-1.9-1.5-2.4c-0.4-0.2-1-0.2-1.4,0
		c-0.5,0.2-0.8,0.6-0.9,1.1c-0.3,1-0.2,2.1,0.4,3c1.1,1.9,3,3.1,5.2,3.3c2.2,0.2,4.3-0.6,5.9-2.1c0.8-0.7,1.4-1.6,1.6-2.6
		c0.1-0.5,0-1-0.3-1.4c-0.2-0.4-0.7-0.7-1.2-0.7c-0.5,0-1,0.2-1.3,0.5c-0.4,0.3-0.6,0.8-0.7,1.3c-0.2,1,0,2,0.3,2.9
		c1.4,3.7,5.5,5.6,9.2,4.2c0,0,0.1,0,0.1-0.1c0.8-0.3,1.4-1,1.8-1.8c0.3-0.8,0-1.7-0.8-2c-0.7-0.4-1.6-0.3-2.3,0.1
		c-0.7,0.4-1.2,1-1.6,1.7c-0.8,1.3-1.4,2.7-1.9,4.1c-0.9,2.5-1.6,5-2,7.6c-0.4,2.3-0.6,4.3-0.8,5.9c-0.2,1.6-0.2,2.9-0.3,3.8
		c0,0.4-0.1,0.7-0.1,1C227.8,102.8,227.8,102.9,227.8,102.9z"/>
	<path class="st5" d="M234.8,107l-20.3,1.3c-0.8,0.1-1.6-0.6-1.6-1.4l0,0c-0.1-0.8,0.6-1.6,1.4-1.6l20.3-1.3
		c0.8-0.1,1.6,0.6,1.6,1.4c0,0,0,0,0,0l0,0C236.3,106.2,235.6,106.9,234.8,107z"/>
	<path class="st5" d="M234.9,108.3l-20.3,1.3c-0.8,0.1-1.5,0.8-1.4,1.6c0.1,0.8,0.8,1.5,1.6,1.4l2.2-0.1l3.3,5.4
		c0.4,0.6,1.1,1,1.8,0.9l7.2-0.5c0.7-0.1,1.4-0.5,1.7-1.2l2.5-5.8l1.5-0.1c0.8-0.1,1.4-0.9,1.3-1.7
		C236.3,108.9,235.7,108.3,234.9,108.3L234.9,108.3z"/>
	<g class="st18">
		<path class="st14" d="M203.8,56.1c1.5-1.6,3.2-2.9,5.2-3.9c1.3-0.7,2.6-1.2,4-1.5c1-0.2,1.6-0.1,1.7,0.1c0.1,0.5-1.8,1.3-4.4,3.3
			c-7,5.1-10.4,13.9-8.7,22.4c0.6,3.3,1.5,5.2,1.1,5.5c-0.2,0.1-0.7-0.2-1.3-1c-0.9-1.2-1.5-2.5-2-3.8c-0.7-2.1-1.1-4.2-1.1-6.4
			c-0.1-2.7,0.4-5.4,1.4-7.9"/>
	</g>
	<g class="st18">
		<path class="st14" d="M221.2,51.5c-1.7,0.1-3.2-0.3-3.5-1.2c-0.1-0.4,0.2-0.9,0.8-1.4c1.5-0.9,3.4-1.1,5.1-0.3
			c0.6,0.3,1,0.8,0.9,1.3"/>
	</g>
	<path class="st10" d="M230.7,117.7c-0.5-0.1-1-0.2-1.4-0.3c-1.1-0.2-2.3-0.3-3.5-0.2c-1.1,0.1-2.3,0.4-3.3,0.9
		c-0.8,0.4-1.3,0.6-1.3,0.6c0.4-0.3,0.8-0.6,1.2-0.8c1.1-0.5,2.2-0.9,3.4-1c1.2-0.1,2.4,0,3.6,0.3
		C229.8,117.3,230.3,117.5,230.7,117.7z"/>
	<path class="st10" d="M233.6,111.5c0,0.1-3.7,0.4-8.2,0.7c-4.5,0.3-8.2,0.5-8.2,0.4c0-0.1,3.7-0.4,8.2-0.7S233.6,111.4,233.6,111.5
		z"/>
	<path class="st10" d="M232.5,114c-0.7,0.2-1.3,0.3-2,0.3c-1.2,0.2-2.9,0.3-4.8,0.5s-3.6,0.2-4.8,0.3c-0.7,0.1-1.3,0.1-2,0
		c0.7-0.1,1.3-0.2,2-0.2l4.8-0.4l4.8-0.4C231.2,114,231.8,114,232.5,114z"/>
	<path class="st3" d="M86.5,249.7l4.4,7.1c0,0,18.8-17.3,37.4-12.4C128.3,244.3,111.6,230.1,86.5,249.7z"/>
	<path class="st3" d="M128.3,244.3c0,0,13.8-15,34-11.6l5.5,0.8l-1.7-3.2C166.1,230.4,130.9,218.3,128.3,244.3z"/>
	<path class="st19" d="M99.2,193.8c0,0-27.6-4.8-45.7,5L82.3,253c0,0,23.5-22.7,46.1-8.7L99.2,193.8z"/>
	<path class="st5" d="M99.2,193.8c0.1,0.1,0.1,0.1,0.2,0.2l0.4,0.7l1.6,2.7l6,10.3l21.2,36.5c0.1,0.1,0,0.3-0.1,0.3
		c-0.1,0-0.2,0-0.2,0c-3.2-2-6.8-3.4-10.6-4.1c-2-0.3-4-0.5-6-0.4c-2.1,0.1-4.1,0.3-6.1,0.8c-8.5,2.1-16.4,6.3-22.8,12.2l-0.2,0.2
		c-0.1,0.1-0.3,0.1-0.4,0c0,0,0,0,0,0v-0.1L53.3,199c-0.1-0.1,0-0.2,0.1-0.3c0,0,0,0,0,0l0,0c5.8-2.9,12-4.7,18.4-5.5
		c4.9-0.6,9.8-0.8,14.7-0.6c4.1,0.1,7.3,0.5,9.4,0.7c1.1,0.1,1.9,0.3,2.5,0.4l0.6,0.1L99.2,193.8l-0.2-0.1l-0.6-0.1
		c-0.6-0.1-1.4-0.2-2.5-0.3c-2.2-0.2-5.3-0.5-9.4-0.6c-4.9-0.1-9.8,0.1-14.7,0.7c-6.4,0.8-12.5,2.7-18.2,5.5l0.1-0.3l28.8,54.1
		l-0.4-0.1l0.2-0.2c3.4-3,7.1-5.6,11-7.8c3.8-2.1,7.9-3.6,12.1-4.6c2-0.4,4.1-0.7,6.2-0.8c2,0,4.1,0.1,6.1,0.4
		c3.8,0.7,7.5,2.1,10.8,4.2l-0.3,0.3l-20.9-36.5l-5.9-10.3l-1.5-2.7c-0.2-0.3-0.3-0.5-0.4-0.7C99.3,194,99.2,193.9,99.2,193.8z"/>
	<path class="st19" d="M142.6,182.7c0,0-20.9-13.3-43.1,11.1l29.1,50.5c0,0,5.9-20.5,40.7-13.4L142.6,182.7z"/>
	<path class="st5" d="M142.6,182.7c0.1,0.1,0.1,0.1,0.1,0.2c0.1,0.2,0.2,0.4,0.4,0.7l1.5,2.6l5.5,9.8l19.4,34.9
		c0.1,0.1,0,0.3-0.1,0.3c0,0,0,0,0,0c-0.1,0-0.1,0-0.2,0l0,0l-5.2-0.9c-0.9-0.2-1.8-0.2-2.7-0.3l-2.7-0.2c-0.9-0.1-1.9-0.1-2.8-0.1
		l-2.8,0c-1,0-1.9,0.2-2.8,0.3c-1,0.1-1.9,0.2-2.9,0.4l-2.8,0.6l-2.8,1c-0.9,0.4-1.8,0.8-2.7,1.3c-0.5,0.2-0.9,0.5-1.3,0.7l-1.3,0.8
		c-0.8,0.6-1.6,1.3-2.4,1.9c-0.7,0.7-1.4,1.4-2.1,2.2c-1.3,1.6-2.4,3.4-3.1,5.3l0,0c-0.1,0.1-0.2,0.2-0.4,0.2
		c-0.1,0-0.1-0.1-0.1-0.1l-1.2-2c-10.3-17.9-19.9-34.6-27.9-48.5c-0.1-0.1-0.1-0.2,0-0.3c4.4-5,9.8-9,15.8-11.8
		c4.7-2.1,9.8-3.1,14.9-2.8c3.3,0.2,6.5,0.9,9.5,2.1c0.8,0.3,1.6,0.7,2.3,1.1l0.6,0.3L142.6,182.7l-0.2-0.2l-0.6-0.3
		c-0.5-0.3-1.3-0.6-2.3-1c-7.8-3-16.6-2.7-24.2,0.9c-5.9,2.8-11.2,6.9-15.6,11.8v-0.3l28,48.5l1.2,2l-0.5,0.1c0.7-2,1.8-3.9,3.2-5.5
		c0.7-0.8,1.4-1.6,2.1-2.3c0.8-0.7,1.6-1.4,2.4-1.9l1.3-0.8c0.4-0.3,0.9-0.5,1.3-0.8c0.9-0.4,1.8-1,2.8-1.3l2.8-1l2.9-0.7
		c1-0.2,1.9-0.4,2.9-0.4c1-0.1,1.9-0.3,2.9-0.3h2.8c0.9,0,1.9,0,2.8,0.1l2.7,0.2c0.9,0,1.8,0.1,2.7,0.3l5.2,0.9l-0.3,0.4
		c-7.9-14.4-14.6-26.5-19.2-35c-2.3-4.2-4.1-7.6-5.4-9.9l-1.4-2.6c-0.1-0.3-0.3-0.5-0.4-0.7C142.6,182.8,142.6,182.7,142.6,182.7z"
		/>
	<path class="st19" d="M61.2,172.8l31.2,60c0,0,25.3-1.1,36,11.2l-28.9-50.2C99.6,193.8,82.6,172.8,61.2,172.8z"/>
	<path class="st5" d="M61.2,172.8H62l2.4,0.1c0.3,0,0.6,0,0.8,0l0.9,0.2l2.1,0.3c0.8,0.1,1.6,0.3,2.4,0.6c0.9,0.2,1.8,0.5,2.7,0.8
		c7.4,2.5,17.4,8.5,26.4,18.8l0,0l0,0l28.9,50.2c0.1,0.1,0,0.3-0.1,0.4c-0.1,0.1-0.2,0.1-0.3,0l0,0L127,243c-2.3-2.2-5-4-8-5.3
		c-2.9-1.3-5.9-2.3-8.9-2.9c-5.8-1.3-11.8-1.9-17.7-1.7l0,0c-0.1,0-0.2,0-0.2-0.1c-9.1-17.6-16.8-32.7-22.3-43.3
		c-2.7-5.3-4.8-9.5-6.3-12.4c-0.7-1.4-1.3-2.5-1.7-3.3l-0.4-0.8L61.2,172.8c0.1,0,0.1,0.1,0.2,0.3l0.5,0.9l1.7,3.3l6.5,12.4l22.5,43
		l-0.2-0.1c6-0.1,12,0.4,17.8,1.7c3.1,0.7,6.1,1.7,9,2.9c3,1.3,5.8,3.1,8.1,5.4l1.3,1.2l-0.5,0.3c-10.7-18.7-20.6-36-28.8-50.2l0,0
		c-4-4.7-8.6-8.8-13.6-12.3c-3.9-2.7-8.1-4.9-12.5-6.5c-0.9-0.3-1.8-0.6-2.7-0.8c-0.8-0.3-1.6-0.5-2.4-0.6l-2.1-0.4l-0.9-0.2
		l-0.8-0.1L61.2,172.8z"/>
	<g id="freepik--Stars--inject-91_1_" class="st20">
		<path class="st7" d="M158.5,342.9l0.7,1.1c0.8,1.2,1.8,2.3,3.1,2.9l1.1,0.6l-1.1,0.7c-1.2,0.8-2.2,1.8-2.9,3.1l-0.6,1.2l-0.7-1.1
			c-0.8-1.2-1.8-2.3-3.1-2.9l-1.2-0.6l1.1-0.7c1.2-0.7,2.3-1.8,2.9-3.1L158.5,342.9z"/>
		<path class="st7" d="M97.1,114.5l0.7,1.1c0.8,1.2,1.8,2.2,3.1,2.9l1.1,0.6l-1.1,0.7c-1.3,0.7-2.3,1.8-2.9,3.1l-0.6,1.1l-0.7-1.1
			c-0.8-1.3-1.8-2.3-3.2-2.9l-1.2-0.6l1.1-0.7c1.2-0.8,2.3-1.9,2.9-3.2L97.1,114.5z"/>
		<path class="st7" d="M381.2,153.9l0.7,1.1c0.8,1.3,1.8,2.3,3.2,2.9l1.2,0.6l-1.1,0.7c-1.2,0.8-2.2,1.9-2.9,3.2l-0.6,1.1l-0.7-1.1
			c-0.7-1.2-1.8-2.2-3.1-2.9l-1.2-0.6l1.1-0.7c1.3-0.7,2.3-1.8,2.9-3.1L381.2,153.9z"/>
		<path class="st7" d="M347.7,357.2l0.7,1.1c0.8,1.2,1.9,2.2,3.2,2.9l1.2,0.6l-1.1,0.7c-1.2,0.8-2.3,1.8-2.9,3.1l-0.6,1.2l-0.7-1.1
			c-0.7-1.2-1.8-2.3-3.1-2.9l-1.2-0.6l1.1-0.7c1.3-0.8,2.3-1.8,2.9-3.2L347.7,357.2z"/>
		<path class="st7" d="M354.1,400l0.3,0.1c0.4,0.1,0.7,0.2,1.1,0.1l0.3-0.1l-0.1,0.3c-0.1,0.4-0.2,0.7-0.1,1.1l0.1,0.3l-0.3-0.1
			c-0.4-0.1-0.7-0.2-1.1-0.1l-0.3,0.1l0.1-0.3c0.1-0.4,0.2-0.7,0.1-1.1L354.1,400z"/>
		<path class="st7" d="M373.4,111l0.3,0.1c0.4,0.1,0.7,0.2,1.1,0.1l0.3-0.1l-0.1,0.3c-0.1,0.4-0.2,0.7-0.1,1.1l0.1,0.3l-0.3-0.1
			c-0.4-0.1-0.7-0.2-1.1-0.1l-0.3,0.1l0.1-0.3c0.1-0.4,0.2-0.7,0.1-1.1L373.4,111z"/>
		<path class="st7" d="M109.6,84.6l0.3,0.1c0.4,0.1,0.7,0.2,1.1,0.1h0.3l-0.1,0.3c-0.1,0.4-0.2,0.7-0.1,1.1l0.1,0.3l-0.3-0.1
			c-0.4-0.1-0.7-0.2-1.1-0.1h-0.3l0.1-0.3c0.1-0.4,0.2-0.7,0.1-1.1L109.6,84.6z"/>
		<path class="st7" d="M142.1,309.6l0.3,0.1c0.3,0.1,0.7,0.2,1.1,0.1l0.3-0.1l-0.1,0.3c-0.1,0.4-0.2,0.7-0.1,1.1l0.1,0.3l-0.3-0.1
			c-0.4-0.1-0.7-0.2-1.1-0.1l-0.3,0.1l0.1-0.3c0.1-0.4,0.2-0.7,0.1-1.1L142.1,309.6z"/>
		<path class="st7" d="M177.4,396.6l-0.3,0.3l-0.9,0.9l-3.6,3.5l-13.3,12.8v-0.1c0.7,13.9,1.6,32.7,2.5,53.8v0.5l-0.4-0.3l-4.8-3.2
			l-30.4-20.3h-0.1v-0.1c-4.5-13.5-8.4-25-11.1-33c-1.3-4-2.4-7.2-3.1-9.4l-0.8-2.5c-0.1-0.3-0.2-0.5-0.2-0.6c0-0.2-0.1-0.2-0.1-0.2
			l0.1,0.2l0.2,0.6c0.2,0.6,0.5,1.4,0.9,2.5l3.2,9.3c2.7,8.1,6.6,19.4,11.2,33l-0.1-0.1l30.4,20.3l4.8,3.2l-0.4,0.2
			c-0.9-21-1.7-39.9-2.3-53.8V414h0.1l13.4-12.7l3.6-3.4l1-0.9C177.3,396.7,177.4,396.6,177.4,396.6z"/>
		<polygon class="st7" points="163.3,461.5 163.2,464.6 165.7,466.5 162.7,467.3 161.7,470.3 159.9,467.7 156.8,467.7 158.7,465.2 
			157.8,462.2 160.7,463.3 		"/>
		<polygon class="st7" points="126.7,440.2 126.7,442.2 128.4,443.3 126.5,444 126,446 124.8,444.4 122.7,444.5 123.9,442.8 
			123.1,440.9 125.1,441.5 		"/>
		<polygon class="st7" points="110.9,394.9 112.4,396.8 114.9,396.7 113.5,398.7 114.4,401.1 112,400.4 110.1,402 110,399.5 
			107.9,398.1 110.3,397.3 		"/>
		<polygon class="st7" points="175.9,392.9 177.4,394.9 179.9,394.7 178.5,396.8 179.4,399.1 177,398.4 175.1,400 175,397.5 
			172.9,396.2 175.3,395.3 		"/>
		<polygon class="st7" points="158.8,411.9 159.8,413.1 161.4,413 160.5,414.4 161.1,415.8 159.5,415.4 158.3,416.4 158.3,414.8 
			156.9,414 158.4,413.4 		"/>
	</g>
	<circle class="st21" cx="100.2" cy="306" r="22.1"/>
	<g class="st22">
		<path class="st14" d="M97.3,312.9c0,2-1.6,3.6-3.6,3.6c-2,0-3.6-1.6-3.6-3.6c0-2,1.6-3.6,3.6-3.6c0,0,0,0,0,0
			C95.7,309.3,97.3,310.9,97.3,312.9z"/>
	</g>
	<g class="st22">
		<path class="st14" d="M92.2,302.5c0,1.2-0.9,2.1-2.1,2.1c-1.2,0-2.1-0.9-2.1-2.1c0-1.2,0.9-2.1,2.1-2.1c0,0,0,0,0,0
			C91.3,300.4,92.2,301.4,92.2,302.5z"/>
	</g>
	<path class="st1" d="M78.8,311.4c0.1,0.4-18.9,18.6-14,22.5s25.5-6.1,43.1-20.3c17.6-14.2,33.6-31.4,29.2-36
		c-4.4-4.6-26.3,8.9-26.3,8.9l2.6,1.7c0,0,13.3-8.5,17.5-5.2c4.2,3.3-7.8,16.2-24.7,28.6c-16.9,12.3-33.2,21-35.7,17.6
		c-2.5-3.4,9.4-14.6,9.4-14.6L78.8,311.4z"/>
	<g class="st23">
		<path d="M78.8,311.4c0.1,0.4-18.9,18.6-14,22.5s25.5-6.1,43.1-20.3c17.6-14.2,33.6-31.4,29.2-36c-4.4-4.6-26.3,8.9-26.3,8.9
			l2.6,1.7c0,0,13.3-8.5,17.5-5.2c4.2,3.3-7.8,16.2-24.7,28.6c-16.9,12.3-33.2,21-35.7,17.6c-2.5-3.4,9.4-14.6,9.4-14.6L78.8,311.4z
			"/>
	</g>
	<g class="st22">
		<path class="st14" d="M88,290.5c0.2,0.2-1.3,1.5-3,4c-4.6,6.7-4.8,15.5-0.4,22.3c1.6,2.6,3,4,2.8,4.2s-1.9-0.9-3.9-3.5
			c-1.1-1.5-2-3.2-2.7-5c-1.6-4.5-1.5-9.4,0.3-13.8c0.7-1.8,1.7-3.4,2.9-4.9C86.1,291.3,87.9,290.3,88,290.5z"/>
	</g>
	<ellipse transform="matrix(0.721 -0.6929 0.6929 0.721 27.1614 265.7365)" class="st1" cx="343.6" cy="99.1" rx="18.2" ry="18.2"/>
	<g class="st24">
		<path d="M349.5,92.2c0-1.6,1.4-2.9,3-2.9c1.6,0,2.9,1.4,2.9,3c0,1.6-1.4,2.9-3,2.9C350.8,95.2,349.5,93.8,349.5,92.2
			C349.5,92.2,349.5,92.2,349.5,92.2z"/>
	</g>
	<g class="st25">
		<path d="M355.5,99.1c0-1,0.8-1.7,1.8-1.7c1,0,1.7,0.8,1.7,1.8c0,1-0.8,1.7-1.8,1.7c0,0,0,0,0,0
			C356.2,100.9,355.5,100.1,355.5,99.1C355.5,99.1,355.5,99.1,355.5,99.1z"/>
	</g>
	<g class="st25">
		<path d="M353.2,104.4c0.3,0,0.6,0.3,0.6,0.6c0,0,0,0,0,0c0,0.4-0.3,0.6-0.7,0.6c-0.4,0-0.6-0.3-0.6-0.7
			C352.5,104.7,352.8,104.4,353.2,104.4C353.2,104.4,353.2,104.4,353.2,104.4z"/>
	</g>
</g>
</svg>
