<?xml version="1.0" encoding="utf-8"?>
<!-- Generator: Adobe Illustrator 21.0.0, SVG Export Plug-In . SVG Version: 6.00 Build 0)  -->
<svg version="1.1" id="Layer_1" xmlns="http://www.w3.org/2000/svg" xmlns:xlink="http://www.w3.org/1999/xlink" x="0px" y="0px"
	 viewBox="0 0 750 500" style="enable-background:new 0 0 750 500;" xml:space="preserve">
<style type="text/css">
	.st0{fill:#F5F5F5;}
	.st1{fill:#E0E0E0;}
	.st2{fill:#EBEBEB;}
	.st3{fill:#263238;}
	.st4{fill:#FF5571;}
	.st5{opacity:0.4;}
	.st6{opacity:0.2;}
	.st7{fill:#FAFAFA;}
	.st8{fill:#455A64;}
	.st9{fill:#FFDD98;}
	.st10{fill:#FFFFFF;}
	.st11{fill:#FDB500;}
	.st12{opacity:0.3;}
	.st13{fill:#B78876;}
	.st14{fill:#AA6550;}
	.st15{fill:#95A6E5;}
	.st16{fill:#B5E55A;}
</style>
<path class="st0" d="M480,477.2c-24.6-17.2-30.2-49.1-29.2-77.7c0.2-4.8-0.4-9.8,1.9-14s7.6-7.1,11.9-5c3.5,1.7,5.1,5.8,7.1,9.2
	c2.7,4.6,6.5,8.3,11.2,10.7c3,1.6,6.8,2.5,9.8,0.9c4.1-2.3,4.6-8,4.6-12.7l-0.2-26.6c0-4.7,0-9.6,1.4-14.1s4.7-8.7,9.3-10
	c4.5-1.3,10.1,1.3,11.1,6c0.4,1.9,0,3.9,0.1,5.9c0.1,2,1.1,4.2,2.9,4.7c1.9,0.5,3.8-0.8,5.2-2.2c4.9-4.8,8.3-11,11.4-17.1
	s6.1-12.5,10.6-17.7c4.4-5.2,10.6-9.4,17.4-9.8c6.8-0.4,14.1,3.8,15.8,10.5c1.7,6.7-2.2,13.5-6.4,18.9c-6.3,8.1-13.8,15.2-22.1,21.1
	c-1.5,1.1-3.1,2.2-3.7,4c-1,3.2,2,6.3,5.1,7.4c3.5,1.2,7.4,0.8,11.1,1.3c3.7,0.4,7.8,2.1,9.1,5.6c1.9,4.9-2.1,10-6.1,13.3
	c-8,6.7-17.1,12-26.9,15.6c-3.5,1.3-7.2,2.4-10,4.9c-2.8,2.5-4.6,6.8-2.9,10.2c1.7,3.3,6.1,4.4,9.8,3.7c3.7-0.7,6.9-2.7,10.4-4
	c6.5-2.5,15-2,19.2,3.6c2.8,3.7,3,8.9,1.6,13.3c-1.4,4.4-4.2,8.3-7.2,11.8c-10.5,12.3-23.9,22.2-39.1,27.5
	C509.1,481.3,495,482.8,480,477.2"/>
<path class="st1" d="M487.4,459.3c4.8-15.6,10.4-30.9,16.9-45.9c1.7-4,3.4-7.9,5.1-11.8c1.7-3.9,3.3-7.7,5.2-11.4
	c3.6-7,7.5-13.8,11.8-20.4c4.1-6.3,8.2-12.1,12-17.6c3.9-5.4,7.6-10.4,11.2-14.8c5.6-7,11.8-13.5,18.4-19.5c2.3-2.1,4.2-3.7,5.5-4.8
	l1.5-1.2c0.2-0.1,0.3-0.3,0.5-0.4c-0.1,0.2-0.3,0.3-0.5,0.5l-1.4,1.3c-1.2,1.1-3.1,2.7-5.4,4.9c-6.5,6.1-12.6,12.7-18.2,19.7
	c-3.5,4.4-7.2,9.4-11.1,14.8s-7.9,11.3-12,17.6c-4.3,6.6-8.2,13.3-11.7,20.3c-1.8,3.6-3.5,7.4-5.1,11.3s-3.3,7.8-5,11.8
	c-6.5,14.9-12.2,30.2-17,45.8"/>
<path class="st1" d="M514.8,390.2c-0.2-0.7-0.4-1.3-0.5-2c-0.2-1.3-0.5-3.2-0.9-5.6c-0.7-4.7-1.4-11.3-2.1-18.6s-1.5-13.8-2.3-18.5
	c-0.4-2.4-0.7-4.3-0.9-5.6c-0.2-0.7-0.2-1.4-0.3-2.1c0.3,0.6,0.5,1.3,0.6,2c0.3,1.3,0.7,3.2,1.2,5.6c0.9,4.7,1.8,11.3,2.6,18.5
	c0.8,7.3,1.4,13.6,1.9,18.6c0.2,2.2,0.4,4.1,0.6,5.6C514.8,388.8,514.8,389.5,514.8,390.2z"/>
<path class="st1" d="M575.9,378.7c-0.8,0.2-1.6,0.3-2.4,0.3c-1.6,0.1-3.8,0.3-6.7,0.7c-5.6,0.6-13.3,1.7-21.8,3.3s-16,3.4-21.5,4.8
	c-2.7,0.7-4.9,1.3-6.4,1.8c-0.8,0.3-1.6,0.5-2.4,0.6c0.7-0.4,1.5-0.7,2.3-0.9c1.5-0.5,3.7-1.2,6.4-2c5.4-1.6,13-3.5,21.5-5.1
	c7.2-1.4,14.6-2.4,21.9-3.1c2.8-0.2,5.1-0.3,6.7-0.4C574.3,378.6,575.1,378.6,575.9,378.7z"/>
<path class="st1" d="M488.1,458.1c-0.2-0.2-0.3-0.5-0.4-0.7c-0.3-0.6-0.6-1.3-1-2.2c-0.9-1.9-2.1-4.7-3.6-8.3
	c-2.9-7-6.7-16.8-10.7-27.7s-7.7-20.7-10.5-27.8c-1.4-3.4-2.5-6.2-3.3-8.4c-0.4-0.9-0.7-1.7-0.9-2.3c-0.1-0.3-0.2-0.5-0.3-0.8
	c0.2,0.2,0.3,0.5,0.4,0.7c0.3,0.6,0.6,1.3,1,2.2c0.9,1.9,2.1,4.7,3.6,8.3c2.9,7,6.7,16.8,10.7,27.7s7.7,20.7,10.5,27.8
	c1.4,3.4,2.5,6.2,3.3,8.3c0.4,0.9,0.7,1.7,0.9,2.2C488,457.5,488.1,457.8,488.1,458.1z"/>
<path class="st1" d="M569.4,431.9c-0.2,0.2-0.5,0.3-0.8,0.3l-2.4,0.8l-8.7,2.8c-7.3,2.4-17.5,5.8-28.6,9.6
	c-11.2,3.8-21.3,7.1-28.7,9.3c-3.7,1.1-6.7,2-8.8,2.6L489,458c-0.3,0.1-0.6,0.1-0.9,0.2c0.2-0.2,0.5-0.3,0.8-0.3l2.4-0.8l8.7-2.8
	c7.3-2.4,17.5-5.8,28.6-9.6c11.2-3.8,21.3-7.1,28.7-9.3c3.7-1.1,6.7-2,8.8-2.6l2.4-0.6C568.8,432,569.1,432,569.4,431.9z"/>
<path class="st1" d="M163.7,98l0.1,2.4c0,0,12.7-5.3,20.3-1.4l0,0c0.3,0.5,0.8,0.8,1.3,0.9l3.2,0.3c0.7,0,1.3-0.3,1.6-1l0,0
	c4.9-2.1,10.5-1.9,15.3,0.5l2.9,1.3l-5.8-30.3l-36.3-7L163.7,98z"/>
<path class="st2" d="M161.7,94.7l0.1,4.3c0,0,12.6-7.5,25.2,0.2l-3.2-20.7C183.8,78.6,162.6,90.3,161.7,94.7z"/>
<path class="st0" d="M159.3,63.5c0,0,15.1-11.6,26.5,4.6l1.2,31.1c0,0-13.8-14-26.7-3.6L159.3,63.5z"/>
<path class="st2" d="M187,99.2c0,0,13-8.3,22.4,0.5l-2.7-28.4l-20.8-2.1L187,99.2z"/>
<path class="st0" d="M185.8,68.2c0,0,4.4-10,14-9.1l6.1,0.8l3.3,28.5c0,0-15-1.7-22.2,10.8L185.8,68.2z"/>
<path class="st1" d="M187,99.2c-0.1-0.4-0.1-0.8-0.1-1.2c0-0.9-0.1-2-0.2-3.3c-0.1-2.9-0.3-6.7-0.5-10.9l-0.5-11
	c0-1.3-0.1-2.4-0.1-3.3c0-0.4,0-0.8,0-1.2c0.1,0.4,0.2,0.8,0.2,1.2c0.1,0.8,0.2,1.9,0.3,3.3c0.2,2.8,0.4,6.7,0.6,11
	c0.2,4.3,0.3,8.2,0.3,11c0,1.4,0,2.5,0,3.3C187.1,98.4,187,98.8,187,99.2z"/>
<path class="st1" d="M202.7,64.6c0,0.1-1-0.1-2.5,0c-4.1,0.1-7.9,1.7-10.8,4.6c-1.1,1.1-1.6,1.9-1.7,1.9c-0.1-0.1,0.1-0.2,0.3-0.6
	c0.3-0.5,0.7-1,1.1-1.5c2.9-3.1,6.9-4.8,11.1-4.7c0.6,0,1.2,0.1,1.9,0.2C202.5,64.5,202.7,64.6,202.7,64.6z"/>
<path class="st1" d="M203.5,67.9c0,0.1-1-0.1-2.5-0.1c-2,0-4,0.5-5.9,1.3c-1.9,0.8-3.5,1.9-5,3.3c-1.1,1.1-1.6,1.9-1.7,1.9
	c0.1-0.2,0.2-0.4,0.3-0.6c0.3-0.5,0.7-1,1.1-1.5c2.9-3.1,6.9-4.8,11.1-4.7c0.6,0,1.3,0.1,1.9,0.2C203.1,67.7,203.3,67.8,203.5,67.9z
	"/>
<path class="st1" d="M203.7,71.4c0,0.1-1-0.1-2.5,0c-4.1,0.1-7.9,1.7-10.8,4.6c-1.1,1.1-1.6,1.9-1.7,1.8c-0.1-0.1,0.1-0.2,0.3-0.6
	c0.3-0.5,0.7-1,1.1-1.5c2.9-3.1,6.9-4.8,11.1-4.7c0.6,0,1.2,0.1,1.9,0.2C203.5,71.3,203.7,71.3,203.7,71.4z"/>
<path class="st1" d="M204.3,74.7c0,0.1-1-0.1-2.5-0.1c-2,0-4,0.5-5.9,1.2c-1.9,0.8-3.5,1.9-5,3.3c-1.1,1.1-1.6,1.9-1.7,1.9
	c-0.1,0,0.1-0.2,0.3-0.6c0.3-0.5,0.7-1,1.1-1.5c1.4-1.5,3.1-2.8,5-3.6c1.9-0.8,4-1.2,6.1-1.1c0.6,0,1.2,0.1,1.9,0.2
	C204.1,74.5,204.4,74.6,204.3,74.7z"/>
<path class="st1" d="M205.1,78.1c0,0.1-1-0.1-2.5,0c-4.1,0.1-8,1.7-10.8,4.6c-1.1,1.1-1.6,1.9-1.7,1.8c0.1-0.2,0.2-0.4,0.3-0.6
	c0.3-0.5,0.7-1,1.1-1.5c2.9-3.1,6.9-4.8,11.1-4.7c0.6,0,1.2,0.1,1.9,0.2C204.7,78,204.9,78,205.1,78.1z"/>
<path class="st1" d="M206.1,82c0,0.1-1.1-0.1-2.7,0c-1,0-2,0.1-2.9,0.3c-2.4,0.5-4.6,1.3-6.7,2.6c-0.8,0.5-1.6,1.1-2.4,1.8
	c-1.3,1.1-1.8,2-1.9,2c0.1-0.2,0.2-0.5,0.4-0.7c0.2-0.2,0.3-0.5,0.5-0.7c0.2-0.3,0.5-0.6,0.8-0.9c0.7-0.7,1.5-1.3,2.4-1.9
	c1.1-0.7,2.2-1.2,3.3-1.7c1.2-0.4,2.4-0.8,3.6-1c1-0.2,2-0.2,3-0.2c0.4,0,0.7,0,1.1,0.1c0.3,0,0.6,0.1,0.9,0.1
	C205.9,81.9,206.1,81.9,206.1,82z"/>
<path class="st1" d="M206.3,85.1c0,0.1-1.1-0.1-2.7,0c-1,0.1-2,0.2-2.9,0.4c-1.2,0.3-2.3,0.7-3.4,1.1c-1.1,0.5-2.2,1-3.2,1.7
	c-0.8,0.5-1.6,1.2-2.3,1.8c-1.2,1.1-1.8,2-1.9,2c-0.1,0,0.1-0.3,0.4-0.7c0.2-0.3,0.3-0.5,0.5-0.7c0.2-0.3,0.5-0.6,0.8-0.9
	c0.7-0.7,1.5-1.4,2.3-1.9c2.1-1.4,4.4-2.4,6.8-2.9c1-0.2,2-0.3,3-0.3c0.4,0,0.8,0,1.2,0c0.3,0,0.6,0.1,0.9,0.1
	C206,85,206.3,85,206.3,85.1z"/>
<path class="st1" d="M182.6,91.2c-0.1,0-0.7-0.8-2.1-1.9c-3.5-3-8.2-4.1-12.7-2.9c-1.7,0.4-2.7,0.9-2.7,0.8c0.2-0.2,0.4-0.3,0.7-0.4
	c0.6-0.3,1.3-0.6,2-0.8c2.2-0.7,4.6-0.8,6.9-0.2c2.3,0.5,4.4,1.6,6.1,3.2c0.5,0.5,1,1,1.4,1.6C182.5,91,182.6,91.2,182.6,91.2z"/>
<path class="st1" d="M182.4,87.2c-0.1,0-0.7-0.8-2.1-1.9c-3.5-3-8.2-4.1-12.7-2.9c-1.7,0.4-2.7,0.9-2.7,0.8c0.2-0.2,0.4-0.3,0.7-0.4
	c0.6-0.3,1.3-0.6,1.9-0.8c4.6-1.4,9.5-0.2,13,3c0.5,0.5,1,1,1.4,1.6C182.3,87,182.4,87.2,182.4,87.2z"/>
<path class="st1" d="M182.1,83.3c-0.1,0-0.7-0.8-2.1-1.9c-3.5-3-8.2-4.1-12.7-2.9c-1.7,0.4-2.7,0.9-2.7,0.8c0.2-0.2,0.4-0.3,0.7-0.4
	c0.6-0.3,1.3-0.6,1.9-0.8c4.6-1.4,9.5-0.2,13,3c0.5,0.5,1,1,1.4,1.6C182,83,182.1,83.3,182.1,83.3z"/>
<path class="st1" d="M181.9,79.3c-0.1,0.1-0.7-0.8-2.1-1.9c-3.5-3-8.2-4.1-12.7-2.9c-1.7,0.4-2.7,0.9-2.7,0.8
	c0.2-0.2,0.4-0.3,0.6-0.4c0.6-0.3,1.3-0.6,2-0.8c4.6-1.4,9.5-0.2,13,3c0.5,0.5,1,1,1.4,1.6C181.8,79,181.9,79.2,181.9,79.3z"/>
<path class="st1" d="M181.6,75.3c-0.1,0-0.7-0.8-2.1-1.9c-3.5-3-8.2-4.1-12.7-2.9c-1.7,0.4-2.7,0.9-2.7,0.8c0.2-0.2,0.4-0.3,0.6-0.4
	c0.6-0.3,1.3-0.6,2-0.8c4.6-1.4,9.5-0.2,13,3c0.5,0.5,1,1,1.4,1.6C181.4,74.8,181.5,75,181.6,75.3z"/>
<path class="st1" d="M181.4,71.3c-0.1,0-0.7-0.8-2.1-1.9c-3.5-3-8.2-4.1-12.7-2.9c-1.7,0.4-2.7,0.9-2.7,0.8c0-0.1,0.2-0.2,0.6-0.4
	c0.6-0.3,1.3-0.6,2-0.8c4.6-1.4,9.5-0.2,13,3c0.5,0.5,1,1,1.4,1.6C181.2,70.8,181.3,71,181.4,71.3z"/>
<path class="st1" d="M537.5,81.7l0.1,2.8c0,0-15.3-5.1-23.9,0.1l0,0c-0.3,0.6-0.8,1-1.4,1.1l-3.7,0.6c-0.8,0.1-1.6-0.3-2-1l0,0
	c-5.9-2-12.4-1.2-17.8,2l-3.3,1.8l4-35.9l41.8-11.4L537.5,81.7z"/>
<path class="st2" d="M539.5,77.6l0.2,5c0,0-15.4-7.7-29.4,2.5l1.9-24.5C512.3,60.7,538,72.5,539.5,77.6z"/>
<path class="st0" d="M539.5,41c0,0-18.7-12.2-30.6,7.8l1.4,36.4c0,0,14.9-17.6,30.9-6.6L539.5,41z"/>
<path class="st2" d="M510.4,85.1c0,0-15.9-8.5-26.2,2.6l0.6-33.4L509,50L510.4,85.1z"/>
<path class="st0" d="M509,48.8c-4.7-5.7-12-8.8-19.4-8.1l-8.3,1.2l-1.7,33.6c0,0,21.2-4.3,30.8,9.7L509,48.8z"/>
<path class="st1" d="M510.4,85.1c0.1-0.5,0.1-1,0-1.4c0-1,0-2.3-0.1-3.9c-0.1-3.4-0.3-7.9-0.4-12.8s-0.3-9.4-0.4-12.8
	c0-1.5-0.1-2.8-0.1-3.9c0-0.5,0-1-0.1-1.4c-0.1,0.5-0.1,0.9-0.1,1.4c0,0.9-0.1,2.2-0.1,3.9c0,3.3,0.1,7.8,0.2,12.9
	c0.2,5.1,0.4,9.6,0.6,12.8c0.1,1.6,0.2,3,0.3,3.9C510.2,84.2,510.2,84.7,510.4,85.1z"/>
<path class="st1" d="M489,46.1c0,0.1,1.1-0.2,2.9-0.3c4.8-0.2,9.4,1.3,13.1,4.4c1.4,1.2,2.1,2.1,2.2,2c0.1-0.1-0.1-0.3-0.4-0.7
	c-0.4-0.6-0.9-1.2-1.5-1.7c-3.6-3.3-8.5-5-13.3-4.4c-0.7,0.1-1.4,0.2-2.1,0.4C489.2,46,488.9,46.1,489,46.1z"/>
<path class="st1" d="M488.3,49.9c0,0.1,1.1-0.2,2.9-0.3c4.8-0.2,9.4,1.4,13.1,4.4c1.4,1.2,2.1,2.1,2.2,2c0.1-0.1-0.1-0.3-0.4-0.7
	c-0.4-0.6-0.9-1.1-1.5-1.6c-3.6-3.3-8.5-5-13.3-4.4c-0.7,0.1-1.5,0.2-2.2,0.4C488.6,49.8,488.3,49.9,488.3,49.9z"/>
<path class="st1" d="M488.4,54.1c0,0.1,1.1-0.2,2.9-0.3c2.4-0.1,4.7,0.2,6.9,0.9c2.2,0.8,4.3,1.9,6.1,3.4c1.4,1.2,2.1,2.1,2.2,2
	c0.1-0.1-0.1-0.3-0.4-0.7c-0.4-0.6-0.9-1.1-1.5-1.6c-3.6-3.3-8.5-5-13.3-4.4c-0.7,0.1-1.5,0.2-2.2,0.4
	C488.9,53.9,488.6,54,488.4,54.1z"/>
<path class="st1" d="M487.9,58c0,0.1,1.1-0.2,2.9-0.3c4.8-0.2,9.4,1.3,13.1,4.4c1.4,1.2,2.1,2.1,2.2,2c0.1-0.1-0.1-0.3-0.4-0.7
	c-0.4-0.6-0.9-1.1-1.5-1.6c-3.6-3.3-8.5-5-13.3-4.4c-0.7,0.1-1.4,0.2-2.1,0.4C488.2,57.8,487.9,57.9,487.9,58z"/>
<path class="st1" d="M487.3,62.2c0,0.1,1.1-0.2,2.9-0.3c4.8-0.3,9.4,1.3,13.1,4.3c1.4,1.2,2.1,2.1,2.2,2c0.1-0.1-0.1-0.3-0.4-0.7
	c-0.4-0.6-0.9-1.1-1.5-1.6c-3.6-3.3-8.5-5-13.3-4.4c-0.7,0.1-1.5,0.2-2.2,0.4C487.6,62,487.3,62.1,487.3,62.2z"/>
<path class="st1" d="M486.5,66.7c0,0.1,1.2-0.2,3.2-0.3c1.2,0,2.3,0,3.5,0.1c1.4,0.2,2.8,0.5,4.1,0.9c1.4,0.4,2.7,0.9,3.9,1.6
	c1,0.5,2,1.1,2.9,1.8c1.6,1.2,2.3,2.2,2.4,2.1c0.1-0.1-0.1-0.3-0.5-0.7c-0.2-0.3-0.4-0.5-0.7-0.8c-0.3-0.3-0.6-0.6-1-0.9
	c-0.9-0.8-1.9-1.4-2.9-2c-1.3-0.7-2.6-1.2-4-1.6c-1.4-0.4-2.8-0.7-4.3-0.8c-1.2-0.1-2.4-0.1-3.5,0c-0.5,0-0.9,0.1-1.3,0.2
	c-0.3,0.1-0.7,0.1-1,0.2C487,66.5,486.7,66.6,486.5,66.7z"/>
<path class="st1" d="M486.6,70.3c0,0.1,1.2-0.2,3.2-0.3c1.2,0,2.3,0,3.5,0.2c1.4,0.2,2.8,0.6,4.1,1c1.3,0.5,2.6,1,3.9,1.7
	c1,0.6,2,1.2,2.9,1.9c1.6,1.2,2.3,2.2,2.4,2.2c0.1-0.1-0.1-0.3-0.5-0.7c-0.2-0.3-0.4-0.5-0.7-0.8c-0.3-0.3-0.6-0.7-1-1
	c-0.9-0.8-1.9-1.5-2.9-2.1c-1.3-0.7-2.6-1.3-4-1.8c-1.4-0.4-2.8-0.8-4.2-1c-1.2-0.1-2.4-0.2-3.6-0.1c-0.5,0-0.9,0.1-1.4,0.2
	c-0.3,0-0.7,0.1-1,0.2C486.9,70.2,486.6,70.3,486.6,70.3z"/>
<path class="st1" d="M514.8,75.4c0.1,0,0.8-1,2.2-2.5c3.8-3.8,9.3-5.5,14.6-4.5c2,0.3,3.2,0.9,3.2,0.8c-0.2-0.2-0.5-0.3-0.8-0.4
	c-0.8-0.3-1.5-0.6-2.4-0.7c-5.5-1.2-11.2,0.6-15,4.7c-0.6,0.6-1.1,1.3-1.5,1.9C514.9,75.1,514.7,75.4,514.8,75.4z"/>
<path class="st1" d="M514.7,70.7c0.1,0,0.8-1,2.2-2.5c3.8-3.8,9.3-5.5,14.6-4.5c2,0.3,3.2,0.8,3.2,0.7c-0.2-0.2-0.5-0.3-0.8-0.4
	c-0.8-0.3-1.6-0.6-2.4-0.7c-5.5-1.2-11.1,0.6-15,4.7c-0.6,0.6-1.1,1.3-1.5,1.9C514.8,70.4,514.7,70.7,514.7,70.7z"/>
<path class="st1" d="M514.6,66c0.1,0,0.8-1,2.2-2.5c3.8-3.8,9.3-5.5,14.6-4.5c2,0.3,3.2,0.9,3.2,0.8c0-0.1-0.3-0.2-0.8-0.4
	c-0.8-0.3-1.5-0.6-2.4-0.7c-5.5-1.2-11.2,0.6-15,4.7c-0.6,0.6-1.1,1.2-1.5,1.9C514.7,65.7,514.6,66,514.6,66z"/>
<path class="st1" d="M514.6,61.4c0.1,0,0.8-1,2.2-2.5c3.8-3.8,9.3-5.5,14.6-4.5c2,0.3,3.2,0.8,3.2,0.8c0-0.1-0.3-0.2-0.8-0.4
	c-0.8-0.3-1.5-0.6-2.3-0.7c-5.5-1.2-11.2,0.6-15,4.7c-0.6,0.6-1.1,1.3-1.5,1.9C514.8,60.8,514.7,61.1,514.6,61.4z"/>
<path class="st1" d="M514.5,56.7c0.1,0.1,0.8-1,2.2-2.5c3.8-3.8,9.3-5.5,14.6-4.5c2,0.3,3.2,0.9,3.2,0.8c-0.2-0.2-0.5-0.3-0.8-0.4
	c-0.8-0.3-1.5-0.6-2.3-0.7c-5.5-1.2-11.2,0.6-15,4.7c-0.6,0.6-1.1,1.3-1.5,1.9C514.7,56.1,514.6,56.4,514.5,56.7z"/>
<path class="st1" d="M514.4,52c0.1,0,0.8-1,2.2-2.5c3.8-3.8,9.3-5.5,14.6-4.5c2,0.3,3.2,0.8,3.2,0.8c-0.2-0.2-0.5-0.3-0.8-0.4
	c-0.8-0.3-1.5-0.6-2.4-0.7c-5.5-1.2-11.1,0.6-15,4.7c-0.6,0.6-1.1,1.3-1.5,1.9C514.5,51.7,514.4,52,514.4,52z"/>
<path class="st3" d="M571.7,481.8c0,0.2-103.6,0.3-231.4,0.3s-231.4-0.1-231.4-0.3s103.6-0.3,231.4-0.3S571.7,481.7,571.7,481.8z"/>
<rect x="435.8" y="278.5" class="st0" width="48.7" height="58"/>
<rect x="217.2" y="274.7" class="st4" width="220.3" height="65.4"/>
<path class="st4" d="M486.1,280.2h-54.5v-5.5h54.5c1.5,0,2.7,1.2,2.7,2.7c0,0,0,0,0,0l0,0C488.8,279,487.6,280.2,486.1,280.2
	L486.1,280.2z"/>
<path class="st4" d="M486.1,340.1h-54.5v-5.5h54.5c1.5,0,2.7,1.2,2.7,2.7l0,0l0,0C488.8,338.9,487.6,340.1,486.1,340.1
	C486.1,340.1,486.1,340.1,486.1,340.1z"/>
<g class="st5">
	<rect x="394.2" y="274.7" width="26" height="65.4"/>
</g>
<g class="st5">
	<rect x="236.8" y="274.7" width="26" height="65.4"/>
</g>
<path class="st1" d="M484.6,288.1c0,0.2-10.6,0.3-23.6,0.3s-23.6-0.1-23.6-0.3c0-0.2,10.6-0.2,23.6-0.2
	C474.1,287.9,484.6,287.9,484.6,288.1z"/>
<path class="st1" d="M484.6,296.8c0,0.2-10.6,0.3-23.6,0.3s-23.6-0.1-23.6-0.3s10.6-0.3,23.6-0.3S484.6,296.6,484.6,296.8z"/>
<path class="st1" d="M484.6,307.5c0,0.2-10.6,0.3-23.6,0.3s-23.6-0.1-23.6-0.3c0-0.2,10.6-0.3,23.6-0.3S484.6,307.3,484.6,307.5z"/>
<path class="st1" d="M484.6,318.2c0,0.2-10.6,0.3-23.6,0.3s-23.6-0.1-23.6-0.3s10.6-0.3,23.6-0.3C474.1,317.9,484.6,318,484.6,318.2
	z"/>
<path class="st1" d="M484.6,328.9c0,0.2-10.6,0.3-23.6,0.3s-23.6-0.1-23.6-0.3s10.6-0.3,23.6-0.3S484.6,328.7,484.6,328.9z"/>
<g class="st6">
	<rect x="281.1" y="301.6" width="99.1" height="11.8"/>
</g>
<rect x="434.6" y="341.4" class="st7" width="49.5" height="35.3"/>
<rect x="224.5" y="340.1" class="st8" width="210.6" height="37.9"/>
<path class="st8" d="M433.6,342.7h53.2c0.7,0,1.3-0.6,1.3-1.3l0,0c0-0.7-0.6-1.3-1.3-1.3c0,0,0,0,0,0h-53.2V342.7z"/>
<path class="st8" d="M433.6,375.4h53.2c0.7,0,1.3,0.6,1.3,1.3l0,0c0,0.7-0.6,1.3-1.3,1.3h-53.2l0,0V375.4L433.6,375.4z"/>
<path class="st1" d="M484.1,348.1c0,0.2-11,0.3-24.5,0.3s-24.5-0.1-24.5-0.3s11-0.3,24.5-0.3C473.1,347.8,484.1,347.9,484.1,348.1z"
	/>
<path class="st1" d="M484.1,354.8c0,0.2-11,0.3-24.5,0.3s-24.5-0.1-24.5-0.3s11-0.3,24.5-0.3C473.1,354.5,484.1,354.6,484.1,354.8z"
	/>
<path class="st1" d="M484.1,361.5c0,0.2-11,0.3-24.5,0.3s-24.5-0.1-24.5-0.3s11-0.3,24.5-0.3C473.1,361.2,484.1,361.3,484.1,361.5z"
	/>
<path class="st1" d="M484.1,368.1c0,0.2-11,0.3-24.5,0.3s-24.5-0.1-24.5-0.3c0-0.2,11-0.3,24.5-0.3
	C473.1,367.9,484.1,368,484.1,368.1z"/>
<rect x="257.3" y="353.7" class="st3" width="145.3" height="9.9"/>
<rect x="441.1" y="381.4" class="st2" width="50.5" height="95.7"/>
<rect x="203.9" y="378" class="st9" width="237.1" height="103.8"/>
<path class="st9" d="M495.5,481.8h-61v-6.7h61c1.8,0,3.3,1.5,3.3,3.3l0,0C498.9,480.3,497.4,481.8,495.5,481.8z"/>
<path class="st9" d="M434.6,378h61c1.8,0,3.3,1.5,3.3,3.3l0,0c0,1.8-1.5,3.3-3.3,3.3h-61l0,0V378L434.6,378z"/>
<g class="st5">
	<polygon class="st10" points="390.1,378 340.2,481.8 382.3,481.8 429.6,378 	"/>
</g>
<g class="st5">
	<polygon class="st10" points="311.4,378 261.5,481.8 303.6,481.8 350.9,378 	"/>
</g>
<path class="st1" d="M491.6,394.2c0,0.2-11.3,0.3-25.3,0.3c-14,0-25.3-0.1-25.3-0.3s11.3-0.3,25.3-0.3
	C480.3,393.9,491.6,394,491.6,394.2z"/>
<path class="st1" d="M491.6,406.5c0,0.2-11.3,0.3-25.3,0.3c-14,0-25.3-0.1-25.3-0.3s11.3-0.3,25.3-0.3
	C480.3,406.2,491.6,406.3,491.6,406.5z"/>
<path class="st1" d="M491.6,418.7c0,0.2-11.3,0.3-25.3,0.3c-14,0-25.3-0.1-25.3-0.3s11.3-0.3,25.3-0.3
	C480.3,418.5,491.6,418.6,491.6,418.7z"/>
<path class="st1" d="M491.6,431c0,0.2-11.3,0.3-25.3,0.3c-14,0-25.3-0.1-25.3-0.3s11.3-0.3,25.3-0.3
	C480.3,430.7,491.6,430.9,491.6,431z"/>
<path class="st1" d="M491.6,443.3c0,0.2-11.3,0.3-25.3,0.3c-14,0-25.3-0.1-25.3-0.3c0-0.2,11.3-0.3,25.3-0.3
	C480.3,443,491.6,443.1,491.6,443.3z"/>
<path class="st1" d="M491.6,455.6c0,0.2-11.3,0.3-25.3,0.3c-14,0-25.3-0.1-25.3-0.3s11.3-0.3,25.3-0.3S491.6,455.4,491.6,455.6z"/>
<path class="st1" d="M491.6,467.8c0,0.2-11.3,0.3-25.3,0.3c-14,0-25.3-0.1-25.3-0.3s11.3-0.3,25.3-0.3S491.6,467.7,491.6,467.8z"/>
<path class="st11" d="M461.5,99.1l-15.5-24.8c-0.3-0.4-0.8-0.5-1.2-0.3c-0.1,0.1-0.2,0.2-0.3,0.3l-15.2,26.3L461.5,99.1z"/>
<g class="st12">
	<path d="M461.5,99.1l-15.5-24.8c-0.3-0.4-0.8-0.5-1.2-0.3c-0.1,0.1-0.2,0.2-0.3,0.3l-15.2,26.3L461.5,99.1z"/>
</g>
<polygon class="st2" points="446.1,75.5 460.5,99 456.8,98.5 433.2,94.7 442,76.2 "/>
<path class="st11" d="M447.6,121.8l13.9-22.7l-36.1-6.7c-1.2-0.2-2.4,0.3-3,1.4l-20.3,34.5c-0.5,0.8-0.2,1.9,0.6,2.4
	c0.2,0.1,0.4,0.2,0.6,0.2l33.9,6L447.6,121.8z"/>
<polygon class="st2" points="438,76.9 458,98.6 428.9,93.1 "/>
<path class="st3" d="M428.9,93.1c0-0.1,0.1-0.2,0.1-0.3l0.4-0.9l1.8-3.3c1.6-2.9,3.8-7,6.5-11.8l0.2-0.3l0.2,0.3l13.1,14.1l7,7.6
	l-0.4,0.3c-4.6-6.5-8.5-12.1-11.4-16.1l-3.3-4.7l-0.8-1.3c-0.1-0.1-0.2-0.3-0.3-0.5c0,0,0.1,0.1,0.4,0.4l0.9,1.2l3.4,4.6l11.5,16
	l-0.4,0.4l-7-7.6l-13-14.1h0.4c-2.7,4.8-5,8.9-6.7,11.7l-1.9,3.3l-0.5,0.8C429,93.1,428.9,93.2,428.9,93.1z"/>
<g class="st12">
	<path class="st10" d="M429.3,102.6c-0.3,0.5-12.1,20.2-12.1,20.2l19.3,3.6l12.8-20.4L429.3,102.6z"/>
</g>
<path class="st8" d="M284.3,438.9l10.6-13.8l0.6-0.7l18.1,13.4l-16.7,18.4l0.6,18.6c9.3,2.4,10.7,7.1,10.7,7.1h-19.4l-17.7-33.9
	L284.3,438.9z"/>
<path class="st2" d="M271.1,447.9l17.6,33.9h19.4c-0.5-1.1-1.3-2.1-2.2-2.9l-15.7-0.8l-16.2-32L271.1,447.9z"/>
<path class="st3" d="M297.2,466.2c-0.1,0.2-1.3-0.4-2.8-0.4s-2.6,0.7-2.7,0.5c-0.2-0.2,0.9-1.3,2.7-1.3
	C296.3,464.9,297.4,466,297.2,466.2z"/>
<path class="st3" d="M296.9,461.6c-0.2,0.1-1.1-1-2.6-1.3c-1.5-0.3-2.8,0.4-2.9,0.2s0.2-0.4,0.7-0.7c0.7-0.4,1.6-0.5,2.4-0.3
	c0.8,0.2,1.5,0.6,2.1,1.2C296.9,461.1,297,461.5,296.9,461.6z"/>
<path class="st3" d="M297,455.6c-0.2,0.1-0.9-1-2.2-1.5s-2.6,0-2.7-0.2c-0.1-0.2,0.2-0.4,0.7-0.6c0.7-0.3,1.5-0.3,2.2,0
	c0.7,0.3,1.3,0.7,1.7,1.4C297.1,455.2,297.1,455.6,297,455.6z"/>
<path class="st3" d="M302.2,451.1c-0.2,0.1-0.8-1-2-1.8c-1.2-0.8-2.4-0.9-2.4-1.1c0-0.2,1.4-0.6,2.9,0.4
	C302.2,449.5,302.5,451,302.2,451.1z"/>
<path class="st3" d="M304.8,447.1c-0.1,0.1-0.7-0.7-1.7-2l-1.6-2.3c-0.4-0.5-0.7-1-0.9-1.6c-0.1-0.4-0.1-0.8,0.1-1.2
	c0.2-0.4,0.7-0.7,1.2-0.6c0.7,0.1,1.3,0.5,1.8,0.9c0.5,0.4,0.9,0.8,1.2,1.3c0.5,0.8,0.9,1.8,1,2.8c0.2,0.9,0,1.9-0.4,2.6
	c0-0.9-0.1-1.7-0.2-2.5c-0.3-1.4-1-2.7-2.1-3.6c-0.4-0.3-0.8-0.6-1.3-0.7c-0.1,0-0.3,0-0.4,0.2c-0.1,0.2-0.1,0.4,0,0.6
	c0.2,0.5,0.5,0.9,0.8,1.3c0.5,0.8,1,1.6,1.5,2.4C304.1,445.4,304.5,446.2,304.8,447.1z"/>
<path class="st3" d="M305.4,447.7c-0.1,0,0-1,1-2.2c1.5-1.6,3.8-2,5.7-1c0.2,0.2,0.3,0.4,0.3,0.7c0,0.2-0.1,0.4-0.2,0.6
	c-0.2,0.2-0.4,0.4-0.7,0.6c-0.4,0.3-0.9,0.6-1.4,0.8c-0.8,0.4-1.7,0.6-2.5,0.7c-0.8,0.2-1.6,0.1-2.4-0.2c0.8-0.2,1.5-0.3,2.3-0.4
	c0.8-0.2,1.6-0.4,2.3-0.8c0.4-0.2,0.8-0.5,1.2-0.7c0.2-0.1,0.4-0.3,0.5-0.4c0.1-0.2,0.1-0.1,0-0.2c-0.2-0.1-0.4-0.2-0.6-0.2
	c-0.2-0.1-0.5-0.1-0.7-0.1c-0.5,0-0.9,0-1.4,0.1c-0.8,0.2-1.5,0.5-2.1,1.1C305.9,446.9,305.6,447.7,305.4,447.7z"/>
<path class="st2" d="M286.5,447.3c0,1.3-1,2.3-2.3,2.3c-1.3,0-2.3-1-2.3-2.3c0-1.3,1-2.3,2.3-2.3S286.5,446,286.5,447.3L286.5,447.3
	z"/>
<g class="st12">
	<polygon points="311.8,439.6 308,443.7 292.4,428.2 294.6,425.4 	"/>
</g>
<path class="st8" d="M360,445.9l-2,23.5c0,0,23.3,7.9,23.3,12.3l-45.8-0.2l1.6-36.8L360,445.9z"/>
<path class="st2" d="M344,466.8c-0.9,0.2-1.5,1.1-1.4,2.1c0.2,0.9,1.1,1.5,2,1.4c1-0.3,1.6-1.2,1.5-2.2c-0.3-1-1.3-1.5-2.3-1.2"/>
<path class="st2" d="M335.6,481.5l0.2-3.7l43.4,1c0,0,2.3,1.8,2.3,2.8L335.6,481.5z"/>
<path class="st3" d="M358.8,469.2c0,0.2-1.1,0.3-2.2,0.9c-1.1,0.7-1.8,1.6-2,1.5c-0.2-0.1,0.2-1.4,1.6-2.2
	C357.6,468.7,358.8,469,358.8,469.2z"/>
<path class="st3" d="M363.5,471.5c0,0.2-1,0.5-1.8,1.5c-0.8,0.9-1.1,1.9-1.3,1.9c-0.2,0-0.3-1.3,0.7-2.4
	C362.2,471.3,363.5,471.2,363.5,471.5z"/>
<path class="st3" d="M365.9,477.3c-0.2,0-0.5-1.1,0.2-2.3c0.6-1.2,1.7-1.6,1.8-1.4c0.1,0.2-0.6,0.8-1.1,1.8S366.2,477.3,365.9,477.3
	z"/>
<path class="st3" d="M358.6,463.8c-0.1,0.2-1.1-0.2-2.4-0.1c-1.3,0-2.2,0.4-2.4,0.2c-0.2-0.2,0.9-0.9,2.4-1
	C357.7,462.9,358.8,463.7,358.6,463.8z"/>
<path class="st3" d="M358.9,459.1c-0.8,0.2-1.6,0.1-2.3-0.1c-0.8-0.2-1.6-0.5-2.4-0.9c-0.4-0.2-0.9-0.5-1.3-0.8
	c-0.2-0.2-0.5-0.3-0.7-0.6c-0.3-0.4-0.3-0.8,0-1.2c0.2-0.3,0.6-0.5,1-0.5c0.3,0,0.6,0.1,0.8,0.2c0.5,0.1,1,0.3,1.4,0.6
	c0.8,0.4,1.5,0.9,2.1,1.5c1,1,1.3,1.9,1.3,1.9c-0.1,0-0.6-0.7-1.6-1.5c-0.6-0.5-1.3-0.9-2-1.3c-0.4-0.2-0.8-0.3-1.3-0.5
	c-0.5-0.1-0.9-0.2-1,0s-0.1,0.1,0,0.3c0.1,0.2,0.3,0.3,0.5,0.4c0.4,0.3,0.8,0.5,1.2,0.8c0.7,0.4,1.5,0.7,2.2,1
	C357.6,458.6,358.3,458.8,358.9,459.1z"/>
<path class="st3" d="M358.6,459.4c-0.1,0-0.5-0.8-0.5-2.2c0-0.8,0.1-1.7,0.4-2.5c0.2-0.5,0.4-0.9,0.6-1.4c0.3-0.6,0.9-1,1.5-1.1
	c0.4,0,0.8,0.3,0.9,0.7c0.1,0.3,0.2,0.6,0.2,0.9c0.1,0.5,0,1-0.1,1.5c-0.2,0.9-0.6,1.6-1.1,2.3c-1,1.1-1.9,1.4-1.9,1.3
	c0-0.1,0.7-0.5,1.5-1.6c0.4-0.6,0.7-1.4,0.8-2.1c0.1-0.4,0.1-0.9,0-1.3c-0.1-0.5-0.2-0.9-0.4-0.9s-0.6,0.3-0.8,0.7
	c-0.3,0.4-0.5,0.8-0.6,1.2c-0.3,0.7-0.5,1.5-0.6,2.2C358.6,458.5,358.8,459.4,358.6,459.4z"/>
<path class="st13" d="M452.8,129.2c0.4-1.3,0.4-2.8-0.2-4c-1.9-4.4-6.3-14.5-8-14.2c-1.4,0.3-2.5,3-0.8,6l-5.2-4.4
	c-0.6-0.5-1.6-0.5-2.1,0.2c-0.3,0.3-0.4,0.8-0.3,1.2c0.1,0.7,0.3,1.3,0.6,1.9c1.6,3.4,6.1,6.7,6.1,6.7l-9.1,0.1c0,0-1.7,2.4,1.4,4
	c0.7,0.3,1.5,0.6,2.2,0.6l4.7,0.5c0,0-8.5,9.4-8.8,10.3c-0.4,1.4-0.7,2.9-0.8,4.3l-16.3,18.2l4.4,27.6l29.5-51.1L452.8,129.2z"/>
<path class="st14" d="M450.5,125.1c-0.1,0.1-0.4-0.4-1-0.9c-0.9-0.6-1.8-1-2.9-1.2c-1.1-0.2-2.1-0.2-3.2-0.2c-0.5,0.1-0.9,0-1.4-0.1
	c0-0.1,0.5-0.2,1.3-0.3c1.1-0.2,2.2-0.2,3.3,0c1.1,0.2,2.2,0.7,3,1.5C450.4,124.5,450.5,125,450.5,125.1z"/>
<path class="st14" d="M450.6,122.2c-1.3-0.7-2.6-1.5-3.7-2.5c-1.2-0.9-2.4-1.9-3.3-3c1.3,0.7,2.6,1.6,3.7,2.6
	C448.5,120,449.6,121.1,450.6,122.2z"/>
<path class="st3" d="M370,258.5c0.2,0,1.1,54.5,1.5,79c0.1,7.7-1.9,15.3-5.8,22L312.5,453L282,427.6l49.4-83.5l-18.2-88l36-31
	L370,258.5z"/>
<path class="st3" d="M395.9,247.4c-0.2,3.1-28.9,205.2-28.9,205.2l-35.6-2.5l13.1-203.9L395.9,247.4z"/>
<path class="st8" d="M366.1,261.6c0,0,0,0.2,0.1,0.5c0.1,0.3,0.1,0.9,0.2,1.6c0.1,1.4,0.3,3.4,0.5,6c0.4,5.2,1,12.8,1.7,22.1
	s1.5,20.4,2.4,32.7c0.2,3.1,0.4,6.2,0.6,9.5c0.1,1.6,0.2,3.3,0.2,4.9c0,1.7-0.2,3.4-0.5,5c-0.6,3.4-1.6,6.7-3.1,9.8
	c-0.7,1.6-1.6,3.1-2.5,4.6l-2.6,4.6l-35.7,63.7c-4.6,8.1-8.3,14.7-10.9,19.3c-1.3,2.2-2.3,4-3,5.2l-0.8,1.4l-0.3,0.4
	c0,0,0.1-0.2,0.2-0.5l0.7-1.4l2.9-5.3l10.7-19.4c9.1-16.4,21.6-38.9,35.5-63.8c0.9-1.6,1.7-3.1,2.6-4.6c0.9-1.5,1.7-3,2.4-4.6
	c1.5-3.1,2.5-6.3,3.1-9.7c0.3-1.6,0.4-3.3,0.5-4.9c0.1-1.6-0.1-3.3-0.2-4.9c-0.2-3.2-0.4-6.4-0.6-9.5c-0.9-12.3-1.6-23.4-2.3-32.8
	c-0.6-9.3-1.2-16.8-1.6-22.1c-0.2-2.6-0.3-4.6-0.4-6c0-0.7-0.1-1.2-0.1-1.6C366.1,261.7,366.1,261.6,366.1,261.6z"/>
<path class="st8" d="M341.7,357.1c-0.2,0-0.5,0-0.7-0.1c-0.6-0.2-1.3-0.4-1.9-0.7c-4-2-6.8-5.8-7.6-10.2c-0.1-0.7-0.2-1.3-0.1-2
	c0-0.5,0-0.7,0.1-0.7s0.1,1,0.4,2.6c1,4.2,3.6,7.8,7.4,9.9C340.8,356.7,341.8,357,341.7,357.1z"/>
<path class="st8" d="M345.8,351c-0.9,0.2-1.7,0.2-2.6,0c-2.1-0.3-4.1-1-5.9-2c-1.8-1.1-3.4-2.5-4.7-4.1c-0.6-0.7-1-1.4-1.3-2.2
	c0.1,0,0.6,0.8,1.6,2c2.6,3.1,6.3,5.3,10.3,6C344.8,350.9,345.8,350.9,345.8,351z"/>
<path class="st8" d="M320.7,264.5c0,0,0.2,0.3,0.9,0.6c0.9,0.3,1.9,0.3,2.7-0.2c1.2-0.7,2.4-1.6,3.5-2.5c1.3-1,2.6-2.2,4-3.5
	c2.3-2.2,4.5-4.6,6.5-7.1c1.5-1.9,2.4-3.2,2.5-3.1c-0.1,0.3-0.3,0.7-0.5,1c-0.4,0.6-0.9,1.4-1.6,2.4c-1.9,2.6-4.1,5.1-6.4,7.3
	c-1.4,1.3-2.8,2.5-4.1,3.5c-1.1,0.9-2.4,1.8-3.7,2.4c-0.9,0.5-2,0.5-3,0C320.8,264.9,320.7,264.5,320.7,264.5z"/>
<path class="st8" d="M340.5,262.8c-0.4,1.1-0.8,2.1-1.4,3.1c-1.3,2.5-3,4.7-5.1,6.5c-2.2,1.8-4.9,2.9-7.8,3c-0.9,0-1.7-0.1-2.5-0.4
	c-0.3-0.1-0.6-0.2-0.9-0.4c1.1,0.2,2.2,0.3,3.3,0.3c2.7-0.2,5.3-1.2,7.4-3c2.1-1.8,3.8-3.9,5.1-6.3
	C339.2,264.8,339.8,263.8,340.5,262.8z"/>
<path class="st15" d="M395.9,247.4c0,0-27.5,12.8-37.3,8.4c-9.9-4.4-16.3-14.6-23.4-12.2c-7.1,2.4-18,4.4-21.7,14.6
	c-1.6-1.7-2.5-4-2.4-6.4c0-4,3.3-9.3,3.3-9.3l-4.4-45.9l0.2-77.1c0,0,7.6-11.4,28.4-10.7l28.6,4.1c0,0,14.6,4.4,18.7,11.9
	c4.1,7.4,2.4,60.6,2.4,60.6s9.1,51.5,9.1,55.6C397.2,243.1,396.8,245.3,395.9,247.4"/>
<path class="st15" d="M412.2,159.7l-11.8,10.5l-14.6-45.5l-12.2,27.4l4.9,44.5c0.8,7.1,6,13,12.9,14.7l0,0
	c5.4,1.3,11.2-0.1,15.3-3.8l12.5-10.7c1.8-1.5,2.7-3.9,2.3-6.2l-4.6-29.3c-0.2-1.5-1.6-2.6-3.2-2.4
	C413.1,159.1,412.6,159.3,412.2,159.7z"/>
<path class="st13" d="M322.8,147.4c0,1-5.5,50.7-5.5,50.7l23.2,50.2c-2.2,4.7-6.6,9-11.4,13.2c0,0-5.9-5.4-6.3-17
	c0,0-26.4-31-29.1-39.2c-2.7-8.2,4.8-63.8,4.8-63.8L322.8,147.4z"/>
<path class="st3" d="M381.8,156c-0.1,0.4-0.3,0.7-0.5,1c-0.3,0.6-0.9,1.5-1.5,2.6c-0.7,1.3-1.5,2.6-2.4,3.8c-0.5,0.8-1.2,1.4-2,1.9
	c-0.9,0.5-1.8,0.8-2.8,0.8c-1.9,0-3.8-0.6-5.3-1.7c-1.2-0.9-2.3-2.1-3.1-3.3c-0.6-0.8-1.1-1.7-1.6-2.6c-0.2-0.3-0.4-0.6-0.5-1
	c0.1-0.1,0.9,1.3,2.4,3.3c0.9,1.2,1.9,2.2,3.1,3.1c1.5,1,3.2,1.6,5,1.5c0.9,0,1.8-0.3,2.6-0.7c0.7-0.4,1.4-1,1.9-1.7
	c1-1.3,1.7-2.7,2.5-3.7c0.7-1.1,1.3-1.9,1.7-2.5C381.3,156.6,381.6,156.3,381.8,156z"/>
<path class="st3" d="M398.9,197.2c-0.2-0.3-0.3-0.6-0.4-1c-0.4-0.9-0.6-1.9-0.9-2.9c-1.6-6.5-1.3-13.3,1-19.6
	c0.3-0.9,0.7-1.9,1.2-2.8c0.1-0.3,0.3-0.7,0.5-1c0.1,0-0.6,1.5-1.3,3.9c-1,3.1-1.6,6.4-1.7,9.6c-0.2,3.3,0.1,6.6,0.8,9.8
	C398.5,195.7,399,197.2,398.9,197.2z"/>
<path class="st3" d="M405.1,188.1c-0.6-0.7-1.1-1.5-1.4-2.4c-2-4-3.2-8.4-3.5-12.9c-0.1-0.9-0.1-1.9,0-2.8c0.2,0.9,0.3,1.8,0.4,2.7
	c0.2,2.2,0.7,4.4,1.2,6.5c0.6,2.1,1.3,4.2,2.2,6.3C404.5,186.4,404.8,187.3,405.1,188.1z"/>
<path class="st3" d="M381,165.3c0,0,0.1,0.2,0.3,0.5c0.2,0.5,0.4,1,0.6,1.5c0.6,1.9,0.8,3.8,0.7,5.8c-0.1,2.9-1.3,5.7-3.3,7.9
	c-1.2,1.3-2.6,2.3-4.2,3c-1.8,0.7-3.7,0.9-5.6,0.5c-1.9-0.4-3.6-1.3-4.9-2.6c-1.2-1.3-2-2.9-2.3-4.6c-0.3-1.5-0.6-3-0.7-4.6
	c-0.1-1.4-0.2-2.8-0.3-4c-0.2-2.4-0.3-4.3-0.4-5.8c0-0.6-0.1-1.1-0.1-1.6c0-0.2,0-0.4,0-0.6c0.1,0.2,0.1,0.4,0.1,0.5
	c0,0.4,0.1,0.9,0.2,1.6c0.2,1.5,0.4,3.4,0.6,5.8c0.1,1.2,0.2,2.6,0.4,4c0.1,1.5,0.4,3,0.7,4.4c0.4,1.6,1.1,3.1,2.2,4.3
	c1.2,1.3,2.8,2.1,4.6,2.5c1.7,0.4,3.5,0.2,5.2-0.4c1.5-0.6,2.9-1.6,4-2.8c1.9-2.1,3-4.8,3.2-7.6c0.1-1.9,0-3.8-0.5-5.7
	C381.3,166.1,381,165.4,381,165.3z"/>
<g class="st6">
	<path d="M324.8,214.2c0.4-3.6,1.3-7.2,2.6-10.6c1.6-4.2,3.7-8.4,3.8-12.9c-0.1-2.8-0.6-5.7-1.5-8.4l-8.1-29.2
		c-0.3,7.5-0.6,15.1-0.9,22.7c-0.2,1.8,0.1,3.7,0.8,5.4c1.2,2,3.7,2.8,5,4.6c1.1,1.4,1.3,3.3,0.7,5c-0.6,1.7-2.1,2.1-3.8,2.5
		c-0.8,0.2-1.6,0.4-2.4,0.5c-1.1,0.2-2.8-0.1-3.3,1c-1.3,2.6,0.1,4.2,0.7,5.5C321,206,324.8,214.2,324.8,214.2"/>
</g>
<path class="st15" d="M314.9,115.5c0,0-23.9,12.1-27.2,76.7c-0.2,3.8,2.7,7,6.5,7.2c0.5,0,1.1,0,1.6-0.1c9.8-1.9,24.7-4.8,24.6-5.2
	c-0.1-0.6,5.6-56.8,5.6-56.8L314.9,115.5z"/>
<path class="st3" d="M325.4,136.3c0,0,0,0.3,0,0.9s0,1.4,0,2.5c0,2.1-0.2,5.3-0.4,9.1s-0.6,8.4-1.2,13.4c-0.3,2.5-0.6,5.2-0.9,7.9
	c-0.2,1.4-0.3,2.8-0.5,4.2c-0.2,1.4-0.6,2.9-0.8,4.3c-0.1,0.7-0.1,1.4,0,2.1c0.2,0.7,0.5,1.2,1,1.7c0.9,1,2.2,1.5,3.3,2.5
	c1,1,1.6,2.3,1.8,3.8c0.1,0.7,0.1,1.4,0,2c0,1.5-1.2,2.6-2.7,2.6l-1.8,0.3l-3.4,0.7l-6.1,1.2l-8.9,1.9l-1.4,0.3l-0.6,0.1h-0.1
	c0,0,0-0.3,0-0.1l0,0h0.1h0.2c0.3-0.1,0.6-0.1,0.9-0.1c-0.3,0.1-0.5,0.2-0.8,0.2h-0.2h-0.1l0,0c0,0.1,0-0.2,0-0.1l0,0h0.1l0.6-0.1
	l1.4-0.3l8.9-2l6.1-1.3l3.4-0.7l1.8-0.4c0.5,0,1-0.2,1.5-0.5c0.7-1,0.9-2.3,0.6-3.5c-0.2-1.3-0.8-2.5-1.7-3.4
	c-0.9-0.9-2.3-1.4-3.3-2.6c-0.5-0.6-0.9-1.2-1.1-2c-0.1-0.8-0.1-1.5,0-2.3c0.2-1.5,0.7-2.8,0.8-4.2c0.1-1.4,0.3-2.8,0.5-4.2
	c0.3-2.7,0.6-5.4,0.9-7.9c0.6-5,1-9.6,1.3-13.4c0.3-3.8,0.5-6.9,0.6-9.1l0.1-2.5C325.3,136.9,325.4,136.6,325.4,136.3z"/>
<path class="st3" d="M315.6,175.9c0,0.3-0.1,0.5-0.1,0.8c-0.1,0.3-0.2,0.6-0.3,0.9c-0.1,0.4-0.3,0.8-0.5,1.1
	c-0.5,0.9-1.1,1.8-1.8,2.6c-0.9,0.9-1.9,1.8-3,2.5c-1.1,0.7-2.3,1.2-3.6,1.6c-1,0.3-2.1,0.4-3.1,0.4c-0.4,0-0.8,0-1.2,0
	c-0.3,0-0.6-0.1-0.9-0.1c-0.3,0-0.5-0.1-0.8-0.2c0-0.1,1.1,0.1,2.9,0c1-0.1,2-0.3,3-0.5c1.2-0.4,2.3-0.9,3.4-1.5
	c1.1-0.7,2-1.5,2.9-2.3c0.7-0.7,1.3-1.6,1.9-2.4C315.2,176.9,315.5,175.9,315.6,175.9z"/>
<g class="st6">
	<path d="M341.4,233.5c11.1,6.6,24.8,8.2,37.5,6.2c2.1-0.2,4.2-0.8,6.1-1.8c1.9-1,3.3-2.7,3.8-4.8c0.4-2.2-0.7-4.3-2.7-5.2
		c-2-0.7-4.2,0.4-6.1,1.4c-12.2,6.1-26.1,7.5-39.2,4"/>
</g>
<path class="st3" d="M393.3,234.5c-0.1,0.1-0.3,0.3-0.5,0.4c-0.3,0.2-0.8,0.6-1.5,1c-1.8,1.1-3.8,2-5.8,2.7c-6.8,2.2-14,2.9-21,1.9
	c-7-1.1-13.9-2.9-20.4-5.5c-2.5-1-4.6-1.8-6-2.3l-1.6-0.7c-0.2-0.1-0.4-0.2-0.5-0.3c0.2,0,0.4,0.1,0.6,0.2l1.6,0.6l6,2.2
	c6.6,2.5,13.4,4.3,20.4,5.3c7,1,14.1,0.4,20.8-1.7c2-0.7,4-1.5,5.8-2.5C392.5,234.9,393.3,234.5,393.3,234.5z"/>
<g class="st6">
	<path d="M392.6,211.5c3.3-3.3,3.3-9.4,2.7-14s-2.5-9.2-3.1-13.9c-0.6-4.4-0.2-9-0.4-13.5s-1.2-9.2-4.1-12.6
		C386,175.6,387.7,193.9,392.6,211.5"/>
</g>
<g class="st6">
	<path d="M361,162.6c-0.5,3,0,6.1-0.3,9.1c-0.4,3-0.4,6.1,0,9.1c0.4,3,1.8,5.9,4,8c2.3,2.1,5.5,2.8,8.5,1.7c2.8-1.4,4.5-4.4,4.3-7.5
		c-2,1-4.2,1.4-6.5,1.2c-2.2-0.2-4.3-1.2-5.9-2.8c-2.1-2.6-3.2-5.7-3.3-9C361.6,169.1,361.2,165.8,361,162.6"/>
</g>
<path class="st7" d="M323.9,154.3c-0.4,0.1-0.8,0.2-1.2,0.3c-0.8,0.1-1.9,0.3-3.3,0.5c-3.7,0.5-7.4,0.5-11,0
	c-3.7-0.5-7.2-2-10.1-4.3c-0.9-0.7-1.6-1.5-2.3-2.4c-0.3-0.3-0.5-0.7-0.6-1.1c1,1.2,2,2.2,3.2,3.2c2.9,2.2,6.3,3.6,9.9,4.1
	c3.6,0.5,7.3,0.5,10.9,0.1l3.3-0.3C323.1,154.2,323.5,154.2,323.9,154.3z"/>
<path class="st7" d="M322.3,162.8c-0.4,0.2-0.8,0.3-1.2,0.4c-0.5,0.1-0.9,0.3-1.4,0.4c-0.6,0.1-1.2,0.3-1.9,0.4
	c-1.7,0.2-3.4,0.4-5.1,0.3c-2.1-0.1-4.1-0.3-6.2-0.7c-2-0.5-4-1.1-5.9-1.9c-1.5-0.7-3-1.5-4.4-2.4c-0.6-0.4-1.1-0.8-1.6-1.1
	c-0.4-0.3-0.8-0.6-1.1-0.9c-0.3-0.3-0.6-0.5-0.9-0.9c0.1-0.1,1.4,1.1,3.9,2.6c1.4,0.8,2.9,1.6,4.4,2.2c3.8,1.6,7.8,2.4,11.9,2.6
	c1.7,0.1,3.3,0,5-0.2C320.6,163.2,322.3,162.7,322.3,162.8z"/>
<path class="st7" d="M360.1,161.4c0,0.2-8.1,0.1-18-0.2c-9.9-0.3-18-0.6-18-0.8c0-0.2,8.1-0.1,18,0.2S360.1,161.3,360.1,161.4z"/>
<path class="st7" d="M361.3,170.4c-0.5,0.2-1,0.4-1.5,0.5c-1,0.3-2.4,0.6-4.1,0.9c-4.6,0.9-9.2,1.3-13.8,1.4
	c-4.6,0-9.3-0.3-13.9-1.1c-1.8-0.3-3.2-0.6-4.1-0.9c-0.5-0.1-1-0.2-1.5-0.4c0.5,0,1,0.1,1.5,0.2c1,0.2,2.4,0.4,4.1,0.7
	c9.2,1.3,18.5,1.2,27.6-0.3c1.7-0.3,3.2-0.6,4.1-0.8C360.2,170.5,360.7,170.4,361.3,170.4z"/>
<path class="st7" d="M382.1,168.7c-0.1,0.3-0.2,0.6-0.4,0.8c-0.4,0.7-1,1.3-1.6,1.9c-2.2,1.7-5,2.4-7.7,2.1
	c-2.7-0.4-5.3-1.3-7.6-2.7c-1-0.5-1.9-1.1-2.8-1.9c1,0.4,2,0.9,3,1.5c2.3,1.3,4.8,2.1,7.5,2.5c2.6,0.3,5.3-0.3,7.4-1.8
	C380.7,170.4,381.5,169.6,382.1,168.7z"/>
<path class="st7" d="M387.2,161.9c-0.9,0.5-1.9,0.8-2.9,0.9c-1,0.3-2,0.4-3,0.3c0.9-0.5,1.9-0.8,2.9-0.9
	C385.1,162,386.2,161.8,387.2,161.9z"/>
<path class="st7" d="M397.9,162.3c-1.6,1.1-3.3,2-5.2,2.6c-1.8,0.7-3.6,1.2-5.6,1.4c0-0.2,2.4-0.8,5.4-1.9
	C395.5,163.2,397.8,162.1,397.9,162.3z"/>
<path class="st7" d="M394.4,151.6c-1.1,0.4-2.2,0.8-3.4,1c-1.1,0.4-2.3,0.7-3.4,0.9C389.6,152.2,391.9,151.6,394.4,151.6z"/>
<path class="st3" d="M388.3,147.6c0,0.2,0,0.4,0,0.7l-0.2,1.9c-0.1,0.8-0.2,1.8-0.2,3c-0.1,1.2-0.2,2.5-0.3,3.9
	c-0.2,2.9-0.3,6.4-0.3,10.2c0,3.8,0.1,8.1,0.4,12.5c0.3,4.4,0.7,8.6,1.2,12.5c0.5,3.8,1.1,7.2,1.6,10.1c0.3,1.4,0.5,2.7,0.8,3.8
	c0.2,1.1,0.4,2.1,0.6,2.9s0.3,1.4,0.4,1.8c0.1,0.2,0.1,0.4,0.1,0.6c-0.1-0.2-0.2-0.4-0.2-0.6l-0.5-1.8c-0.2-0.8-0.5-1.8-0.7-2.9
	c-0.3-1.1-0.6-2.4-0.8-3.8c-0.6-2.9-1.2-6.3-1.7-10.1c-0.6-3.8-1-8.1-1.3-12.5s-0.4-8.7-0.3-12.6c0-3.9,0.2-7.3,0.4-10.2
	c0.1-1.5,0.2-2.8,0.3-3.9s0.2-2.1,0.3-2.9c0.1-0.8,0.2-1.4,0.3-1.9C388.2,148,388.2,147.8,388.3,147.6z"/>
<g class="st6">
	<path d="M364,160.6c3.4,2.2,7.7,2.5,11.4,0.8c0.4-0.2,0.9-0.4,1.3-0.5c0.5-0.1,1,0.1,1.3,0.5c0.3,0.6,0.1,1.3-0.4,1.8
		c-1.8,2.1-4.6,3-7.2,2.2c-2.6-0.8-4.8-2.5-6.2-4.8"/>
</g>
<path class="st3" d="M343.2,65.6c-0.7-2.5-1.1-5.1-1.3-7.7c-0.2-2.6,0.5-5.3,1.8-7.5c1.4-2.3,3.8-3.8,6.4-3.9c1.6,0,3.2,0.5,4.8,0.2
	c1.8-0.3,3.3-1.7,4.8-2.7c2.5-1.6,5.4-2.4,8.3-2.2c1.5,0.1,3,0.6,4.2,1.5c1.3,0.9,2,2.3,2,3.9c1.9-0.4,3.8-0.5,5.6-0.4
	c1.9,0.1,3.7,1,4.9,2.5c1.2,1.5,1.4,3.6,0.3,5.2c1.8-0.5,3.6,0.4,4.3,2.1c0.6,1.7,0.2,3.6-1.1,4.9c-1.6,1.3-3.6,2-5.6,2
	c-1.9,0-3.7-0.4-5.4-1.1"/>
<path class="st13" d="M349.4,124.6L349.4,124.6c7.1,1.6,14.1-2.8,15.8-9.8c0.1-0.6,0.2-1.1,0.3-1.7c0.4-4.2,0.8-7.8,0.9-8.4
	c0,0,10.6,0.2,12.6-10.1s4.3-34.5,4.3-34.5l0,0c-11.1-7.3-25.2-7.9-37-1.8l-1.7,0.9l-5.2,51.1C338.6,117,342.9,123,349.4,124.6z"/>
<path class="st14" d="M366.3,104.5c-4.8-0.7-9.3-2.9-12.8-6.2c0,0,1.9,8,12.4,8.9L366.3,104.5z"/>
<path class="st13" d="M343.9,70.2c-0.2-0.1-6.7-3.3-7.8,3.8c-1,7.1,6.3,6.7,6.4,6.5C342.5,80.2,343.9,70.2,343.9,70.2z"/>
<path class="st14" d="M340.7,77.4c0,0-0.1,0.1-0.4,0.1c-0.3,0.1-0.6,0-0.9-0.1c-0.9-0.7-1.2-1.9-1-3c0.1-0.6,0.3-1.2,0.6-1.7
	c0.2-0.4,0.6-0.8,1.1-0.8c0.3,0,0.6,0.2,0.7,0.4c0.1,0.2,0,0.4,0,0.4c0,0,0.2-0.1,0.1-0.4c0-0.2-0.1-0.4-0.2-0.5
	c-0.2-0.2-0.4-0.3-0.7-0.3c-0.6,0-1.2,0.4-1.5,0.9c-0.4,0.6-0.6,1.2-0.7,1.9c-0.3,1.3,0.3,2.6,1.4,3.3c0.4,0.2,0.8,0.2,1.2,0
	C340.7,77.6,340.7,77.4,340.7,77.4z"/>
<path class="st3" d="M378,76c-0.1,0.8-0.9,1.3-1.7,1.2c-0.8-0.1-1.4-0.8-1.3-1.5c0,0,0,0,0,0c0.1-0.8,0.9-1.4,1.7-1.3
	C377.5,74.5,378.1,75.2,378,76C378,76,378,76,378,76z"/>
<path class="st3" d="M378.7,74.4c-0.2,0.2-1.2-0.9-2.8-1.1c-1.6-0.2-2.9,0.3-3,0.1s0.2-0.4,0.8-0.7c0.8-0.4,1.6-0.5,2.5-0.3
	c0.8,0.1,1.6,0.5,2.2,1.1C378.7,73.9,378.8,74.3,378.7,74.4z"/>
<path class="st3" d="M362.6,73.3c-0.1,0.8-0.9,1.4-1.7,1.2c-0.8-0.1-1.4-0.8-1.3-1.6c0,0,0,0,0,0c0.1-0.8,0.9-1.4,1.7-1.2
	C362,71.7,362.6,72.4,362.6,73.3C362.6,73.3,362.6,73.3,362.6,73.3z"/>
<path class="st3" d="M363,71.9c-0.2,0.2-1.2-0.9-2.8-1.1c-1.6-0.3-2.9,0.3-3,0.1s0.2-0.4,0.7-0.7c0.8-0.4,1.6-0.5,2.5-0.3
	c0.8,0.1,1.6,0.5,2.2,1.1C363,71.5,363.1,71.8,363,71.9z"/>
<path class="st3" d="M366.7,84.7c0.9-0.1,1.8-0.1,2.7,0c0.4,0,0.8,0,0.9-0.3c0.1-0.4,0.1-0.8,0-1.2c-0.2-1.1-0.4-2.2-0.7-3.3
	c-0.9-4.7-1.5-8.5-1.3-8.6c0.2,0,1.1,3.7,2,8.4c0.2,1.1,0.4,2.2,0.6,3.3c0.2,0.5,0.1,1.1-0.1,1.6c-0.2,0.3-0.5,0.4-0.8,0.5
	c-0.2,0-0.5,0-0.7,0C368.5,85.2,367.6,85,366.7,84.7z"/>
<path class="st3" d="M361.8,85c0.3,0,0,1.8,1.2,3.2c1.2,1.5,3.1,1.6,3.1,1.9c0,0.2-0.5,0.3-1.2,0.1c-1-0.2-1.9-0.7-2.6-1.5
	c-0.6-0.7-1-1.7-0.9-2.7C361.4,85.4,361.7,85,361.8,85z"/>
<path class="st3" d="M378.6,71.4c-0.3,0.3-1.4-0.3-2.7-0.5c-1.3-0.2-2.5-0.2-2.7-0.6c-0.1-0.2,0.2-0.5,0.7-0.8
	c1.5-0.6,3.2-0.3,4.3,0.9C378.6,70.9,378.7,71.3,378.6,71.4z"/>
<path class="st3" d="M361.9,65.8c-0.2,0.2-0.6,0-1.1-0.2c-0.6-0.3-1.3-0.5-1.9-0.6c-0.7-0.1-1.3-0.2-2-0.2c-0.5,0-1,0-1.1-0.3
	c-0.1-0.3,0.1-0.6,0.7-1c1.8-0.8,3.9-0.4,5.1,1.1C362.1,65.2,362.1,65.6,361.9,65.8z"/>
<path class="st3" d="M383.1,63.4c-5.2,0.5-10.5-0.7-15-3.4c-5-3-11-4.7-12.4-3.7c-1.4,0.9-2.1,6.3-7.3,7.5c0,0-0.4,10.2-4.4,9.6
	c-4.1-0.7-0.4-16.3-0.4-16.3l10.3-4.1l11-1.3l10.2,0.7l9.3,3.6L383.1,63.4z"/>
<path class="st16" d="M156.8,353.4c-8.8-13.5-7.5-32.8,3-45.1c3.3-3.8,7.9-7.1,12.9-6.7c5,0.4,9.2,4.8,10.8,9.7
	c1.6,4.9,1,10.2,0.1,15.2c-1.3,7.1-3.4,14.3-8.3,19.6S163.1,356.8,156.8,353.4"/>
<path class="st16" d="M161.7,418.5c-3.3-8.1-1-17.3,5.6-22.9c2-1.7,4.7-2.9,7.2-2.2s4.3,3.3,4.7,6c0.2,2.7-0.3,5.4-1.3,7.9
	c-1.3,3.5-3.1,7.1-6.1,9.3C168.9,418.8,164.7,420.9,161.7,418.5"/>
<path class="st16" d="M140.4,413.8c2.2-12.4-3.7-24.8-14.7-30.9c-3.3-1.7-7.5-2.8-10.9-1.1c-3.4,1.7-5.1,6-4.9,9.9
	c0.3,3.9,2.1,7.5,4.2,10.8c2.9,4.6,6.4,9.1,11.4,11.4C130.4,416.2,136.9,418,140.4,413.8"/>
<path class="st16" d="M142,381.4c4.2-13.7-2.9-30.2-14.9-38.1c-3.7-2.4-8.4-4.1-12.6-2.5c-4.1,1.6-6.7,6.4-6.8,10.9s1.6,8.9,3.6,13
	c2.8,5.7,6.4,11.3,11.9,14.6S137.4,385.9,142,381.4"/>
<path class="st3" d="M150.4,448.2c-0.1-0.2-0.1-0.4-0.1-0.7c-0.1-0.5-0.2-1.1-0.3-1.9c0-0.4-0.1-0.9-0.2-1.4c-0.1-0.5-0.2-1-0.3-1.6
	c-0.2-1.2-0.5-2.5-0.8-3.9c-0.2-0.7-0.4-1.5-0.5-2.3c-0.2-0.8-0.5-1.6-0.7-2.4c-0.5-1.7-1.1-3.4-1.8-5.3c-1.5-4-3.3-7.9-5.3-11.7
	c-2.1-3.8-4.3-7.4-6.8-10.9c-1.2-1.6-2.3-3.1-3.5-4.4c-0.6-0.7-1.1-1.3-1.6-1.9l-1.6-1.7c-1-1.1-2-2-2.8-2.9
	c-0.4-0.4-0.8-0.8-1.2-1.1c-0.4-0.3-0.7-0.6-1-0.9l-1.4-1.3c-0.2-0.1-0.3-0.3-0.5-0.5c0.2,0.1,0.4,0.2,0.6,0.4l1.5,1.2l1.1,0.9
	l1.2,1.1c0.9,0.8,1.9,1.7,2.9,2.8l1.6,1.7l1.7,1.9c1.2,1.3,2.3,2.8,3.5,4.4c2.5,3.5,4.8,7.1,6.8,10.9c2,3.8,3.8,7.7,5.3,11.8
	c0.6,1.9,1.3,3.7,1.7,5.4c0.2,0.8,0.5,1.7,0.7,2.5c0.2,0.8,0.4,1.6,0.5,2.3c0.4,1.5,0.6,2.8,0.8,4c0.1,0.6,0.2,1.1,0.3,1.6
	c0.1,0.5,0.1,1,0.1,1.4c0.1,0.8,0.1,1.4,0.2,1.9C150.4,447.7,150.4,448,150.4,448.2z"/>
<path class="st3" d="M150.1,450.6c0-0.1,0-0.2,0-0.3c0-0.2,0-0.5,0.1-0.8c0.1-0.7,0.2-1.8,0.3-3c0.1-0.7,0.1-1.4,0.2-2.2
	s0.1-1.7,0.1-2.6c0.1-1.9,0.2-4,0.2-6.4c0-1.2,0-2.4,0-3.7s-0.1-2.6-0.2-4c-0.1-2.8-0.5-5.7-0.8-8.8c-0.9-6.7-2.3-13.4-4.2-19.9
	c-2-6.5-4.4-12.8-7.3-18.9c-1.4-2.8-2.7-5.5-4.1-7.8c-0.7-1.2-1.3-2.4-2-3.5l-2-3.1c-1.2-2-2.5-3.7-3.6-5.2c-0.5-0.8-1-1.5-1.5-2.1
	l-1.4-1.7l-1.9-2.4l-0.5-0.6c-0.1-0.1-0.2-0.2-0.2-0.2l0.2,0.2c0.1,0.2,0.3,0.4,0.5,0.6l2,2.3l1.4,1.7c0.5,0.6,1,1.3,1.6,2.1
	c1.1,1.5,2.4,3.2,3.7,5.2c0.6,1,1.3,2,2,3.1c0.7,1.1,1.3,2.2,2.1,3.5c1.5,2.4,2.8,5.1,4.2,7.8c2.9,6.1,5.4,12.5,7.4,19
	c1.9,6.5,3.3,13.2,4.2,20c0.3,3.1,0.7,6.1,0.8,8.9c0,1.4,0.2,2.7,0.2,4s0,2.5,0,3.7c0,2.4-0.2,4.5-0.3,6.4c-0.1,0.9-0.1,1.8-0.2,2.6
	c-0.1,0.8-0.2,1.5-0.3,2.2c-0.2,1.3-0.3,2.3-0.4,3c0,0.3-0.1,0.6-0.1,0.8C150.2,450.7,150.1,450.7,150.1,450.6z"/>
<path class="st3" d="M173.2,318c0,0.1-0.1,0.2-0.1,0.3l-0.4,0.7l-1.5,2.7c-0.3,0.6-0.7,1.2-1.1,1.9l-1.2,2.4
	c-0.4,0.9-0.9,1.8-1.4,2.7c-0.5,1-0.9,2-1.4,3.1c-0.5,1.1-1,2.2-1.5,3.5c-0.5,1.2-1,2.5-1.5,3.8c-0.3,0.7-0.5,1.3-0.8,2
	c-0.3,0.7-0.5,1.4-0.7,2.1c-0.5,1.4-1,2.9-1.5,4.4c-1.9,6.1-3.6,12.8-5.1,20c-1.5,7.2-2.5,14.1-3.2,20.4c-0.8,6.3-1.1,12-1.2,16.8
	c-0.1,2.4-0.1,4.6-0.2,6.5s0,3.5,0,4.9c0,1.3,0,2.3,0,3.1v0.8c0,0.1,0,0.2,0,0.3c0-0.1,0-0.2,0-0.3c0-0.2,0-0.5,0-0.8
	c0-0.8-0.1-1.8-0.2-3.1s-0.1-3-0.1-4.9s0-4.1,0.1-6.5c0.1-4.8,0.5-10.5,1.1-16.9c0.6-6.3,1.7-13.3,3.2-20.4c1.5-7.2,3.3-14,5.2-20
	l1.5-4.4c0.2-0.7,0.5-1.4,0.7-2.1s0.5-1.3,0.8-2c0.5-1.3,1-2.6,1.5-3.8c0.5-1.2,1-2.3,1.5-3.4c0.5-1.1,1-2.1,1.4-3.1l1.4-2.7
	l1.2-2.5c0.4-0.7,0.8-1.3,1.1-1.9l1.6-2.7c0.2-0.3,0.3-0.5,0.4-0.7C173,318.1,173.1,318,173.2,318z"/>
<path class="st3" d="M170.1,401c-0.3,0.6-0.6,1.1-0.9,1.6c-0.6,1-1.5,2.6-2.6,4.4c-1,1.9-2.2,4.2-3.3,6.9c-1.2,2.9-2.3,5.8-3.2,8.8
	c-0.9,3-1.6,6-2.2,9.1c-0.5,2.8-0.9,5.4-1.1,7.6c-0.2,2.2-0.3,3.9-0.4,5.1c0,0.6,0,1.3-0.2,1.9c-0.1-0.6-0.1-1.3-0.1-1.9
	c0-1.2,0-3,0.2-5.2c0.2-2.6,0.5-5.1,1-7.6c1.1-6.2,3-12.2,5.6-18c1-2.3,2.2-4.6,3.5-6.8c1.1-1.9,2-3.4,2.7-4.4
	C169.4,401.9,169.8,401.4,170.1,401z"/>
<polygon class="st8" points="133.1,442.1 171.9,442.1 167.2,481.8 137.9,481.8 "/>
<polygon class="st3" points="134.5,477.5 137.8,481.8 167.2,481.8 170.6,477.6 "/>
<path class="st7" d="M170.4,453.8c0,0.2-8.1,0.3-18,0.3s-18-0.1-18-0.3c0-0.2,8.1-0.3,18-0.3S170.4,453.6,170.4,453.8z"/>
<path class="st7" d="M170.4,456.4c0,0.2-8.1,0.3-18,0.3s-18-0.1-18-0.3c0-0.2,8.1-0.3,18-0.3S170.4,456.3,170.4,456.4z"/>
<path class="st7" d="M169.9,459c0,0.2-7.8,0.3-17.4,0.3c-9.6,0-17.4-0.1-17.4-0.3c0-0.2,7.8-0.3,17.4-0.3
	C162.1,458.7,169.9,458.8,169.9,459z"/>
<path class="st16" d="M551.9,452.7c3.4-1.6,7.2-2.1,10.9-1.3c2,0.2,3.9,1,5.4,2.4c1.3,1.5,1.6,4.1,0.1,5.4c-1,0.7-2.2,1-3.4,0.9
	c-2.9,0-6.1-0.5-8.4,1.2c-1.3,1-2.2,2.6-3.8,3.1c-1.6,0.4-3.3-0.4-4.1-1.8c-0.8-1.4-0.9-3.1-0.5-4.7
	C548.6,455.7,550,453.8,551.9,452.7z"/>
<path class="st16" d="M544.3,438c2,2.9,6,1.9,7.8,0.2c1.8-1.8,2.6-4.3,3.3-6.8c1.6-5.6,3.2-11.5,2-17.2c-0.3-1.7-1.1-3.4-2.2-4.7
	c-1.2-1.3-3-1.9-4.7-1.6c-2,0.5-3.2,2.5-4.1,4.3c-2.6,5.5-4,11.5-4,17.6C542.3,432.7,542.7,435.6,544.3,438"/>
<path class="st16" d="M538.7,442.2c2.1-2.8,2.7-6.4,1.6-9.7c-1.1-3.3-3.1-6.2-5.8-8.4c-3-2.7-6.5-4.8-10.3-6.1
	c-1.5-0.6-3.1-0.9-4.6-0.8c-1.6,0.1-3.1,1-3.9,2.4c-1.1,2.1,0,4.6,1.1,6.7c2,3.6,4.3,7.1,6.8,10.3c2,2.6,4.4,5.2,7.4,6.4
	s6.3,1,8-1.1"/>
<path class="st3" d="M544.2,481.8c0.1-0.4,0.2-0.9,0.2-1.3c0.1-1,0.2-2.2,0.4-3.6c0.1-1.4,0.4-3.3,0.8-5.3c0.5-2.1,1.1-4.2,1.9-6.2
	c0.8-2,1.9-3.9,3.2-5.6c1.1-1.4,2.5-2.5,4-3.3c1.1-0.5,2.2-0.9,3.3-1.1c0.4,0,0.9-0.1,1.3-0.2c-0.4,0-0.9,0-1.3,0
	c-1.2,0.1-2.4,0.4-3.5,0.9c-1.7,0.8-3.1,1.9-4.2,3.3c-1.4,1.7-2.5,3.7-3.3,5.8c-0.8,2.1-1.5,4.2-1.9,6.3c-0.3,1.8-0.6,3.6-0.7,5.4
	c-0.1,1.5-0.2,2.8-0.2,3.6C544,481,544.1,481.4,544.2,481.8z"/>
<path class="st3" d="M544.5,479.1c0-0.2,0-0.4,0-0.6v-1.7c0-1.5,0-3.7,0.1-6.4c0.1-5.4,0.6-11.3,1.5-19.5c0.9-7.8,2-16.8,3.2-22.6
	c0.3-1.3,0.5-2.5,0.8-3.6c0.3-1,0.4-2,0.6-2.7c0.2-0.7,0.3-1.3,0.4-1.7c0.1-0.2,0.1-0.4,0.1-0.6c-0.1,0.2-0.2,0.4-0.2,0.6l-0.5,1.7
	c-0.2,0.7-0.5,1.6-0.7,2.7c-0.3,1-0.6,2.2-0.8,3.6c-1.5,6.9-2.6,14-3.4,21c-0.9,8.3-1.3,15.8-1.3,21.2c0,2.7,0,4.9,0.1,6.4
	c0,0.7,0.1,1.3,0.1,1.8C544.4,478.7,544.4,478.9,544.5,479.1z"/>
<path class="st3" d="M544.5,464.6c0-0.6,0-1.2,0-1.8c-0.1-1.2-0.2-2.9-0.6-5c-0.4-2.4-0.9-4.9-1.6-7.2c-0.8-2.9-1.8-5.8-3-8.6
	c-2.1-5.1-5.1-9.8-8.9-13.8c-0.7-0.7-1.4-1.3-2.1-1.9c-0.3-0.3-0.6-0.5-0.9-0.8l-0.8-0.6c-0.5-0.4-1-0.7-1.5-1
	c1.8,1.4,3.5,2.9,5.1,4.5c3.6,4.1,6.6,8.7,8.7,13.8c1.2,2.8,2.2,5.6,3,8.5c0.7,2.4,1.3,4.7,1.7,7.2c0.4,2.1,0.6,3.7,0.7,4.9
	C544.3,463.4,544.3,464,544.5,464.6z"/>
<path class="st9" d="M218.7,187.8l2.2,2.7c0,0,10.7-17.1,23.1-18.8l0,0c0.7,0.3,1.5,0.3,2.2-0.1l4-2.3c0.9-0.5,1.3-1.5,1.1-2.5l0,0
	c0,0,6-10.6,18.7-12.2l4.6-0.9l-31.9-29.3l-49.7,20.2L218.7,187.8z"/>
<path class="st2" d="M213.4,185.5l3.8,5c0,0,8.7-19.6,30.3-21l-21.3-22C226.2,147.6,210.8,179.5,213.4,185.5z"/>
<path class="st0" d="M184.3,150.3c0,0,8.2-26.6,35.6-16.9l27.6,36.1c0,0-28.3-5.1-35,18.2L184.3,150.3z"/>
<path class="st2" d="M247.4,169.6c0,0,8.5-20.9,27.2-18.3l-27.2-31.6l-26.7,15L247.4,169.6z"/>
<path class="st0" d="M219.8,133.5c0,0-3.1-15.8,9.1-22.7l8-4.2l28,31.3c0,0-19.3,10.6-17.4,31.6L219.8,133.5z"/>
<path class="st3" d="M247.4,169.6c-0.4-0.4-0.8-0.9-1.1-1.4c-0.8-1-1.8-2.2-3-3.8c-2.6-3.3-6-7.8-9.8-12.7l-9.8-12.7l-3-3.8
	c-0.4-0.5-0.7-0.9-1-1.4c0.4,0.4,0.8,0.8,1.2,1.3c0.8,0.9,1.8,2.1,3.1,3.7c2.6,3.2,6.1,7.6,10,12.6c3.8,5,7.2,9.5,9.7,12.8l2.8,3.9
	C246.9,168.6,247.2,169.1,247.4,169.6z"/>
<path class="st3" d="M237.5,115.9c-1.1,0.4-2.2,0.9-3.2,1.5c-2.4,1.5-4.5,3.5-6.2,5.8c-1.7,2.3-2.9,4.9-3.6,7.6
	c-0.5,2.1-0.4,3.5-0.5,3.5c-0.1-0.3-0.1-0.6-0.1-1c0-0.9,0.1-1.8,0.2-2.6c0.6-2.9,1.8-5.6,3.6-7.9c1.7-2.4,3.9-4.3,6.4-5.8
	c0.8-0.4,1.6-0.8,2.4-1C236.9,115.9,237.2,115.9,237.5,115.9z"/>
<path class="st3" d="M251.3,129.1c0,0.1-1.3,0.7-3.1,2c-1.1,0.8-2.1,1.6-3,2.6c-1.1,1.2-2.1,2.5-3,3.8c-0.8,1.4-1.6,2.8-2.1,4.4
	c-0.4,1.2-0.8,2.5-1,3.8c-0.4,2.2-0.3,3.7-0.4,3.7c-0.1-0.3-0.1-0.7-0.1-1c0-0.4,0-0.8,0-1.2c0-0.5,0-1,0.1-1.6
	c0.2-1.3,0.5-2.7,0.9-4c0.6-1.6,1.3-3,2.1-4.4c0.9-1.4,1.9-2.7,3.1-3.9c1-1,2-1.8,3.1-2.6c0.4-0.3,0.9-0.6,1.3-0.8
	c0.4-0.2,0.7-0.4,1.1-0.5C250.7,129.3,251,129.2,251.3,129.1z"/>
<path class="st3" d="M255.7,132.9c0,0.1-1.4,0.7-3.3,2.2c-1.2,0.9-2.2,1.8-3.2,2.9c-1.2,1.3-2.3,2.7-3.3,4.1c-1,1.5-1.8,3-2.5,4.6
	c-0.6,1.3-1,2.7-1.3,4.1c-0.5,2.4-0.5,4-0.6,4c-0.1-0.4-0.1-0.7-0.1-1.1c0-0.4,0-0.9,0-1.3c0-0.6,0.1-1.1,0.2-1.7
	c0.3-1.5,0.7-2.9,1.2-4.2c0.7-1.7,1.6-3.3,2.6-4.8c1-1.5,2.2-2.9,3.4-4.2c1-1,2.1-2,3.3-2.8c0.5-0.3,0.9-0.6,1.4-0.9
	c0.4-0.2,0.7-0.4,1.1-0.6C255,133.1,255.3,132.9,255.7,132.9z"/>
<path class="st3" d="M258.5,136.4c0,0.1-1.4,0.7-3.3,2.2c-1.1,0.9-2.2,1.9-3.2,3c-1.2,1.3-2.2,2.8-3.2,4.3c-0.9,1.5-1.7,3.1-2.4,4.7
	c-0.5,1.3-0.9,2.7-1.2,4.2c-0.5,2.4-0.4,4-0.5,4c-0.1-0.4-0.1-0.7-0.1-1.1c0-0.4,0-0.9,0-1.3c0-0.6,0.1-1.1,0.2-1.7
	c0.2-1.5,0.6-2.9,1.1-4.3c0.7-1.7,1.5-3.3,2.4-4.9c1-1.5,2.1-3,3.3-4.3c1-1.1,2.1-2.1,3.3-2.9c0.5-0.3,0.9-0.7,1.4-0.9
	c0.4-0.2,0.7-0.4,1.1-0.6C257.8,136.6,258.2,136.5,258.5,136.4z"/>
<path class="st3" d="M235.5,163.7c0,0.1-1.5-0.4-4.1-0.7c-3.3-0.3-6.6,0.2-9.7,1.5c-3.1,1.3-5.8,3.3-7.9,5.8
	c-1.7,1.9-2.4,3.3-2.5,3.3c0.1-0.4,0.2-0.7,0.5-1c0.5-0.9,1.1-1.8,1.7-2.6c4.3-5.5,11.2-8.3,18-7.4c1,0.1,2,0.3,3,0.6
	C234.8,163.4,235.1,163.6,235.5,163.7z"/>
<path class="st3" d="M231.8,159.2c0,0.1-1.5-0.4-4.1-0.7c-6.7-0.6-13.3,2.1-17.7,7.2c-1.7,1.9-2.4,3.4-2.5,3.3
	c0.1-0.4,0.2-0.7,0.5-1c0.5-0.9,1.1-1.8,1.7-2.6c4.3-5.5,11.2-8.3,18-7.4c1,0.1,2,0.3,3,0.6C231.1,158.9,231.5,159,231.8,159.2z"/>
<path class="st3" d="M228.1,154.6c0,0.1-1.5-0.4-4.1-0.6c-6.7-0.6-13.3,2.1-17.7,7.2c-1.7,1.9-2.4,3.3-2.5,3.3
	c0.1-0.4,0.2-0.7,0.4-1c0.5-0.9,1.1-1.8,1.7-2.6c4.3-5.5,11.2-8.3,18-7.4c1,0.1,2,0.3,3,0.6C227.5,154.3,227.8,154.4,228.1,154.6z"
	/>
<path class="st3" d="M224.5,150.1c0,0.1-1.6-0.4-4.1-0.6c-6.7-0.6-13.3,2.1-17.7,7.2c-1.7,1.9-2.4,3.3-2.5,3.3
	c0.1-0.4,0.3-0.7,0.5-1c0.5-0.9,1.1-1.8,1.7-2.6c4.3-5.4,11.1-8.2,18-7.4c1,0.1,2,0.3,3,0.6C223.8,149.7,224.1,149.9,224.5,150.1z"
	/>
<path class="st3" d="M220.8,145.5c0,0.1-1.5-0.4-4.1-0.6c-6.7-0.6-13.3,2.1-17.7,7.2c-1.7,1.9-2.4,3.3-2.5,3.3
	c0.1-0.4,0.3-0.7,0.5-1c0.5-0.9,1.1-1.8,1.7-2.6c4.3-5.5,11.1-8.3,18-7.5c1,0.1,2,0.3,3,0.6C220.1,145.2,220.5,145.3,220.8,145.5z"
	/>
<path class="st3" d="M217.2,140.9c0,0.1-1.5-0.4-4.1-0.6c-6.7-0.6-13.4,2.1-17.7,7.2c-1.7,1.9-2.4,3.3-2.5,3.3
	c0.1-0.4,0.3-0.7,0.5-1c0.5-0.9,1.1-1.8,1.7-2.6c4.3-5.5,11.2-8.3,18.1-7.4c1,0.1,2,0.3,3,0.6C216.5,140.6,216.8,140.8,217.2,140.9z
	"/>
<path class="st2" d="M227.3,135.3l7.6,8.5c0,0,2.4-11.7,12.8-16.2l-8.1-8.6C232.9,121.8,228.1,128.1,227.3,135.3z"/>
<path class="st15" d="M254.7,49.7l-1.1,2.5c0,0,15.7,1.3,21.3,9.2l0,0c0,0.6,0.3,1.2,0.9,1.5l3,1.9c0.7,0.4,1.5,0.4,2.1-0.1l0,0
	c6.1,0.5,11.6,3.6,15.2,8.6l2.3,2.9l10.1-33.7l-33.2-26.1L254.7,49.7z"/>
<path class="st2" d="M254.4,45.2l-2.1,4.4c0,0,16.7-1,25.4,13.5l7.6-22.6C285.3,40.5,257.7,41.2,254.4,45.2z"/>
<path class="st0" d="M268.4,12.4c0,0,21.4-3.8,24.5,18.6l-15.2,32.1c0,0-6.6-21.4-25.1-17.7L268.4,12.4z"/>
<path class="st2" d="M277.6,63.1c0,0,17.5-1.6,22.4,12.2l12.2-30.2l-20-13L277.6,63.1z"/>
<path class="st0" d="M292.8,31c0,0,9.8-7.8,19-1.8l5.7,4l-11.7,30.6c0,0-14.2-9.6-28.2-0.7L292.8,31z"/>
<path class="st3" d="M277.6,63.1c0.1-0.5,0.3-0.9,0.5-1.3c0.4-0.9,0.9-2.1,1.6-3.4L285,47l5.3-11.3l1.6-3.4c0.2-0.4,0.4-0.8,0.7-1.2
	c-0.1,0.5-0.3,0.9-0.4,1.3c-0.3,0.8-0.8,2-1.4,3.5c-1.2,2.9-3.1,7-5.1,11.4s-4,8.4-5.4,11.3c-0.7,1.4-1.3,2.6-1.7,3.3
	C278.1,62.3,277.9,62.7,277.6,63.1z"/>
<path class="st3" d="M311.7,36.3c-0.1,0.1-0.9-0.6-2.5-1.4c-4.1-2.1-8.9-2.5-13.3-1.1c-1.7,0.5-2.7,1.1-2.7,1s0.2-0.2,0.6-0.5
	c0.6-0.4,1.3-0.7,1.9-0.9c2.2-0.8,4.6-1.1,7-0.9c2.4,0.2,4.7,0.9,6.7,2c0.6,0.3,1.2,0.7,1.8,1.2C311.5,36.1,311.7,36.3,311.7,36.3z"
	/>
<path class="st3" d="M310.8,40c-0.1,0.1-0.9-0.6-2.5-1.4c-4.1-2.1-8.9-2.5-13.3-1.1c-1.7,0.5-2.7,1.1-2.7,1
	c-0.1-0.1,0.2-0.2,0.6-0.5c0.6-0.4,1.3-0.7,1.9-0.9c2.2-0.8,4.6-1.1,7-0.9c2.4,0.2,4.7,0.9,6.7,2c0.6,0.3,1.2,0.7,1.8,1.2
	C310.6,39.8,310.8,40,310.8,40z"/>
<path class="st3" d="M309.2,43.7c-0.1,0.1-0.9-0.6-2.5-1.4c-2.1-1-4.3-1.6-6.6-1.8c-2.3-0.2-4.6,0.1-6.8,0.8c-1.7,0.5-2.7,1.1-2.7,1
	c0-0.1,0.2-0.2,0.6-0.5c0.6-0.4,1.3-0.7,1.9-0.9c2.2-0.8,4.6-1.1,7-0.9c2.4,0.2,4.7,0.9,6.7,2c0.6,0.3,1.2,0.7,1.8,1.2
	C309,43.4,309.2,43.6,309.2,43.7z"/>
<path class="st3" d="M308.1,47.3c-0.1,0.1-0.9-0.6-2.5-1.4c-4.1-2.1-8.9-2.5-13.3-1.1c-1.7,0.5-2.7,1.1-2.7,1s0.2-0.2,0.6-0.5
	c0.6-0.4,1.3-0.7,1.9-0.9c2.2-0.8,4.6-1.1,7-0.9c2.4,0.2,4.7,0.9,6.7,2c0.6,0.3,1.2,0.7,1.8,1.2C307.9,47.1,308.1,47.3,308.1,47.3z"
	/>
<path class="st3" d="M307.1,51.2c-0.1,0.1-0.9-0.6-2.5-1.4c-2.1-1-4.3-1.6-6.6-1.8c-2.3-0.2-4.6,0.1-6.8,0.8c-1.7,0.5-2.7,1.1-2.7,1
	c-0.1-0.1,0.2-0.2,0.6-0.5c0.6-0.4,1.3-0.7,1.9-0.9c2.2-0.8,4.6-1.1,7-0.9c2.3,0.2,4.6,0.9,6.7,2c0.6,0.3,1.3,0.7,1.8,1.2
	C306.9,51,307.1,51.2,307.1,51.2z"/>
<path class="st3" d="M306.1,55.7c-0.1,0.1-1-0.7-2.7-1.5c-1-0.5-2.1-0.9-3.1-1.2c-1.3-0.4-2.7-0.6-4-0.8c-1.4-0.1-2.7-0.2-4.1-0.1
	c-1.1,0.1-2.2,0.3-3.3,0.5c-1.9,0.5-2.9,1.1-3,1c0.2-0.2,0.5-0.4,0.7-0.5c0.3-0.2,0.6-0.3,0.9-0.4c0.4-0.2,0.8-0.3,1.2-0.5
	c1.1-0.3,2.2-0.6,3.3-0.7c1.4-0.1,2.8-0.1,4.2,0.1c1.4,0.2,2.8,0.5,4.1,0.9c1.1,0.4,2.2,0.8,3.2,1.4c0.4,0.2,0.8,0.4,1.1,0.7
	c0.3,0.2,0.6,0.4,0.8,0.6C305.9,55.5,306.1,55.7,306.1,55.7z"/>
<path class="st3" d="M304.6,58.9c-0.1,0.1-1-0.7-2.8-1.5c-1-0.5-2.1-0.8-3.2-1.1c-1.3-0.3-2.7-0.6-4.1-0.7c-1.4-0.1-2.8-0.1-4.1,0
	c-1.1,0.1-2.2,0.3-3.3,0.6c-1.9,0.5-2.9,1.1-3,1s0.2-0.2,0.7-0.5c0.3-0.2,0.6-0.3,0.9-0.4c0.4-0.2,0.8-0.3,1.2-0.5
	c1.1-0.4,2.2-0.6,3.3-0.7c1.4-0.2,2.8-0.2,4.2-0.1c1.4,0.1,2.8,0.4,4.2,0.7c1.1,0.3,2.2,0.7,3.2,1.3c0.4,0.2,0.8,0.4,1.1,0.7
	c0.3,0.2,0.6,0.4,0.8,0.6C304.4,58.7,304.6,58.9,304.6,58.9z"/>
<path class="st3" d="M277.4,52.7c-0.1,0-0.3-1.2-1.1-3.1c-1-2.4-2.5-4.5-4.4-6.2c-2-1.7-4.3-2.8-6.8-3.4c-1.9-0.5-3.2-0.5-3.2-0.6
	c0.3-0.1,0.6-0.1,0.9-0.1c0.8,0,1.6,0.1,2.4,0.2c5.3,1,9.8,4.8,11.6,9.9c0.3,0.8,0.5,1.5,0.6,2.3C277.4,52.1,277.4,52.4,277.4,52.7z
	"/>
<path class="st3" d="M279.2,48.5c-0.1,0-0.3-1.2-1.1-3.1c-2-4.9-6.2-8.4-11.3-9.6c-1.9-0.5-3.2-0.5-3.2-0.6c0.3-0.1,0.6-0.1,0.9-0.1
	c0.8,0,1.6,0.1,2.4,0.2c5.3,1,9.8,4.8,11.6,9.9c0.3,0.8,0.5,1.5,0.6,2.3C279.3,47.9,279.3,48.2,279.2,48.5z"/>
<path class="st3" d="M281.1,44.4c-0.1,0-0.3-1.2-1.1-3.1c-2-4.8-6.2-8.4-11.3-9.7c-1.9-0.5-3.2-0.5-3.2-0.6c0.3-0.1,0.6-0.1,0.9-0.1
	c0.8,0,1.6,0.1,2.4,0.2c2.6,0.5,5.1,1.7,7.1,3.4c2,1.7,3.6,4,4.5,6.5c0.3,0.8,0.5,1.5,0.6,2.3C281.1,43.8,281.1,44.1,281.1,44.4z"/>
<path class="st3" d="M283,40.2c-0.1,0-0.3-1.2-1.1-3.1c-2-4.9-6.2-8.4-11.3-9.6c-1.9-0.5-3.2-0.5-3.2-0.6c0.3-0.1,0.6-0.1,0.9-0.1
	c0.8,0,1.6,0.1,2.4,0.2c5.4,1,9.8,4.8,11.6,9.9c0.3,0.8,0.5,1.5,0.6,2.3C282.9,39.6,283,39.9,283,40.2z"/>
<path class="st3" d="M284.8,36c-0.1,0-0.3-1.2-1.1-3.1c-2-4.9-6.2-8.4-11.3-9.6c-1.9-0.5-3.2-0.5-3.2-0.6c0.3-0.1,0.6-0.1,0.9-0.1
	c0.8,0,1.6,0.1,2.4,0.2c5.4,1,9.8,4.8,11.6,9.9c0.3,0.8,0.5,1.5,0.6,2.3C284.8,35.4,284.8,35.7,284.8,36z"/>
<path class="st3" d="M286.7,31.8c-0.1,0-0.3-1.2-1.1-3c-2-4.9-6.2-8.4-11.3-9.6c-1.9-0.5-3.2-0.5-3.2-0.6c0.3-0.1,0.6-0.1,0.9-0.1
	c0.8,0,1.6,0.1,2.4,0.2c5.4,1,9.8,4.8,11.6,9.9c0.3,0.7,0.5,1.5,0.6,2.3C286.7,31.2,286.7,31.5,286.7,31.8z"/>
<path class="st9" d="M460.3,155.2l-1.9,3c0,0,19.7,4.4,25.5,15.5l0,0c-0.1,0.8,0.2,1.6,0.8,2.1l3.5,3c0.8,0.6,1.9,0.7,2.7,0.2l0,0
	c0,0,12,2.1,17.8,13.6l2.4,4.1l18.8-41.1l-37.4-38.9L460.3,155.2z"/>
<path class="st2" d="M460.7,149.5l-3.5,5.2c0,0,21.4,1.7,29.9,21.6l13.6-27.4C500.7,148.9,465.5,145.1,460.7,149.5z"/>
<path class="st0" d="M484.2,110.3c0,0,27.8-1.1,27.8,27.9l-24.9,38.1c0,0-4.6-28.4-28.8-26.9L484.2,110.3z"/>
<path class="st2" d="M487.1,176.3c0,0,22.5,1.1,26.3,19.5l20.7-36.2l-23-20.1L487.1,176.3z"/>
<path class="st0" d="M511.9,138.2c0,0,13.9-8.2,24.4,1l6.6,6.1l-20.2,36.8c0,0-16.4-14.7-35.6-5.9L511.9,138.2z"/>
<path class="st3" d="M487.1,176.3c0.2-0.5,0.5-1.1,0.9-1.5l2.6-4.1c2.3-3.5,5.3-8.2,8.7-13.5l8.7-13.5l2.6-4.1c0.3-0.5,0.6-1,1-1.5
	c-0.2,0.5-0.5,1.1-0.8,1.6c-0.6,1-1.4,2.4-2.5,4.2c-2.1,3.5-5.1,8.3-8.5,13.6c-3.4,5.2-6.5,10-8.9,13.3l-2.8,4
	C487.8,175.4,487.4,175.9,487.1,176.3z"/>
<path class="st3" d="M535,148.3c-0.1,0.1-1.1-1-2.9-2.2c-1.1-0.8-2.2-1.4-3.5-2c-1.5-0.7-3-1.2-4.6-1.5c-1.6-0.3-3.2-0.5-4.8-0.5
	c-1.3,0-2.7,0.1-4,0.3c-2.2,0.4-3.6,0.9-3.6,0.8c0.3-0.2,0.6-0.3,0.9-0.4c0.4-0.2,0.7-0.3,1.1-0.4c0.5-0.2,1-0.3,1.5-0.4
	c1.3-0.3,2.7-0.4,4-0.5c1.7,0,3.3,0.2,4.9,0.5c1.6,0.4,3.2,0.9,4.7,1.6c1.2,0.6,2.4,1.3,3.5,2.1c0.5,0.3,0.8,0.7,1.2,1
	c0.3,0.3,0.6,0.5,0.8,0.8C534.6,147.8,534.8,148,535,148.3z"/>
<path class="st3" d="M533.2,152.8c-0.1,0.1-1.1-1-2.9-2.2c-1.1-0.8-2.2-1.4-3.5-2c-3-1.3-6.2-2.1-9.4-2.1c-1.3,0-2.7,0.1-4,0.3
	c-2.2,0.4-3.6,0.9-3.6,0.8c0.3-0.2,0.6-0.3,0.9-0.4c0.4-0.2,0.7-0.3,1.1-0.4c0.5-0.2,1-0.3,1.5-0.4c1.3-0.3,2.7-0.4,4-0.5
	c1.7,0,3.3,0.2,4.9,0.5c1.6,0.4,3.2,0.9,4.7,1.6c1.2,0.6,2.4,1.3,3.5,2.1c0.4,0.3,0.8,0.6,1.2,1c0.3,0.2,0.6,0.5,0.8,0.8
	C532.8,152.3,533.1,152.5,533.2,152.8z"/>
<path class="st3" d="M530.5,157.2c-0.1,0.1-1.1-1-2.9-2.2c-1.1-0.7-2.3-1.4-3.5-2c-1.5-0.7-3-1.2-4.6-1.5c-1.6-0.3-3.2-0.5-4.8-0.5
	c-1.3,0-2.7,0.1-4,0.3c-2.2,0.4-3.6,0.9-3.6,0.8c0.3-0.2,0.6-0.3,0.9-0.4c0.4-0.2,0.7-0.3,1.1-0.4c0.5-0.2,1-0.3,1.5-0.4
	c1.3-0.3,2.7-0.4,4-0.5c1.7,0,3.3,0.2,4.9,0.5c1.6,0.4,3.2,0.9,4.7,1.6c1.2,0.6,2.4,1.3,3.5,2.1c0.4,0.3,0.8,0.6,1.2,1
	c0.3,0.3,0.6,0.5,0.8,0.8C530.3,156.9,530.5,157.2,530.5,157.2z"/>
<path class="st3" d="M488.6,163.1c-0.1,0-0.1-1.6-0.7-4.1c-1.7-6.6-6.4-11.9-12.7-14.3c-2.4-0.9-4-1.1-4-1.2c0.4,0,0.7,0,1.1,0.1
	c1,0.2,2,0.4,3,0.7c6.6,2.2,11.5,7.8,13,14.6c0.2,1,0.4,2,0.4,3C488.7,162.3,488.6,162.7,488.6,163.1z"/>
<path class="st3" d="M491.7,158.1c-0.1,0-0.1-1.6-0.7-4.1c-1.7-6.5-6.4-11.9-12.7-14.3c-2.4-0.9-4-1.1-4-1.2c0.4,0,0.7,0,1.1,0.1
	c1,0.2,2,0.4,3,0.7c6.6,2.2,11.5,7.8,13,14.6c0.2,1,0.4,2,0.4,3C491.7,157.3,491.7,157.7,491.7,158.1z"/>
<path class="st3" d="M494.7,153.1c-0.1,0-0.1-1.6-0.7-4.1c-1.7-6.5-6.4-11.9-12.7-14.3c-2.4-0.9-4-1.1-4-1.2c0.4,0,0.7,0,1.1,0.1
	c1,0.2,2,0.4,3,0.7c6.6,2.2,11.6,7.7,13,14.6c0.2,1,0.4,2,0.4,3C494.9,152.4,494.8,152.8,494.7,153.1z"/>
<path class="st3" d="M497.8,148.1c-0.1,0-0.1-1.6-0.8-4.1c-1.7-6.5-6.4-11.9-12.7-14.3c-2.4-0.9-4-1.1-4-1.2c0.4,0,0.7,0,1.1,0.1
	c1,0.2,2,0.4,3,0.7c6.6,2.2,11.5,7.8,13,14.6c0.2,1,0.4,2,0.4,3C497.9,147.4,497.9,147.8,497.8,148.1z"/>
<path class="st3" d="M500.9,143.2c-0.1,0-0.1-1.6-0.8-4.1c-1.7-6.5-6.4-11.9-12.7-14.3c-2.4-0.9-4-1.1-4-1.2c0.4,0,0.7,0,1.1,0.1
	c1,0.2,2,0.4,3,0.7c6.6,2.2,11.5,7.8,13,14.6c0.2,1,0.4,2,0.4,3C501,142.4,501,142.8,500.9,143.2z"/>
<path class="st3" d="M504,138.2c-0.1,0-0.1-1.6-0.8-4.1c-1.7-6.5-6.4-11.9-12.7-14.3c-2.4-0.9-4-1.1-4-1.2c0.4,0,0.7,0,1.1,0.1
	c1,0.2,2,0.4,3,0.7c6.6,2.2,11.5,7.8,13,14.6c0.2,1,0.4,2,0.4,3C504.1,137.5,504,137.8,504,138.2z"/>
<path class="st2" d="M506.3,157.2l-7.2,10.5c0,0,11.1-1.3,20.8,4.9l6.7-11.2C526.5,161.3,516.2,153.2,506.3,157.2"/>
<path class="st4" d="M439,31.9c0.3-1.7,0.1-3.4-0.6-4.9c-0.6-1.5-1.7-2.8-3.1-3.7c-1.5-0.9-3.3-1.1-5-0.6c-1,0.3-1.9,0.8-2.6,1.6
	c-0.2-0.9-0.6-1.8-1.2-2.5c-1.1-1.4-2.7-2.3-4.4-2.5c-1.6-0.1-3.3,0.3-4.7,1.1c-1.5,0.8-2.6,2.1-3.3,3.6c-0.9,1.9-1.1,4.1-0.7,6.2
	c0.6,2.2,1.7,4.2,3.2,5.8c2.4,2.8,5.7,6.4,5.7,6.4s4.2-1.4,7.8-2.2c2.2-0.5,4.3-1.4,6-2.8C437.6,36,438.6,34.1,439,31.9z"/>
<path class="st4" d="M414.8,61.6c-0.3-0.8-0.8-1.4-1.4-1.9c-0.6-0.5-1.4-0.7-2.2-0.7c-1.4,0-2.6,0.9-2.9,2.2c-0.9-1-2.3-1.2-3.5-0.7
	c-0.7,0.4-1.3,0.9-1.6,1.6c-0.4,0.7-0.6,1.5-0.5,2.3c0.1,1,0.5,2,1.2,2.7c0.8,0.7,1.7,1.3,2.7,1.6c1.7,0.6,3.9,1.2,3.9,1.2
	s1.4-1.6,2.6-2.8c0.8-0.7,1.4-1.6,1.8-2.6C415.2,63.5,415.1,62.5,414.8,61.6z"/>
<path class="st4" d="M257.1,225.7c0.2-0.8,0.1-1.6-0.2-2.3c-0.3-0.7-0.8-1.4-1.4-1.8c-1.2-0.7-2.7-0.6-3.7,0.4
	c-0.3-1.3-1.3-2.3-2.6-2.4c-0.8-0.1-1.6,0.1-2.2,0.5c-0.7,0.4-1.3,1-1.7,1.7c-0.5,0.9-0.6,2-0.4,3c0.3,1,0.8,2,1.5,2.8
	c1.1,1.4,2.6,3.1,2.6,3.1s2-0.6,3.7-1c1.1-0.2,2.1-0.6,2.9-1.3C256.4,227.6,256.9,226.7,257.1,225.7z"/>
<path class="st4" d="M478,227.1c-0.2-0.5-0.5-0.8-0.9-1.1c-0.4-0.3-0.9-0.5-1.4-0.5c0.1,0.8-0.5,1.4-1.3,1.5c-0.5,0-0.9-0.2-1.2-0.5
	c-0.5-0.2-1-0.2-1.5,0c-0.4,0.2-0.8,0.6-1,1c-0.3,0.4-0.4,0.9-0.3,1.4c0.1,0.6,0.3,1.2,0.8,1.7c0.5,0.5,1.1,0.8,1.7,1l2.4,0.8
	c0,0,0.9-1,1.7-1.8c0.5-0.5,0.9-1,1.1-1.6C478.2,228.4,478.2,227.7,478,227.1z"/>
<path class="st4" d="M269.4,189.8c-0.2-0.5-0.5-0.9-0.9-1.2c-0.4-0.3-0.9-0.5-1.4-0.5c-0.5,0-1,0.2-1.4,0.6
	c-0.2,0.2-0.4,0.5-0.4,0.8c-0.2-0.2-0.4-0.4-0.7-0.5c-0.5-0.2-1-0.2-1.5,0c-0.4,0.2-0.8,0.6-1,1c-0.3,0.4-0.4,0.9-0.3,1.4
	c0.1,0.6,0.3,1.2,0.8,1.7c0.5,0.5,1.1,0.8,1.7,1c1,0.4,2.4,0.8,2.4,0.8s0.9-1,1.7-1.8c0.5-0.5,0.9-1,1.1-1.7
	C269.6,191,269.6,190.4,269.4,189.8z"/>
<path class="st4" d="M464.3,49.8c-0.2-0.5-0.5-0.8-0.9-1.1c-0.4-0.3-0.9-0.5-1.4-0.5c-0.5,0-1,0.2-1.4,0.6c-0.2,0.2-0.4,0.5-0.4,0.8
	c-0.2-0.2-0.4-0.4-0.7-0.5c-0.5-0.2-1-0.2-1.5,0c-0.9,0.5-1.4,1.4-1.3,2.4c0.1,0.6,0.3,1.2,0.8,1.7c0.5,0.5,1.1,0.8,1.7,1l2.4,0.8
	c0,0,0.9-1,1.7-1.8c0.5-0.5,0.9-1,1.1-1.6C464.5,51,464.5,50.4,464.3,49.8z"/>
<path class="st4" d="M462.1,200.7c0.1-1.5-0.3-2.9-1-4.2c-0.7-1.2-1.8-2.2-3.1-2.8c-2.3-1-5-0.3-6.5,1.6c-0.3-0.8-0.7-1.5-1.3-2.1
	c-1.1-1.1-2.5-1.7-4.1-1.7c-1.4,0.1-2.8,0.6-3.9,1.5c-1.2,0.9-2.1,2.1-2.6,3.4c-0.6,1.8-0.6,3.7,0,5.4c0.7,1.8,1.9,3.4,3.3,4.7
	c2.4,2.2,5.6,4.9,5.6,4.9s3.5-1.7,6.5-2.7c1.9-0.6,3.6-1.7,4.9-3.1C461.2,204.4,461.9,202.6,462.1,200.7z"/>
</svg>
