<svg id="Layer_1" data-name="Layer 1" xmlns="http://www.w3.org/2000/svg" viewBox="0 0 1700 750"><defs><style>.cls-1{fill:#ebebeb;}.cls-2{fill:#e0e0e0;}.cls-3{fill:#f5f5f5;}.cls-4{fill:#fff;}.cls-5{fill:#ff725e;}.cls-6{fill:#fafafa;}.cls-7{opacity:0.4;}.cls-8{fill:#b5e55a;}.cls-9{fill:#263238;}.cls-10{fill:#ffbe9d;}.cls-11{fill:#eb996e;}.cls-12{fill:#455a64;}.cls-13{fill:#95a6e5;}.cls-14{opacity:0.3;}</style></defs><title>2</title><path class="cls-1" d="M582.38,460.31a8,8,0,0,0-15.85,2.37l35.14,214.41h16Z"/><path class="cls-1" d="M569.85,462.95,714.66,303.86l1.06,1.75,7,11.62-141,156.46a8,8,0,1,1-12-10.58l.15-.17Z"/><path class="cls-2" d="M580.49,467c.11,0,.25-.33.19-1a3.73,3.73,0,0,0-1.33-2.47,4.33,4.33,0,0,0-4.19-.78,4.48,4.48,0,0,0,0,8.51,4.3,4.3,0,0,0,4.19-.8,3.67,3.67,0,0,0,1.33-2.45c0-.67,0-1-.19-1a5.2,5.2,0,0,1-1.84,2.56,3.25,3.25,0,0,1-3,.3,3.12,3.12,0,0,1,0-5.7,3.25,3.25,0,0,1,3,.3C580.24,465.57,580.24,467.12,580.49,467Z"/><path class="cls-2" d="M578.29,453.68c-.17-.14-1.83,1.39-4.36,4a59.35,59.35,0,0,0-4.34,4.78,10,10,0,0,0-2.28,7.92,8,8,0,0,0,5.89,5.78,8.58,8.58,0,0,0,6.65-.92c3.25-2,4.39-4.12,4.28-4.2a35.4,35.4,0,0,1-4.81,3.12,7.67,7.67,0,0,1-5.72.5,6.73,6.73,0,0,1-4.69-4.69,8.92,8.92,0,0,1,1.91-6.69c1.34-1.89,2.86-3.48,4-4.9C577.1,455.65,578.44,453.84,578.29,453.68Z"/><path class="cls-2" d="M681.27,696H549.42s16.84-21,60.73-21C651,675,675.38,687,681.27,696Z"/><polygon class="cls-1" points="713.83 278.64 707.13 268.6 715.41 262.24 722.52 272.36 713.83 278.64"/><path class="cls-3" d="M702.48,284.72l28.86-20.93L759.1,297.1c48,7.81,67.41,38,67.41,38l-86,65.87c-29.44-32.55-15.49-79-15.49-79Z"/><path class="cls-2" d="M724.94,321.9c.27.36,8.12-4.89,17.52-11.73s16.84-12.7,16.57-13.06-8.11,4.89-17.52,11.73S724.74,321.55,724.94,321.9Z"/><rect class="cls-1" x="243.99" y="62.19" width="169.69" height="169.69"/><rect class="cls-4" x="248.99" y="67.19" width="159.71" height="159.71"/><rect class="cls-2" x="305.91" y="124.1" width="45.86" height="45.86"/><rect class="cls-2" x="413.68" y="62.23" width="7.15" height="169.64"/><rect class="cls-1" x="1430.13" y="285.36" width="169.69" height="169.69"/><rect class="cls-4" x="1435.12" y="290.35" width="159.71" height="159.71"/><rect class="cls-2" x="1492.05" y="347.27" width="45.86" height="45.86"/><rect class="cls-2" x="1599.82" y="285.4" width="7.15" height="169.64"/><rect class="cls-1" x="112.13" y="186.04" width="169.69" height="169.69"/><rect class="cls-4" x="117.12" y="191.04" width="159.71" height="159.71"/><rect class="cls-2" x="174.05" y="247.96" width="45.86" height="45.86"/><rect class="cls-2" x="281.82" y="186.09" width="7.15" height="169.64"/><rect class="cls-2" x="1284.37" y="63.71" width="21.98" height="109.33" transform="translate(-0.62 7.01) rotate(-0.31)"/><rect class="cls-1" x="1093.87" y="64.09" width="56.9" height="60.37" transform="translate(-0.49 6.07) rotate(-0.31)"/><rect class="cls-3" x="1150.51" y="63.8" width="56.9" height="60.37" transform="translate(-0.49 6.38) rotate(-0.31)"/><path class="cls-2" d="M1093.79,81q56.71.47,113.54-.52a.61.61,0,0,0,0-1.22c-37.81-.2-75.74,0-113.54.7a.52.52,0,0,0,0,1Z"/><rect class="cls-1" x="1058.37" y="123.57" width="103.38" height="49.19" transform="translate(-0.79 6.01) rotate(-0.31)"/><rect class="cls-3" x="1161.26" y="123.03" width="103.38" height="49.19" transform="translate(-0.78 6.56) rotate(-0.31)"/><path class="cls-2" d="M1058.3,137.56c68.72.78,137.59,0,206.27-1a.61.61,0,0,0,0-1.22c-68.72-.36-137.61-.31-206.28,1.19a.53.53,0,0,0,0,1Z"/><rect class="cls-2" x="1019.63" y="173.06" width="400.54" height="17.62"/><rect class="cls-2" x="1085.22" y="181.54" width="16.26" height="60.13"/><rect class="cls-2" x="1327.94" y="181.54" width="16.26" height="60.13"/><rect class="cls-1" x="1305.92" y="22.93" width="21.98" height="150.38" transform="translate(-0.51 7.13) rotate(-0.31)"/><rect class="cls-3" x="1328.01" y="50.97" width="34.14" height="121.86" transform="translate(-0.59 7.28) rotate(-0.31)"/><path class="cls-2" d="M1361.58,74.38c0,.33-7.64.59-17.07.59s-17.07-.27-17.07-.59,7.64-.59,17.07-.59S1361.58,74.05,1361.58,74.38Z"/><path class="cls-2" d="M1361.58,69.26c0,.33-7.64.59-17.07.59s-17.07-.27-17.07-.59,7.64-.59,17.07-.59S1361.58,68.93,1361.58,69.26Z"/><path class="cls-2" d="M1361.58,154.38c0,.33-7.64.59-17.07.59s-17.07-.27-17.07-.59,7.64-.59,17.07-.59S1361.58,154.1,1361.58,154.38Z"/><path class="cls-2" d="M1361.58,149.31c0,.33-7.64.59-17.07.59s-17.07-.27-17.07-.59,7.64-.58,17.07-.58S1361.58,149,1361.58,149.31Z"/><path class="cls-2" d="M1345.07,138.14c-.33,0-.58-12.29-.58-27.46s.25-27.46.58-27.46.59,12.29.59,27.46S1345.39,138.14,1345.07,138.14Z"/><rect class="cls-1" x="1361.96" y="80.83" width="37.16" height="91.98"/><path class="cls-2" d="M1322.49,48.59a6.25,6.25,0,1,1,0-.08Z"/><rect class="cls-2" x="1314.23" y="65.96" width="3.9" height="89.45"/><polygon class="cls-5" points="471.04 624.68 481.54 693.66 542.51 693.66 556.66 625.68 471.04 624.68"/><path class="cls-6" d="M548.14,668.89c0,.2-15.62.36-34.89.36s-34.89-.16-34.89-.36,15.62-.36,34.89-.36S548.14,668.68,548.14,668.89Z"/><path class="cls-6" d="M548.37,665.5c0,.19-15.73.36-35.13.36s-35.13-.17-35.13-.36,15.73-.36,35.13-.36S548.37,665.29,548.37,665.5Z"/><path class="cls-6" d="M548.26,661.67c0,.19-15.73.34-35.13.34s-35.14-.16-35.14-.34,15.73-.36,35.14-.36S548.26,661.47,548.26,661.67Z"/><path class="cls-6" d="M488.55,689.72a54.87,54.87,0,0,1-1.87-8.68,56.37,56.37,0,0,1-1.17-8.81,52.86,52.86,0,0,1,1.87,8.68A55.92,55.92,0,0,1,488.55,689.72Z"/><path class="cls-6" d="M492.69,689a66.15,66.15,0,0,1-.75-8.48,72.27,72.27,0,0,1-.41-8.5A66.32,66.32,0,0,1,492.69,689Z"/><path class="cls-6" d="M500.25,689a43,43,0,0,1-1.56-8.7,42.5,42.5,0,0,1-.47-8.81q1.32,8.72,2,17.51Z"/><path class="cls-6" d="M505.56,689.35a43.73,43.73,0,0,1-.84-8.82,44.55,44.55,0,0,1,.27-8.87,77.36,77.36,0,0,1,.45,8.84A74.78,74.78,0,0,1,505.56,689.35Z"/><path class="cls-6" d="M514.95,689a51,51,0,0,1-.64-8.39,48.76,48.76,0,0,1,0-8.4,98.4,98.4,0,0,1,.56,16.79Z"/><path class="cls-6" d="M521.82,689.35A102.35,102.35,0,0,1,522,672,106.93,106.93,0,0,1,521.82,689.35Z"/><path class="cls-6" d="M528.25,688.43a113.83,113.83,0,0,1,1.83-18,61.23,61.23,0,0,1-.52,9.06A58.92,58.92,0,0,1,528.25,688.43Z"/><path class="cls-6" d="M536.55,687.52a31.24,31.24,0,0,1,1-7.7,30.6,30.6,0,0,1,2.28-7.43,71.07,71.07,0,0,1-1.56,7.59A66.94,66.94,0,0,1,536.55,687.52Z"/><path class="cls-5" d="M464.06,611v12.9a5.06,5.06,0,0,0,5,5.08h88.31a5.08,5.08,0,0,0,5.09-5.06V611Z"/><g class="cls-7"><polygon points="471.71 629.01 472.44 633.12 553.9 638.93 555.98 629.01 471.71 629.01"/></g><path class="cls-8" d="M477.35,611.1s-34.33-39.56-30.52-41,34.36,20.49,34.36,20.49S455,532,460.22,527.67s32.89,52,32.89,52-4.3-82,0-82.94,20,82,20,82,23.34-75.74,30-75.74S536,575.89,536,575.89s27.65-46.72,31.94-40.52S548.39,592,548.39,592s34.8-29.08,36.22-25.27S546.95,611,546.95,611Z"/><path class="cls-9" d="M472.55,551.51c.23-.11,6.25,12.93,13.6,29.15s13,29.43,12.73,29.54S492.64,597.24,485.3,581,472.29,551.6,472.55,551.51Z"/><path class="cls-9" d="M500.29,558.79c.25,0,1.27,11.5,2.25,25.69s1.56,25.76,1.33,25.77-1.28-11.48-2.26-25.69S500,558.82,500.29,558.79Z"/><path class="cls-9" d="M538.53,522.07a3.23,3.23,0,0,1-.2.94c-.19.7-.44,1.56-.75,2.61-.72,2.39-1.69,5.62-2.87,9.54-2.42,8.08-5.67,19.24-9,31.64s-6.06,23.73-8,31.93c-.92,4-1.7,7.28-2.26,9.72-.25,1.06-.47,1.92-.64,2.64a3.58,3.58,0,0,1-.3.91,4.23,4.23,0,0,1,.11-1l.47-2.67c.42-2.31,1.11-5.65,2-9.78,1.75-8.25,4.39-19.59,7.72-32s6.67-23.59,9.26-31.6c1.28-4,2.37-7.25,3.12-9.48.37-1,.67-1.86.92-2.55A4.23,4.23,0,0,1,538.53,522.07Z"/><path class="cls-9" d="M555.07,564.33c.22.16-6.48,10.15-15,22.32s-15.53,21.87-15.73,21.77,6.48-10.14,15-22.32S554.87,564.19,555.07,564.33Z"/><path class="cls-9" d="M488.92,610.25a13.46,13.46,0,0,1-3-2.14,80.55,80.55,0,0,1-6.53-6,83.53,83.53,0,0,1-5.86-6.69,13.12,13.12,0,0,1-2.08-3.12c.22-.17,3.8,4.15,8.61,9.09S489.11,610,488.92,610.25Z"/><path class="cls-9" d="M509.78,594.54c.27,0,.81,3.62,1.22,8.15s.55,8.23.28,8.25-.8-3.62-1.22-8.15A37.67,37.67,0,0,1,509.78,594.54Z"/><path class="cls-9" d="M1045.76,421.49a40.06,40.06,0,0,0,22.13-66.58,10.39,10.39,0,0,0-5.28-3.53c-4.45-.91-8.17,3.23-10.81,6.93L1032.68,385"/><path class="cls-9" d="M1039.95,392.71c15.92-11.32,26.1-33.25,27.85-52.7s-10.79-56-19.12-73.63c-10.14-21.51-14.32,9.23-21.59,13-4.33,2.23-6.76,7.12-7.31,12s.47,9.7,1.56,14.46q9.37,43.44,18.74,86.91"/><path class="cls-9" d="M962.59,216.38c-31.85-10.42-53.51,3-63.27,13.87s-14.17,25.62-15.87,40.14-1,29.21-1.83,43.73a175.19,175.19,0,0,0-.09,25.29c.47,12.28,4.84,33.55,12.84,42.89,7.68,9,15.62,16.76,26.55,21.4,3.9,1.67,8.48,3.33,12.23,1.34,2.73-1.42,4.23-4.4,5.53-7.2a569.43,569.43,0,0,0,47.2-160"/><path class="cls-10" d="M1000.95,244.17l-54-11.28L934,236.72c-29.68,5.25-44.42,41.53-40.44,65.6,4.42,26.74,10.93,59.2,18.54,78.1C927.55,418.49,959,416.53,959,416.53s1.56,10.93,3.62,24.19a42.56,42.56,0,0,0,48.56,35.56q.92-.14,1.84-.33h0a42.56,42.56,0,0,0,33.58-49.06l-30-171.5A14.29,14.29,0,0,0,1000.95,244.17Z"/><path class="cls-9" d="M913,328.65a5.2,5.2,0,0,0,6.08,4,5,5,0,0,0,4.19-5.64l0-.14a5.22,5.22,0,0,0-6.06-4,5,5,0,0,0-4.21,5.65Z"/><path class="cls-9" d="M906.57,314c.78.52,4-3.22,9.37-4.45s10.09.55,10.53-.25c.23-.36-.69-1.41-2.73-2.28a14.34,14.34,0,0,0-8.61-.62,13.79,13.79,0,0,0-7.31,4.37C906.5,312.5,906.2,313.83,906.57,314Z"/><path class="cls-9" d="M947.9,351.13c0-.31-3.58-.12-9.23.45-1.44.17-2.81.2-3.26-.7a7.28,7.28,0,0,1,0-4.34c.53-3.67,1.09-7.51,1.67-11.56,2.23-16.42,3.51-29.8,2.84-29.88s-3,13.17-5.25,29.58q-.78,6.08-1.47,11.59c-.17,1.7-.66,3.7.53,5.62a3.61,3.61,0,0,0,2.76,1.56,9.47,9.47,0,0,0,2.44-.22C944.51,352.21,948,351.44,947.9,351.13Z"/><path class="cls-11" d="M959,416.56a103.09,103.09,0,0,0,49.68-26.35s-7.81,30.66-48.2,36.1Z"/><path class="cls-5" d="M953.54,362.37a10.2,10.2,0,0,1,8-6.25,8.08,8.08,0,0,1,7,1.94,7.08,7.08,0,0,1,1.72,7.39,7.25,7.25,0,0,1-7,4.3,18.21,18.21,0,0,1-8-2.67,5.47,5.47,0,0,1-1.92-1.39A4.33,4.33,0,0,1,953.54,362.37Z"/><path class="cls-9" d="M964.82,351.19c-.89.16.47,6.08-3.64,11.45s-10.54,6.25-10.4,7c0,.39,1.67.81,4.36.28a15.17,15.17,0,0,0,8.76-5.53,13.15,13.15,0,0,0,2.67-9.51C966.22,352.38,965.27,351.07,964.82,351.19Z"/><path class="cls-9" d="M904.62,298.52c1.23,1,4.69-1.14,9.2-2.25s8.54-1.09,9.12-2.59c.25-.72-.64-1.81-2.59-2.61a13.7,13.7,0,0,0-14.76,3.9C904.36,296.62,904.06,298,904.62,298.52Z"/><path class="cls-9" d="M972,317.5a5.2,5.2,0,0,1-3.94,6.09,5,5,0,0,1-6.12-3.45l0-.14a5.2,5.2,0,0,1,3.94-6.09,5,5,0,0,1,6.12,3.45Z"/><path class="cls-9" d="M979.92,300.27c-.5.8-4.94-1.33-10.42-.27s-9,4.59-9.73,4c-.34-.23,0-1.56,1.56-3.12a14.35,14.35,0,0,1,7.62-4,13.57,13.57,0,0,1,8.45,1C979.33,298.82,980.17,299.9,979.92,300.27Z"/><path class="cls-9" d="M974.39,283.23c-.72,1.44-4.69.86-9.37,1.67s-8.26,2.45-9.37,1.33c-.52-.56-.16-1.94,1.31-3.44A13.73,13.73,0,0,1,972,280.37C973.93,281.36,974.64,282.54,974.39,283.23Z"/><path class="cls-9" d="M952,227.6c11.84-7.42,31.63-9.17,44.06-2.81s21.59,18.13,26.55,31.24,5.14,33.69,3.94,47.59c-25.38-22.91-52.14-49.78-76.92-73.33Z"/><path class="cls-9" d="M940.11,217.27C868.43,219.91,893.8,324.5,893.8,324.5h0c0-40.2,47-90.67,47-90.67L951.45,230Z"/><path class="cls-10" d="M1024.34,323.58c-.67-3,1.12-10.67,3.94-11.79,7.48-3,21.62-5.62,26.3,14.06,6.4,26.91-21.95,27.79-22.16,27S1026.67,333.74,1024.34,323.58Z"/><path class="cls-11" d="M1034.59,341.38c.11-.12.55.2,1.42.39a4.9,4.9,0,0,0,3.53-.77c2.59-1.72,3.92-6.81,2.89-11.68a15.88,15.88,0,0,0-2.91-6.4,5.59,5.59,0,0,0-4.39-2.76,2.44,2.44,0,0,0-2.45,2c-.19.83.11,1.33,0,1.41s-.69-.31-.73-1.47a3,3,0,0,1,.66-1.94,3.64,3.64,0,0,1,2.44-1.31,6.81,6.81,0,0,1,5.89,3,16.49,16.49,0,0,1,3.4,7.11c1.12,5.47-.45,11.2-4.08,13.26a5.12,5.12,0,0,1-4.45.3C1034.79,342.07,1034.51,341.44,1034.59,341.38Z"/><path class="cls-9" d="M1044.7,252.82c-10.28-17.4-27.1-30.29-45.5-38.63-9.87-4.47-20.57-7.81-31.39-7.15s-21.79,5.73-27.41,15l-1.56,2.36C955.62,248.9,968.11,269.94,988,292c7.33,8.11,15.32,38.7,18.59,49.12,11.18,35.55,33.89,47.56,33.89,47.56C1083.54,381,1055,270.22,1044.7,252.82Z"/><path class="cls-4" d="M1063.31,411.9c-.14-.09,1.09-2,2.34-5.53a32.27,32.27,0,0,0,1.56-6.25,33.16,33.16,0,0,0,0-7.81,34.16,34.16,0,0,0-4.8-13.45c-2-3.12-3.55-4.83-3.42-4.94a7.12,7.12,0,0,1,1.16,1.14,27.58,27.58,0,0,1,2.75,3.48,30.94,30.94,0,0,1,5,21.76,29.93,29.93,0,0,1-1.72,6.37,22,22,0,0,1-1,2.31,13.15,13.15,0,0,1-.92,1.67A6.25,6.25,0,0,1,1063.31,411.9Z"/><path class="cls-4" d="M1065.53,353.28a1.45,1.45,0,0,1-.08-.47l-.22-1.37a16.33,16.33,0,0,0-.28-2.28l-.53-3.12a78.61,78.61,0,0,0-6.25-18.82,106.84,106.84,0,0,0-16.34-24.43,182.75,182.75,0,0,0-26.76-24.23c-10.22-7.81-20.31-14.65-29.35-21.2A281.74,281.74,0,0,1,962.6,239a145.26,145.26,0,0,1-13.93-14.29c-1.56-1.81-2.64-3.25-3.36-4.25l-.84-1.14a3,3,0,0,1-.27-.41,2.44,2.44,0,0,1,.34.36q.33.42.89,1.08c.77,1,2,2.37,3.48,4.15A154.38,154.38,0,0,0,963,238.54a294.56,294.56,0,0,0,23.24,18.21c9,6.51,19.16,13.37,29.41,21.16a181.29,181.29,0,0,1,26.82,24.37A105.84,105.84,0,0,1,1058.74,327a76.63,76.63,0,0,1,6,19c.17,1.17.33,2.2.45,3.12s.16,1.67.2,2.28.08,1,.11,1.42A1.77,1.77,0,0,1,1065.53,353.28Z"/><path class="cls-12" d="M1047.21,266.14a22.79,22.79,0,0,0-2.28-3.73,18.62,18.62,0,0,0-3.89-3.47,29.79,29.79,0,0,0-6.25-3.12c-4.8-1.89-10.93-3.12-17.48-5.08s-13.79-4.3-21.18-7.15a260.64,260.64,0,0,1-36.63-17.51c-4.5-2.62-8.06-4.86-10.48-6.45l-2.78-1.87a5.92,5.92,0,0,1-.94-.7,7.08,7.08,0,0,1,1,.56l2.84,1.75c2.48,1.56,6.09,3.67,10.61,6.25a284.27,284.27,0,0,0,36.63,17.18c7.39,2.86,14.54,5.25,21.12,7.2s12.62,3.28,17.48,5.26a29.91,29.91,0,0,1,6.25,3.28,18,18,0,0,1,3.87,3.65,12.4,12.4,0,0,1,1.06,1.56,8,8,0,0,1,.64,1.27A5.75,5.75,0,0,1,1047.21,266.14Z"/><path class="cls-12" d="M924.74,402.88l-.53-.19-1.56-.62a56.58,56.58,0,0,1-5.79-2.78,63.91,63.91,0,0,1-8.42-5.65,65.41,65.41,0,0,1-9.68-9.37,73.15,73.15,0,0,1-15.51-31.1,84.64,84.64,0,0,1,1.84-42.48,96,96,0,0,1,8.73-20.41,147,147,0,0,1,11.7-17c4-5.19,8.08-10,11.79-14.49s7.09-8.78,10-12.76a105.54,105.54,0,0,0,11.93-20.2c.53-1.28,1.06-2.39,1.42-3.4s.64-1.84.89-2.55l.56-1.56a2.89,2.89,0,0,1,.22-.53,2.31,2.31,0,0,1-.14.56l-.48,1.56c-.22.72-.5,1.56-.81,2.58s-.84,2.16-1.36,3.45a101.65,101.65,0,0,1-11.79,20.43c-2.94,4-6.25,8.33-10,12.85s-7.68,9.37-11.71,14.53a149.76,149.76,0,0,0-11.61,17A96,96,0,0,0,885.83,311a84.34,84.34,0,0,0-1.78,42,72.86,72.86,0,0,0,15.23,30.89A67.74,67.74,0,0,0,917.09,399c2.44,1.34,4.34,2.34,5.7,2.91l1.56.7A2.8,2.8,0,0,1,924.74,402.88Z"/><path class="cls-12" d="M1067.13,345.27a9.23,9.23,0,0,1-.3,1.94c-.22,1.25-.64,3-1.2,5.22a78.65,78.65,0,0,1-6.25,16.53,59.67,59.67,0,0,1-5.23,8.23,54,54,0,0,1-5.29,5.94,48.07,48.07,0,0,1-4,3.55,8.65,8.65,0,0,1-1.56,1.14c-.09-.11,2.09-1.86,5.22-5.09a66.56,66.56,0,0,0,5.11-6,65.6,65.6,0,0,0,5.11-8.17,89.64,89.64,0,0,0,6.42-16.29c.58-2,1.06-3.76,1.44-5.14A8.81,8.81,0,0,1,1067.13,345.27Z"/><path class="cls-13" d="M1208.7,692.77l-22.3-141.6s-28.55-111.43-51.54-125.42-83.36-11.82-83.36-11.82h0l-4.81,10.17a48.42,48.42,0,0,1-80.56,10.86h0L941.31,441a84.64,84.64,0,0,0-51.14,36.14c-.41.62-16.95,22.77-17.34,23.43-8.64,14.15-91.33,112.74-91.33,112.74s-60.18-28.68-62.76-28.27-26.24,29.49-26.24,29.49h0S767,692,798.55,688.35s66.23-55.76,66.23-55.76l64.32-61.73C938.16,605,967.47,693,967.47,693Z"/><g class="cls-14"><path d="M845.89,635.46c-6.54-7.37-15.74-11.75-24.83-15.54-32.27-13.5-66.34-22.05-100.24-30.57a5.33,5.33,0,0,0-3.12-.14c-2.16.83-2.25,3.81-1.89,6.11l.34,2.28-1.56,3.3a199.68,199.68,0,0,0,73.32,57.26c8,3.67,16.59,6.87,25.4,6.42,10.28-.52,19.59-5.89,28.43-11.14,3.45-2,7.23-4.55,7.93-8.48C850.3,641.48,848.25,638.09,845.89,635.46Z"/></g><path class="cls-9" d="M914.81,503.93a4.84,4.84,0,0,1,.19,1c.09.78.23,1.78.39,3s.41,2.91.69,4.69.62,4,1,6.25c1.66,9.29,4.69,22,8.23,35.92s7,26.55,9.28,35.74c1.12,4.59,2,8.31,2.51,10.93.25,1.23.45,2.22.59,3a4.11,4.11,0,0,1,.16,1,5.39,5.39,0,0,1-.31-1c-.19-.75-.44-1.73-.75-2.94-.62-2.58-1.56-6.25-2.76-10.84-2.45-9.22-5.81-21.87-9.5-35.67s-6.5-26.72-8-36.06c-.39-2.33-.72-4.44-.94-6.25s-.47-3.47-.55-4.78-.17-2.26-.23-3A5,5,0,0,1,914.81,503.93Z"/><path class="cls-9" d="M1052.18,607.6a11.75,11.75,0,0,1-2.37-.17q-1.16-.09-2.76-.37c-1.08-.2-2.31-.37-3.64-.7a72.58,72.58,0,0,1-9.26-2.69,81.22,81.22,0,0,1-10.78-4.87,83.38,83.38,0,0,1-9.89-6.48,75.42,75.42,0,0,1-7.23-6.4c-1-.94-1.8-1.89-2.53-2.69s-1.34-1.56-1.81-2.14a12.62,12.62,0,0,1-1.41-1.92,15.62,15.62,0,0,1,1.66,1.72c.5.56,1.12,1.27,1.89,2s1.56,1.69,2.61,2.59A80.11,80.11,0,0,0,1034.39,603a80,80,0,0,0,9.14,2.83c1.31.37,2.53.58,3.59.81s2,.41,2.73.52A14.74,14.74,0,0,1,1052.18,607.6Z"/><path class="cls-13" d="M1052.19,405.53c3.69-4.37,2-8.25-.12-9.93-3.53-2.83-7.81-1.81-10.93.73-9.75,7.81-21,14.68-30.94,22.19s-23.18,13-34.8,8.45c-2.62-1-5.08-2.56-7.81-3.37a8.75,8.75,0,0,0-8.09,1c-2.17,1.81-2.51,8.84-.11,10.32,4.45,11.57,15.15,20.18,27.12,23.43s25,1.47,36.3-3.55,21.1-13.12,29.36-22.35a27.18,27.18,0,0,0,6.58-10.51C1060.28,416.4,1052.19,405.53,1052.19,405.53Z"/><path class="cls-9" d="M1055.27,402a4.69,4.69,0,0,1-.66.89c-.47.58-1.12,1.42-2,2.48-1.78,2.12-4.47,5.14-8,8.67a116.82,116.82,0,0,1-13.21,11.43,87.19,87.19,0,0,1-18.6,10.57c-14.18,5.76-28.51,6.33-38.25,4.3a46.72,46.72,0,0,1-11.21-3.61,28.22,28.22,0,0,1-2.84-1.56,6.73,6.73,0,0,1-1-.58c0-.08,1.39.67,3.92,1.78a50.08,50.08,0,0,0,11.2,3.34c9.65,1.86,23.82,1.22,37.83-4.48A89.22,89.22,0,0,0,1031,424.85a123.47,123.47,0,0,0,13.26-11.25c3.55-3.45,6.25-6.4,8.14-8.47l2.14-2.36A4.48,4.48,0,0,1,1055.27,402Z"/><path class="cls-9" d="M1052.49,423.59a3.62,3.62,0,0,1-.41.67c-.36.48-.78,1.09-1.3,1.81-1.14,1.56-2.86,3.8-5.08,6.48a173.25,173.25,0,0,1-40.61,35.71c-2.94,1.84-5.37,3.28-7.08,4.19l-2,1.06c-.47.23-.7.34-.72.31a3.61,3.61,0,0,1,.62-.45l1.91-1.19c1.66-1,4-2.5,6.92-4.4a194.71,194.71,0,0,0,40.52-35.6c2.26-2.62,4-4.78,5.25-6.25.58-.69,1-1.27,1.42-1.73S1052.46,423.57,1052.49,423.59Z"/><g class="cls-14"><path d="M1101.3,526.88c2.36,22,3.12,42.81,5.51,64.84.31,3,.61,6.25-.83,8.95-2.11,4-7,5.23-11.42,6.14-11.81,2.42-24,6.08-35.83,8.5,18.15-.36,36.83-2.42,55-2.76,1.41,0,5.5-.25,5.5-.25s-1.06-5.73-1.36-7.11c-6-27.33-10.54-51-16.56-78.3"/></g><g class="cls-14"><path d="M929.83,573c-15.09-18.46-20.07-43.94-15-67.26,3.28,25,9.37,47,15,67.26"/></g><g class="cls-14"><path d="M977.33,578.48a36.1,36.1,0,0,0,11.14-35.74c-1.7-6.48-5.22-12.39-6.61-18.95-1.47-6.9-.48-14.06-.16-21.1s-.12-14.54-4-20.43c-2.16-3.25-5.33-6-6.33-9.75s.27-7.29.52-10.93a21.35,21.35,0,0,0-7.81-17.77c-1.56-1.23-3.89-2.23-5.39-.94a4.86,4.86,0,0,0-1.2,3.55c-1.89,32.8-3.65,66.54,7.34,97.45,4.2,11.82,10.26,23.18,11.78,35.63"/></g><g class="cls-14"><path d="M1011.69,436.19c-15.82,6.45-35.24,7.34-51.82-1.37l1.75,2.48c7.64,7.65,19.09,10.61,29.86,9.82s21.05-4.9,30.71-9.76a77.52,77.52,0,0,0,18.93-12.5,35.22,35.22,0,0,0,11.07-19.4C1040.88,418.34,1027.5,429.74,1011.69,436.19Z"/></g><path class="cls-13" d="M1091.19,415.48s8,30.61,8.54,58.62,19.48,138.18,19.48,138.18l-99.48,5-6.34,57s112.76,24.48,145.26,22.79,45.86-26.93,41.94-64.41c0,0-23.12-139.78-36.08-172.67C1152.7,430.08,1131.52,418.76,1091.19,415.48Z"/><path class="cls-9" d="M1164.51,459.87s.22.53.59,1.56l1.69,4.69c1.33,4.2,3.12,10.45,5.2,18.59,4.14,16.26,9.23,40,14.89,69.44,2.83,14.73,5.81,30.86,8.89,48.23q2.25,13,4.69,26.91c.19,1.16.44,2.33.56,3.51s.19,2.36.28,3.56.22,2.39.23,3.59,0,2.41,0,3.62a91.62,91.62,0,0,1-1,14.68c-.25,1.22-.48,2.45-.73,3.67l-.28,1.89-.53,1.83c-.37,1.2-.7,2.42-1.09,3.62l-1.45,3.55a41.86,41.86,0,0,1-8.62,12.81,40.41,40.41,0,0,1-13.28,8.5,56,56,0,0,1-15.76,3.22c-10.86.33-21.87-1-32.8-2.37s-22.24-3.12-33.5-5.09c-27.43-4.69-53.93-10-79.1-15.32h-.34v-.36c2.22-19.82,4.34-38.86,6.37-57v-.31h.31l99.48-4.87-.27.33c-5.84-28.51-10.56-51.54-13.82-67.38-1.56-7.92-2.86-14.06-3.7-18.26-.42-2.06-.73-3.65-.94-4.69s-.3-1.56-.3-1.56.14.55.37,1.56.56,2.66,1,4.69c.87,4.19,2.17,10.32,3.86,18.23,3.31,15.87,8.11,38.85,14.06,67.33v.33h-.33l-99.46,5,.34-.33c-2,18.12-4.12,37.16-6.33,57l-.3-.44c25.15,5.36,51.65,10.62,79,15.29,11.28,1.94,22.43,3.67,33.47,5.11s22,2.64,32.74,2.34a55.23,55.23,0,0,0,15.53-3.12,39.69,39.69,0,0,0,13-8.31,41.72,41.72,0,0,0,8.48-12.57c.47-1.16.94-2.33,1.42-3.48a35.25,35.25,0,0,0,1.08-3.59l.53-1.78.37-1.83c.23-1.22.48-2.42.72-3.64a93.57,93.57,0,0,0,1-14.56c0-1.2,0-2.41-.08-3.59s-.16-2.39-.23-3.56l-.27-3.53c-.12-1.17-.36-2.33-.55-3.48-1.56-9.25-3.12-18.24-4.69-26.93-3-17.35-6-33.5-8.78-48.23-5.59-29.46-10.59-53.2-14.62-69.47-2-8.14-3.78-14.4-5.06-18.62-.7-2.08-1.23-3.67-1.56-4.76S1164.51,459.87,1164.51,459.87Z"/><path class="cls-9" d="M1150.92,645.08c-.12,0-1.36-2.25-3.69-5.75a84.76,84.76,0,0,0-10.34-12.75,86.42,86.42,0,0,0-12.62-10.51c-3.48-2.36-5.78-3.62-5.7-3.75a8.28,8.28,0,0,1,1.67.77c1.06.53,2.55,1.37,4.34,2.51A73.91,73.91,0,0,1,1147.72,639c1.11,1.8,2,3.31,2.47,4.37A6.56,6.56,0,0,1,1150.92,645.08Z"/><path class="cls-9" d="M1119,432.66a20,20,0,0,1-2,1.83,29.14,29.14,0,0,0-2.37,2.16c-.87.87-2,1.81-3,3l-1.64,1.83c-.58.64-1.09,1.36-1.67,2.08-1.17,1.42-2.25,3.12-3.4,4.8a64.84,64.84,0,0,0-9.48,25c-.27,2.06-.58,4-.62,5.84,0,.92-.14,1.81-.14,2.67v2.45c0,1.56.16,3,.23,4.23a28.11,28.11,0,0,0,.34,3.12,19.87,19.87,0,0,1,.31,2.73,15.45,15.45,0,0,1-.62-2.67,25.77,25.77,0,0,1-.48-3.12,40,40,0,0,1-.34-4.25c0-.8,0-1.56-.08-2.5a14.06,14.06,0,0,1,.09-2.69,55.25,55.25,0,0,1,.55-5.92,62.85,62.85,0,0,1,9.59-25.3c1.2-1.72,2.3-3.39,3.51-4.8.59-.72,1.14-1.45,1.72-2.08l1.7-1.81a38,38,0,0,1,3.12-3,25.2,25.2,0,0,1,2.48-2.08A16.4,16.4,0,0,1,1119,432.66Z"/><path class="cls-9" d="M974.78,492.61c-1.66-4.61-5.69-8.25-6.51-13.06-.64-3.75.78-7.51,1.12-11.29.72-8-3.47-18.85-6.33-26.33-3-7.81-8.86-11.57-3-18.34l-.53-3c-10.93-1.56-22.79,8.9-22.68,20a23.43,23.43,0,0,0-3.56,41.33c-1.34,10.31-2.62,21.15,1.3,30.77s15,17.18,24.69,13.45c6.62-2.53,10.57-9.26,13.32-15.79C975,504.73,976.86,498.36,974.78,492.61Z"/><path class="cls-12" d="M958,440.28a30.05,30.05,0,0,0-22.8,1,9.76,9.76,0,0,1,3-1.73,24.3,24.3,0,0,1,8.25-1.81,23.93,23.93,0,0,1,8.36,1.11A9.67,9.67,0,0,1,958,440.28Z"/><path class="cls-12" d="M961.1,486.33a3.51,3.51,0,0,1-1,.58,17.79,17.79,0,0,1-2.86,1.12,25.46,25.46,0,0,1-19.71-2.19,16,16,0,0,1-2.55-1.72c-.56-.45-.84-.73-.81-.78s1.36.86,3.62,2a28.24,28.24,0,0,0,19.29,2.14C959.59,486.86,961,486.2,961.1,486.33Z"/><path class="cls-12" d="M966.4,479.39c-.14.08-1.56-2.47-4.19-6.25a71.32,71.32,0,0,0-5.14-6.25,75.14,75.14,0,0,0-7.26-6.75,73.41,73.41,0,0,0-8.17-5.59,70.93,70.93,0,0,0-7.25-3.62c-4.25-1.81-7-2.56-7-2.7a8.65,8.65,0,0,1,2,.42c.62.16,1.39.37,2.26.69s1.89.61,3,1.06a57.79,57.79,0,0,1,7.39,3.51,66,66,0,0,1,8.33,5.61,67.71,67.71,0,0,1,7.29,6.86,62.24,62.24,0,0,1,5.06,6.44c.69,1,1.2,1.86,1.69,2.66s.87,1.48,1.17,2.06A10.39,10.39,0,0,1,966.4,479.39Z"/><path class="cls-12" d="M956.92,433.85c-.2.12-1.83-2.41-4.61-4.69s-5.54-3.55-5.45-3.78a12.59,12.59,0,0,1,6,3.12A12.4,12.4,0,0,1,956.92,433.85Z"/><path class="cls-4" d="M967.57,491.59c0,.11-2,1.17-5.06,3.12a76.38,76.38,0,0,0-11.21,8.9,74,74,0,0,0-9.23,10.93c-2.09,3-3.2,5-3.33,4.94a6.56,6.56,0,0,1,.66-1.47c.45-.92,1.2-2.23,2.19-3.8A63.24,63.24,0,0,1,950.73,503a62.13,62.13,0,0,1,11.48-8.81,43.7,43.7,0,0,1,3.86-2.08A5.14,5.14,0,0,1,967.57,491.59Z"/><path class="cls-4" d="M940.14,480.61a7.12,7.12,0,0,1,0-1.56,34.57,34.57,0,0,1,.39-4.33,46.45,46.45,0,0,1,12.6-25.33,33.68,33.68,0,0,1,3.22-2.92,6,6,0,0,1,1.3-.92c.09.11-1.56,1.56-4.09,4.23a51.22,51.22,0,0,0-12.5,25C940.39,478.35,940.28,480.61,940.14,480.61Z"/><path class="cls-12" d="M961.71,516.55a37.6,37.6,0,0,1-1.81-3.76,40.3,40.3,0,0,0-12.84-15.07c-2.09-1.56-3.5-2.28-3.44-2.39a14.06,14.06,0,0,1,3.75,1.91,34.72,34.72,0,0,1,7.65,6.7,34.36,34.36,0,0,1,5.39,8.62A14.59,14.59,0,0,1,961.71,516.55Z"/><path class="cls-9" d="M975.91,532.84c-2.8-4.44-6.75-8.82-12-9.28L947.36,529a22.52,22.52,0,0,0-2.22,23,53.11,53.11,0,0,0,7.81,10.57c2.84,3.37,5.58,7,6.62,11.31s0,9.37-3.51,12a21.16,21.16,0,0,0,10.25-8.34,15.46,15.46,0,0,1-2.08,10.17c10.25-3.42,17.43-13.48,19.09-24.15S981.69,542,975.91,532.84Z"/><path class="cls-12" d="M974,517.79a4.39,4.39,0,0,0-3-2.81c-2.09-.45-3.94,1.3-5.56,2.7a24.74,24.74,0,0,1-21.57,5.19h-.28a5.2,5.2,0,0,0-2.44,4.48,6.83,6.83,0,0,0,2.19,3.94,14.7,14.7,0,0,0,9.56,3.86,26.55,26.55,0,0,0,10.29-1.86,20.3,20.3,0,0,0,8.79-5.61A9.89,9.89,0,0,0,974,517.79Z"/><path class="cls-4" d="M648.08,484l9.54,57.79,84.2,81,71.66,37.41L928,628.48l2.45-13.29-62-42-69.9-59.82s-22.88-66.19-30.85-80.63Z"/><path class="cls-9" d="M648.08,484s.69-.33,2.08-.94l6.25-2.69,23.77-10.26,87.47-37.63.27-.11.12.23c3,5.76,5.48,11.95,8,18.31s5,12.95,7.56,19.71Q791.18,491,799,513.3l-.11-.16L868.76,573h0l62,41.89.22.16v.27c-.16.8-.31,1.67-.47,2.55-.67,3.59-1.34,7.18-2,10.73v.25l-.23.08L813.78,660.66h-.28l-71.65-37.49h0L657.48,542h0c-3-18.51-5.36-33-7-42.81-.78-4.89-1.39-8.64-1.8-11.17-.19-1.25-.34-2.2-.44-2.84l-.14-1,.19,1c.11.67.28,1.56.5,2.87.42,2.55,1.06,6.25,1.91,11.2,1.56,9.81,4.06,24.21,7.17,42.66v-.12c21.18,20.31,50,48,84.34,81h-.08l71.69,37.38h-.28l114.47-31.83-.3.31c.66-3.56,1.33-7.14,2-10.75.17-.86.33-1.73.48-2.55l.17.41-62.16-42.17h0l-69.87-59.85h-.08v-.09q-7.73-22.32-15.28-42.66-3.75-10.14-7.51-19.71c-2.55-6.34-5-12.5-8-18.24l.37.12L680.52,470.4l-23.94,10.18-6.25,2.64Z"/><path class="cls-9" d="M798.55,513.4a6.87,6.87,0,0,1-1,.64l-3.12,1.7c-2.7,1.47-6.62,3.53-11.51,6-9.76,5-23.43,11.75-38.63,18.63S714.93,553,704.65,556.9c-5.12,1.94-9.29,3.47-12.2,4.45l-3.36,1.14a6.87,6.87,0,0,1-1.17.34,9.56,9.56,0,0,1,1.12-.5l3.3-1.28,12.1-4.69c10.2-4,24.21-9.81,39.47-16.68s28.88-13.53,38.7-18.42l11.61-5.81,3.12-1.56A6.42,6.42,0,0,1,798.55,513.4Z"/><path class="cls-9" d="M867.35,572.91c.08.2-28,11.54-62.62,25.33S741.92,623,741.82,622.81s27.94-11.54,62.62-25.33S867.28,572.69,867.35,572.91Z"/><path class="cls-10" d="M668.51,551.63s5.45-1.92,6.58-5.08.91-5.65,0-6.78-16.71-7.68-18.29-8.14-15.14-1.56-15.81,6.56a14.78,14.78,0,0,0,3.12,9.93s-5.2,9.93-5.2,12.42,2.48,6.33,2.26,8.36-4.69,7-3.12,11.07,3.37,4.69,3.37,7.67-1.12,5.2,0,7,8.36,11.07,14.06,12.2,33,5,33,5l4.06,2.72s12,3.61,18.31-7,5.19-9.95,5.19-9.95l-20.59-19.66s2.47-4.69-.42-7.25a12.31,12.31,0,0,0-5-2s1.81-6.78-1.56-9S668.51,551.63,668.51,551.63Z"/><path class="cls-11" d="M645.94,584.87a2.39,2.39,0,0,1,.7-.23c.47-.12,1.17-.31,2.06-.5,1.81-.41,4.44-.91,7.72-1.36a114.66,114.66,0,0,1,25.85-.62h.19l.09.14a4.14,4.14,0,0,1,.44.67,5.17,5.17,0,0,1,0,4.33,7.34,7.34,0,0,1-2.69,3.12,37.92,37.92,0,0,1-6.86,3.12L662.05,598l.16-.25a9.61,9.61,0,0,1-2.81,6.34,8.73,8.73,0,0,1-1.45,1.17c-.37.22-.58.31-.59.28a16.57,16.57,0,0,0,1.84-1.66,9.65,9.65,0,0,0,2.48-6.15v-.17h.17l11.32-4.69a38.33,38.33,0,0,0,6.67-3.12,6.48,6.48,0,0,0,2.39-2.83,4.36,4.36,0,0,0,0-3.64,4.69,4.69,0,0,0-.34-.55l.28.16a126,126,0,0,0-25.72.37c-3.26.39-5.9.8-7.72,1.11A19.84,19.84,0,0,1,645.94,584.87Z"/><path class="cls-11" d="M690.17,568.63a1.06,1.06,0,0,1-.17.47,3.12,3.12,0,0,1-1,1,4.92,4.92,0,0,1-2.12.84,9.83,9.83,0,0,1-3-.12c-4.28-.8-10.14-2-16.62-3.33l-14.81-3.12h.19l-6,2.3a11.21,11.21,0,0,1-2.26.77,14.43,14.43,0,0,1,2.12-1.09l5.87-2.62h.19c4,.78,9.18,1.83,14.85,3,6.47,1.34,12.32,2.62,16.56,3.56a6.45,6.45,0,0,0,4.83-.42A5,5,0,0,0,690.17,568.63Z"/><path class="cls-11" d="M695.42,577.92a1.26,1.26,0,0,1-.14.48,4.56,4.56,0,0,1-.84,1.17,7.72,7.72,0,0,1-4.83,2,142.73,142.73,0,0,1-17.1.16c-3.34-.12-6.53-.42-9.37-.64a33.32,33.32,0,0,0-7.61.17,9.73,9.73,0,0,0-4.8,1.44c-1,.67-1.42,1.22-1.56,1.16s0-.16.28-.42a6.12,6.12,0,0,1,1-1,6.79,6.79,0,0,1,2-1.09,16.88,16.88,0,0,1,2.92-.66,31.71,31.71,0,0,1,7.72-.34c2.89.19,6,.45,9.37.58,6.64.3,12.7.28,17,.09a7.81,7.81,0,0,0,4.69-1.67A7.59,7.59,0,0,0,695.42,577.92Z"/><path class="cls-11" d="M698.93,590.73a73.63,73.63,0,0,0-7.08-2.7c-4-1.08-7.5-.89-7.5-1.14a18.38,18.38,0,0,1,14.57,3.84Z"/><path class="cls-11" d="M671.63,552.76a23.63,23.63,0,0,1-3.89-.89c-2.37-.62-5.67-1.42-9.37-2.16s-7-1.27-9.37-1.56a22,22,0,0,1-3.92-.69,17.18,17.18,0,0,1,4,.11,85.08,85.08,0,0,1,9.54,1.39,87.76,87.76,0,0,1,9.37,2.39A16.56,16.56,0,0,1,671.63,552.76Z"/><path class="cls-10" d="M1004.4,623.69s-25.71-21.57-30.63-22.34-12.87-1.56-14.76,0-48.83,14.06-48.83,14.06a12.71,12.71,0,0,0-5.54,6.64,4.59,4.59,0,0,0,2.78,5.7,16,16,0,0,0,9.57.53,8,8,0,0,0,1.14,8c3,3.78,12.4,1.56,12.4,1.56s-3.7,9.47,5.39,12.1c0,0-3.42,2.66,0,6.83s6.9,8.4,13.62,8,19.68,0,19.68,0h24.16a35.52,35.52,0,0,1,6.44-2.31c2.26-.37,14.06,2.22,14.06,2.22l4.59-39.8Z"/><path class="cls-11" d="M964.48,617.67a10.23,10.23,0,0,1-1.87.47l-5.14,1.06c-4.33.91-10.28,2.31-16.84,4s-12.5,3.12-16.84,4c-2.17.45-3.94.8-5.15,1a9,9,0,0,1-1.92.25,9,9,0,0,1,1.86-.56l5.09-1.25,16.78-4.25c6.56-1.64,12.5-3,16.92-3.72,2.19-.39,4-.67,5.19-.81A8.15,8.15,0,0,1,964.48,617.67Z"/><path class="cls-11" d="M964,632.59a30,30,0,0,1-4.94.7c-3,.34-7.26.8-11.9,1.45s-8.79,1.42-11.81,2a37.93,37.93,0,0,1-4.89.92,25.63,25.63,0,0,1,4.76-1.48A113,113,0,0,1,947,633.95c4.69-.66,8.89-1,12-1.23A27.73,27.73,0,0,1,964,632.59Z"/><path class="cls-11" d="M964.48,648.93a21.32,21.32,0,0,1-4.09,1.17,72.58,72.58,0,0,1-10.11,1.75A31.64,31.64,0,0,1,940,651a15,15,0,0,1-4-1.34,40.6,40.6,0,0,1,4.15.78,36,36,0,0,0,10.07.58,90.29,90.29,0,0,0,10.07-1.56A22.82,22.82,0,0,1,964.48,648.93Z"/><g id="freepik--Desk--inject-49"><rect class="cls-12" x="435.17" y="693.43" width="869.14" height="30.83"/><path class="cls-9" d="M435.17,693.5h17.46l50.26-.09,185.47-.2,616-.27h.63v32h-.63l-869.16-.48H435v-.16c0-10.59,0-18.31.09-23.43s0-7.43,0-7.43c0,1.09,0,9.87.17,30.83l-.17-.16,869.16-.5-.65.66V693.5l.65.64-615.5-.27-185.62-.19-50.37-.09H439.74Z"/><path class="cls-9" d="M619.3,693.88s0,.12-.28.33-.49.53-.91.94a17.93,17.93,0,0,1-4.37,2.83,28.74,28.74,0,0,1-8.4,2.3,73.12,73.12,0,0,1-11.72.41,138.29,138.29,0,0,1-14.09-1.31,150.79,150.79,0,0,0-16.06-1.56c-11.38-.33-23.77,2.08-36.14,5.69s-24,7.68-35.06,10.17a117.46,117.46,0,0,1-16,2.59,82.57,82.57,0,0,1-14.2,0,56.79,56.79,0,0,1-19.5-5,31.73,31.73,0,0,1-6.08-3.64,2.37,2.37,0,0,1,.41.22l1.18.7a40.29,40.29,0,0,0,4.61,2.39,57.81,57.81,0,0,0,19.37,4.69,82.81,82.81,0,0,0,14,0A117.8,117.8,0,0,0,492,712.93c11-2.51,22.52-6.61,35-10.23s25-6,36.53-5.65a149,149,0,0,1,16.16,1.64q6.94,1,14,1.41a74.42,74.42,0,0,0,11.59-.28,28.83,28.83,0,0,0,8.28-2.11A22.26,22.26,0,0,0,619.3,693.88Z"/><path class="cls-9" d="M524.22,694.35a23.21,23.21,0,0,1-2.63,1.83,66,66,0,0,1-7.95,4.14,79.9,79.9,0,0,1-29.85,6.42,77.89,77.89,0,0,1-30.3-5.06,18.85,18.85,0,0,1-7.31-4.86A7.38,7.38,0,0,1,445,695q-.28-.69-.22-.7a18.85,18.85,0,0,0,1.72,2.37,20.27,20.27,0,0,0,7.31,4.5,81.05,81.05,0,0,0,29.85,4.69,84,84,0,0,0,29.66-6.06,81.35,81.35,0,0,0,8-3.87A23.35,23.35,0,0,1,524.22,694.35Z"/><path class="cls-9" d="M728.2,713.89s.47.12,1.34.39a31.25,31.25,0,0,0,4,.87,28.62,28.62,0,0,0,15.22-1.94v.39a41.34,41.34,0,0,0-18.86-6,43.29,43.29,0,0,0-24.53,5.17,3.28,3.28,0,0,0-1.87,2,2.17,2.17,0,0,0,1.62,2,13.1,13.1,0,0,0,3.36,1l3.73.67c5,.91,10.11,1.8,15.43,2.42a111.15,111.15,0,0,0,16.4.91,73.24,73.24,0,0,0,8.43-.66c1.4-.19,2.8-.41,4.2-.7a24.91,24.91,0,0,0,4-1.08,13.57,13.57,0,0,0,5.26-3.12,4.11,4.11,0,0,0,1-4.69,8.89,8.89,0,0,0-4.12-3.73,37.29,37.29,0,0,0-5.77-2.3A95.87,95.87,0,0,0,733,701.44c-23.56-1-46.84,4.66-66,16.18-2.67,1.66-4.7,3-6,3.94l-1.53,1.06-.54.34a4.91,4.91,0,0,1,.47-.41l1.46-1.12c1.27-1,3.26-2.37,5.9-4.08A107.09,107.09,0,0,1,691.37,706a121.32,121.32,0,0,1,41.53-5.4,95.24,95.24,0,0,1,24.46,4.08,36.68,36.68,0,0,1,6,2.36,9.78,9.78,0,0,1,4.55,4.15,4.91,4.91,0,0,1-1.16,5.58A14.84,14.84,0,0,1,761,720.1a23.52,23.52,0,0,1-4.22,1.11c-1.42.31-2.85.53-4.29.73a75.46,75.46,0,0,1-8.56.66,110.85,110.85,0,0,1-16.59-.94c-5.37-.64-10.52-1.56-15.5-2.47l-3.73-.69a14.26,14.26,0,0,1-3.73-1.06,4.6,4.6,0,0,1-1.51-1.08,2,2,0,0,1-.56-1.66,4.06,4.06,0,0,1,2.29-2.55A44.33,44.33,0,0,1,729.78,707a41.76,41.76,0,0,1,19.16,6.25l.34.22-.39.17a28.51,28.51,0,0,1-15.54,1.75A20.35,20.35,0,0,1,728.2,713.89Z"/><path class="cls-9" d="M840,694.67a4.28,4.28,0,0,1,.86,1.56,9.65,9.65,0,0,1,.56,4.69c-.28,4-3.28,9.18-8.45,13.46a42.49,42.49,0,0,1-7.91,5.45,40.26,40.26,0,0,1-7.63,3,44.4,44.4,0,0,1-5.6,1.12,8.61,8.61,0,0,1-2.07.14c0-.16,2.91-.5,7.35-1.84a43.21,43.21,0,0,0,7.35-3.12,44.1,44.1,0,0,0,7.67-5.39c5.06-4.17,8-9.12,8.49-12.92A14,14,0,0,0,840,694.67Z"/><path class="cls-9" d="M996.08,722.63a45.4,45.4,0,0,0-4-3.12,31.92,31.92,0,0,0-13.58-5,37,37,0,0,0-10.35.25,55.45,55.45,0,0,1-12.13.91c-4.46-.34-8.45-2.53-12.07-4.81A44.2,44.2,0,0,0,931.8,705a54.37,54.37,0,0,0-26.94-.33,70.67,70.67,0,0,0-19.94,8.15,104.53,104.53,0,0,0-11.55,8l-3,2.3a6.48,6.48,0,0,1-1.06.8,7.94,7.94,0,0,1,.91-.92c.62-.58,1.57-1.42,2.82-2.48a92.08,92.08,0,0,1,11.4-8.25,69.85,69.85,0,0,1,20.11-8.48,55.34,55.34,0,0,1,27.59.3,44.44,44.44,0,0,1,12.41,6c3.6,2.3,7.37,4.36,11.55,4.69A55.61,55.61,0,0,0,968,714a37.8,37.8,0,0,1,10.6-.14,31.2,31.2,0,0,1,13.75,5.33A16.13,16.13,0,0,1,996.08,722.63Z"/><path class="cls-9" d="M1135.43,693.72a7.25,7.25,0,0,1-1,1,40.79,40.79,0,0,1-3,2.87,78.55,78.55,0,0,1-12.69,9.14,110.11,110.11,0,0,1-22,9.9,105.85,105.85,0,0,1-14.2,3.67,88,88,0,0,1-15.88,1.66,94.24,94.24,0,0,1-30.13-5.08,108.92,108.92,0,0,1-21.9-10.07,82.87,82.87,0,0,1-12.59-9.23c-1.4-1.17-2.29-2.2-3-2.86a11.11,11.11,0,0,1-1-1,6.05,6.05,0,0,1,1.14.94c.73.61,1.68,1.56,3.12,2.73a87.8,87.8,0,0,0,12.74,9,110.35,110.35,0,0,0,21.81,9.82,94.63,94.63,0,0,0,29.74,5,90.5,90.5,0,0,0,15.67-1.56,105.44,105.44,0,0,0,14.07-3.59,114.23,114.23,0,0,0,21.94-9.65,86.34,86.34,0,0,0,12.8-8.93c1.44-1.12,2.37-2.14,3.1-2.75A7.47,7.47,0,0,1,1135.43,693.72Z"/><path class="cls-9" d="M1115.52,693.5a3.48,3.48,0,0,1-.73.48c-.52.28-1.25.73-2.26,1.23a108.75,108.75,0,0,1-22.39,8.54,73.41,73.41,0,0,1-17.95,2.48,88,88,0,0,1-31.87-6.53,77.29,77.29,0,0,1-8.62-4.11c-1-.53-1.7-1-2.2-1.31a4,4,0,0,1-.71-.5,30.3,30.3,0,0,1,3.13,1.56q4.24,2.11,8.73,3.84a91.67,91.67,0,0,0,31.53,6.25,74.79,74.79,0,0,0,17.57-2.58,117,117,0,0,0,13.73-4.33c3.73-1.47,6.77-2.78,8.81-3.73A31.09,31.09,0,0,1,1115.52,693.5Z"/><path class="cls-9" d="M1204,696.63a4.16,4.16,0,0,1-1,0l-2.85-.14-2-.12h-8.41l-3.45.16-3.73.34c-2.59.19-5.3.69-8.17,1.08a144.59,144.59,0,0,0-18.17,4.39,141.94,141.94,0,0,0-17.09,6.79c-2.44,1.28-4.85,2.42-6.9,3.69l-3.06,1.78-2.69,1.78c-1.75,1.09-3.21,2.2-4.52,3.12l-1.87,1.33c-.5.44-1,.83-1.44,1.2l-2,1.64a5.28,5.28,0,0,1-.76.53,3.71,3.71,0,0,1,.6-.66l1.87-1.75,1.38-1.27,1.75-1.39c1.27-1,2.71-2.16,4.44-3.3l2.67-1.81,3-1.84c2.05-1.31,4.46-2.48,6.92-3.8a124.89,124.89,0,0,1,35.45-11.29c2.91-.36,5.6-.84,8.27-1l3.73-.31,3.51-.09q3-.13,6,0h2.46l2.05.2,2.84.31A3.77,3.77,0,0,1,1204,696.63Z"/><path class="cls-9" d="M1011.79,722a33.65,33.65,0,0,0-4.78-4.69,47.76,47.76,0,0,0-17.52-7.93A114.92,114.92,0,0,0,975.83,707c-5-.64-10.37-1.14-16-1.94a161.25,161.25,0,0,1-17.35-3.53A136.93,136.93,0,0,0,924,697.86a93.82,93.82,0,0,0-36.08,4,148.92,148.92,0,0,0-14.66,5.34c-4.5,1.87-8.62,3.72-12.35,5.42-7.46,3.44-13.43,6.37-17.54,8.4l-4.74,2.34-1.23.59q-.41.22-.45.19l.39-.25,1.18-.67c1-.59,2.59-1.44,4.63-2.5,4-2.12,9.93-5.12,17.39-8.64,3.73-1.75,7.82-3.62,12.31-5.53a146.59,146.59,0,0,1,14.74-5.45,94,94,0,0,1,36.53-4.09,134.88,134.88,0,0,1,18.66,3.67A161.26,161.26,0,0,0,960,704.3c5.6.8,11,1.33,16,2a113.65,113.65,0,0,1,13.77,2.56,46.65,46.65,0,0,1,17.56,8.29A19,19,0,0,1,1011.79,722Z"/><path class="cls-9" d="M815.89,693.88a5.25,5.25,0,0,1-.11,2,19.3,19.3,0,0,1-1.72,5.2,31.68,31.68,0,0,1-13.36,13.87,100.92,100.92,0,0,1-19.8,7.4c-2.65.7-4.81,1.22-6.32,1.56a12.42,12.42,0,0,1-2.37.41,11.56,11.56,0,0,1,2.26-.72l6.19-1.81a114.43,114.43,0,0,0,19.46-7.53,33.14,33.14,0,0,0,13.25-13.37A34.17,34.17,0,0,0,815.89,693.88Z"/><path class="cls-9" d="M614.17,724.26a14.71,14.71,0,0,1,2.11-1.66c1.4-1,3.51-2.44,6.19-4.11a189.7,189.7,0,0,1,22.16-11.59c9-4,17.46-7.25,23.58-9.53,3.08-1.14,5.6-2,7.29-2.64a18,18,0,0,1,2.74-.86A16.29,16.29,0,0,1,675.7,695l-7.2,2.89c-6,2.42-14.4,5.72-23.4,9.73A230.16,230.16,0,0,0,622.86,719c-2.72,1.56-4.91,2.92-6.38,3.87A15.86,15.86,0,0,1,614.17,724.26Z"/><path class="cls-9" d="M655.1,695.14c0,.09-2-.2-5.6,0a46.59,46.59,0,0,0-14.5,3.58c-5.82,2.3-11.94,6.11-18.84,10.25a98.48,98.48,0,0,1-11.34,6,72.89,72.89,0,0,1-13.56,4.23,153,153,0,0,1-27.76,2.7c-8.6.22-16.31.08-22.78.28a136.84,136.84,0,0,0-15.24,1.22c-1.87.27-3.15.48-4.09.66a8.56,8.56,0,0,1-1.44.22,8.92,8.92,0,0,1,1.38-.37c.91-.23,2.29-.52,4.07-.83a119.79,119.79,0,0,1,15.28-1.56c6.49-.3,14.24-.22,22.78-.47A157.22,157.22,0,0,0,591,718.26a71.64,71.64,0,0,0,13.34-4.14,105.92,105.92,0,0,0,11.19-5.86c6.9-4.09,13.06-7.9,19.09-10.17a45.25,45.25,0,0,1,14.8-3.36,32.09,32.09,0,0,1,4.2.11A7.63,7.63,0,0,1,655.1,695.14Z"/><path class="cls-9" d="M1224.31,724.26a15.87,15.87,0,0,1,2.13-1.66c1.4-1,3.51-2.44,6.18-4.11a192.79,192.79,0,0,1,22.16-11.59c9-4,17.48-7.25,23.6-9.53,3.06-1.14,5.6-2,7.29-2.64a19,19,0,0,1,2.72-.86,15.25,15.25,0,0,1-2.56,1.17l-7.13,2.89c-6,2.42-14.42,5.72-23.41,9.73A229.57,229.57,0,0,0,1233.08,719c-2.72,1.56-4.91,2.92-6.38,3.87A15.43,15.43,0,0,1,1224.31,724.26Z"/><path class="cls-9" d="M1265.26,695.14c0,.09-2-.2-5.6,0a46.68,46.68,0,0,0-14.52,3.58c-5.8,2.3-11.94,6.11-18.83,10.25a98.48,98.48,0,0,1-11.34,6,72.89,72.89,0,0,1-13.56,4.23,153.12,153.12,0,0,1-27.76,2.7c-8.6.22-16.32.08-22.8.28a136.84,136.84,0,0,0-15.22,1.22c-1.77.27-3.15.48-4.09.66a8.78,8.78,0,0,1-1.44.22,8.12,8.12,0,0,1,1.38-.37c.91-.23,2.28-.52,4.07-.83a119.5,119.5,0,0,1,15.28-1.56c6.49-.3,14.22-.22,22.78-.47a156.84,156.84,0,0,0,27.52-2.75,70.78,70.78,0,0,0,13.34-4.14,104.44,104.44,0,0,0,11.19-5.86c6.88-4.09,13.06-7.9,19.07-10.17a45.53,45.53,0,0,1,14.81-3.36,32.09,32.09,0,0,1,4.2.11A8.07,8.07,0,0,1,1265.26,695.14Z"/><path class="cls-9" d="M1197.18,693.3c0,.23-36.33.44-81.12.44s-81.14-.2-81.14-.44,36.33-.44,81.14-.44S1197.18,693.07,1197.18,693.3Z"/></g></svg>