<svg id="Layer_1" data-name="Layer 1" xmlns="http://www.w3.org/2000/svg" xmlns:xlink="http://www.w3.org/1999/xlink" viewBox="0 0 628 1080"><defs><style>.cls-1{fill:#fff;}.cls-2{opacity:0.39;}.cls-3{clip-path:url(#clip-path);}.cls-4{clip-path:url(#clip-path-2);}</style><clipPath id="clip-path"><rect class="cls-1" x="348.85" y="734.06" width="2.08" height="0.56"/></clipPath><clipPath id="clip-path-2"><rect class="cls-1" x="296.73" y="734.37" width="2.07" height="0.53"/></clipPath></defs><title>logo</title><path class="cls-1" d="M405.88,276.86l-4.8,43L445,293.9l85.44-178.56L405.88,276.86"/><path class="cls-1" d="M399.64,333.74l36.85-20.12L415.33,359.5,396,367.34l3.6-33.6"/><path class="cls-1" d="M395.32,376.22l15.08-5.16-11.48,30.36-7.68,3.36,4.08-28.56"/><path class="cls-1" d="M323.68,178.7l-73.8,97.92,22,267.05,51.79,24.79,51.79-24.79,22-267.05Z"/><path class="cls-1" d="M241.48,276.86l4.8,43L202.36,293.9,116.92,115.34,241.48,276.86"/><path class="cls-1" d="M247.72,333.74l-36.85-20.12L232,359.5l19.29,7.85-3.6-33.6"/><path class="cls-1" d="M252,376.22,237,371.06l11.48,30.36,7.68,3.36L252,376.22"/><rect class="cls-1" x="322.84" y="766.7" width="1.56" height="51.14"/><path class="cls-1" d="M323.68,823.85A14.16,14.16,0,1,0,337.84,838a14.16,14.16,0,0,0-14.16-14.16m0,26.33A12.17,12.17,0,1,1,335.85,838a12.17,12.17,0,0,1-12.17,12.17"/><path class="cls-1" d="M395.07,845.61h0q-18.36-53.11-36.74-106.2l-2.66.95,36.35,104,.7,2h0c-.75.26-1.5.54-2.25.82a96.67,96.67,0,0,0-9.25,4.1,98.08,98.08,0,0,0-53.79,87.54c0,.19,0,.38,0,.57a12.44,12.44,0,0,0-3-.54V858.19H322.9V938.9a12.65,12.65,0,0,0-3.65.77l-.25.06c0-.19,0-.38,0-.57a98.08,98.08,0,0,0-53.79-87.54,96.69,96.69,0,0,0-9.25-4.1c-.75-.28-1.5-.56-2.25-.82h0l.7-2,36.35-104-2.66-.95q-18.36,53.11-36.74,106.2h0a2.4,2.4,0,0,0-.25,1.07h0a2.43,2.43,0,0,0,1.64,2.3h0A93.06,93.06,0,0,1,264,854.08a95.33,95.33,0,0,1,52.28,85.08c0,.61,0,1.22,0,1.82a12.75,12.75,0,0,0-2.47,19.93,12.41,12.41,0,0,0,2.38,1.87,14.45,14.45,0,0,0,14.19-.29,12.39,12.39,0,0,0,2.38-1.87,12.75,12.75,0,0,0-2.47-19.93c0-.6,0-1.21,0-1.82a95.33,95.33,0,0,1,52.28-85.08A93,93,0,0,1,393.68,849h0a2.43,2.43,0,0,0,1.64-2.3h0a2.4,2.4,0,0,0-.25-1.07"/><path class="cls-1" d="M432.76,557.06,436,531.14l-43.08-25.08L390,533.18l22.36,11.41-9.88,5.63q-.72,53.64-1.44,107.28l19.08-4.68q1.08-10.08,2.16-20.16L408.64,637q.18-14,.36-28.08l16.2-4.32q.9-9.54,1.8-19.08l-18,4.68q.49-11.7,1-23.39l22.76-9.73m-40.32-25.32,2.88-20.88,38.29,21.64L422,539.12l-7.4,4.22-22.16-11.6"/><path class="cls-1" d="M398.2,552.38l-2.88,106.56-24.84,7.92q-1-49.14-2-98.27l8.87-4.8q0,42,0,84l11.9-4.32q.18-42.84.35-85.68l8.64-5.4"/><path class="cls-1" d="M369.4,667l-8.64-17.85q-.06-19.48-.27-39.23-.21-19.17-.56-38.08L326.56,586.7q.71,46.08,1.42,92.16l32.45-9.45q-.06-5.1-.12-10.2l4.29,9.06,2.09-.56,2.71-.73m-16.92-13.32-17.8,5.76q0-27.48,0-55l17.75,38.22q0,5.49,0,11m.12-22.86-14.82-33.12,8-3.36,7-2.94c0,4.57-.08,14.16-.1,18.73,0,5.4-.09,15.29-.13,20.69"/><path class="cls-1" d="M319.75,678.86l-21.39-46.08L319.48,645q.24-29.16.48-58.32l-30.27-13.44q0,47.64,0,95.28l8.16,3.6-.6-25.68,13.19,29.31,9.28,3.09M297.88,620.3q-.44-16.89-.88-33.79l15,6.43q-.24,17.83-.47,35.65l-13.67-8.3"/><path class="cls-1" d="M284.68,599.66,260,587.18q1.68,35.76,3.36,71.52l21.6,8.64q-.12-33.84-.24-67.68M269,649.23l-2.35-45,11.31,5,.69,44L269,649.23"/><path class="cls-1" d="M284.92,571.34l-50.26-26L261,533.66l-2.16-27.36-46.44,27.6L217.06,563l19.64,9.53q4.3,40,8.62,79.92l13,4.8L253.87,579l30.57,14.62.48-22.32m-70.58-36.46,43.22-25.34,1.63,22.91-26.35,11.89q-4.81-2.41-9.67-4.9-4.45-2.28-8.83-4.56"/><path class="cls-1" d="M360.74,720.17a14.58,14.58,0,0,1-1.21,5.84,14.8,14.8,0,0,1-8.6,8c-.69.2-1.38.38-2.08.56h0a103,103,0,0,1-50,.27c-.7-.16-1.39-.34-2.07-.53a14.72,14.72,0,0,1-9.59-17.44,14.33,14.33,0,0,1,1.92-4.48c1.37.53,2.77,1,4.18,1.48a97.84,97.84,0,0,0,60.42,0q2.41-.78,4.77-1.7a14.52,14.52,0,0,1,1.91,4.48,14.94,14.94,0,0,1,.4,3.42"/><path class="cls-1" d="M366.94,680.28a14.67,14.67,0,0,0-2.36-8L359.82,674a10.06,10.06,0,0,1-1.74,14.71q-2.75,1-5.57,1.88h0c-2.67.83-5.4,1.53-8.16,2.11a98,98,0,0,1-41.34-.19c-2.5-.55-5-1.2-7.39-1.94q-3.88-1.19-7.64-2.69a10,10,0,0,1-.75-13.88l-4.76-1.74a14.67,14.67,0,0,0,1.63,18.07,9.14,9.14,0,0,0-.39,1,14.39,14.39,0,0,0-.75,4.62,14.7,14.7,0,0,0,7.2,12.66q3.16,1.13,6.42,2a102.68,102.68,0,0,0,57.1-.59l.11,0a14.75,14.75,0,0,0,9.26-8.58,14.48,14.48,0,0,0,1.06-5.48,14.81,14.81,0,0,0-.6-4.18,12.68,12.68,0,0,0-.54-1.48,14.63,14.63,0,0,0,4-10.07m-7.54,16a10,10,0,0,1-4.32,8.25c-2,.67-4,1.27-6,1.79-2.66.72-5.37,1.31-8.11,1.79a98.33,98.33,0,0,1-34.71-.17q-3.76-.69-7.42-1.68-4-1.06-7.86-2.47a10,10,0,0,1-3.37-7.51,9.76,9.76,0,0,1,.44-2.93l.06-.19c1.64.62,3.31,1.2,5,1.73a98.19,98.19,0,0,0,14.4,3.43c1.51.26,3,.47,4.57.64a101.63,101.63,0,0,0,12,.71,100.21,100.21,0,0,0,10.86-.58c1.54-.15,3.08-.35,4.6-.58a101.88,101.88,0,0,0,19.47-5,10.27,10.27,0,0,1,.37,2.73"/><g class="cls-2"><rect class="cls-1" x="348.85" y="734.06" width="2.08" height="0.56"/><g class="cls-3"><path class="cls-1" d="M350.93,734.06a15.92,15.92,0,0,1-2.08.56c.7-.18,1.39-.36,2.08-.56"/></g></g><path class="cls-1" d="M288.13,693.18c1.64.62,3.31,1.2,5,1.73a14.42,14.42,0,0,1-5.05-1.54l.06-.19"/><path class="cls-1" d="M296.56,710.69a14.39,14.39,0,0,1-6.42-2q3.16,1.13,6.42,2"/><g class="cls-2"><rect class="cls-1" x="296.73" y="734.37" width="2.07" height="0.53"/><g class="cls-4"><path class="cls-1" d="M296.73,734.37c.68.19,1.37.37,2.07.53a15.85,15.85,0,0,1-2.07-.53"/></g></g></svg>