<svg id="Layer_1" data-name="Layer 1" xmlns="http://www.w3.org/2000/svg" viewBox="0 0 1042 378"><defs><style>.cls-1{fill:#e21c2c;}.cls-2{fill:#040404;}.cls-3{fill:#4f4f4f;}</style></defs><title>torque_text</title><g id="svgg"><path id="path0" class="cls-1" d="M72.54,92.51c0,16.72.08,23.47.18,15s.1-22.15,0-30.4-.18-1.32-.18,15.4m119.73,1c-5.22,5.22-9.34,9.5-9.17,9.5s4.59-4.27,9.8-9.5,9.34-9.5,9.17-9.5-4.59,4.28-9.8,9.5m39.9,7.6c-5.22,5.22-9.34,9.5-9.17,9.5s4.59-4.28,9.8-9.5,9.34-9.5,9.17-9.5-4.58,4.28-9.8,9.5m26.88,33.41-2.18,2.37,2.37-2.18c2.21-2,2.67-2.57,2.18-2.57a21.92,21.92,0,0,0-2.37,2.37m-17.73,17.1-2.18,2.37,2.37-2.18a21.6,21.6,0,0,0,2.37-2.37c0-.48-.53,0-2.57,2.18m-17.73,17.1L221.41,171l2.37-2.18a21.6,21.6,0,0,0,2.37-2.37c0-.48-.53,0-2.57,2.18m45,3.17-2.18,2.37,2.38-2.18a21.62,21.62,0,0,0,2.37-2.37c0-.48-.54,0-2.57,2.18m-62.7,13.93-2.18,2.37L206,186a21.6,21.6,0,0,0,2.37-2.37c0-.48-.53,0-2.57,2.18M370.24,199.6c-8.36,7.84-15.87,14.91-16.69,15.73l-1.49,1.48,17,15.95,17,16,.18-10.54.17-10.54,3.31.43c18.25,2.36,35.71,18.35,39.41,36.1,8.88,42.55-39.41,73.35-74,47.19-25.31-19.16-24-57.83,2.57-75.68l4-2.67-3-2.75c-1.66-1.51-5.57-5.16-8.69-8.1l-5.67-5.35,4.86-4.66c5.57-5.33,5.54-5.47-.47-2.4-42.06,21.58-53.08,75.16-22.88,111.2s88.27,35,116.78-1.93c31.3-40.5,13.28-97.81-35.86-114-5-1.65-8.73-2.41-17.38-3.52l-3-.39v-7.88c0-4.33-.21-7.87-.48-7.85s-7.31,6.44-15.67,14.27M250.82,188.94l-2.18,2.38,2.38-2.18a21.62,21.62,0,0,0,2.37-2.37c0-.48-.54,0-2.57,2.18m-62.7,13.94-2.18,2.37,2.37-2.18a21.2,21.2,0,0,0,2.37-2.38c0-.48-.53,0-2.57,2.18m478.7-1.28a32,32,0,0,0,5.07,0c1.3-.14.08-.25-2.71-.24s-3.85.11-2.36.25M233.4,205.72l-1.86,2.06,2.06-1.86a15.78,15.78,0,0,0,2.06-2.06c0-.49-.52-.06-2.26,1.86m626.4,38.79c0,22.29.08,31.32.18,20.06s.1-29.5,0-40.53-.18-1.82-.18,20.47M170.39,220l-2.18,2.37,2.37-2.18c2.21-2,2.67-2.56,2.18-2.56a21.19,21.19,0,0,0-2.38,2.37M280.14,282,280,344.9l-64.44.16-64.44.16,64.46.16c51.1.12,64.53,0,64.77-.64.17-.44.23-28.87.14-63.18l-.17-62.38L280.14,282M216,222.51l-2.18,2.37,2.37-2.18c2.21-2,2.67-2.57,2.18-2.57a21.91,21.91,0,0,0-2.37,2.37m700.64,5.06c3.73.11,10,.11,13.94,0s.89-.2-6.78-.2-10.88.09-7.16.2M153,236.76l-1.86,2.06,2.06-1.86c1.92-1.74,2.35-2.26,1.86-2.26a15.7,15.7,0,0,0-2.06,2.06m45.29,2.85L196.07,242l2.37-2.18c2.21-2,2.67-2.57,2.18-2.57a21.6,21.6,0,0,0-2.37,2.37m-47.2,13.14c0,7.66.09,10.71.21,6.77s.11-10.21,0-13.93-.2-.51-.2,7.16m805.17,8.39,45.74.17.2,10.76.2,10.76,0-10.92,0-10.93H910.49l45.74.17M184.64,286.32c0,11.14.09,15.62.19,9.94s.1-14.8,0-20.27-.19-.81-.19,10.33M512.9,268.1c2.87.12,7.58.12,10.45,0s.52-.21-5.22-.21-8.1.1-5.22.21m-26.88.64c4.11.11,10.67.11,14.57,0s.53-.2-7.48-.2-11.2.09-7.09.2M595,274.28c0,2.44.12,3.36.25,2a23.45,23.45,0,0,0,0-4.43c-.14-1.13-.25-.05-.25,2.39M684,306.43a35.92,35.92,0,0,0,3,3c.48,0,0-.57-2.82-3.19l-3-2.82,2.82,3m56.45,24.3c.84,1.09,1.66,1.86,1.81,1.72s-.53-1-1.53-2L739,328.75l1.53,2m-29.76,3.57c.15.09,1.55,1.3,3.11,2.69l2.84,2.53-2.51-2.69c-1.38-1.48-2.78-2.69-3.11-2.69s-.49.07-.34.16"/><path id="path1" class="cls-2" d="M39.32,92.51v63l68.88,0,68.88,0,43.38-43,43.38-43,42.75.14,42.75.14v60.8l-42.9.16-42.9.16-56,54-56,54,0,24.07c0,13.24.16,37.11.39,53l.42,29H280V220.46l-16.47,16.46-16.46,16.46V312h-62.7V252.64l46.39-44.74,46.39-44.74H382v-126l-66,0-66,0-43.38,43-43.38,43-45.44,0-45.44,0V61.79h78.86l16.14-16.15,16.14-16.15H39.32v63m619.2,109.91c-59.83,9.41-84,80.23-41.91,122.57a74.29,74.29,0,0,0,90.48,11.55l4.36-2.55,7.21,7.19,7.21,7.19,8-8,8-8-7.09-6.87-7.09-6.87,2.29-3.17c36.68-50.65-9-122.86-71.48-113m-179.66,12.3v9.85h25.22c21,0,25.79.16,28.66,1,19.7,5.69,22.12,31.7,3.76,40.4-4.55,2.15-14,2.76-45.13,2.89l-12.51.05v76h26.6V289l9.34.22c19.79.46,24.11,5.2,34.23,37.58l5.54,17.73,14.71.17c8.09.1,14.71,0,14.71-.18a25.13,25.13,0,0,0-1.5-3.34c-.83-1.64-4.56-11.68-8.29-22.3-9.1-25.88-12.3-31.33-20.84-35.43L550.29,282l4.77-2.49c30.68-16,27-60.6-6-72.57l-4.65-1.69-32.77-.2-32.78-.2v9.85m284.53,35c.23,49.63.1,48,4.68,59.6,19.59,49.72,93.08,50.86,113.52,1.75,5.45-13.09,5.77-16.76,5.77-65V204.93H860.19l-.2,43.54L859.8,292l-1.48,4.43c-10,29.89-50.65,33.65-63.73,5.89-4.54-9.63-4.37-7.57-4.6-54.81l-.21-42.59H763.19l.21,44.81M910.17,216V227.1h92.47V204.93H910.17V216M680.5,228.34c28.81,7.37,44.17,38.82,31.95,65.42-3,6.45-2.69,6.48-9.8-1.08L696.37,286l-8.1,8.12-8.1,8.12,6.51,6.05c7.59,7.06,7.59,7,0,9.9-38.21,14.7-76.21-22.14-62-60.07,8.47-22.56,32.94-35.64,55.75-29.81M910.17,303.1v41.8h92.47V321.47H936.75l.17-19.48.17-19.48,32.46-.16,32.46-.17V261.3H910.17v41.8"/><path id="path2" class="cls-3" d="M111.2,29.34l72.2.16L167.25,45.8,151.1,62.11,167.41,46c9-8.88,16.31-16.36,16.31-16.63s-32.56-.41-72.36-.32L39,29.17l72.2.16m115,31L202.41,84.28l23.75-23.59,23.76-23.59H382v126H277.09l-3.14,3.33-3.14,3.33,3.19-3,3.18-3,52.55-.16,52.55-.16.16-63.49.16-63.49H249.9L226.15,60.37M91.73,62.27c10.89.1,28.7.1,39.59,0s2-.18-19.79-.18-30.68.08-19.79.18m161,18.36L241.67,91.88,252.76,81,263.85,70H349V130.2H306.35c-39.89,0-42.73.07-43.54,1.11s-.75,1,.14.32,10.85-.83,43.7-1l42.69-.16V69.71l-42.75-.16-42.75-.16L252.75,80.63M173,112.78l-9.8,9.81-45.61.17-45.61.17,45.61.15,45.61.15,10.12-10.13c5.56-5.57,10-10.13,9.8-10.13s-4.73,4.42-10.11,9.81M199.56,133l-22.47,22.48-69,.16-69,.17,69,.15,69,.15,22.79-22.8c12.54-12.54,22.65-22.8,22.48-22.8S211.92,120.68,199.56,133m51,10-6.32,6.49,6.49-6.32c3.57-3.48,6.49-6.4,6.49-6.49,0-.46-.79.29-6.66,6.32m-17.73,17.1-6.32,6.49,6.49-6.32c3.57-3.47,6.49-6.4,6.49-6.49,0-.46-.79.29-6.66,6.32m-17.73,17.1-6.32,6.49,6.49-6.32c6-5.87,6.78-6.66,6.32-6.66-.09,0-3,2.92-6.49,6.49m44.65,2.85-6.64,6.81,6.81-6.64c3.74-3.65,6.81-6.71,6.81-6.81,0-.46-.81.32-7,6.64m-62.38,14.25L191,200.81l6.49-6.32c3.57-3.48,6.49-6.4,6.49-6.49,0-.46-.79.29-6.66,6.32M242,197.17,235.34,204l6.81-6.64c3.74-3.65,6.81-6.72,6.81-6.81,0-.46-.81.32-7,6.64m252,7.6c8.47.1,22.15.1,30.4,0s1.32-.18-15.4-.18-23.47.08-15,.18m268.81,41.49.15,42,.17-41.64.17-41.64h26.58l.17,41,.17,41,.15-41.33.15-41.33H762.6l.15,42m110.83-41.49,13.77.18.17,39.73.17,39.73.15-40.06L888,204.3l-14.09.15-14.09.15,13.77.18m82.64,0,46.38.17.2,10.92.19,10.92,0-11.09,0-11.08h-93.1l46.38.17m-776.64,6.65-6.32,6.49,6.49-6.32c3.57-3.48,6.49-6.4,6.49-6.49,0-.46-.79.29-6.66,6.32m45,2.53-6.32,6.49,6.49-6.32c6-5.87,6.78-6.66,6.32-6.66-.1,0-3,2.92-6.49,6.49m38.64,22.8-16.46,16.63,16.63-16.46c15.45-15.3,16.91-16.79,16.46-16.79-.09,0-7.57,7.48-16.63,16.63M721.75,223.3a17.5,17.5,0,0,0,2.79,2.54,11.05,11.05,0,0,0-2.16-2.54,17.85,17.85,0,0,0-2.79-2.53,10.91,10.91,0,0,0,2.16,2.53m-559.89,5.23L155.54,235l6.49-6.32c3.57-3.48,6.49-6.4,6.49-6.49,0-.46-.79.29-6.66,6.32m45,2.53-6.32,6.49,6.49-6.32c6-5.87,6.78-6.66,6.32-6.66-.1,0-3,2.92-6.49,6.49m278.49-6c3.72.11,10,.11,13.93,0s.89-.2-6.77-.21-10.89.09-7.16.21m216.8,16a37.43,37.43,0,0,0,4.08,3.8,27.3,27.3,0,0,0-3.44-3.8,37.39,37.39,0,0,0-4.07-3.8,27,27,0,0,0,3.44,3.8m-66.84.48-3.46,3.64,3.64-3.46c3.38-3.22,3.93-3.82,3.46-3.82-.1,0-1.74,1.64-3.64,3.64m-445.55,6L184,253.38l5.86-5.69c5.44-5.28,6.15-6,5.69-6-.09,0-2.73,2.64-5.86,5.86m359-.48c0,2.09.12,2.87.26,1.73a16.86,16.86,0,0,0,0-3.8c-.14-1-.26,0-.26,2.07m167.85,27.23c0,2.44.12,3.36.26,2a23.69,23.69,0,0,0,0-4.43c-.14-1.13-.25-.05-.25,2.39m26.59,0c0,2.09.12,2.87.26,1.73a16.72,16.72,0,0,0,0-3.8c-.15-1-.26,0-.26,2.07m-121.64,0c0,1.39.14,1.89.29,1.1a6.93,6.93,0,0,0,0-2.53c-.16-.61-.28,0-.28,1.43m315.67,8.34c-.23.23-.42,9.07-.42,19.64v19.21h65.84l.19,11.88.2,11.87,0-12,0-12L970.18,321l-32.77-.16v-38l32.46-.17,32.46-.17L970,282.35c-17.79-.09-32.54,0-32.78.27m-77.54,4c0,1.22.13,1.72.29,1.11a5.17,5.17,0,0,0,0-2.22c-.16-.61-.29-.11-.29,1.11m-171.8,7.44-7.91,8.07,8.07-7.91c7.5-7.35,8.36-8.24,7.91-8.24-.09,0-3.72,3.63-8.07,8.07m-182.1,23c0,15.5.08,21.84.18,14.09s.1-20.44,0-28.18-.18-1.41-.18,14.09m194.14-27.2c0,1.66,9.38,9.42,10.16,8.4s.74-1,0-.34-1.68,0-5.51-3.79a41.89,41.89,0,0,0-4.62-4.27m-166.57,4.6a15.78,15.78,0,0,0,2.06,2.06l2.06,1.86-1.86-2.06c-1.74-1.92-2.26-2.35-2.26-1.86M151.7,325.58c0,10.8.09,15.31.19,10s.11-14.13,0-19.63-.19-1.18-.19,9.62m32.83-16.47c0,1.74.13,2.38.27,1.42a11.27,11.27,0,0,0,0-3.17c-.15-.78-.27,0-.26,1.75M690.08,312a17.78,17.78,0,0,0,2.79,2.54,11,11,0,0,0-2.16-2.54,17.59,17.59,0,0,0-2.79-2.53,11,11,0,0,0,2.15,2.53m43.07,12a81.08,81.08,0,0,0,6,5.7,64.84,64.84,0,0,0-5.36-5.7,80.12,80.12,0,0,0-6-5.7,65.2,65.2,0,0,0,5.36,5.7m87.57-3.35a6.93,6.93,0,0,0,2.53,0c.61-.16,0-.28-1.43-.28s-1.89.14-1.1.29m6.64,0a5.26,5.26,0,0,0,2.22,0c.61-.16.11-.29-1.11-.29s-1.72.13-1.11.29M616.3,325.58a13.84,13.84,0,0,0,2.47,2.22c.18,0-.65-1-1.83-2.22a13.84,13.84,0,0,0-2.47-2.22c-.18,0,.65,1,1.83,2.22m164.64,4.28c2.62,2.79,3.19,3.3,3.19,2.82a35.46,35.46,0,0,0-3-3l-3-2.82,2.82,3m87.72.63-3.14,3.32,3.32-3.14a43.79,43.79,0,0,0,3.33-3.33c0-.47-.59.05-3.51,3.14m-135,10.12-7.75,7.75L721,343.63,716,338.9,721,344l4.91,5.06,8.07-8.07c4.44-4.44,7.93-8.07,7.75-8.07s-3.8,3.49-8.07,7.75m-66.17,6.65a16.86,16.86,0,0,0,3.8,0c1-.14,0-.26-2.07-.26s-2.87.12-1.73.26m151,0a5.15,5.15,0,0,0,2.21,0c.61-.16.11-.29-1.11-.29s-1.72.13-1.11.29m11.72,0a6.93,6.93,0,0,0,2.53,0c.61-.16,0-.28-1.43-.28s-1.89.14-1.1.29"/></g></svg>